<svg width="1090" height="430" viewBox="0 0 1090 430" fill="none" xmlns="http://www.w3.org/2000/svg">
<ellipse cx="939.685" cy="120.271" rx="150.315" ry="100.333" fill="#3F3D56" fill-opacity="0.2"/>
<g clip-path="url(#clip0_23_180)">
<path d="M949.391 67.983C949.48 68.0018 949.567 68.0056 949.654 67.9945C949.741 67.9831 949.827 67.9569 949.903 67.9129C950.061 67.8218 950.17 67.673 950.22 67.5035C950.239 67.4146 950.252 67.329 950.237 67.2362C950.226 67.1491 950.194 67.0664 950.15 66.9902C950.106 66.9141 950.05 66.8449 949.981 66.7915C949.908 66.7322 949.827 66.7008 949.741 66.6729C949.483 66.6036 949.196 66.6996 949.034 66.9181C948.98 66.9878 948.94 67.0661 948.912 67.1524C948.871 67.3243 948.894 67.5136 948.982 67.6656C949.026 67.7418 949.087 67.8075 949.157 67.861C949.23 67.9201 949.304 67.9548 949.391 67.983L949.391 67.983Z" fill="black"/>
<path d="M951.482 66.7735C951.565 66.7958 951.653 66.7995 951.74 66.7883C951.827 66.7769 951.913 66.7507 951.989 66.7067C952.147 66.6156 952.256 66.4668 952.306 66.2973C952.353 66.1219 952.324 65.9361 952.236 65.784C952.148 65.632 952.002 65.5137 951.827 65.4667C951.569 65.3974 951.282 65.4934 951.12 65.7119C951.066 65.7816 951.026 65.8599 951.004 65.9429C950.957 66.1183 950.98 66.3075 951.068 66.4596C951.112 66.5357 951.173 66.6015 951.243 66.6549C951.315 66.714 951.39 66.7488 951.482 66.7735L951.482 66.7735Z" fill="black"/>
<path d="M953.567 65.5677C953.65 65.59 953.738 65.5937 953.825 65.5825C953.912 65.5711 953.998 65.5449 954.074 65.5009C954.232 65.4097 954.34 65.261 954.391 65.0915C954.41 65.0026 954.423 64.917 954.408 64.8242C954.397 64.7371 954.365 64.6544 954.321 64.5782C954.233 64.4261 954.087 64.3079 953.912 64.2609C953.654 64.1916 953.367 64.2875 953.205 64.506C953.151 64.5758 953.111 64.6541 953.088 64.7371C953.042 64.9125 953.065 65.1017 953.153 65.2538C953.197 65.3299 953.258 65.3957 953.327 65.4491C953.401 65.5081 953.475 65.543 953.567 65.5677L953.567 65.5677Z" fill="black"/>
<path d="M957.475 63.5349L964.777 59.3117C965.099 59.1259 965.21 58.7106 965.024 58.3888C964.839 58.067 964.424 57.9558 964.103 58.1416L956.8 62.3648C956.479 62.5506 956.368 62.9659 956.553 63.2877C956.739 63.6095 957.147 63.7241 957.475 63.5349Z" fill="black"/>
<path d="M977.465 58.8002L970.66 62.7356L966.687 55.8427C966.157 54.9242 964.978 54.6073 964.06 55.1378L946.653 65.205C945.736 65.7353 945.42 66.9166 945.949 67.8352L954.317 82.3521C954.846 83.2706 956.026 83.5874 956.943 83.0569L963.748 79.1214L967.721 86.0144C968.251 86.9329 969.43 87.2498 970.348 86.7192L987.755 76.6523C988.672 76.122 988.989 74.9406 988.459 74.0217L980.091 59.505C979.562 58.5865 978.382 58.2699 977.465 58.8003L977.465 58.8002ZM978.923 60.1805L980.582 63.0594L962.181 73.7007L960.522 70.8218C960.363 70.5468 960.457 70.1961 960.732 70.0373L978.139 59.9704C978.414 59.8116 978.764 59.9056 978.922 60.1806L978.923 60.1805ZM947.327 66.3754L964.735 56.3085C965.009 56.1497 965.359 56.2437 965.518 56.5187L967.177 59.3976L948.776 70.0389L947.117 67.16C946.958 66.885 947.052 66.5343 947.327 66.3755L947.327 66.3754ZM956.268 81.8872C955.993 82.0459 955.643 81.952 955.485 81.6769L949.451 71.2093L967.852 60.568L969.491 63.4116L960.057 68.8673C959.14 69.3976 958.824 70.579 959.354 71.4979L963.077 77.9576L956.272 81.8931L956.268 81.8872ZM987.081 75.4821L969.673 85.5491C969.398 85.7078 969.048 85.6139 968.89 85.3389L962.853 74.865L981.254 64.2236L987.291 74.6975C987.449 74.9725 987.356 75.3233 987.081 75.482L987.081 75.4821Z" fill="black"/>
<path d="M963.151 70.3311C963.063 70.3122 962.971 70.3026 962.885 70.3137C962.711 70.3361 962.547 70.4307 962.441 70.5704C962.381 70.6435 962.344 70.7275 962.322 70.8106C962.3 70.8936 962.291 70.985 962.302 71.0723C962.316 71.1652 962.349 71.2479 962.392 71.3241C962.436 71.4002 962.492 71.4694 962.561 71.5228C962.631 71.5763 962.715 71.6135 962.798 71.6358C962.973 71.6828 963.156 71.6628 963.314 71.5716C963.466 71.4838 963.58 71.3317 963.627 71.1563C963.649 71.0733 963.653 70.9853 963.642 70.898C963.63 70.8109 963.604 70.7248 963.56 70.6487C963.516 70.5725 963.455 70.5068 963.382 70.4475C963.312 70.3941 963.234 70.3533 963.151 70.3311Z" fill="black"/>
<path d="M965.231 69.1283C964.979 69.0556 964.692 69.1515 964.526 69.3642C964.467 69.4373 964.43 69.5213 964.408 69.6043C964.386 69.6874 964.382 69.7754 964.387 69.866C964.402 69.959 964.434 70.0417 964.478 70.1179C964.566 70.2699 964.712 70.3882 964.884 70.4296C965.059 70.4766 965.242 70.4566 965.399 70.3654C965.551 70.2776 965.666 70.1254 965.707 69.9533C965.754 69.778 965.734 69.5946 965.646 69.4423C965.602 69.3662 965.541 69.3004 965.468 69.2411C965.398 69.1879 965.32 69.1471 965.231 69.1283L965.231 69.1283Z" fill="black"/>
<path d="M967.322 67.919C967.064 67.8498 966.771 67.9491 966.612 68.1583C966.552 68.2314 966.515 68.3155 966.493 68.3985C966.471 68.4816 966.467 68.5696 966.473 68.6602C966.487 68.7532 966.519 68.8359 966.563 68.912C966.651 69.0641 966.797 69.1824 966.969 69.2238C967.144 69.2708 967.327 69.2508 967.485 69.1596C967.642 69.0684 967.751 68.9196 967.798 68.7443C967.839 68.5723 967.819 68.389 967.731 68.2366C967.687 68.1605 967.626 68.0947 967.553 68.0354C967.483 67.9821 967.405 67.9413 967.322 67.9191L967.322 67.919Z" fill="black"/>
<path d="M969.957 66.9493C970.143 67.2711 970.557 67.3824 970.879 67.1966L978.182 62.9733C978.503 62.7875 978.614 62.3722 978.428 62.0504C978.243 61.7287 977.828 61.6174 977.507 61.8032L970.204 66.0265C969.883 66.212 969.772 66.6275 969.957 66.9493Z" fill="black"/>
<path d="M974.842 58.3436C975.163 58.1578 975.275 57.7426 975.089 57.4208L973.379 54.4541C973.194 54.1323 972.779 54.0211 972.458 54.2069L969.496 55.9198C969.174 56.1056 969.063 56.5208 969.249 56.8426C969.434 57.1644 969.849 57.2757 970.17 57.0899L972.548 55.7148L973.921 58.0964C974.11 58.4238 974.521 58.5294 974.842 58.3436Z" fill="black"/>
<path d="M959.381 82.9498C959.06 83.1356 958.949 83.5509 959.134 83.8727L960.844 86.8393C961.03 87.1611 961.445 87.2724 961.766 87.0866L964.728 85.3737C965.049 85.1879 965.16 84.7726 964.975 84.4508C964.789 84.129 964.375 84.0177 964.053 84.2035L961.675 85.5786L960.303 83.197C960.117 82.8755 959.703 82.764 959.381 82.9498Z" fill="black"/>
</g>
<g clip-path="url(#clip1_23_180)">
<path d="M953.991 177.233L956.403 178.628L955.011 181.045C954.825 181.367 954.936 181.782 955.257 181.968L975.382 193.606C975.703 193.792 976.118 193.68 976.303 193.358L990.782 168.239C990.968 167.917 990.857 167.502 990.535 167.316L988.123 165.921L989.516 163.504C989.701 163.183 989.59 162.767 989.269 162.582L974.542 154.065C974.531 154.058 974.516 154.058 974.498 154.047C974.431 154.016 974.363 153.985 974.291 153.974C974.204 153.963 974.113 153.973 974.024 153.992L965.513 156.286C965.43 156.308 965.346 156.346 965.276 156.399C965.206 156.452 965.145 156.518 965.101 156.594L953.739 176.307C953.559 176.632 953.664 177.044 953.991 177.233L953.991 177.233ZM989.276 168.149L975.472 192.097L956.516 181.135L957.572 179.304L974.115 188.871C974.436 189.057 974.851 188.945 975.036 188.623L987.448 167.091L989.276 168.149ZM974.205 187.363L955.249 176.4L965.937 157.858L970.751 160.641C971.072 160.827 971.486 160.716 971.672 160.394L974.451 155.573L988.009 163.414L974.205 187.363ZM967.435 157.164L972.807 155.722L970.841 159.133L967.435 157.164Z" fill="black"/>
<path d="M970.43 169.319L971.324 169.079L969.496 172.251C969.311 172.573 969.422 172.988 969.743 173.174C970.064 173.359 970.479 173.248 970.664 172.926L972.493 169.755L972.732 170.651C972.782 170.835 972.897 170.972 973.049 171.06C973.201 171.148 973.381 171.174 973.562 171.13C973.921 171.034 974.133 170.665 974.037 170.305L973.375 167.832C973.353 167.749 973.316 167.665 973.257 167.591C973.151 167.452 972.987 167.357 972.813 167.335C972.726 167.323 972.638 167.327 972.546 167.352L970.077 168.015C969.717 168.111 969.505 168.48 969.601 168.84C969.697 169.199 970.071 169.416 970.43 169.319L970.43 169.319Z" fill="black"/>
<path d="M966.079 170.072L964.73 172.412C964.544 172.734 964.655 173.149 964.977 173.335L971.987 177.389C972.309 177.575 972.723 177.464 972.909 177.142L974.258 174.802C974.443 174.48 974.332 174.065 974.011 173.879C973.69 173.693 973.275 173.804 973.089 174.126L972.078 175.882L966.236 172.503L967.247 170.748C967.433 170.426 967.322 170.011 967.001 169.825C966.679 169.639 966.264 169.75 966.079 170.072L966.079 170.072Z" fill="black"/>
</g>
<path d="M1026.36 127.709C1029.3 127.709 1031.68 125.317 1031.68 122.378C1031.68 119.439 1029.3 117.047 1026.36 117.047C1026.11 117.047 1025.86 117.068 1025.61 117.101C1025.3 114.453 1023.05 112.392 1020.32 112.392C1017.6 112.392 1015.35 114.453 1015.04 117.101C1014.79 117.068 1014.54 117.047 1014.29 117.047C1011.35 117.047 1008.96 119.439 1008.96 122.378C1008.96 125.317 1011.35 127.709 1014.29 127.709H1026.36ZM1010.31 122.379C1010.31 120.183 1012.09 118.399 1014.29 118.399C1014.69 118.399 1015.1 118.46 1015.48 118.581C1015.69 118.649 1015.92 118.609 1016.09 118.473C1016.27 118.338 1016.36 118.129 1016.36 117.906L1016.35 117.724C1016.35 115.528 1018.13 113.744 1020.32 113.744C1022.52 113.744 1024.3 115.528 1024.3 117.724L1024.28 117.906C1024.28 118.129 1024.37 118.338 1024.55 118.473C1024.72 118.609 1024.95 118.649 1025.16 118.581C1025.54 118.46 1025.95 118.399 1026.35 118.399C1028.55 118.399 1030.33 120.183 1030.33 122.379C1030.33 124.574 1028.55 126.358 1026.35 126.358H1014.29C1012.1 126.358 1010.31 124.568 1010.31 122.379H1010.31Z" fill="black"/>
<path d="M1020.32 104.893C1011.02 104.893 1003.46 112.467 1003.46 121.784C1003.46 122.155 1003.76 122.459 1004.13 122.459C1004.51 122.459 1004.81 122.155 1004.81 121.784C1004.81 113.216 1011.77 106.244 1020.32 106.244C1028.88 106.244 1035.84 113.216 1035.84 121.784C1035.84 130.351 1028.88 137.324 1020.32 137.324C1015.89 137.324 1011.78 135.479 1008.84 132.223H1011.01C1011.38 132.223 1011.68 131.919 1011.68 131.547C1011.68 131.176 1011.38 130.872 1011.01 130.872H1007.39C1007.37 130.872 1007.35 130.885 1007.32 130.885C1007.27 130.892 1007.23 130.899 1007.18 130.912C1007.14 130.926 1007.1 130.946 1007.06 130.973C1007.04 130.987 1007.01 130.994 1006.99 131.007C1006.98 131.014 1006.97 131.027 1006.97 131.041C1006.93 131.074 1006.9 131.108 1006.87 131.149C1006.85 131.182 1006.83 131.216 1006.81 131.25C1006.79 131.29 1006.78 131.331 1006.77 131.371C1006.75 131.419 1006.74 131.459 1006.74 131.507C1006.74 131.52 1006.73 131.534 1006.73 131.554V135.175C1006.73 135.547 1007.03 135.851 1007.41 135.851C1007.78 135.851 1008.08 135.547 1008.08 135.175V133.398C1011.25 136.769 1015.61 138.675 1020.32 138.675C1029.63 138.675 1037.19 131.101 1037.19 121.784C1037.19 112.467 1029.63 104.893 1020.32 104.893L1020.32 104.893Z" fill="black"/>
<path d="M907.066 129.304C906.708 129.401 906.493 129.773 906.589 130.132L907.674 134.185C907.77 134.544 908.141 134.758 908.5 134.662L911.921 133.744C912.279 133.648 912.494 133.276 912.398 132.917L911.313 128.864C911.217 128.505 910.846 128.29 910.487 128.386L907.066 129.304ZM910.913 132.616L908.796 133.184L908.061 130.437L910.178 129.868L910.913 132.616Z" fill="black"/>
<path d="M912.695 122.961C912.337 123.057 912.122 123.429 912.218 123.788L914.507 132.344C914.603 132.703 914.975 132.918 915.333 132.822L918.754 131.903C919.112 131.807 919.327 131.435 919.231 131.076L916.942 122.52C916.846 122.161 916.474 121.946 916.116 122.042L912.695 122.961ZM917.755 130.78L915.637 131.348L913.696 124.091L915.813 123.522L917.755 130.78Z" fill="black"/>
<path d="M922.169 130.993L925.59 130.075C925.948 129.979 926.163 129.607 926.067 129.248L922.449 115.725C922.353 115.366 921.982 115.151 921.623 115.248L918.202 116.166C917.844 116.262 917.629 116.634 917.725 116.993L921.343 130.516C921.439 130.875 921.81 131.09 922.169 130.993ZM919.203 117.296L921.32 116.728L924.589 128.945L922.471 129.513L919.203 117.296Z" fill="black"/>
<path d="M926.946 107.762L923.525 108.68C923.167 108.777 922.953 109.149 923.049 109.508L928.178 128.682C928.274 129.041 928.645 129.255 929.004 129.159L932.425 128.241C932.783 128.145 932.998 127.773 932.902 127.414L927.773 108.24C927.676 107.881 927.305 107.666 926.946 107.762L926.946 107.762ZM931.424 127.111L929.306 127.679L924.526 109.81L926.644 109.242L931.424 127.111Z" fill="black"/>
<path d="M936.592 129.096L905.317 137.489C904.959 137.586 904.744 137.958 904.84 138.317C904.936 138.676 905.308 138.891 905.666 138.795L936.941 130.401C937.299 130.305 937.514 129.932 937.418 129.573C937.322 129.215 936.95 129 936.592 129.096Z" fill="black"/>
<path d="M918.941 111.254C919.037 111.613 919.409 111.828 919.767 111.731C920.125 111.635 920.34 111.263 920.244 110.904L919.465 107.993C919.457 107.961 919.437 107.938 919.421 107.907C919.403 107.863 919.384 107.819 919.36 107.784C919.328 107.743 919.299 107.709 919.262 107.677C919.242 107.655 919.222 107.632 919.195 107.611C919.187 107.606 919.181 107.608 919.172 107.603C919.131 107.579 919.085 107.564 919.045 107.546C919.006 107.529 918.973 107.51 918.93 107.507C918.894 107.503 918.853 107.507 918.817 107.503C918.768 107.502 918.719 107.501 918.674 107.513C918.667 107.515 918.652 107.512 918.646 107.514L915.734 108.295C915.375 108.392 915.161 108.764 915.257 109.123C915.353 109.482 915.724 109.697 916.083 109.6L917.21 109.298L907.031 124.005C906.82 124.314 906.897 124.733 907.199 124.946C907.369 125.062 907.573 125.091 907.755 125.042C907.905 125.002 908.041 124.909 908.137 124.772L918.537 109.746L918.941 111.254Z" fill="black"/>
<path d="M875.186 97.2651L863.499 99.7592L851.064 92.5747C850.9 92.4819 850.71 92.4589 850.528 92.5149L843.295 94.7006C842.94 94.8012 842.741 95.1812 842.848 95.5386C842.917 95.7743 843.104 95.9363 843.319 95.994C843.437 96.0255 843.563 96.0245 843.691 95.9889L850.649 93.8902L863.054 101.06C863.2 101.141 863.366 101.171 863.53 101.131L875.477 98.5812C876.135 98.4433 876.688 98.0461 877.043 97.4767C877.398 96.9074 877.496 96.2273 877.327 95.5803C877.046 94.4905 876.059 93.7431 874.938 93.757L865.665 93.8842L863.389 92.4971C864.257 92.2544 865.049 91.7465 865.63 90.986C865.854 90.6963 865.799 90.276 865.512 90.045L858.192 84.2545C856.095 82.5935 853.323 82.0943 850.776 82.9217L846.242 84.3908C845.89 84.5062 845.69 84.8862 845.812 85.2406C845.927 85.5933 846.307 85.7931 846.661 85.6712L851.195 84.2021C853.312 83.5183 855.611 83.9323 857.358 85.3105L864.088 90.642C863.155 91.4129 861.808 91.5411 860.734 90.8823L856.63 88.3957C856.311 88.2053 855.9 88.3047 855.703 88.6228C855.506 88.9406 855.612 89.3536 855.93 89.551L860.034 92.0375L865.122 95.1307C865.23 95.1947 865.354 95.2279 865.48 95.2269L874.947 95.1029C875.446 95.0899 875.886 95.4318 876.015 95.9141C876.09 96.2072 876.046 96.503 875.886 96.7611C875.725 97.0252 875.483 97.1983 875.186 97.2652L875.186 97.2651Z" fill="black"/>
<path d="M879.527 80.5938C880.006 78.8055 876.965 76.9891 873.714 76.1165C870.462 75.2439 866.922 75.2942 866.444 77.0824L865.362 81.1287C865.356 81.1483 865.356 81.176 865.351 81.1957C865.347 81.2088 865.337 81.2202 865.334 81.233L864.251 85.2793C863.752 87.1456 866.911 88.9102 870.065 89.7565C873.218 90.6028 876.833 90.6638 877.334 88.7906L878.417 84.7444C878.42 84.7313 878.417 84.7164 878.421 84.7035C878.426 84.6839 878.438 84.6662 878.445 84.64L879.527 80.5938ZM867.295 79.1226C868.371 80.1388 870.27 81.0262 872.257 81.5596C874.244 82.0929 876.333 82.2757 877.771 81.9344L877.141 84.2902C877.031 84.7013 874.925 85.2133 871.524 84.3005C868.123 83.3877 866.555 81.8894 866.665 81.4783L867.295 79.1226ZM873.364 77.4218C876.765 78.3346 878.334 79.8329 878.224 80.2439C878.114 80.655 876.007 81.167 872.606 80.2542C869.205 79.3414 867.637 77.8432 867.747 77.4321C867.857 77.021 869.963 76.509 873.364 77.4218ZM870.416 88.4445C867.015 87.5317 865.446 86.0334 865.556 85.6224L866.212 83.1685C867.288 84.1847 869.188 85.0722 871.175 85.6055C873.162 86.1388 875.25 86.3216 876.689 85.9803L876.033 88.4342C875.923 88.8455 873.823 89.359 870.416 88.4445Z" fill="black"/>
<path d="M814.707 274.276H788.67C788.236 274.276 787.802 274.46 787.485 274.761L779.651 282.604C779.334 282.922 779.167 283.34 779.167 283.791L779.166 312.404C779.166 313.324 779.918 314.076 780.836 314.076H814.707C815.626 314.076 816.377 313.324 816.377 312.404V275.951C816.377 275.014 815.626 274.278 814.707 274.278L814.707 274.276ZM806.038 277.621V281.668H794.665V277.621H806.038ZM790.99 310.731V302.387H804.552L804.552 310.731H790.99ZM813.036 310.731H807.892V300.715C807.892 299.795 807.141 299.043 806.222 299.043L789.32 299.042C788.401 299.042 787.65 299.794 787.65 300.714V310.731H782.506L782.505 284.476L789.353 277.62H791.323V283.339C791.323 284.259 792.075 285.011 792.993 285.011H807.707C808.626 285.011 809.377 284.259 809.377 283.339L809.379 277.62H813.037L813.036 310.731Z" fill="black"/>
<path d="M774.356 303.808C775.275 303.708 775.926 302.872 775.826 301.952C775.726 301.033 774.891 300.364 773.972 300.481C771.45 300.782 768.812 300.932 766.139 300.932C751.459 300.932 742.44 296.685 742.44 293.642V281.418C747.35 284.896 756.936 286.735 766.139 286.735C768.962 286.735 771.717 286.585 774.357 286.267C775.275 286.167 775.927 285.331 775.827 284.411C775.727 283.491 774.892 282.822 773.973 282.939C771.468 283.24 768.829 283.391 766.14 283.391C751.46 283.391 742.44 279.143 742.44 276.116L742.439 263.909C747.35 267.387 756.936 269.227 766.139 269.227C775.341 269.227 784.912 267.404 789.822 263.909V269.243C789.822 270.163 790.574 270.915 791.492 270.915C792.411 270.915 793.162 270.163 793.162 269.243V241.1C793.162 234.193 779.233 230.465 766.122 230.465C753.011 230.465 739.081 234.193 739.081 241.1V293.658C739.081 300.565 753.01 304.293 766.122 304.293C768.928 304.277 771.7 304.126 774.356 303.808L774.356 303.808ZM766.122 265.899C751.441 265.899 742.422 261.651 742.422 258.608V246.384C747.332 249.862 756.919 251.702 766.122 251.702C775.324 251.702 784.911 249.862 789.821 246.384V258.608C789.821 261.651 780.802 265.899 766.122 265.899ZM766.122 233.808C780.802 233.808 789.821 238.056 789.821 241.098C789.821 244.142 780.803 248.373 766.122 248.373C751.441 248.373 742.422 244.126 742.422 241.099C742.422 238.072 751.441 233.808 766.122 233.808Z" fill="black"/>
<g clip-path="url(#clip2_23_180)">
<path d="M845.989 195.109C846.669 195.791 847.562 196.174 848.497 196.174L867.459 196.174C869.415 196.174 871.03 194.556 871.03 192.598C871.03 190.64 869.415 189.022 867.459 189.022L852.153 189.022L852.153 173.698C852.153 171.74 850.538 170.122 848.582 170.122C847.562 170.122 846.711 170.548 846.074 171.187C845.436 171.825 845.011 172.762 845.011 173.698L844.926 192.598C844.926 193.535 845.308 194.429 845.989 195.11L845.989 195.109Z" fill="black"/>
<path d="M835.572 209.114L854.534 209.114C856.49 209.114 858.106 207.497 858.106 205.539C858.106 203.581 856.49 201.963 854.534 201.963L839.229 201.963L839.229 186.639C839.229 184.681 837.613 183.063 835.658 183.063C834.637 183.063 833.787 183.489 833.149 184.127C832.512 184.766 832.086 185.702 832.086 186.639L832.086 205.624C832.001 207.497 833.617 209.115 835.573 209.115L835.572 209.114Z" fill="black"/>
<path d="M822.648 222.055L841.61 222.055C843.565 222.055 845.181 220.437 845.181 218.479C845.181 216.521 843.565 214.904 841.61 214.904L826.304 214.904L826.304 199.494C826.304 197.536 824.688 195.919 822.733 195.919C821.713 195.919 820.862 196.344 820.224 196.983C819.587 197.621 819.162 198.558 819.161 199.494L819.161 218.479C819.076 220.438 820.692 222.055 822.648 222.055L822.648 222.055Z" fill="black"/>
</g>
<g clip-path="url(#clip3_23_180)">
<path d="M690.398 198.877C689.718 199.558 689.336 200.452 689.335 201.388L689.335 220.374C689.335 222.332 690.951 223.949 692.907 223.949C694.862 223.949 696.478 222.332 696.478 220.374L696.478 205.049L711.784 205.049C713.739 205.049 715.355 203.431 715.355 201.474C715.355 200.452 714.93 199.6 714.292 198.962C713.654 198.324 712.719 197.898 711.783 197.898L692.907 197.813C691.971 197.813 691.078 198.196 690.398 198.877L690.398 198.877Z" fill="black"/>
<path d="M676.411 188.448L676.411 207.433C676.411 209.391 678.026 211.009 679.982 211.009C681.937 211.009 683.553 209.391 683.553 207.433L683.553 192.109L698.859 192.109C700.814 192.109 702.43 190.491 702.43 188.533C702.43 187.512 702.005 186.66 701.367 186.022C700.729 185.383 699.794 184.957 698.859 184.957L679.897 184.957C678.026 184.872 676.41 186.49 676.41 188.448L676.411 188.448Z" fill="black"/>
<path d="M663.486 175.507L663.486 194.492C663.486 196.45 665.102 198.068 667.057 198.068C669.013 198.068 670.628 196.45 670.628 194.492L670.628 179.168L686.019 179.168C687.975 179.168 689.59 177.55 689.59 175.592C689.59 174.571 689.165 173.719 688.527 173.081C687.89 172.443 686.954 172.017 686.019 172.017L667.057 172.017C665.101 171.931 663.485 173.549 663.485 175.507L663.486 175.507Z" fill="black"/>
</g>
<path d="M648.679 79.6641H559.866C558.057 79.6641 556.585 81.1381 556.585 82.9495V143.502C556.585 145.314 558.057 146.788 559.866 146.788H591.572L591.573 160.604C591.566 160.829 591.365 166.122 586.726 166.122C585.73 166.122 584.923 166.93 584.923 167.927C584.923 168.925 585.73 169.733 586.726 169.733H621.821C622.817 169.733 623.624 168.925 623.624 167.927C623.624 166.93 622.817 166.122 621.821 166.122C617.307 166.122 616.994 161.162 616.974 160.654L616.973 146.788H648.679C650.488 146.788 651.96 145.314 651.96 143.503V82.9483C651.96 81.1367 650.488 79.6628 648.679 79.6628V79.6641ZM593.526 166.124C594.689 164.304 595.137 162.17 595.18 160.657V146.79H613.366L613.367 160.708C613.409 162.195 613.856 164.313 615.016 166.125L593.526 166.124ZM648.353 143.177H560.193V134.223H648.353V143.177ZM648.353 130.612H560.193V83.2772H648.353V130.612Z" fill="black"/>
<path d="M592.914 123.814C593.266 124.167 593.728 124.343 594.189 124.343C594.65 124.343 595.112 124.167 595.464 123.814C596.169 123.109 596.169 121.966 595.464 121.26L583.168 108.948L595.464 96.6366C596.169 95.9319 596.169 94.788 595.464 94.0826C594.759 93.3771 593.618 93.3771 592.913 94.0826L579.341 107.671C579.003 108.01 578.813 108.469 578.813 108.948C578.813 109.426 579.003 109.886 579.341 110.224L592.914 123.814Z" fill="black"/>
<path d="M613.078 123.814C613.43 124.167 613.891 124.343 614.353 124.343C614.814 124.343 615.275 124.167 615.628 123.814L629.201 110.225C629.539 109.887 629.729 109.428 629.729 108.949C629.729 108.469 629.539 108.01 629.201 107.671L615.628 94.0828C614.923 93.3773 613.782 93.3773 613.077 94.0828C612.372 94.7883 612.372 95.9313 613.077 96.6368L625.373 108.948L613.078 121.261C612.373 121.966 612.373 123.11 613.078 123.814V123.814Z" fill="black"/>
<path d="M598.566 124.221C598.779 124.303 598.999 124.342 599.214 124.342C599.939 124.342 600.622 123.902 600.898 123.185L611.364 96.0068C611.723 95.0763 611.259 94.0307 610.329 93.6722C609.398 93.3127 608.356 93.7771 607.998 94.7077L597.532 121.886C597.173 122.817 597.637 123.862 598.566 124.221L598.566 124.221Z" fill="black"/>
<ellipse cx="267.476" cy="228.424" rx="267.476" ry="158.902" fill="#3F3D56" fill-opacity="0.2"/>
<g clip-path="url(#clip4_23_180)">
<path d="M362.027 151.2H194.459C191.582 151.197 188.825 150.112 186.791 148.184C184.757 146.255 183.613 143.641 183.609 140.914V16.1419C183.612 14.144 184.45 12.2286 185.94 10.8159C187.43 9.40319 189.45 8.6085 191.558 8.6062H364.791C366.935 8.60852 368.99 9.41693 370.506 10.8541C372.022 12.2912 372.874 14.2397 372.877 16.2721V140.914C372.874 143.641 371.73 146.255 369.696 148.184C367.662 150.112 364.904 151.197 362.027 151.2Z" fill="#F2F2F2"/>
<path d="M204.98 140.914H351.507C354.297 140.914 356.973 139.863 358.946 137.992C360.919 136.122 362.027 133.585 362.027 130.94V35.2209C362.027 32.5756 360.919 30.0387 358.946 28.1682C356.973 26.2977 354.297 25.2468 351.507 25.2468H204.98C202.189 25.2468 199.513 26.2977 197.54 28.1682C195.567 30.0387 194.459 32.5756 194.459 35.2209V130.94C194.459 133.585 195.567 136.122 197.54 137.992C199.513 139.863 202.189 140.914 204.98 140.914Z" fill="white"/>
<path d="M372.726 15.5535H183.457V10.3168C183.461 7.58075 184.61 4.95796 186.651 3.02385C188.693 1.08974 191.46 0.00226872 194.346 0H361.837C364.723 0.00224729 367.49 1.08972 369.532 3.02383C371.573 4.95794 372.722 7.58074 372.726 10.3168V15.5535Z" fill="#CCCCCC"/>
<path d="M203.247 10.4625C204.802 10.4625 206.063 9.26698 206.063 7.79227C206.063 6.31756 204.802 5.12207 203.247 5.12207C201.691 5.12207 200.43 6.31756 200.43 7.79227C200.43 9.26698 201.691 10.4625 203.247 10.4625Z" fill="white"/>
<path d="M213.937 10.4625C215.493 10.4625 216.754 9.26698 216.754 7.79227C216.754 6.31756 215.493 5.12207 213.937 5.12207C212.382 5.12207 211.121 6.31756 211.121 7.79227C211.121 9.26698 212.382 10.4625 213.937 10.4625Z" fill="white"/>
<path d="M224.628 10.4625C226.184 10.4625 227.445 9.26698 227.445 7.79227C227.445 6.31756 226.184 5.12207 224.628 5.12207C223.073 5.12207 221.812 6.31756 221.812 7.79227C221.812 9.26698 223.073 10.4625 224.628 10.4625Z" fill="white"/>
<path d="M215.762 70.103H208.506C208.112 70.1026 207.735 69.9542 207.457 69.6904C207.178 69.4265 207.022 69.0689 207.021 68.6958V61.8161C207.022 61.443 207.178 61.0854 207.457 60.8215C207.735 60.5577 208.112 60.4093 208.506 60.4089H215.762C216.156 60.4093 216.533 60.5577 216.811 60.8216C217.09 61.0854 217.246 61.4431 217.247 61.8161V68.6958C217.246 69.0688 217.09 69.4265 216.811 69.6903C216.533 69.9542 216.156 70.1026 215.762 70.103Z" fill="#C7E0FF"/>
<path d="M215.762 87.9274H208.506C208.112 87.927 207.735 87.7786 207.457 87.5148C207.178 87.251 207.022 86.8933 207.021 86.5202V79.6406C207.022 79.2675 207.178 78.9098 207.457 78.646C207.735 78.3822 208.112 78.2338 208.506 78.2334H215.762C216.156 78.2338 216.533 78.3822 216.811 78.646C217.09 78.9098 217.246 79.2675 217.247 79.6406V86.5202C217.246 86.8933 217.09 87.251 216.811 87.5148C216.533 87.7786 216.156 87.927 215.762 87.9274Z" fill="#3F3D56"/>
<path d="M215.762 105.752H208.506C208.112 105.751 207.735 105.603 207.457 105.339C207.178 105.075 207.022 104.718 207.021 104.345V97.4651C207.022 97.092 207.178 96.7343 207.457 96.4705C207.735 96.2067 208.112 96.0583 208.506 96.0579H215.762C216.156 96.0583 216.533 96.2067 216.811 96.4705C217.09 96.7343 217.246 97.092 217.247 97.4651V104.345C217.246 104.718 217.09 105.075 216.811 105.339C216.533 105.603 216.156 105.751 215.762 105.752Z" fill="#CCCCCC"/>
<path d="M263.261 66.663H228.297C227.903 66.6623 227.527 66.5137 227.249 66.2498C226.971 65.986 226.815 65.6285 226.815 65.2558C226.815 64.8831 226.971 64.5257 227.249 64.2618C227.527 63.998 227.903 63.8494 228.297 63.8486H263.261C263.456 63.8482 263.649 63.8844 263.83 63.9549C264.01 64.0254 264.174 64.129 264.312 64.2597C264.45 64.3905 264.56 64.5457 264.635 64.7166C264.71 64.8876 264.748 65.0708 264.748 65.2558C264.748 65.4409 264.71 65.6241 264.635 65.795C264.56 65.966 264.45 66.1212 264.312 66.2519C264.174 66.3826 264.01 66.4862 263.83 66.5568C263.649 66.6273 263.456 66.6634 263.261 66.663Z" fill="#CCCCCC"/>
<path d="M263.261 84.4875H228.297C227.903 84.4867 227.527 84.3381 227.249 84.0743C226.971 83.8105 226.815 83.453 226.815 83.0803C226.815 82.7076 226.971 82.3501 227.249 82.0863C227.527 81.8225 227.903 81.6739 228.297 81.6731H263.261C263.654 81.6731 264.032 81.8214 264.31 82.0853C264.589 82.3492 264.745 82.7071 264.745 83.0803C264.745 83.4535 264.589 83.8114 264.31 84.0753C264.032 84.3392 263.654 84.4875 263.261 84.4875Z" fill="#CCCCCC"/>
<path d="M263.261 102.312H228.297C227.903 102.311 227.527 102.163 227.249 101.899C226.971 101.635 226.815 101.278 226.815 100.905C226.815 100.532 226.971 100.175 227.249 99.911C227.527 99.6472 227.903 99.4986 228.297 99.4978H263.261C263.456 99.4974 263.649 99.5335 263.83 99.6041C264.01 99.6746 264.174 99.7782 264.312 99.9089C264.45 100.04 264.56 100.195 264.635 100.366C264.71 100.537 264.748 100.72 264.748 100.905C264.748 101.09 264.71 101.273 264.635 101.444C264.56 101.615 264.45 101.77 264.312 101.901C264.174 102.032 264.01 102.135 263.83 102.206C263.649 102.276 263.456 102.313 263.261 102.312Z" fill="#CCCCCC"/>
<path d="M349.406 83.5273C349.444 82.9357 349.465 82.3401 349.465 81.7396C349.465 73.9165 346.187 66.4139 340.352 60.8821C334.517 55.3504 326.603 52.2427 318.351 52.2427V83.5273H349.406Z" fill="#C7E0FF"/>
<path d="M315.994 86.2089V54.9243C309.921 54.9241 303.98 56.609 298.905 59.7714C293.829 62.9337 289.841 67.4351 287.432 72.7206C285.023 78.0061 284.298 83.8444 285.347 89.5157C286.396 95.1871 289.173 100.443 293.335 104.636C297.497 108.829 302.863 111.776 308.771 113.112C314.678 114.449 320.869 114.117 326.58 112.158C332.291 110.199 337.272 106.698 340.91 102.087C344.547 97.4757 346.681 91.9562 347.049 86.2089H315.994Z" fill="#3F3D56"/>
<path d="M359.499 257.41C359.719 257.692 359.914 257.991 360.084 258.302L393.036 261.815L397.828 255.676L408.546 261.322L399.112 276.233L358.741 266.189C357.714 267.125 356.41 267.743 355.004 267.96C353.597 268.176 352.154 267.982 350.867 267.403C349.58 266.823 348.509 265.886 347.797 264.715C347.086 263.545 346.767 262.196 346.883 260.85C346.999 259.503 347.545 258.222 348.448 257.177C349.351 256.132 350.568 255.372 351.938 254.999C353.307 254.625 354.764 254.656 356.115 255.087C357.466 255.517 358.646 256.328 359.499 257.41Z" fill="#FFB8B8"/>
<path d="M191.362 249.345C190.529 249.809 189.598 250.095 188.636 250.181C187.674 250.268 186.703 250.153 185.792 249.846C184.882 249.538 184.053 249.045 183.366 248.401C182.678 247.757 182.147 246.978 181.811 246.119L158.319 246.583L164.827 236.788L186.138 237.849C187.698 237.41 189.374 237.528 190.848 238.182C192.322 238.836 193.492 239.98 194.136 241.397C194.78 242.814 194.853 244.406 194.342 245.871C193.831 247.335 192.771 248.572 191.362 249.345V249.345Z" fill="#FFB8B8"/>
<path d="M181.037 246.541C180.851 247.131 180.465 247.647 179.938 248.009C179.412 248.371 178.775 248.559 178.125 248.544L135.13 247.509L96.1993 236.581C95.128 236.28 94.1304 235.781 93.2646 235.111C92.3988 234.442 91.682 233.616 91.1558 232.682C90.6297 231.747 90.3048 230.723 90.1999 229.669C90.095 228.614 90.2123 227.55 90.545 226.539C90.8776 225.528 91.419 224.59 92.1376 223.779C92.8562 222.968 93.7377 222.3 94.7308 221.815C95.724 221.33 96.8089 221.037 97.9226 220.953C99.0363 220.869 100.157 220.995 101.218 221.325L136.391 232.258L178.606 236.121C179.345 236.192 180.03 236.522 180.525 237.048C181.02 237.574 181.289 238.256 181.28 238.96L181.158 245.787C181.154 246.042 181.113 246.296 181.037 246.541Z" fill="#3F3D56"/>
<path d="M118.686 421.78L126.747 421.779L130.582 392.301L118.685 392.301L118.686 421.78Z" fill="#FFB8B8"/>
<path d="M116.629 419.285L132.505 419.284H132.506C133.834 419.284 135.15 419.532 136.378 420.014C137.605 420.496 138.72 421.202 139.66 422.093C140.599 422.984 141.345 424.041 141.853 425.205C142.361 426.369 142.623 427.616 142.623 428.875V429.187L116.63 429.188L116.629 419.285Z" fill="#2F2E41"/>
<path d="M95.0142 421.78L103.075 421.779L106.911 392.301L95.0129 392.301L95.0142 421.78Z" fill="#FFB8B8"/>
<path d="M92.9577 419.285L108.833 419.284H108.834C110.163 419.284 111.478 419.532 112.706 420.014C113.933 420.496 115.049 421.202 115.988 422.093C116.928 422.984 117.673 424.041 118.181 425.205C118.69 426.369 118.951 427.616 118.951 428.875V429.187L92.9582 429.188L92.9577 419.285Z" fill="#2F2E41"/>
<path d="M89.6039 302.647L91.5288 410.924C91.5349 411.267 91.6155 411.605 91.7657 411.917C91.9158 412.229 92.1322 412.508 92.4014 412.738C92.6706 412.967 92.9867 413.141 93.33 413.249C93.6733 413.357 94.0365 413.397 94.3968 413.365L103.83 412.552C104.449 412.499 105.028 412.24 105.464 411.821C105.9 411.401 106.166 410.849 106.214 410.262L111.737 342.722C111.75 342.563 111.826 342.415 111.951 342.308C112.075 342.201 112.238 342.143 112.405 342.147C112.573 342.15 112.733 342.214 112.853 342.325C112.973 342.437 113.043 342.587 113.05 342.746L115.81 411.833C115.836 412.477 116.124 413.087 116.614 413.535C117.104 413.982 117.758 414.232 118.438 414.232H128.555C129.225 414.232 129.869 413.99 130.357 413.555C130.845 413.119 131.139 412.524 131.18 411.891L138.262 302.023L96.1794 292.049L89.6039 302.647Z" fill="#2F2E41"/>
<path d="M120.128 200.976C129.048 200.976 136.278 194.121 136.278 185.665C136.278 177.209 129.048 170.354 120.128 170.354C111.209 170.354 103.978 177.209 103.978 185.665C103.978 194.121 111.209 200.976 120.128 200.976Z" fill="#FFB8B8"/>
<path d="M137.643 306.661C137.628 306.661 137.612 306.66 137.596 306.66L99.8328 306.109C99.1069 306.099 98.4104 305.836 97.8759 305.37C97.3414 304.904 97.0061 304.269 96.934 303.584L96.5065 299.53C96.4984 299.453 96.4604 299.382 96.3999 299.33C96.3395 299.278 96.2609 299.249 96.1793 299.249C96.0978 299.249 96.0192 299.278 95.9587 299.33C95.8983 299.382 95.8603 299.453 95.8522 299.53L95.4105 303.717C95.342 304.373 95.0321 304.984 94.5351 305.445C94.0382 305.905 93.386 306.185 92.6932 306.234L90.0244 306.429C89.5541 306.463 89.0819 306.391 88.6472 306.217C88.2126 306.043 87.8281 305.773 87.5258 305.43C87.2235 305.087 87.0121 304.68 86.9094 304.243C86.8067 303.807 86.8156 303.353 86.9353 302.921L89.2332 294.615C93.9882 277.352 94.3707 259.268 90.3495 241.839L89.2076 236.915C88.3469 233.236 88.7408 229.393 90.3328 225.941C91.9247 222.488 94.6322 219.604 98.0649 217.704L105.482 213.582L108.848 208.797C109.499 207.873 110.375 207.112 111.403 206.578C112.431 206.043 113.579 205.752 114.751 205.728C119.445 205.631 127.498 206.446 129.011 212.954C132.761 214.168 136.008 216.478 138.286 219.552C140.564 222.625 141.756 226.304 141.69 230.06L140.601 303.895C140.59 304.632 140.273 305.335 139.72 305.852C139.167 306.37 138.421 306.66 137.643 306.661Z" fill="#3F3D56"/>
<path d="M118.865 194.49C118.799 196.655 117.214 197.907 115.268 199.041C113.322 200.174 111.047 200.666 108.818 201.14C108.519 201.291 108.184 201.366 107.845 201.358C107.506 201.35 107.175 201.259 106.884 201.095C106.593 200.931 106.352 200.698 106.183 200.419C106.014 200.14 105.925 199.825 105.922 199.504L103.878 192.134C103.155 189.779 102.629 187.374 102.304 184.942C101.812 180.261 102.982 175.225 106.429 171.84C109.875 168.456 115.852 167.254 119.982 169.861C124.883 163.927 147.285 177.038 141.759 181.165C140.776 181.899 139.273 180.97 138.025 180.88C136.777 180.79 135.379 180.998 134.586 181.916C133.551 183.116 134.002 184.903 133.575 186.399C133.399 186.925 133.114 187.414 132.737 187.835C132.361 188.257 131.9 188.604 131.381 188.856C130.863 189.108 130.297 189.26 129.716 189.303C129.135 189.347 128.551 189.281 127.997 189.11C126.965 188.628 125.994 188.036 125.104 187.346C124.146 186.742 122.937 186.295 121.859 186.677C120.439 187.179 119.935 188.827 119.806 190.259C119.59 191.688 119.275 193.101 118.865 194.49Z" fill="#2F2E41"/>
<path opacity="0.2" d="M122.636 235.525L125.267 266.071L139.075 297.863L118.691 266.694L122.636 235.525Z" fill="black"/>
<path d="M292.514 402.795L148.399 321.739C145.927 320.345 144.139 318.078 143.427 315.436C142.716 312.794 143.139 309.992 144.604 307.645L211.756 200.336C212.833 198.619 214.585 197.377 216.627 196.883C218.668 196.389 220.834 196.683 222.647 197.7L371.634 281.496C373.477 282.535 374.81 284.225 375.34 286.194C375.87 288.163 375.555 290.252 374.463 292.001L307.381 399.197C305.91 401.541 303.519 403.236 300.732 403.911C297.945 404.585 294.99 404.184 292.514 402.795Z" fill="#F2F2F2"/>
<path d="M162.983 317.982L289.002 388.86C291.401 390.21 294.268 390.6 296.972 389.946C299.676 389.292 301.994 387.646 303.418 385.371L354.933 303.049C356.357 300.774 356.769 298.056 356.079 295.493C355.389 292.93 353.653 290.732 351.253 289.382L225.235 218.504C222.835 217.154 219.968 216.764 217.264 217.418C214.561 218.072 212.242 219.718 210.818 221.993L159.303 304.315C157.879 306.59 157.467 309.308 158.157 311.871C158.847 314.434 160.583 316.632 162.983 317.982Z" fill="white"/>
<path d="M374.72 291.31L211.941 199.757L214.76 195.253C216.236 192.902 218.635 191.202 221.432 190.526C224.229 189.85 227.194 190.253 229.677 191.647L373.725 272.666C376.206 274.064 378.001 276.338 378.716 278.989C379.431 281.639 379.007 284.451 377.538 286.806L374.72 291.31Z" fill="#CCCCCC"/>
<path d="M233.138 205.324C234.694 205.324 235.955 204.129 235.955 202.654C235.955 201.179 234.694 199.984 233.138 199.984C231.582 199.984 230.321 201.179 230.321 202.654C230.321 204.129 231.582 205.324 233.138 205.324Z" fill="white"/>
<path d="M242.333 210.496C243.889 210.496 245.15 209.3 245.15 207.825C245.15 206.351 243.889 205.155 242.333 205.155C240.777 205.155 239.516 206.351 239.516 207.825C239.516 209.3 240.777 210.496 242.333 210.496Z" fill="white"/>
<path d="M251.527 215.667C253.083 215.667 254.344 214.472 254.344 212.997C254.344 211.522 253.083 210.327 251.527 210.327C249.972 210.327 248.711 211.522 248.711 212.997C248.711 214.472 249.972 215.667 251.527 215.667Z" fill="white"/>
<path d="M338.501 306.938L338.318 307.231L340.171 308.273L340.354 307.98L338.501 306.938Z" fill="#E6E6E6"/>
<path d="M334.575 305.126L330.833 303.02L331.016 302.728L334.759 304.833L334.575 305.126ZM327.09 300.915L323.347 298.81L323.53 298.517L327.273 300.623L327.09 300.915ZM319.604 296.705L315.861 294.6L316.044 294.307L319.787 296.412L319.604 296.705ZM312.118 292.495L308.375 290.39L308.558 290.097L312.301 292.202L312.118 292.495ZM304.632 288.284L300.889 286.179L301.072 285.886L304.815 287.992L304.632 288.284ZM297.146 284.074L293.403 281.969L293.587 281.676L297.329 283.781L297.146 284.074ZM289.66 279.864L285.918 277.759L286.101 277.466L289.844 279.571L289.66 279.864ZM282.175 275.653L278.432 273.548L278.615 273.255L282.358 275.361L282.175 275.653ZM274.689 271.443L270.946 269.338L271.129 269.045L274.872 271.15L274.689 271.443ZM267.203 267.233L263.46 265.128L263.643 264.835L267.386 266.94L267.203 267.233ZM259.717 263.022L255.974 260.917L256.158 260.625L259.9 262.73L259.717 263.022ZM252.231 258.812L248.489 256.707L248.672 256.414L252.415 258.519L252.231 258.812ZM244.746 254.602L241.003 252.497L241.186 252.204L244.929 254.309L244.746 254.602ZM237.26 250.392L233.517 248.286L233.7 247.994L237.443 250.099L237.26 250.392ZM229.774 246.181L226.031 244.076L226.214 243.783L229.957 245.888L229.774 246.181ZM222.288 241.971L218.545 239.866L218.728 239.573L222.471 241.678L222.288 241.971Z" fill="#E6E6E6"/>
<path d="M213.133 236.426L212.95 236.718L214.802 237.76L214.985 237.467L213.133 236.426Z" fill="#E6E6E6"/>
<path d="M260.633 299.949L260.45 300.242L262.302 301.284L262.485 300.991L260.633 299.949Z" fill="#E6E6E6"/>
<path d="M256.762 298.168L253.075 296.094L253.258 295.801L256.945 297.875L256.762 298.168ZM249.388 294.02L245.7 291.946L245.884 291.653L249.571 293.727L249.388 294.02ZM242.013 289.872L238.326 287.798L238.509 287.506L242.196 289.579L242.013 289.872ZM234.638 285.724L230.951 283.651L231.134 283.358L234.822 285.432L234.638 285.724ZM227.264 281.577L223.576 279.503L223.76 279.21L227.447 281.284L227.264 281.577ZM219.889 277.429L216.202 275.355L216.385 275.062L220.072 277.136L219.889 277.429ZM212.514 273.281L208.827 271.207L209.01 270.914L212.698 272.988L212.514 273.281ZM205.14 269.133L201.453 267.059L201.636 266.767L205.323 268.84L205.14 269.133Z" fill="#E6E6E6"/>
<path d="M196.096 263.651L195.913 263.944L197.765 264.985L197.948 264.693L196.096 263.651Z" fill="#E6E6E6"/>
<path d="M216.444 292.51L216.261 292.802L218.113 293.844L218.296 293.552L216.444 292.51Z" fill="#E6E6E6"/>
<path d="M212.467 290.669L208.673 288.535L208.857 288.242L212.65 290.376L212.467 290.669ZM204.88 286.401L201.086 284.268L201.269 283.975L205.063 286.109L204.88 286.401ZM197.292 282.134L193.499 280L193.682 279.708L197.475 281.841L197.292 282.134Z" fill="#E6E6E6"/>
<path d="M188.035 276.532L187.852 276.824L189.704 277.866L189.888 277.573L188.035 276.532Z" fill="#E6E6E6"/>
<path d="M202.688 314.491L202.505 314.784L204.357 315.826L204.541 315.533L202.688 314.491Z" fill="#E6E6E6"/>
<path d="M198.711 312.65L194.918 310.516L195.101 310.224L198.895 312.357L198.711 312.65ZM191.124 308.383L187.33 306.249L187.514 305.956L191.307 308.09L191.124 308.383ZM183.537 304.115L179.743 301.981L179.926 301.689L183.72 303.822L183.537 304.115Z" fill="#E6E6E6"/>
<path d="M174.28 298.513L174.096 298.806L175.949 299.848L176.132 299.555L174.28 298.513Z" fill="#E6E6E6"/>
<path d="M184.402 304.905L291.194 364.97C293.781 366.421 296.871 366.841 299.784 366.136C302.697 365.43 305.196 363.659 306.733 361.209L337.936 311.347L337.721 311.234L266.926 328.365L261.318 307.549C261.216 307.164 261.021 306.807 260.748 306.505C260.476 306.204 260.134 305.966 259.748 305.811C259.159 305.586 258.507 305.551 257.895 305.713L220.795 314.689L216.695 299.469C216.606 299.141 216.45 298.832 216.236 298.56C216.022 298.289 215.753 298.06 215.446 297.887C215.138 297.714 214.798 297.601 214.444 297.552C214.09 297.504 213.729 297.523 213.383 297.607C213.132 297.669 188.991 303.734 184.402 304.905Z" fill="#C7E0FF"/>
<path d="M183.763 304.942L183.675 304.612L213.362 297.427C214.147 297.238 214.978 297.352 215.674 297.743C216.37 298.135 216.873 298.772 217.074 299.515L221.092 314.435L257.986 305.507C258.77 305.318 259.601 305.431 260.297 305.823C260.993 306.214 261.497 306.851 261.698 307.594L267.222 328.112L338.386 310.889L338.475 311.219L266.963 328.526L261.35 307.678C261.262 307.354 261.108 307.048 260.896 306.78C260.684 306.512 260.419 306.285 260.115 306.114C259.811 305.943 259.474 305.831 259.124 305.783C258.774 305.735 258.417 305.753 258.075 305.836L220.833 314.849L216.726 299.599C216.549 298.943 216.105 298.381 215.491 298.036C214.877 297.691 214.143 297.59 213.451 297.757L183.763 304.942Z" fill="#3F3D56"/>
<path d="M218.205 296.081C219.594 296.081 220.719 295.014 220.719 293.698C220.719 292.382 219.594 291.315 218.205 291.315C216.817 291.315 215.692 292.382 215.692 293.698C215.692 295.014 216.817 296.081 218.205 296.081Z" fill="#3F3D56"/>
<path d="M262.394 303.52C263.783 303.52 264.908 302.454 264.908 301.138C264.908 299.822 263.783 298.755 262.394 298.755C261.006 298.755 259.881 299.822 259.881 301.138C259.881 302.454 261.006 303.52 262.394 303.52Z" fill="#3F3D56"/>
<path d="M339.379 309.258C340.768 309.258 341.893 308.192 341.893 306.876C341.893 305.56 340.768 304.493 339.379 304.493C337.991 304.493 336.866 305.56 336.866 306.876C336.866 308.192 337.991 309.258 339.379 309.258Z" fill="#3F3D56"/>
<path d="M142.304 309.702C141.55 309.129 140.938 308.405 140.511 307.583C140.085 306.761 139.853 305.86 139.833 304.944C139.813 304.027 140.005 303.118 140.396 302.28C140.787 301.442 141.367 300.695 142.095 300.092L133.298 279.436L145.267 281.727L151.786 300.992C152.773 302.219 153.251 303.746 153.129 305.285C153.008 306.823 152.295 308.266 151.126 309.34C149.957 310.413 148.414 311.043 146.788 311.11C145.162 311.177 143.566 310.676 142.304 309.702Z" fill="#FFB8B8"/>
<path d="M142.158 300.753C141.51 300.797 140.864 300.638 140.32 300.3C139.777 299.962 139.365 299.464 139.149 298.883L124.908 260.409L121.865 222.025C121.781 220.969 121.919 219.907 122.272 218.902C122.625 217.897 123.185 216.969 123.919 216.171C124.654 215.373 125.549 214.721 126.551 214.254C127.554 213.786 128.645 213.513 129.76 213.449C130.875 213.385 131.993 213.531 133.048 213.88C134.103 214.229 135.074 214.774 135.905 215.482C136.736 216.19 137.41 217.048 137.888 218.005C138.366 218.962 138.639 220 138.69 221.058L140.394 256.112L151.571 294.899C151.763 295.579 151.68 296.304 151.337 296.929C150.995 297.554 150.418 298.035 149.72 298.277L142.945 300.592C142.691 300.679 142.427 300.733 142.158 300.753Z" fill="#3F3D56"/>
<path d="M406.204 266.662C405.939 266.552 405.691 266.405 405.47 266.228L392.227 255.651C391.908 255.397 391.649 255.083 391.465 254.729C391.281 254.375 391.177 253.989 391.159 253.594C391.141 253.2 391.209 252.807 391.359 252.439C391.51 252.071 391.739 251.737 392.033 251.457L404.051 240.017C404.556 239.532 405.227 239.236 405.943 239.182C406.659 239.128 407.371 239.32 407.95 239.722L417.039 245.979C417.606 246.37 418.011 246.936 418.185 247.58C418.359 248.224 418.29 248.905 417.991 249.506L410.129 265.266C409.794 265.936 409.197 266.457 408.465 266.718C407.732 266.978 406.921 266.958 406.204 266.662L406.204 266.662Z" fill="#C7E0FF"/>
<path d="M457.859 416.25L449.949 418.29L437.884 390.337L449.558 387.326L457.859 416.25Z" fill="#FFB8B8"/>
<path d="M443.526 417.646L458.939 413.67L461.553 422.776L436.693 429.188L436.65 429.037C435.969 426.662 436.31 424.128 437.599 421.992C438.889 419.855 441.021 418.292 443.526 417.646Z" fill="#2F2E41"/>
<path d="M390.24 421.972L382.043 421.971L378.143 391.996L390.242 391.997L390.24 421.972Z" fill="#FFB8B8"/>
<path d="M376.023 419.751H391.997V429.187H366.234V429.031C366.234 426.57 367.265 424.209 369.101 422.469C370.937 420.728 373.427 419.751 376.023 419.751Z" fill="#2F2E41"/>
<path d="M402.589 224.06C411.659 224.06 419.011 217.09 419.011 208.491C419.011 199.893 411.659 192.922 402.589 192.922C393.519 192.922 386.167 199.893 386.167 208.491C386.167 217.09 393.519 224.06 402.589 224.06Z" fill="#FFB8B8"/>
<path d="M389.739 403.6H378.537C377.771 403.598 377.034 403.321 376.476 402.824C375.918 402.327 375.58 401.647 375.531 400.923C372.193 350.617 374.145 314.531 381.675 287.36C381.708 287.241 381.749 287.124 381.797 287.01L382.397 285.588C382.619 285.058 383.004 284.603 383.502 284.283C384.001 283.963 384.589 283.793 385.191 283.795H408.226C408.661 283.795 409.09 283.883 409.484 284.055C409.878 284.227 410.229 284.478 410.511 284.791L413.64 288.252C413.701 288.319 413.758 288.388 413.813 288.461C427.922 307.113 440.566 343.58 455.209 392.595C455.426 393.307 455.34 394.071 454.97 394.724C454.601 395.377 453.977 395.868 453.231 396.091L441.193 399.744C440.502 399.95 439.755 399.914 439.09 399.643C438.424 399.372 437.883 398.883 437.565 398.265L406.325 336.837C406.107 336.408 405.748 336.057 405.303 335.836C404.857 335.614 404.349 335.535 403.852 335.61C403.355 335.684 402.897 335.908 402.545 336.249C402.194 336.589 401.967 337.028 401.899 337.5L392.72 401.133C392.619 401.816 392.262 402.441 391.714 402.894C391.167 403.347 390.465 403.597 389.739 403.6Z" fill="#2F2E41"/>
<path d="M412.377 285.505C412.345 285.505 412.314 285.505 412.282 285.504L384.301 284.666C383.582 284.647 382.894 284.384 382.362 283.923C381.831 283.463 381.492 282.837 381.407 282.16C377.86 254.94 387.588 247.648 391.935 245.776C392.298 245.621 392.613 245.379 392.849 245.075C393.084 244.77 393.233 244.413 393.28 244.038L393.657 241.184C393.721 240.681 393.926 240.202 394.251 239.799C401.067 231.429 410.374 228.748 415.315 227.896C415.715 227.827 416.127 227.837 416.523 227.924C416.92 228.011 417.294 228.174 417.622 228.402C417.951 228.63 418.227 228.919 418.434 229.252C418.64 229.584 418.774 229.953 418.826 230.336L419.389 234.433C419.447 234.823 419.611 235.193 419.866 235.505C434.081 253.122 418.245 279.134 414.926 284.169C414.655 284.578 414.279 284.915 413.833 285.148C413.387 285.382 412.886 285.505 412.377 285.505Z" fill="#C7E0FF"/>
<path d="M420.658 198.809C419.438 195.303 418.538 191.705 417.966 188.054C417.787 185.928 418.361 183.641 419.994 182.174C423.05 179.429 428.242 180.736 431.438 183.334C436.057 187.089 438.361 192.858 439.231 198.567C440.102 204.275 439.719 210.08 439.928 215.845C440.138 221.609 441.007 227.537 444.107 232.5C447.207 237.463 452.96 241.272 459.027 240.85C461.477 240.725 463.802 239.79 465.601 238.209C466.483 237.413 467.152 236.428 467.55 235.336C467.949 234.244 468.065 233.078 467.89 231.935C470.991 237.199 469.419 244.335 464.793 248.473C460.167 252.612 453.052 253.782 446.97 252.015C440.889 250.248 435.884 245.817 432.894 240.495C429.905 235.172 428.809 229.024 428.968 222.996C429.09 218.367 429.92 213.7 429.095 209.136C428.27 204.572 425.257 199.938 420.506 198.863L420.658 198.809Z" fill="#2F2E41"/>
<path d="M399.322 204.809C398.512 207.375 395.414 208.956 392.627 208.523C391.239 208.249 389.956 207.624 388.912 206.715C387.869 205.806 387.105 204.646 386.7 203.358C385.935 200.749 386.248 197.961 387.577 195.564C388.309 194.127 389.333 192.841 390.59 191.779C391.847 190.718 393.312 189.902 394.902 189.378C396.501 188.875 398.204 188.745 399.868 188.996C401.531 189.248 403.107 189.876 404.461 190.826C404.605 190.249 404.909 189.72 405.341 189.292C405.772 188.864 406.317 188.552 406.918 188.39C408.127 188.081 409.404 188.099 410.604 188.442C414.061 189.376 417.057 191.442 419.058 194.272C421.034 197.094 422.341 200.289 422.89 203.636C423.833 208.655 423.485 214.14 420.511 218.388C417.538 222.636 411.454 225.145 406.519 223.119C406.211 221.628 406.94 220.126 407.784 218.834C408.627 217.541 409.627 216.282 409.951 214.794C410.275 213.306 409.654 211.485 408.135 210.998C406.839 210.583 405.458 211.256 404.093 211.337C403.318 211.383 402.544 211.235 401.848 210.908C401.152 210.581 400.559 210.086 400.129 209.473C399.699 208.86 399.446 208.151 399.396 207.416C399.346 206.681 399.501 205.947 399.845 205.287L399.322 204.809Z" fill="#2F2E41"/>
<path d="M357.701 268.947C357.973 269.185 358.224 269.443 358.453 269.719L391.513 267.28L394.999 260.395L406.647 264.024L400.346 280.354L358.703 277.704C357.88 278.807 356.722 279.647 355.384 280.111C354.046 280.575 352.59 280.642 351.211 280.303C349.831 279.964 348.594 279.235 347.662 278.213C346.73 277.19 346.149 275.923 345.995 274.58C345.842 273.237 346.123 271.881 346.802 270.694C347.481 269.506 348.525 268.542 349.796 267.931C351.067 267.319 352.504 267.089 353.916 267.27C355.328 267.452 356.648 268.037 357.701 268.947V268.947Z" fill="#FFB8B8"/>
<path d="M406.467 274.901C406.188 274.826 405.922 274.713 405.678 274.566L391.037 265.799C390.685 265.588 390.383 265.31 390.15 264.983C389.917 264.656 389.759 264.287 389.684 263.899C389.609 263.511 389.62 263.112 389.716 262.728C389.813 262.344 389.992 261.983 390.243 261.668L400.504 248.782C400.934 248.237 401.557 247.857 402.258 247.711C402.96 247.565 403.693 247.662 404.325 247.986L414.228 253.011C414.846 253.324 415.329 253.833 415.594 254.448C415.858 255.064 415.888 255.748 415.678 256.382L410.154 273.011C409.919 273.718 409.403 274.311 408.715 274.664C408.026 275.017 407.22 275.102 406.467 274.901Z" fill="#C7E0FF"/>
</g>
<g clip-path="url(#clip5_23_180)">
<circle cx="75.8505" cy="115.914" r="25" fill="#3F3D56"/>
<path d="M86.9637 123.386H83.8192V128.914H76.202V123.386H64.8153V117.722L76.6903 100.359H83.8192V117.625H86.9637V123.386ZM76.202 117.625V114.304C76.202 114.005 76.2085 113.627 76.2216 113.172C76.2346 112.716 76.2476 112.26 76.2606 111.804C76.2867 111.336 76.3062 110.945 76.3192 110.633C76.3453 110.307 76.3648 110.131 76.3778 110.105H76.163C75.9156 110.691 75.6877 111.179 75.4794 111.57C75.271 111.948 74.9976 112.397 74.6591 112.918L71.495 117.625H76.202Z" fill="white"/>
</g>
<g clip-path="url(#clip6_23_180)">
<circle cx="651.905" cy="77.2427" r="25" fill="#3F3D56"/>
<path d="M661.143 67.8794C661.143 69.2336 660.85 70.4054 660.264 71.395C659.691 72.3716 658.923 73.1724 657.959 73.7974C657.009 74.4224 655.967 74.8911 654.834 75.2036V75.3208C657.113 75.6073 658.871 76.3039 660.108 77.4106C661.358 78.5044 661.983 80.0604 661.983 82.0786C661.983 83.6411 661.566 85.0734 660.733 86.3755C659.899 87.6646 658.604 88.6997 656.846 89.481C655.088 90.2492 652.829 90.6333 650.069 90.6333C648.22 90.6333 646.644 90.4966 645.342 90.2231C644.04 89.9497 642.777 89.5721 641.553 89.0903V82.6841C642.79 83.3221 644.06 83.7974 645.362 84.1099C646.677 84.4093 647.875 84.5591 648.955 84.5591C650.83 84.5591 652.106 84.2922 652.784 83.7583C653.474 83.2244 653.819 82.5083 653.819 81.6099C653.819 80.9588 653.656 80.4054 653.33 79.9497C653.005 79.494 652.399 79.1424 651.514 78.895C650.642 78.6476 649.385 78.5239 647.745 78.5239H645.987V72.7231H647.784C649.242 72.7231 650.394 72.5929 651.241 72.3325C652.1 72.0721 652.718 71.7205 653.096 71.2778C653.474 70.8221 653.662 70.3013 653.662 69.7153C653.662 68.9601 653.37 68.4002 652.784 68.0356C652.198 67.6711 651.423 67.4888 650.459 67.4888C649.6 67.4888 648.793 67.606 648.037 67.8403C647.282 68.0747 646.625 68.3351 646.065 68.6216C645.505 68.908 645.082 69.1424 644.795 69.3247L641.592 64.1685C642.777 63.3612 644.131 62.6776 645.655 62.1177C647.191 61.5578 649.196 61.2778 651.67 61.2778C654.613 61.2778 656.924 61.8638 658.604 63.0356C660.297 64.2075 661.143 65.8221 661.143 67.8794Z" fill="white"/>
</g>
<g clip-path="url(#clip7_23_180)">
<circle cx="730.146" cy="304.293" r="25" fill="#3F3D56"/>
<path d="M740.341 317.293H719.618V312.215L726.591 305.165C728.036 303.654 729.156 302.443 729.95 301.532C730.757 300.62 731.324 299.846 731.649 299.208C731.975 298.569 732.138 297.905 732.138 297.215C732.138 296.369 731.864 295.757 731.317 295.379C730.771 295.002 730.126 294.813 729.384 294.813C728.485 294.813 727.574 295.073 726.649 295.594C725.738 296.102 724.703 296.857 723.544 297.86L719.306 292.899C720.165 292.131 721.076 291.402 722.04 290.711C723.004 290.008 724.143 289.435 725.458 288.993C726.773 288.55 728.375 288.329 730.263 288.329C732.203 288.329 733.882 288.667 735.302 289.344C736.734 290.021 737.841 290.952 738.622 292.137C739.403 293.309 739.794 294.644 739.794 296.141C739.794 297.795 739.488 299.273 738.876 300.575C738.277 301.864 737.372 303.159 736.161 304.461C734.95 305.75 733.44 307.215 731.63 308.856L729.54 310.731V310.926H740.341V317.293Z" fill="white"/>
</g>
<g clip-path="url(#clip8_23_180)">
<circle cx="806.875" cy="57.9365" r="25" fill="#3F3D56"/>
<path d="M813.555 70.9365H805.723V56.8154C805.723 56.555 805.723 56.0798 805.723 55.3896C805.723 54.6865 805.729 53.9118 805.742 53.0654C805.768 52.2191 805.801 51.4574 805.84 50.7803C805.501 51.1839 805.182 51.529 804.883 51.8154C804.596 52.1019 804.317 52.3688 804.043 52.6162L800.801 55.292L796.797 50.3701L806.602 42.3818H813.555V70.9365Z" fill="white"/>
</g>
<g clip-path="url(#clip9_23_180)">
<path d="M521.368 194.209C522.048 194.89 522.941 195.273 523.877 195.273L542.838 195.273C544.794 195.273 546.41 193.656 546.41 191.698C546.41 189.74 544.794 188.122 542.838 188.122L527.533 188.122L527.533 172.798C527.533 170.84 525.917 169.222 523.962 169.222C522.941 169.222 522.091 169.648 521.453 170.286C520.816 170.925 520.39 171.861 520.39 172.798L520.305 191.698C520.305 192.634 520.688 193.528 521.368 194.209L521.368 194.209Z" fill="black"/>
<path d="M510.952 208.214L529.914 208.214C531.869 208.214 533.485 206.596 533.485 204.638C533.485 202.68 531.869 201.063 529.914 201.063L514.608 201.063L514.608 185.738C514.608 183.78 512.993 182.163 511.037 182.163C510.017 182.163 509.166 182.588 508.529 183.227C507.891 183.865 507.466 184.802 507.466 185.738L507.466 204.724C507.381 206.597 508.996 208.215 510.952 208.214L510.952 208.214Z" fill="black"/>
<path d="M498.027 221.155L516.989 221.155C518.945 221.155 520.56 219.537 520.56 217.579C520.56 215.621 518.945 214.003 516.989 214.003L501.683 214.003L501.683 198.594C501.683 196.636 500.068 195.018 498.112 195.018C497.092 195.018 496.242 195.444 495.604 196.082C494.966 196.721 494.541 197.657 494.541 198.594L494.541 217.579C494.456 219.537 496.072 221.155 498.027 221.155L498.027 221.155Z" fill="black"/>
</g>
<defs>
<clipPath id="clip0_23_180">
<rect width="50.6105" height="50.6522" fill="white" transform="matrix(0.865669 -0.500618 0.499383 0.866381 935.18 66.0435)"/>
</clipPath>
<clipPath id="clip1_23_180">
<rect width="50.6105" height="50.6522" fill="white" transform="matrix(0.865669 0.500618 -0.499383 0.866381 960.475 142.053)"/>
</clipPath>
<clipPath id="clip2_23_180">
<rect width="75.2039" height="75.2039" fill="white" transform="matrix(0.706673 0.70754 -0.706673 0.70754 835.02 152.882)"/>
</clipPath>
<clipPath id="clip3_23_180">
<rect width="75.2039" height="75.2039" fill="white" transform="matrix(-0.706673 0.70754 -0.706673 -0.70754 732.574 187.895)"/>
</clipPath>
<clipPath id="clip4_23_180">
<rect width="501.052" height="430" fill="white" transform="translate(27.6411)"/>
</clipPath>
<clipPath id="clip5_23_180">
<rect width="50.1113" height="50" fill="white" transform="translate(50.8505 90.9138)"/>
</clipPath>
<clipPath id="clip6_23_180">
<rect width="50.1113" height="50" fill="white" transform="translate(626.905 52.2427)"/>
</clipPath>
<clipPath id="clip7_23_180">
<rect width="50.1113" height="50" fill="white" transform="translate(705.146 279.293)"/>
</clipPath>
<clipPath id="clip8_23_180">
<rect width="50.1113" height="50" fill="white" transform="translate(781.875 32.9365)"/>
</clipPath>
<clipPath id="clip9_23_180">
<rect width="75.2039" height="75.2039" fill="white" transform="matrix(0.706673 0.70754 -0.706673 0.70754 510.399 151.982)"/>
</clipPath>
</defs>
</svg>
