<svg width="700" height="450" viewBox="0 0 700 450" fill="none" xmlns="http://www.w3.org/2000/svg">
<g clip-path="url(#clip0_74_117)">
<path d="M95.0654 448.43C95.0571 448.453 95.0571 448.482 95.0487 448.505H40.8953C39.8759 447.929 38.8732 447.331 37.8872 446.726C31.7986 443.034 26.1758 438.763 21.1173 433.986C15.3186 428.458 10.5279 422.148 6.92095 415.287C-0.223186 401.65 -2.42074 386.137 3.11075 372.119C3.11072 372.118 3.11091 372.117 3.11132 372.116C3.11173 372.115 3.11235 372.114 3.11313 372.113C3.11391 372.113 3.11485 372.112 3.11587 372.112C3.1169 372.111 3.11799 372.111 3.1191 372.111C3.25279 371.76 3.4032 371.401 3.5536 371.042C3.7792 371.393 3.99645 371.737 4.23041 372.081L4.23876 372.089C7.34351 376.763 10.8643 381.206 14.767 385.374V385.382C15.0678 385.703 15.3686 386.025 15.6777 386.339C15.6777 386.34 15.6779 386.341 15.6783 386.342C15.6787 386.343 15.6793 386.343 15.6801 386.344C15.6809 386.345 15.6818 386.345 15.6829 386.346C15.6839 386.346 15.685 386.346 15.6861 386.346C25.1623 396.259 36.6111 404.513 49.4516 410.689C49.4933 410.712 49.5268 410.727 49.5685 410.749C49.6114 410.772 49.6561 410.792 49.7022 410.809C49.7106 410.816 49.7189 410.816 49.7273 410.824C52.5766 412.2 55.5011 413.456 58.4757 414.592V414.599C60.8153 415.504 63.1967 416.326 65.5948 417.089C70.7085 418.697 76.2233 420.162 81.1197 422.278C85.8825 424.334 90.0771 427.003 92.8094 431.018C93.0183 431.347 93.2272 431.668 93.4193 431.997L91.8234 441.881L95.0069 441.866L94.7061 446.726L94.6226 448.131L95.0654 448.43Z" fill="#F0F0F0"/>
<path d="M81.6963 448.505H80.5516C80.4429 447.907 80.3343 447.316 80.209 446.726C79.8844 445.109 79.4435 443.514 78.8888 441.948C78.6381 441.245 78.354 440.558 78.0282 439.877C76.1815 436.005 73.0064 432.603 68.3105 431.466C66.9435 431.142 65.5382 430.964 64.1243 430.936C61.3251 430.831 58.4841 431.152 55.7017 431.287C55.0166 431.317 54.323 431.339 53.6546 431.332H53.6379C50.0192 431.385 46.4305 430.737 43.118 429.433C39.0272 427.68 35.3023 425.313 32.1051 422.435C30.0131 420.643 28.0247 418.756 26.1475 416.783V416.775C25.8968 416.529 25.6545 416.274 25.4122 416.013C20.9883 411.256 17.1216 406.105 13.873 400.641C12.2168 397.88 10.73 395.039 9.41939 392.133C9.40202 392.107 9.388 392.08 9.37761 392.051C6.44535 385.643 4.34273 378.955 3.11082 372.119C3.1108 372.118 3.111 372.117 3.11141 372.116C3.11182 372.115 3.11243 372.114 3.11321 372.113C3.11399 372.113 3.11492 372.112 3.11595 372.112C3.11697 372.111 3.11808 372.111 3.11919 372.111C3.05238 371.805 3.00224 371.491 2.95206 371.184C2.84344 370.549 3.97147 370.519 4.07174 371.154C4.12187 371.468 4.172 371.767 4.23049 372.081L4.23885 372.089C5.4245 378.635 7.41406 385.043 10.1714 391.199V391.206C10.3135 391.52 10.4555 391.827 10.5976 392.133C14.5197 400.646 19.889 408.564 26.5152 415.609L26.5236 415.624C26.5904 415.699 26.6656 415.766 26.7408 415.841C26.744 415.844 26.7464 415.847 26.7478 415.851C26.7493 415.855 26.7497 415.859 26.7492 415.863C26.7575 415.856 26.7575 415.863 26.7575 415.863C28.3033 417.501 29.9243 419.071 31.6122 420.596C34.7332 423.546 38.3537 426.039 42.3409 427.982C45.6703 429.508 49.354 430.312 53.0947 430.33C53.4707 430.33 53.8467 430.337 54.2228 430.33C54.5236 430.33 54.8244 430.323 55.1252 430.308C57.9578 430.188 60.8321 429.866 63.6814 429.911C64.9772 429.934 66.2685 430.054 67.5418 430.27C69.6331 430.671 71.6061 431.463 73.3312 432.595C75.0564 433.726 76.4947 435.171 77.5519 436.834C78.6148 438.442 79.4618 440.156 80.0754 441.941C80.2843 442.524 80.4597 443.115 80.6352 443.713V443.72C80.9026 444.677 81.1365 445.649 81.3371 446.629C81.3467 446.66 81.3523 446.693 81.3538 446.726C81.479 447.316 81.5877 447.914 81.6963 448.505Z" fill="white"/>
<path d="M26.5763 416.502C23.7122 418.411 20.1831 419.346 16.6193 419.142C13.0555 418.937 9.689 417.606 7.12108 415.385C6.60321 414.934 7.36196 414.193 7.88052 414.645C10.2675 416.716 13.4035 417.956 16.7226 418.141C20.0416 418.325 23.3251 417.442 25.9803 415.651C26.5578 415.262 27.1505 416.116 26.5763 416.502Z" fill="white"/>
<path d="M53.0474 430.638C54.1687 424.184 52.5299 417.588 48.4579 412.167C48.0539 411.63 49.0063 411.098 49.4097 411.634C53.6355 417.283 55.3253 424.149 54.1419 430.863C54.0286 431.503 52.9348 431.275 53.0474 430.638Z" fill="white"/>
<path d="M9.86847 391.339C11.1486 390.808 12.2611 389.999 13.106 388.988C13.9509 387.976 14.5018 386.793 14.7091 385.543C14.8133 384.903 15.9071 385.132 15.8036 385.769C15.5674 387.148 14.9572 388.454 14.0265 389.574C13.0958 390.693 11.8728 391.592 10.4645 392.191C10.337 392.258 10.186 392.278 10.0423 392.248C9.89852 392.219 9.77275 392.141 9.69052 392.032C9.61224 391.919 9.58702 391.783 9.62034 391.653C9.65367 391.523 9.74285 391.411 9.86849 391.339H9.86847Z" fill="white"/>
<path d="M103.237 415.616L102.778 419.407L95.4665 419.309L94.3635 426.143L94.1714 427.317V427.324L93.4193 431.997L91.8234 441.881L95.0069 441.866L94.7061 446.725L94.6226 448.131L95.0654 448.43L95.1657 448.505L95.1991 448.527C95.1072 448.692 95.0069 448.856 94.9066 449.028C94.9651 448.849 95.0069 448.684 95.0487 448.505H73.892C73.4993 447.914 73.1149 447.324 72.7389 446.725C69.4741 441.641 66.596 436.366 64.1242 430.935C63.9738 430.599 63.815 430.262 63.6813 429.918V429.911C61.4835 424.942 59.7425 419.821 58.4757 414.599V414.592C57.7892 411.732 57.2677 408.842 56.9132 405.934C56.0074 398.418 56.4275 390.822 58.1582 383.423C58.1722 383.386 58.1834 383.349 58.1916 383.311C61.5256 369.188 69.6557 356.134 82.5318 347.865C83.0666 347.506 83.6181 347.17 84.1779 346.841C84.1863 346.833 84.1863 346.833 84.1946 346.833C84.1957 346.833 84.1968 346.833 84.1978 346.833C84.1989 346.832 84.1998 346.832 84.2006 346.831C84.2014 346.83 84.202 346.83 84.2024 346.829C84.2028 346.828 84.203 346.827 84.203 346.826C84.5539 346.624 84.8965 346.422 85.2474 346.22C85.1973 346.624 85.1388 347.028 85.097 347.431C84.4219 352.832 84.243 358.273 84.5623 363.7V363.715C84.5706 364.134 84.5957 364.552 84.6291 364.978V364.993C85.54 378.033 89.1407 390.808 95.2492 402.674C95.2596 402.706 95.2736 402.736 95.291 402.764C95.3077 402.802 95.3244 402.831 95.3412 402.869C97.6262 407.283 100.265 411.543 103.237 415.616Z" fill="#F0F0F0"/>
<path d="M85.597 346.589C85.4296 346.865 85.2553 347.149 85.0976 347.431C83.8497 349.543 82.7011 351.699 81.6516 353.901C79.7761 357.79 78.2161 361.795 76.9837 365.884C76.8838 366.203 76.7853 366.529 76.6951 366.854C74.0907 375.776 73.0489 385.005 73.6067 394.213C73.6072 394.304 73.6145 394.387 73.6233 394.476C73.7563 396.625 73.9867 398.767 74.3146 400.901C74.8194 404.938 76.031 408.878 77.905 412.578C78.1673 413.061 78.4447 413.534 78.7357 413.99C79.46 415.106 80.3007 416.158 81.2466 417.132C81.9286 417.844 82.6635 418.514 83.4462 419.138C83.9181 419.52 84.4051 419.893 84.914 420.247C85.2078 420.452 85.5097 420.656 85.8117 420.86C86.0612 421.011 86.3039 421.171 86.5534 421.323C89.1475 422.911 91.9455 424.325 94.3637 426.145L94.1739 427.32C91.817 425.421 88.9723 423.985 86.3561 422.415C84.7168 421.444 83.1819 420.34 81.7715 419.114C81.5865 418.946 81.3933 418.778 81.215 418.601C80.2605 417.721 79.3985 416.764 78.6399 415.742C78.2537 415.233 77.8895 414.705 77.5457 414.151C75.4687 410.548 74.0905 406.655 73.47 402.64C73.0052 400.078 72.6849 397.496 72.5103 394.905C72.4796 394.569 72.4585 394.238 72.4442 393.899C72.117 387.719 72.4956 381.524 73.5741 375.413C74.9358 367.66 77.4039 360.097 80.918 352.906C81.9216 350.848 83.016 348.821 84.2013 346.826C84.3522 346.552 84.5128 346.285 84.6803 346.009C85.0204 345.441 85.9372 346.02 85.597 346.589Z" fill="white"/>
<path d="M73.0437 394.919C69.4726 394.9 66.0254 393.746 63.3176 391.662C60.6098 389.579 58.8178 386.703 58.2616 383.546C58.1515 382.907 59.2561 382.724 59.3663 383.364C59.8782 386.304 61.5477 388.983 64.0737 390.919C66.5996 392.854 69.8155 393.918 73.1409 393.918C73.8636 393.919 73.7622 394.92 73.0437 394.919V394.919Z" fill="white"/>
<path d="M84.6676 420.466C89.9059 415.917 93.0353 409.768 93.4319 403.246C93.4706 402.6 94.5894 402.687 94.5507 403.333C94.1239 410.119 90.8527 416.512 85.3899 421.236C84.8689 421.686 84.1493 420.914 84.6675 420.466H84.6676Z" fill="white"/>
<path d="M76.6349 365.827C78.0149 366.092 79.4469 366.046 80.8022 365.693C82.1575 365.341 83.3938 364.693 84.3999 363.807C84.9143 363.351 85.6333 364.124 85.1223 364.576C84.0056 365.55 82.6393 366.265 81.1429 366.657C79.6464 367.05 78.0653 367.108 76.5377 366.828C76.3912 366.812 76.2569 366.747 76.162 366.646C76.0671 366.545 76.0188 366.416 76.0269 366.284C76.0405 366.151 76.112 366.029 76.2259 365.944C76.3397 365.858 76.4867 365.816 76.6349 365.827H76.6349Z" fill="white"/>
<path d="M249.529 449.11C249.53 449.227 249.504 449.343 249.454 449.451C249.405 449.559 249.331 449.658 249.239 449.74C249.147 449.823 249.037 449.888 248.916 449.933C248.795 449.978 248.666 450 248.535 450H14.3325C14.2019 450 14.0726 449.977 13.9519 449.932C13.8313 449.888 13.7217 449.822 13.6294 449.739C13.537 449.657 13.4638 449.559 13.4138 449.451C13.3638 449.343 13.3381 449.227 13.3381 449.11C13.3381 448.994 13.3638 448.878 13.4138 448.77C13.4638 448.662 13.537 448.564 13.6294 448.481C13.7217 448.399 13.8313 448.333 13.9519 448.288C14.0726 448.244 14.2019 448.221 14.3325 448.221H248.535C248.666 448.22 248.795 448.243 248.916 448.288C249.037 448.332 249.146 448.398 249.239 448.48C249.331 448.563 249.405 448.661 249.454 448.769C249.504 448.878 249.53 448.993 249.529 449.11Z" fill="#CCCCCC"/>
<path d="M654.842 82.927H503.423C502.774 82.9278 502.131 82.8141 501.531 82.5923C500.931 82.3706 500.386 82.0453 499.927 81.6349C499.467 81.2245 499.103 80.7371 498.854 80.2007C498.606 79.6642 498.478 79.0892 498.478 78.5084C498.478 77.9277 498.606 77.3526 498.854 76.8162C499.103 76.2797 499.467 75.7924 499.927 75.382C500.386 74.9716 500.931 74.6463 501.531 74.4245C502.131 74.2028 502.774 74.0891 503.423 74.0898H654.842C655.491 74.0891 656.134 74.2028 656.734 74.4245C657.334 74.6463 657.879 74.9716 658.338 75.382C658.797 75.7924 659.162 76.2797 659.41 76.8162C659.659 77.3526 659.787 77.9277 659.787 78.5084C659.787 79.0892 659.659 79.6642 659.41 80.2007C659.162 80.7371 658.797 81.2245 658.338 81.6349C657.879 82.0453 657.334 82.3706 656.734 82.5923C656.134 82.8141 655.491 82.9278 654.842 82.927Z" fill="#C7E0FF"/>
<path d="M654.842 100.387H503.423C502.114 100.385 500.86 99.9192 499.935 99.0907C499.01 98.2622 498.491 97.1391 498.491 95.9681C498.491 94.7972 499.01 93.6741 499.935 92.8456C500.86 92.0171 502.114 91.5508 503.423 91.5493H654.842C656.151 91.5508 657.405 92.0171 658.33 92.8456C659.255 93.6741 659.774 94.7972 659.774 95.9681C659.774 97.1391 659.255 98.2622 658.33 99.0907C657.405 99.9192 656.151 100.385 654.842 100.387Z" fill="#C7E0FF"/>
<path d="M569.059 118.847H503.423C502.114 118.845 500.86 118.379 499.935 117.551C499.01 116.722 498.491 115.599 498.491 114.428C498.491 113.257 499.01 112.134 499.935 111.306C500.86 110.477 502.114 110.011 503.423 110.009H569.059C569.708 110.009 570.351 110.122 570.951 110.344C571.551 110.566 572.096 110.891 572.555 111.301C573.015 111.712 573.379 112.199 573.628 112.736C573.876 113.272 574.004 113.847 574.004 114.428C574.004 115.009 573.876 115.584 573.628 116.12C573.379 116.657 573.015 117.144 572.555 117.555C572.096 117.965 571.551 118.29 570.951 118.512C570.351 118.734 569.708 118.848 569.059 118.847Z" fill="#C7E0FF"/>
<path d="M654.842 182.223H503.423C502.113 182.223 500.857 181.758 499.931 180.929C499.005 180.101 498.484 178.977 498.484 177.805C498.484 176.633 499.005 175.509 499.931 174.68C500.857 173.852 502.113 173.386 503.423 173.386H654.842C656.152 173.386 657.408 173.852 658.334 174.68C659.26 175.509 659.78 176.633 659.78 177.805C659.78 178.977 659.26 180.101 658.334 180.929C657.408 181.758 656.152 182.223 654.842 182.223Z" fill="#E6E6E6"/>
<path d="M654.842 199.684H503.423C502.113 199.684 500.857 199.218 499.931 198.39C499.004 197.561 498.484 196.437 498.484 195.265C498.484 194.093 499.004 192.969 499.931 192.14C500.857 191.312 502.113 190.846 503.423 190.846H654.842C656.152 190.846 657.408 191.312 658.334 192.14C659.26 192.969 659.78 194.093 659.78 195.265C659.78 196.437 659.26 197.561 658.334 198.39C657.408 199.218 656.152 199.684 654.842 199.684Z" fill="#E6E6E6"/>
<path d="M569.059 217.144H503.423C502.113 217.144 500.857 216.678 499.931 215.85C499.004 215.021 498.484 213.897 498.484 212.725C498.484 211.553 499.004 210.429 499.931 209.6C500.857 208.772 502.113 208.306 503.423 208.306H569.059C569.708 208.305 570.351 208.419 570.951 208.641C571.551 208.863 572.096 209.188 572.555 209.598C573.015 210.009 573.379 210.496 573.628 211.033C573.876 211.569 574.004 212.144 574.004 212.725C574.004 213.306 573.876 213.881 573.628 214.417C573.379 214.954 573.015 215.441 572.555 215.852C572.096 216.262 571.551 216.587 570.951 216.809C570.351 217.031 569.708 217.145 569.059 217.144Z" fill="#E6E6E6"/>
<path d="M654.842 286.98H503.423C502.774 286.98 502.132 286.865 501.533 286.643C500.934 286.421 500.389 286.096 499.931 285.686C499.472 285.275 499.108 284.788 498.86 284.252C498.612 283.716 498.484 283.141 498.484 282.561C498.484 281.981 498.612 281.406 498.86 280.87C499.108 280.334 499.472 279.847 499.931 279.437C500.389 279.026 500.934 278.701 501.533 278.479C502.132 278.257 502.774 278.143 503.423 278.143H654.842C655.49 278.143 656.133 278.257 656.732 278.479C657.331 278.701 657.875 279.026 658.334 279.437C658.792 279.847 659.156 280.334 659.404 280.87C659.653 281.406 659.78 281.981 659.78 282.561C659.78 283.141 659.653 283.716 659.404 284.252C659.156 284.788 658.792 285.275 658.334 285.686C657.875 286.096 657.331 286.421 656.732 286.643C656.133 286.865 655.49 286.98 654.842 286.98Z" fill="#E6E6E6"/>
<path d="M654.842 304.44H503.423C502.114 304.439 500.86 303.972 499.935 303.144C499.01 302.315 498.491 301.192 498.491 300.021C498.491 298.85 499.01 297.727 499.935 296.899C500.86 296.07 502.114 295.604 503.423 295.603H654.842C656.151 295.604 657.405 296.07 658.33 296.899C659.255 297.727 659.774 298.85 659.774 300.021C659.774 301.192 659.255 302.315 658.33 303.144C657.405 303.972 656.151 304.439 654.842 304.44Z" fill="#E6E6E6"/>
<path d="M569.059 321.9H503.423C502.113 321.9 500.857 321.435 499.931 320.606C499.004 319.777 498.484 318.653 498.484 317.481C498.484 316.309 499.004 315.185 499.931 314.357C500.857 313.528 502.113 313.063 503.423 313.063H569.059C569.708 313.062 570.351 313.175 570.951 313.397C571.551 313.619 572.096 313.944 572.555 314.355C573.015 314.765 573.379 315.252 573.628 315.789C573.876 316.325 574.004 316.901 574.004 317.481C574.004 318.062 573.876 318.637 573.628 319.174C573.379 319.71 573.015 320.198 572.555 320.608C572.096 321.018 571.551 321.344 570.951 321.565C570.351 321.787 569.708 321.901 569.059 321.9Z" fill="#E6E6E6"/>
<path d="M443.015 230.264H351.857C349.414 230.262 347.072 229.392 345.344 227.847C343.617 226.301 342.645 224.205 342.642 222.019V168.511C342.645 166.325 343.617 164.229 345.344 162.684C347.072 161.138 349.414 160.269 351.857 160.266H443.015C445.458 160.269 447.8 161.138 449.527 162.684C451.255 164.229 452.226 166.325 452.229 168.511V222.019C452.226 224.205 451.255 226.301 449.527 227.847C447.8 229.392 445.458 230.262 443.015 230.264Z" fill="#E6E6E6"/>
<path d="M436.608 166.952H358.266C356.042 166.954 353.909 167.745 352.335 169.152C350.762 170.56 349.877 172.468 349.873 174.458V216.07C349.876 218.061 350.762 219.969 352.335 221.377C353.908 222.785 356.041 223.577 358.266 223.58H408.222C417.972 223.571 427.321 220.101 434.215 213.933C441.109 207.764 444.987 199.399 444.997 190.675V174.458C444.994 172.468 444.11 170.56 442.537 169.153C440.965 167.746 438.832 166.954 436.608 166.952Z" fill="white"/>
<path d="M414.468 181.02L414.234 181.398C416.318 176.802 414.423 171.14 410.706 167.674C406.988 164.209 401.82 162.625 396.731 161.996C392.953 161.53 389.031 161.543 385.439 162.782C380.237 164.575 376.263 168.725 372.945 173.043C371.427 175.018 369.935 177.27 370.086 179.738C370.226 182.029 371.746 183.973 372.99 185.917C374.235 187.86 375.274 190.271 374.381 192.393C373.849 193.657 372.724 194.567 371.811 195.601C370.898 196.635 370.148 198.033 370.589 199.33C370.784 199.827 371.121 200.269 371.565 200.615C372.009 200.96 372.545 201.196 373.122 201.3C374.239 201.467 375.381 201.443 376.488 201.229L405.495 197.308C407.466 197.041 409.336 196.352 410.945 195.299C412.554 194.246 413.855 192.861 414.736 191.261C415.618 189.661 416.054 187.895 416.007 186.111C415.96 184.328 415.433 182.581 414.468 181.02Z" fill="#2F2E41"/>
<path d="M392.892 197.127C400.725 197.127 407.075 191.445 407.075 184.437C407.075 177.428 400.725 171.747 392.892 171.747C385.06 171.747 378.71 177.428 378.71 184.437C378.71 191.445 385.06 197.127 392.892 197.127Z" fill="#FFB9B9"/>
<path d="M429.901 217.239C423.615 221.366 416.019 223.588 408.222 223.58H364.702C364.615 223.516 364.531 223.453 364.444 223.386L368.503 213.252C369.42 211.453 370.867 209.91 372.69 208.79C374.512 207.671 376.641 207.016 378.848 206.896L381.43 206.754L387.587 202.003C387.587 202.003 404.176 201.473 403.93 201.219L413.979 206.627L413.97 206.59L417.921 206.807C420.127 206.926 422.256 207.58 424.079 208.7C425.901 209.82 427.349 211.363 428.265 213.163L429.901 217.239Z" fill="#C7E0FF"/>
<path d="M406.344 172.659C405.978 170.926 404.003 170.134 402.311 169.75C397.402 168.629 392.295 168.378 387.279 169.011C383.622 169.478 379.878 170.507 377.225 173.061C375.085 175.211 373.873 177.974 373.805 180.853C373.697 182.574 374.127 184.288 375.047 185.803C375.458 186.508 376.067 187.106 376.814 187.537C377.562 187.968 378.421 188.217 379.309 188.261L379.479 188.791C386.6 187.903 393.214 183.939 397.38 178.062C396.598 180.56 395.042 182.809 392.892 184.549C397.699 182.828 401.878 179.947 404.963 176.226C405.805 175.225 406.623 173.978 406.344 172.659Z" fill="#2F2E41"/>
<path d="M443.015 130.967H351.857C349.414 130.965 347.072 130.095 345.344 128.55C343.617 127.004 342.645 124.908 342.642 122.722V69.2142C342.645 67.0282 343.617 64.9325 345.344 63.3869C347.072 61.8412 349.414 60.9717 351.857 60.9692H443.015C445.458 60.9717 447.8 61.8412 449.527 63.3868C451.255 64.9325 452.226 67.0282 452.229 69.2142V122.722C452.226 124.908 451.255 127.004 449.527 128.55C447.8 130.095 445.458 130.965 443.015 130.967Z" fill="#CCCCCC"/>
<path d="M436.608 67.6553H358.266C356.042 67.6577 353.909 68.4491 352.336 69.8561C350.763 71.2631 349.877 73.1708 349.873 75.1611V116.773C349.876 118.764 350.762 120.673 352.335 122.08C353.908 123.488 356.041 124.28 358.266 124.283H408.222C417.973 124.276 427.322 120.807 434.217 114.637C441.112 108.468 444.989 100.103 444.997 91.3782V75.161C444.994 73.171 444.11 71.2631 442.537 69.856C440.965 68.4488 438.832 67.6574 436.608 67.6553Z" fill="white"/>
<path d="M378.607 75.7279C382.297 75.7279 385.288 73.0515 385.288 69.7502C385.288 66.4488 382.297 63.7725 378.607 63.7725C374.918 63.7725 371.927 66.4488 371.927 69.7502C371.927 73.0515 374.918 75.7279 378.607 75.7279Z" fill="#2F2E41"/>
<path d="M389.296 98.4432C398.644 98.4432 406.221 91.6633 406.221 83.2997C406.221 74.9362 398.644 68.1562 389.296 68.1562C379.949 68.1562 372.372 74.9362 372.372 83.2997C372.372 91.6633 379.949 98.4432 389.296 98.4432Z" fill="#2F2E41"/>
<path d="M390.697 98.4397C398.293 98.4397 404.45 92.9302 404.45 86.1339C404.45 79.3376 398.293 73.8281 390.697 73.8281C383.101 73.8281 376.944 79.3376 376.944 86.1339C376.944 92.9302 383.101 98.4397 390.697 98.4397Z" fill="#9E616A"/>
<path d="M400.037 73.5895C397.627 72.2749 394.866 71.5638 392.044 71.5305C389.222 71.4972 386.441 72.143 383.994 73.4003C381.546 74.6576 379.52 76.4802 378.129 78.6776C376.738 80.875 376.032 83.3665 376.085 85.8915C383.093 87.4658 390.456 88.6706 397.929 86.2681L399.694 82.4032L400.734 86.2709C403.01 87.1033 405.292 87.8076 407.574 86.2629C407.667 83.745 407.02 81.2493 405.697 79.0253C404.375 76.8013 402.423 74.9269 400.037 73.5895Z" fill="#2F2E41"/>
<path d="M372.387 53.523C370.041 52.6272 367.463 52.3366 364.942 52.6841C362.421 53.0315 360.06 54.0031 358.124 55.489C356.231 57.0172 354.79 58.9407 353.93 61.0881C353.069 63.2355 352.815 65.54 353.192 67.7963C353.949 72.3855 357.067 76.3374 359.941 80.1983C362.815 84.0593 365.623 88.2899 365.62 92.9289C365.618 96.2701 364.135 99.4742 361.496 101.838C358.857 104.203 355.279 105.534 351.544 105.541C355.927 107.229 360.501 108.95 365.268 108.75C370.034 108.55 375.03 105.808 375.807 101.596C376.368 98.5607 374.703 95.601 373.315 92.7866C371.055 88.2005 369.42 83.3872 368.448 78.4508C367.985 76.0948 367.683 73.618 368.541 71.3524C369.225 69.6735 370.493 68.2357 372.16 67.2508C373.826 66.266 375.802 65.7863 377.796 65.8825L379.371 64.6147C379.64 62.3457 379.113 60.0578 377.861 58.0698C376.609 56.0817 374.696 54.4924 372.387 53.523Z" fill="#2F2E41"/>
<path d="M427.077 119.617C421.383 122.678 414.864 124.291 408.222 124.283H361.078L361.003 124.227L365.061 114.09C365.979 112.29 367.426 110.748 369.249 109.629C371.071 108.51 373.2 107.856 375.406 107.737L377.988 107.595L384.145 102.844C384.145 102.844 400.735 102.31 400.489 102.057L410.537 107.465L410.529 107.431L414.479 107.648C416.686 107.765 418.815 108.419 420.638 109.538C422.461 110.657 423.908 112.2 424.824 114L427.077 119.617Z" fill="#C7E0FF"/>
<path d="M443.015 335.021H351.857C349.414 335.018 347.072 334.149 345.344 332.603C343.617 331.057 342.645 328.962 342.642 326.776V273.267C342.645 271.081 343.617 268.986 345.344 267.44C347.072 265.894 349.414 265.025 351.857 265.022H443.015C445.458 265.025 447.8 265.894 449.527 267.44C451.255 268.986 452.226 271.081 452.229 273.267V326.776C452.226 328.962 451.255 331.057 449.527 332.603C447.8 334.149 445.458 335.018 443.015 335.021Z" fill="#E6E6E6"/>
<path d="M436.608 271.708H358.266C356.042 271.71 353.909 272.502 352.335 273.909C350.762 275.316 349.877 277.224 349.873 279.214V320.826C349.876 322.817 350.762 324.726 352.335 326.133C353.908 327.541 356.041 328.333 358.266 328.336H408.222C417.972 328.327 427.321 324.858 434.215 318.689C441.11 312.52 444.987 304.156 444.997 295.431V279.214C444.994 277.224 444.11 275.316 442.537 273.909C440.965 272.502 438.832 271.711 436.608 271.708Z" fill="white"/>
<path d="M397.368 298.18C407.789 298.18 416.237 290.621 416.237 281.296C416.237 271.972 407.789 264.413 397.368 264.413C386.946 264.413 378.498 271.972 378.498 281.296C378.498 290.621 386.946 298.18 397.368 298.18Z" fill="#2F2E41"/>
<path d="M397.375 300.398C406.685 300.398 414.232 293.645 414.232 285.315C414.232 276.985 406.685 270.232 397.375 270.232C388.065 270.232 380.518 276.985 380.518 285.315C380.518 293.645 388.065 300.398 397.375 300.398Z" fill="#FFB8B8"/>
<path d="M431.094 321.181C424.599 325.82 416.533 328.343 408.222 328.336H366.183L370.171 318.382C371.088 316.582 372.536 315.039 374.358 313.92C376.181 312.8 378.309 312.145 380.516 312.026L383.098 311.884L389.255 307.132C389.255 307.132 405.844 306.602 405.598 306.349L415.647 311.757L415.639 311.72L419.589 311.936C421.796 312.055 423.925 312.71 425.747 313.83C427.57 314.949 429.017 316.492 429.934 318.292L431.094 321.181Z" fill="#C7E0FF"/>
<path d="M415.16 280.026C415.278 278.9 415.332 277.769 415.322 276.638C415.391 274.401 414.933 272.176 413.978 270.108C412.803 267.818 410.708 266.008 408.11 265.036C405.535 264.107 402.657 264.109 400.083 265.042C397.82 263.648 395.196 262.793 392.46 262.559C391.089 262.46 389.713 262.66 388.447 263.141C387.181 263.621 386.064 264.368 385.191 265.319C384.817 265.843 384.392 266.337 383.921 266.795C382.575 267.911 380.528 267.75 378.738 267.522C379.541 268.137 380.344 268.753 381.147 269.369C380.175 269.596 379.203 269.823 378.231 270.05C379.365 270.666 380.5 271.281 381.634 271.897C378.341 273.665 376.844 277.525 377.24 281.03C377.614 284.349 379.404 287.383 381.545 290.081C382.399 288.468 382.215 286.539 382.201 284.723C382.193 284.134 382.233 283.545 382.321 282.962C389.555 284.513 397.114 285.509 404.78 283.045L406.318 279.676C406.534 279.696 406.75 279.714 406.966 279.735L407.857 283.048C409.878 283.787 411.902 284.433 413.928 283.754C414.027 284.266 414.086 284.788 414.131 285.29C414.305 284.689 414.456 284.085 414.592 283.477C414.86 283.349 415.116 283.202 415.359 283.039C415.408 282.031 415.341 281.021 415.16 280.026Z" fill="#2F2E41"/>
<path d="M697.798 15.5322H304.625C304.041 15.5316 303.481 15.3238 303.068 14.9544C302.656 14.585 302.423 14.0841 302.423 13.5617V1.97053C302.423 1.44809 302.656 0.947206 303.068 0.577785C303.481 0.208364 304.041 0.000571915 304.625 0H697.798C698.382 0.00056994 698.941 0.208363 699.354 0.577785C699.767 0.947206 699.999 1.44809 700 1.97053V13.5617C699.999 14.0841 699.767 14.585 699.354 14.9544C698.941 15.3238 698.382 15.5316 697.798 15.5322Z" fill="#E4E4E4"/>
<path d="M315.204 9.99863C316.93 9.99863 318.33 8.74607 318.33 7.20097C318.33 5.65587 316.93 4.40332 315.204 4.40332C313.477 4.40332 312.077 5.65587 312.077 7.20097C312.077 8.74607 313.477 9.99863 315.204 9.99863Z" fill="white"/>
<path d="M327.071 9.99863C328.798 9.99863 330.198 8.74607 330.198 7.20097C330.198 5.65587 328.798 4.40332 327.071 4.40332C325.345 4.40332 323.945 5.65587 323.945 7.20097C323.945 8.74607 325.345 9.99863 327.071 9.99863Z" fill="white"/>
<path d="M338.94 9.99863C340.667 9.99863 342.067 8.74607 342.067 7.20097C342.067 5.65587 340.667 4.40332 338.94 4.40332C337.213 4.40332 335.813 5.65587 335.813 7.20097C335.813 8.74607 337.213 9.99863 338.94 9.99863Z" fill="white"/>
<path d="M686.17 5.27496H672.503C672.235 5.27496 671.977 5.17952 671.788 5.00965C671.598 4.83978 671.491 4.6094 671.491 4.36917C671.491 4.12894 671.598 3.89854 671.788 3.72867C671.977 3.55881 672.235 3.46338 672.503 3.46338H686.17C686.438 3.46338 686.696 3.55881 686.886 3.72867C687.075 3.89854 687.182 4.12894 687.182 4.36917C687.182 4.6094 687.075 4.83978 686.886 5.00965C686.696 5.17952 686.438 5.27496 686.17 5.27496Z" fill="white"/>
<path d="M686.17 8.67192H672.503C672.37 8.67192 672.239 8.64849 672.116 8.60297C671.993 8.55745 671.882 8.49074 671.788 8.40663C671.694 8.32251 671.619 8.22266 671.568 8.11276C671.517 8.00287 671.491 7.88508 671.491 7.76613C671.491 7.64718 671.517 7.5294 671.568 7.41951C671.619 7.30961 671.694 7.20976 671.788 7.12565C671.882 7.04154 671.993 6.97482 672.116 6.9293C672.239 6.88378 672.37 6.86035 672.503 6.86035H686.17C686.303 6.86035 686.434 6.88378 686.557 6.9293C686.68 6.97482 686.792 7.04154 686.886 7.12565C686.98 7.20976 687.054 7.30961 687.105 7.41951C687.156 7.5294 687.182 7.64718 687.182 7.76613C687.182 7.88508 687.156 8.00287 687.105 8.11276C687.054 8.22266 686.98 8.32251 686.886 8.40663C686.792 8.49074 686.68 8.55745 686.557 8.60297C686.434 8.64849 686.303 8.67192 686.17 8.67192Z" fill="white"/>
<path d="M686.17 12.0684H672.503C672.235 12.0684 671.977 11.973 671.788 11.8031C671.598 11.6333 671.491 11.4029 671.491 11.1626C671.491 10.9224 671.598 10.692 671.788 10.5221C671.977 10.3523 672.235 10.2568 672.503 10.2568H686.17C686.438 10.2568 686.696 10.3523 686.886 10.5221C687.075 10.692 687.182 10.9224 687.182 11.1626C687.182 11.4029 687.075 11.6333 686.886 11.8031C686.696 11.973 686.438 12.0684 686.17 12.0684Z" fill="white"/>
<path d="M617.535 119.05C620.658 119.05 623.189 116.784 623.189 113.99C623.189 111.196 620.658 108.931 617.535 108.931C614.412 108.931 611.88 111.196 611.88 113.99C611.88 116.784 614.412 119.05 617.535 119.05Z" fill="#C7E0FF"/>
<path d="M635.897 119.05C639.02 119.05 641.552 116.784 641.552 113.99C641.552 111.196 639.02 108.931 635.897 108.931C632.775 108.931 630.243 111.196 630.243 113.99C630.243 116.784 632.775 119.05 635.897 119.05Z" fill="#C7E0FF"/>
<path d="M654.26 119.05C657.383 119.05 659.915 116.784 659.915 113.99C659.915 111.196 657.383 108.931 654.26 108.931C651.137 108.931 648.606 111.196 648.606 113.99C648.606 116.784 651.137 119.05 654.26 119.05Z" fill="#C7E0FF"/>
<path d="M617.535 217.631C620.658 217.631 623.189 215.366 623.189 212.572C623.189 209.777 620.658 207.512 617.535 207.512C614.412 207.512 611.88 209.777 611.88 212.572C611.88 215.366 614.412 217.631 617.535 217.631Z" fill="#E6E6E6"/>
<path d="M635.897 217.631C639.02 217.631 641.552 215.366 641.552 212.572C641.552 209.777 639.02 207.512 635.897 207.512C632.775 207.512 630.243 209.777 630.243 212.572C630.243 215.366 632.775 217.631 635.897 217.631Z" fill="#E6E6E6"/>
<path d="M654.26 217.631C657.383 217.631 659.915 215.366 659.915 212.572C659.915 209.777 657.383 207.512 654.26 207.512C651.137 207.512 648.606 209.777 648.606 212.572C648.606 215.366 651.137 217.631 654.26 217.631Z" fill="#E6E6E6"/>
<path d="M617.535 322.573C620.658 322.573 623.189 320.308 623.189 317.514C623.189 314.719 620.658 312.454 617.535 312.454C614.412 312.454 611.88 314.719 611.88 317.514C611.88 320.308 614.412 322.573 617.535 322.573Z" fill="#E6E6E6"/>
<path d="M635.897 322.573C639.02 322.573 641.552 320.308 641.552 317.514C641.552 314.719 639.02 312.454 635.897 312.454C632.775 312.454 630.243 314.719 630.243 317.514C630.243 320.308 632.775 322.573 635.897 322.573Z" fill="#E6E6E6"/>
<path d="M654.26 322.573C657.383 322.573 659.915 320.308 659.915 317.514C659.915 314.719 657.383 312.454 654.26 312.454C651.137 312.454 648.606 314.719 648.606 317.514C648.606 320.308 651.137 322.573 654.26 322.573Z" fill="#E6E6E6"/>
<path d="M456.587 118.355L427.44 101.843C426.884 101.528 426.243 101.353 425.584 101.336C424.926 101.319 424.274 101.461 423.699 101.748C423.123 102.035 422.644 102.455 422.313 102.964C421.982 103.473 421.81 104.053 421.816 104.643L422.102 133.114C422.11 133.871 422.41 134.602 422.951 135.183C423.493 135.764 424.242 136.16 425.073 136.304C425.903 136.447 426.763 136.329 427.508 135.969C428.252 135.61 428.834 135.031 429.156 134.331L432.948 126.077L443.521 144.729C444.024 145.612 444.897 146.28 445.949 146.587C447.002 146.894 448.147 146.815 449.134 146.367C450.121 145.919 450.869 145.138 451.214 144.197C451.559 143.256 451.472 142.231 450.973 141.347L440.159 122.271L454.018 124.359C454.853 124.484 455.71 124.348 456.445 123.972C457.179 123.596 457.746 123.005 458.049 122.298C458.351 121.59 458.371 120.811 458.104 120.093C457.838 119.374 457.302 118.76 456.587 118.355Z" fill="#3F3D56"/>
<path d="M87.5488 295.624C88.2569 294.934 88.7874 294.114 89.1031 293.222C89.4187 292.329 89.5118 291.385 89.3757 290.457C89.2396 289.529 88.8777 288.638 88.3154 287.849C87.7531 287.059 87.0042 286.389 86.1214 285.887L91.9874 263.741L79.5721 267.799L75.9051 288.207C75.0597 289.59 74.8106 291.203 75.205 292.739C75.5995 294.275 76.6101 295.629 78.0453 296.543C79.4805 297.457 81.2407 297.868 82.9922 297.699C84.7438 297.53 86.365 296.791 87.5488 295.624Z" fill="#FFB8B8"/>
<path d="M117.405 202.821L112.422 214.285C112.422 214.285 114.558 225.749 110.999 228.297C107.44 230.845 108.863 230.845 108.863 232.755C108.741 234.126 108.297 235.458 107.561 236.665C106.825 237.872 105.814 238.927 104.592 239.761C101.745 241.672 88.9327 280.522 88.9327 280.522H76.1203C76.5342 277.562 76.5342 274.566 76.1203 271.606C75.4085 267.147 78.2557 255.683 79.6793 253.773C81.1029 251.862 79.6793 249.314 79.6793 245.493C79.6793 241.672 82.5265 239.761 82.5265 233.392C82.5265 227.023 91.0681 177.345 90.3563 171.613C89.6445 165.881 97.4743 160.786 97.4743 160.786H104.592L117.405 202.821Z" fill="#E6E6E6"/>
<path d="M91.4032 435.111H100.625L105.015 403.281H91.4024L91.4032 435.111Z" fill="#FFB6B6"/>
<path d="M88.3929 429.46L103.127 428.673V434.321L117.136 442.978C117.828 443.405 118.349 444.02 118.623 444.731C118.897 445.442 118.91 446.213 118.66 446.931C118.41 447.65 117.909 448.278 117.232 448.724C116.555 449.169 115.736 449.41 114.895 449.41H97.3532L94.3296 443.823L93.149 449.41H86.535L88.3929 429.46Z" fill="#2F2E41"/>
<path d="M143.209 435.111H152.431L156.82 403.281H143.208L143.209 435.111Z" fill="#FFB6B6"/>
<path d="M140.198 429.46L154.933 428.673V434.321L168.941 442.978C169.633 443.405 170.154 444.02 170.429 444.731C170.703 445.442 170.716 446.213 170.465 446.931C170.215 447.65 169.715 448.278 169.038 448.724C168.36 449.169 167.541 449.41 166.701 449.41H149.159L146.135 443.823L144.955 449.41H138.34L140.198 429.46Z" fill="#2F2E41"/>
<path d="M87.4236 407.663H87.5238L92.6398 355.909C91.492 353.928 90.9095 351.723 90.9441 349.492C90.9787 347.261 91.6294 345.072 92.8383 343.12L93.0922 342.709L92.4338 339.978C91.5881 336.469 91.9762 332.813 93.5448 329.509L91.8572 281.232C85.9456 246.952 114.118 224.596 114.118 224.596H156.322L165.382 252.45C168.784 282.105 179.423 313.298 178.013 342.047C176.941 363.917 164.887 383.546 160.78 404.844L161.039 404.961C161.972 405.25 162.373 406.406 161.933 407.545C161.494 408.683 160.382 409.373 159.449 409.084L137.161 408.391C136.228 408.103 135.827 406.946 136.266 405.807C136.706 404.669 137.818 403.98 138.751 404.268L140.267 404.954L151.239 352.77L151.598 343.648L150.859 333.299L133.238 288.994L120.307 346.235L107.098 408.239C107.462 408.534 107.718 408.921 107.831 409.349C107.944 409.777 107.91 410.226 107.733 410.636C107.555 411.046 107.243 411.398 106.837 411.646C106.431 411.894 105.951 412.026 105.459 412.025H87.4236C87.1035 412.025 86.7865 411.968 86.4908 411.859C86.1951 411.749 85.9264 411.588 85.7001 411.386C85.4737 411.183 85.2942 410.943 85.1717 410.678C85.0492 410.414 84.9862 410.13 84.9862 409.844C84.9862 409.557 85.0492 409.274 85.1717 409.009C85.2942 408.745 85.4737 408.504 85.7001 408.302C85.9264 408.099 86.1951 407.938 86.4908 407.829C86.7865 407.719 87.1035 407.663 87.4236 407.663Z" fill="#2F2E41"/>
<path d="M83.9262 247.879C82.5407 247.879 81.7537 247.635 81.4489 247.114C81.0017 246.349 81.7777 245.349 82.6761 244.191C83.3428 243.435 83.8685 242.588 84.233 241.682C84.7704 239.759 88.397 191.181 86.2277 181.475C85.7259 179.229 86.158 176.35 87.5113 172.919C91.2081 163.547 96.2542 160.667 106.307 154.93C107.123 154.464 107.972 153.977 108.856 153.47C109.999 152.813 109.935 150.634 109.868 148.327C109.793 145.763 109.716 143.111 111.119 141.454L111.211 141.346L111.358 141.315C114.754 140.613 126.175 139.309 132.939 141.325L133.032 141.353L133.102 141.415C134.708 142.853 134.855 145.637 134.996 148.33C135.112 150.541 135.222 152.628 136.131 153.535C143.08 160.466 150.962 160.331 151.042 160.33L151.433 160.319L151.471 160.667C154.494 188.178 159.367 229.702 160.403 231.336C160.457 231.411 160.487 231.498 160.49 231.587C160.493 231.676 160.469 231.764 160.42 231.842C158.9 234.383 89.1486 247.879 83.9262 247.879Z" fill="#E6E6E6"/>
<path d="M129.318 133.528C140.701 133.528 149.929 125.271 149.929 115.085C149.929 104.9 140.701 96.6431 129.318 96.6431C117.934 96.6431 108.706 104.9 108.706 115.085C108.706 125.271 117.934 133.528 129.318 133.528Z" fill="#FFB8B8"/>
<path d="M72.6967 106.851C76.1816 103.215 77.8384 98.3904 80.6243 94.2613C83.4102 90.1321 88.2582 86.4365 93.3799 87.3974C96.9104 88.0598 99.6389 90.8474 101.02 93.9552C102.401 97.063 102.66 100.49 102.902 103.848C102.817 96.9479 107.897 90.2589 114.896 88.0572C121.894 85.8555 130.269 88.3114 134.667 93.8547C136.586 92.2631 139.091 91.3569 141.707 91.3078C144.323 91.2586 146.868 92.07 148.86 93.5881C152.794 96.7337 153.664 102.721 150.771 106.733C149.319 108.685 147.12 110.096 144.587 110.7C142.055 111.305 139.363 111.061 137.017 110.015L135.391 111.353C135.812 112.783 135.658 114.299 134.956 115.638C134.254 116.976 133.048 118.052 131.55 118.675C129.131 119.549 125.717 119.404 124.812 121.675C124.18 123.261 125.362 124.955 126.619 126.174C127.876 127.393 129.369 128.652 129.52 130.339C129.748 132.885 126.808 134.668 124.136 135.205C120.859 135.792 117.462 135.49 114.378 134.338C111.294 133.186 108.665 131.238 106.826 128.741C106.755 128.643 106.677 128.545 106.593 128.447C104.509 126.062 102.99 123.322 102.129 120.395C101.269 117.468 101.084 114.414 101.587 111.42C101.796 110.244 101.585 109.369 100.679 109.091C96.762 107.887 85.7872 110.414 82.4658 112.698C79.1442 114.981 76.4844 118.004 73.2852 120.435C70.0856 122.866 66.0087 124.741 61.9464 124.079C58.693 123.549 55.9252 121.435 54.0635 118.886C52.3079 116.248 50.9963 113.393 50.1709 110.412C57.3652 114.131 67.2114 112.574 72.6967 106.851Z" fill="#2F2E41"/>
<path d="M162.36 295.624C161.652 294.934 161.122 294.114 160.806 293.222C160.49 292.329 160.397 291.385 160.533 290.457C160.669 289.529 161.031 288.638 161.594 287.849C162.156 287.059 162.905 286.389 163.788 285.887L157.922 263.741L170.337 267.799L174.004 288.207C174.849 289.59 175.098 291.202 174.704 292.739C174.31 294.275 173.299 295.629 171.864 296.543C170.429 297.457 168.668 297.868 166.917 297.699C165.165 297.53 163.544 296.791 162.36 295.624H162.36Z" fill="#FFB8B8"/>
<path d="M132.504 202.821L137.487 214.285C137.487 214.285 135.352 225.749 138.911 228.297C142.47 230.845 141.046 230.845 141.046 232.755C141.169 234.126 141.612 235.458 142.348 236.665C143.084 237.872 144.095 238.927 145.317 239.761C148.164 241.672 160.976 280.522 160.976 280.522H173.789C173.375 277.562 173.375 274.566 173.789 271.606C174.501 267.147 171.653 255.683 170.23 253.773C168.806 251.862 170.23 249.314 170.23 245.493C170.23 241.672 167.383 239.761 167.383 233.392C167.383 227.023 158.841 177.345 159.553 171.613C160.265 165.881 152.435 160.786 152.435 160.786H145.317L132.504 202.821Z" fill="#E6E6E6"/>
</g>
<defs>
<clipPath id="clip0_74_117">
<rect width="700" height="450" fill="white"/>
</clipPath>
</defs>
</svg>
