<svg width="50" height="55" viewBox="0 0 50 55" fill="none" xmlns="http://www.w3.org/2000/svg">
<circle cx="25" cy="25" r="25" fill="white" fill-opacity="0.95"/>
<path d="M39.9999 8.3335H9.99995C9.55798 8.3335 9.13387 8.509 8.82137 8.8215C8.50887 9.134 8.33337 9.55807 8.33337 10.0001V33.3336C8.33337 33.7756 8.50887 34.1994 8.82137 34.5119C9.13387 34.8247 9.55795 35.0002 9.99995 35.0002H23.3335V38.3336H18.3335C17.7381 38.3336 17.1879 38.6512 16.8902 39.1668C16.5924 39.6824 16.5924 40.318 16.8902 40.8336C17.1879 41.3493 17.7381 41.6668 18.3335 41.6668H31.6671H31.6668C32.2622 41.6668 32.8125 41.3493 33.1102 40.8336C33.4079 40.318 33.4079 39.6824 33.1102 39.1668C32.8125 38.6511 32.2622 38.3336 31.6668 38.3336H26.6668V35.0002H40.0004C40.4423 35.0002 40.8665 34.8247 41.179 34.5119C41.4915 34.1994 41.667 33.7756 41.667 33.3336V10.0001C41.667 9.5581 41.4915 9.134 41.179 8.8215C40.8665 8.509 40.4424 8.3335 40.0004 8.3335H39.9999ZM18.3335 26.6664C18.3335 27.2618 18.0157 27.812 17.5001 28.1097C16.9845 28.4074 16.3492 28.4074 15.8335 28.1097C15.3179 27.812 15.0001 27.2618 15.0001 26.6664V21.6664C15.0001 21.0709 15.3179 20.5207 15.8335 20.223C16.3491 19.9253 16.9844 19.9253 17.5001 20.223C18.0157 20.5207 18.3335 21.0709 18.3335 21.6664V26.6664ZM26.6671 26.6664H26.6668C26.6668 27.2618 26.3493 27.812 25.8337 28.1097C25.318 28.4074 24.6825 28.4074 24.1668 28.1097C23.6512 27.812 23.3337 27.2618 23.3337 26.6664V18.3335C23.3337 17.7381 23.6512 17.1879 24.1668 16.8901C24.6824 16.5924 25.318 16.5924 25.8337 16.8901C26.3493 17.1879 26.6668 17.7381 26.6668 18.3335L26.6671 26.6664ZM35.0007 26.6664H35.0004C35.0004 27.2618 34.6826 27.812 34.167 28.1097C33.6513 28.4074 33.016 28.4074 32.5004 28.1097C31.9848 27.812 31.667 27.2618 31.667 26.6664V14.9999C31.667 14.4045 31.9848 13.8543 32.5004 13.5566C33.016 13.2589 33.6513 13.2589 34.167 13.5566C34.6826 13.8543 35.0004 14.4045 35.0004 14.9999L35.0007 26.6664Z" fill="black"/>
</svg>
