<svg width="50" height="55" viewBox="0 0 50 55" fill="none" xmlns="http://www.w3.org/2000/svg">
<circle cx="25" cy="25" r="25" fill="white"/>
<path d="M36.6664 11.6666H31.6664V10.0001C31.6664 9.5581 31.4909 9.134 31.1784 8.8215C30.8659 8.509 30.4419 8.3335 29.9999 8.3335H19.9999C19.5579 8.3335 19.1338 8.509 18.8213 8.8215C18.5088 9.134 18.3333 9.55807 18.3333 10.0001V11.6666H13.3333C12.8911 11.6666 12.4672 11.8424 12.1547 12.1549C11.8422 12.4674 11.6664 12.8913 11.6664 13.3335V39.9999C11.6664 40.4419 11.8422 40.866 12.1547 41.1785C12.4672 41.491 12.8911 41.6665 13.3333 41.6665H36.6662C37.1084 41.6665 37.5322 41.491 37.8447 41.1785C38.1572 40.866 38.333 40.4419 38.333 39.9999V13.3335C38.333 12.8912 38.1572 12.4674 37.8447 12.1549C37.5322 11.8424 37.1084 11.6666 36.6662 11.6666H36.6664ZM21.6664 11.6666H28.333L28.3333 15.0001H21.6664L21.6664 11.6666ZM18.3333 21.6666H26.6669H26.6666C27.262 21.6666 27.8122 21.9844 28.1099 22.5001C28.4077 23.0157 28.4077 23.651 28.1099 24.1666C27.8122 24.6823 27.262 25.0001 26.6666 25.0001H18.3337C17.7383 25.0001 17.1881 24.6823 16.8904 24.1666C16.5927 23.651 16.5927 23.0157 16.8904 22.5001C17.1881 21.9844 17.7383 21.6666 18.3337 21.6666H18.3333ZM31.6669 35.0002H18.3333C17.7379 35.0002 17.1877 34.6824 16.8899 34.1668C16.5922 33.6512 16.5922 33.0159 16.8899 32.5002C17.1877 31.9846 17.7379 31.6668 18.3333 31.6668H31.6669H31.6666C32.262 31.6668 32.8122 31.9846 33.1099 32.5002C33.4077 33.0158 33.4077 33.6511 33.1099 34.1668C32.8122 34.6824 32.262 35.0002 31.6666 35.0002H31.6669ZM31.6669 30.0002H18.3333C17.7379 30.0002 17.1877 29.6824 16.8899 29.1668C16.5922 28.6512 16.5922 28.0159 16.8899 27.5002C17.1877 26.9846 17.7379 26.6668 18.3333 26.6668H31.6669H31.6666C32.262 26.6668 32.8122 26.9846 33.1099 27.5002C33.4077 28.0158 33.4077 28.6511 33.1099 29.1668C32.8122 29.6824 32.262 30.0002 31.6666 30.0002H31.6669Z" fill="black"/>
</svg>
