<svg width="50" height="55" viewBox="0 0 50 55" fill="none" xmlns="http://www.w3.org/2000/svg">
<circle cx="25" cy="25" r="25" fill="white"/>
<path d="M38.3336 31.9672V28.3339C38.3336 27.8916 38.1578 27.4678 37.8453 27.1553C37.5328 26.8428 37.1089 26.667 36.6667 26.667H26.6667V25.0004H33.3336C33.7755 25.0004 34.1994 24.8249 34.5119 24.5122C34.8246 24.1997 35.0001 23.7758 35.0001 23.3339V10.0003C35.0001 9.55835 34.8246 9.13424 34.5119 8.82174C34.1994 8.50924 33.7755 8.33374 33.3336 8.33374H16.6664C16.2245 8.33374 15.8007 8.50924 15.4882 8.82174C15.1754 9.13424 14.9999 9.55831 14.9999 10.0003V23.3339C14.9999 23.7758 15.1754 24.1997 15.4882 24.5122C15.8007 24.8249 16.2245 25.0004 16.6664 25.0004H23.333V26.667H13.333C12.8908 26.667 12.4669 26.8428 12.1544 27.1553C11.8419 27.4678 11.6662 27.8917 11.6662 28.3339V31.9672C10.1714 32.4957 9.01602 33.7016 8.55173 35.2178C8.08772 36.7337 8.37037 38.3799 9.31316 39.6544C10.2559 40.9293 11.7473 41.6812 13.3329 41.6812C14.9183 41.6812 16.4097 40.9293 17.3527 39.6544C18.2955 38.3799 18.5779 36.7337 18.1139 35.2178C17.6499 33.7016 16.4942 32.4957 14.9994 31.9672V30.0004H23.333V31.9672C21.838 32.4957 20.6827 33.7016 20.2186 35.2178C19.7546 36.7337 20.0369 38.3799 20.9797 39.6544C21.9225 40.9293 23.4142 41.6812 24.9995 41.6812C26.5849 41.6812 28.0765 40.9293 29.0193 39.6544C29.9621 38.3799 30.2444 36.7337 29.7804 35.2178C29.3164 33.7016 28.161 32.4957 26.666 31.9672V30.0004H34.9996V31.9672C33.5049 32.4957 32.3492 33.7016 31.8852 35.2178C31.4212 36.7337 31.7035 38.3799 32.6463 39.6544C33.5894 40.9293 35.0807 41.6812 36.6661 41.6812C38.2517 41.6812 39.7431 40.9293 40.6859 39.6544C41.6287 38.3799 41.9113 36.7337 41.4473 35.2178C40.983 33.7016 39.8276 32.4957 38.3329 31.9672H38.3336Z" fill="black"/>
</svg>
