<svg width="710" height="568" viewBox="0 0 710 568" fill="none" xmlns="http://www.w3.org/2000/svg">
<g clip-path="url(#clip0_7_27)">
<path d="M236.001 73.9821C237.988 70.3099 241.164 67.2611 243.106 63.5689C245.049 59.8768 245.427 54.9352 242.19 52.1092C239.442 49.7096 235.138 49.676 231.852 47.9379C223.479 43.5099 223.489 29.4453 213.917 28.2301C209.263 27.6391 205.052 30.8431 202.239 34.2976C199.425 37.7522 197.184 41.7832 193.282 44.1867C188.866 46.9074 183.156 47.0257 178.252 48.9155C168.849 52.5387 163.919 61.8555 159.797 70.4177C157.141 75.9335 154.425 81.8828 155.657 87.8061C152.979 89.3357 154.173 93.4497 156.846 94.9864C159.519 96.523 162.876 96.4889 165.946 97.1545C172.397 98.5534 177.68 103.268 180.184 108.901C182.136 113.293 182.535 118.114 182.912 122.844C183.565 131.052 184.219 139.259 184.872 147.467C185.163 151.118 185.544 154.999 187.966 157.908C190.387 160.818 195.63 162.037 198.352 159.36C200.954 156.803 199.782 152.754 199.729 149.255C199.677 145.756 203.122 141.4 206.371 143.23L207.517 140.844C214.937 138.405 221.435 134.055 226.232 128.314C231.029 122.574 233.922 115.686 234.565 108.475C235.396 96.8601 230.36 84.4066 236.001 73.9821Z" fill="#E6E6E6"/>
<path d="M243.584 147.632C244.301 147.012 244.809 146.217 245.05 145.34C245.29 144.463 245.252 143.542 244.941 142.684C244.63 141.826 244.058 141.068 243.292 140.499C242.527 139.93 241.6 139.574 240.621 139.472L240.634 139.867C239.237 140.615 237.644 140.999 236.027 140.978C234.416 140.955 232.812 141.188 231.287 141.667C230.529 141.92 229.873 142.378 229.403 142.98C228.934 143.582 228.675 144.301 228.659 145.041C228.747 145.608 228.984 146.148 229.348 146.613C229.712 147.079 230.193 147.457 230.751 147.715C231.87 148.221 233.072 148.556 234.308 148.707C237.495 149.257 241.225 149.674 243.584 147.632Z" fill="#E6E6E6"/>
<path d="M305.726 74.1765C307.061 73.3433 308.194 72.2662 309.055 71.0127C309.472 70.3784 309.67 69.6433 309.624 68.9037C309.577 68.164 309.288 67.4546 308.795 66.8684C307.79 66.0681 306.497 65.6394 305.167 65.6654C301.555 65.4179 297.926 65.8108 294.476 66.8227C298.018 69.7034 301.56 72.5843 305.103 75.4651L305.726 74.1765Z" fill="#E6E6E6"/>
<path d="M288.011 81.669C289.443 83.1196 288.986 85.3698 288.581 87.2916C288.175 89.2134 288.124 91.6149 289.925 92.6633C291.485 93.5721 293.676 92.8305 294.818 91.4962C295.838 90.0732 296.46 88.4407 296.628 86.7439C297.189 84.2779 297.442 81.7612 297.383 79.2426C297.316 76.7051 296.34 74.2585 294.608 72.2801C293.379 70.9934 291.741 70.0923 289.926 69.7029C288.11 69.3135 286.207 69.4555 284.484 70.1089L286.13 70.0344C284.933 71.4445 284.026 73.0426 283.452 74.7506C283.177 75.6086 283.158 76.5186 283.396 77.3858C283.634 78.2531 284.12 79.0461 284.805 79.6825C285.781 80.4624 287.142 80.7885 288.011 81.669Z" fill="#E6E6E6"/>
<path d="M368.763 57.3393L369.055 56.5121C367.832 57.162 366.888 58.178 366.383 59.3901C365.878 60.6022 365.842 61.9368 366.28 63.1705C367.222 62.489 367.948 61.5894 368.384 60.5644C368.821 59.5394 368.952 58.4261 368.763 57.3393Z" fill="#E6E6E6"/>
<path d="M352.856 69.1791C354.414 68.3691 355.744 67.2353 356.739 65.8685C357.733 64.5017 358.366 62.9399 358.584 61.3084C358.753 60.294 358.625 59.2566 358.214 58.3025C358.002 57.8288 357.667 57.4104 357.237 57.0845C356.807 56.7586 356.296 56.5353 355.749 56.4344L355.082 57.3973C354.126 56.6423 352.521 57.4188 352.119 58.516C351.86 59.6552 351.967 60.8391 352.429 61.923C352.89 63.0135 352.869 64.2259 352.371 65.3024C351.833 65.9355 351.229 66.5182 350.567 67.0419C350.243 67.3123 350.032 67.6775 349.969 68.0751C349.906 68.4727 349.996 68.8779 350.222 69.2216C350.85 69.8792 352.023 69.6032 352.856 69.1791Z" fill="#E6E6E6"/>
<path d="M346.073 63.7999C346.644 62.8575 346.913 61.7865 346.85 60.71L345.392 60.2903C344.46 60.637 343.634 61.1856 342.984 61.8893C342.786 62.071 342.635 62.2907 342.541 62.5324C342.447 62.7741 342.412 63.0319 342.439 63.2875C342.466 63.543 342.554 63.7898 342.698 64.0103C342.841 64.2308 343.035 64.4196 343.267 64.563C343.499 64.7064 343.763 64.801 344.039 64.84C344.316 64.879 344.598 64.8614 344.866 64.7885C345.134 64.7155 345.382 64.5891 345.59 64.4182C345.799 64.2473 345.964 64.0361 346.073 63.7999Z" fill="#E6E6E6"/>
<path d="M417.315 57.0291C417.447 57.1302 417.578 57.2341 417.71 57.3362C417.826 57.3138 417.936 57.2737 418.055 57.2605L417.315 57.0291Z" fill="#E6E6E6"/>
<path d="M414.979 68.7709C416.317 67.7772 417.655 66.7835 418.993 65.7898C419.704 65.3281 420.31 64.7434 420.777 64.0686C421.096 63.4298 421.234 62.7271 421.177 62.0262C421.121 61.3254 420.872 60.649 420.454 60.0603C419.713 59.0167 418.785 58.0958 417.71 57.3368C416.528 57.5936 415.489 58.2393 414.791 59.1516C414.093 60.0639 413.784 61.1795 413.922 62.2872C414.164 63.696 415.128 65.2027 414.341 66.4325C414.034 66.9115 413.507 67.2375 413.154 67.6884C412.801 68.1393 412.686 68.8574 413.172 69.189C413.711 69.5572 414.456 69.1587 414.979 68.7709Z" fill="#E6E6E6"/>
<path d="M417.906 74.8537C418.403 74.8782 418.901 74.8042 419.364 74.6366C419.828 74.4691 420.247 74.212 420.593 73.8827C422.382 72.5373 423.947 70.959 425.238 69.198C422.227 70.0735 419.216 70.9489 416.205 71.8244L417.144 72.832C416.31 73.3316 416.928 74.6818 417.906 74.8537Z" fill="#E6E6E6"/>
<path d="M426.345 80.5427C426.529 80.9738 426.861 81.3377 427.292 81.5789C427.722 81.8201 428.226 81.9253 428.728 81.8784C429.228 81.8173 429.707 81.6563 430.131 81.4069C430.556 81.1575 430.915 80.8256 431.185 80.4347C431.643 79.8152 431.912 79.0947 431.964 78.3477C432.017 77.6007 431.851 76.8544 431.484 76.1859C431.117 75.5174 430.563 74.9511 429.877 74.5454C429.192 74.1397 428.401 73.9095 427.586 73.8785L428.418 75.0443C428.629 77.0344 425.682 78.638 426.345 80.5427Z" fill="#E6E6E6"/>
<path d="M484.823 102.338C485.637 102.896 486.626 103.196 487.642 103.194C488.658 103.192 489.646 102.887 490.457 102.326C490.984 101.913 491.411 101.406 491.714 100.834C492.016 100.263 492.187 99.6406 492.215 99.006C492.243 98.3714 492.128 97.7382 491.878 97.1462C491.627 96.5543 491.246 96.0162 490.758 95.5657L489.22 96.3539C488.367 95.8507 487.335 95.6708 486.34 95.8522C485.346 96.0335 484.467 96.5618 483.888 97.326C483.369 98.127 483.178 99.0715 483.349 99.9901C483.521 100.909 484.043 101.741 484.823 102.338Z" fill="#E6E6E6"/>
<path d="M502.705 104.196C503.454 103.997 504.135 103.624 504.682 103.114C505.229 102.604 505.624 101.973 505.829 101.283L502.84 100.922C502.008 100.346 501.04 99.9573 500.014 99.7891C499.5 99.7184 498.975 99.8121 498.526 100.054C498.078 100.297 497.734 100.673 497.553 101.121C497.489 101.501 497.533 101.89 497.679 102.251C497.826 102.612 498.071 102.932 498.391 103.181C498.955 103.675 499.648 104.028 500.404 104.206C501.159 104.383 501.951 104.38 502.705 104.196Z" fill="#E6E6E6"/>
<path d="M490.359 109.683C490.412 110.129 490.602 110.553 490.907 110.904C491.212 111.255 491.62 111.519 492.082 111.665C492.588 111.885 493.153 111.961 493.706 111.882C494.259 111.804 494.773 111.574 495.182 111.224C495.363 111.037 495.492 110.813 495.559 110.571C495.627 110.329 495.63 110.076 495.569 109.832C495.509 109.589 495.385 109.362 495.21 109.171C495.035 108.98 494.812 108.83 494.561 108.733L492.319 108.359C491.453 107.947 490.345 108.788 490.359 109.683Z" fill="#E6E6E6"/>
<path d="M360.27 124.154L358.534 122.699C358.996 123.29 359.587 123.785 360.27 124.154Z" fill="#E6E6E6"/>
<path d="M347.015 115.589C348.084 120.143 353.427 123.853 358.278 122.485L358.534 122.699C356.99 120.759 356.728 117.888 357.089 115.391C357.758 111.113 359.591 107.058 362.417 103.601C365.243 100.144 368.973 97.3965 373.261 95.6114C374.436 95.2748 375.486 94.6467 376.296 93.7964C376.988 92.8683 376.73 91.2769 375.539 91.0148C374.891 90.9469 374.238 91.0857 373.689 91.4077L364.674 95.4805C360.121 97.5376 355.477 99.6536 351.901 102.959C348.324 106.264 345.947 111.035 347.015 115.589Z" fill="#E6E6E6"/>
<path d="M201.493 272.184C193.093 266.665 183.893 262.252 174.161 259.073C168.179 257.121 161.751 255.632 155.519 256.741C152.101 257.389 148.898 258.769 146.17 260.768C143.442 262.767 141.266 265.328 139.82 268.244C138.426 271.181 137.77 274.368 137.902 277.569C138.033 280.77 138.948 283.903 140.579 286.735C143.453 291.679 148.43 295.616 150.094 301.008C151.216 304.643 150.685 308.513 150.145 312.258C149.041 319.911 147.938 327.565 146.834 335.219C145.83 342.187 144.851 349.438 147.254 356.112C149.658 362.786 156.516 368.669 164.135 367.96L165.645 367.856C160.605 364.71 159.192 358.198 160.693 352.776C162.194 347.354 166.002 342.756 169.721 338.324C180.755 325.171 191.79 312.018 202.825 298.866C207.29 293.544 212.012 286.967 209.631 280.616C208.278 277.005 204.874 274.407 201.493 272.184Z" fill="#E6E6E6"/>
<path d="M126.291 238.935C125.173 238.587 123.993 239.359 123.336 240.259C122.805 241.225 122.181 242.146 121.471 243.01C119.752 244.637 116.619 244.314 114.766 242.817C112.912 241.321 112.108 239.007 111.748 236.765C111.317 234.075 111.503 231.074 113.437 229.015C115.428 226.895 118.701 226.326 121.712 225.886C124.823 225.431 128.308 225.051 130.856 226.751C132.461 227.821 133.397 229.548 134.884 230.754C136.37 231.959 139.015 232.416 140.134 230.912C140.427 230.379 140.575 229.789 140.566 229.192C140.557 228.595 140.39 228.01 140.081 227.485C139.452 226.439 139.073 225.281 138.971 224.09C139.046 222.437 140.492 221.124 141.971 220.179C143.451 219.234 145.122 218.419 146.093 217.025C147.287 215.31 147.16 213.101 147.901 211.183C149.693 206.54 156.091 204.475 157.955 199.856C158.404 198.885 158.454 197.797 158.097 196.794C157.317 194.954 155.208 195.315 155.079 193.066C154.955 190.915 156.91 188.806 158.896 187.908C161.634 186.669 164.827 186.77 167.878 186.694C170.93 186.619 174.218 186.247 176.457 184.342C177.182 183.657 177.741 182.838 178.097 181.94C178.454 181.042 178.6 180.086 178.525 179.133C178.451 178.179 178.159 177.251 177.667 176.409C177.175 175.567 176.495 174.83 175.671 174.246C174.002 173.188 171.893 172.82 170.269 171.704C168.246 170.315 167.289 168.001 165.714 166.189C164.403 164.809 162.904 163.59 161.253 162.563C159.901 161.643 158.55 160.722 157.198 159.801C154.755 158.137 152.212 156.431 149.239 155.837C146.265 155.245 142.725 156.084 141.236 158.519C140.648 159.605 140.328 160.795 140.296 162.007C140.16 164.86 140.29 167.718 140.684 170.55C140.929 172.83 141.174 175.11 141.42 177.39C141.64 179.434 141.404 182.129 139.242 182.66C134.447 183.836 136.065 177.328 135.001 175.334C133.373 172.282 125.894 170.817 122.696 169.545C120.699 168.75 118.592 167.874 117.386 166.21C115.885 164.14 116.193 161.323 117.37 159.084C118.547 156.844 120.465 155.022 122.207 153.117C123.982 151.177 125.599 149.119 127.214 147.063C129.087 144.679 130.96 142.294 132.834 139.91C135.236 136.852 137.761 133.12 136.397 129.564C136.101 129.088 135.659 128.703 135.126 128.457C134.593 128.211 133.993 128.115 133.4 128.18C132.808 128.246 132.25 128.47 131.796 128.826C131.342 129.181 131.012 129.652 130.848 130.178C130.25 132.098 131.845 134.549 130.319 135.972C129.796 136.358 129.142 136.564 128.471 136.552C127.799 136.541 127.154 136.313 126.647 135.909C125.659 135.071 124.906 134.025 124.453 132.862C122.603 129.09 120.802 125.295 118.903 121.543C118.303 120.357 117.677 118.326 115.859 118.526C114.28 118.7 113.427 120.812 113.482 122.038C113.562 123.822 114.636 125.415 115.457 127.034C116.278 128.652 116.852 130.596 115.951 132.178C114.809 134.181 111.919 134.631 109.457 134.565C104.817 134.436 100.271 133.335 96.1661 131.346C96.0588 133.439 95.9516 135.532 95.8443 137.626C92.577 136.37 89.3097 135.115 86.0424 133.86C85.4079 133.616 84.7733 133.372 84.1387 133.128C81.3826 132.069 78.623 131.009 75.7858 130.15C74.175 129.662 72.5419 129.239 70.9093 128.817C69.9168 128.56 68.9244 128.303 67.9321 128.046C65.9737 127.409 63.8966 127.137 61.8224 127.246C59.6432 127.497 57.6994 128.572 55.684 129.375C51.1874 131.167 45.3715 129.364 40.5528 129.332C38.6414 126.771 36.061 124.69 33.0474 123.281C30.0338 121.871 26.6832 121.178 23.3023 121.264C19.9213 121.35 16.6177 122.212 13.6938 123.773C10.7698 125.334 8.31879 127.542 6.56486 130.197C5.71767 131.542 4.9632 132.934 4.30591 134.366C3.6521 135.711 2.99829 137.056 2.34446 138.401C1.38533 140.374 0.405046 142.452 0.593567 144.606C0.782088 146.759 2.58064 148.959 4.93419 148.94C-0.615701 151.246 -1.77057 159.317 2.94222 162.861C4.2472 163.842 5.84746 164.484 7.02181 165.595C7.90939 166.435 8.50319 167.5 8.72701 168.652C8.95083 169.804 8.79445 170.992 8.27795 172.062C7.76145 173.132 6.90837 174.036 5.82822 174.658C4.74807 175.279 3.49013 175.591 2.21581 175.552C5.50377 176.718 9.12546 176.827 12.4893 175.86C15.8531 174.892 18.7602 172.907 20.7357 170.227C22.7505 167.331 23.6263 163.714 26.3672 161.374C29.9972 158.275 35.9931 158.515 40.1798 160.952C44.3664 163.389 47.015 167.538 48.8368 171.77C51.2242 177.316 52.7521 183.653 57.8383 187.363C60.2977 189.156 63.4122 190.165 65.5859 192.246C68.6815 195.211 69.2171 199.684 69.1473 203.79C69.0775 207.896 68.5957 212.155 70.2251 215.979C71.8544 219.804 76.5253 222.949 80.7139 221.507C79.514 224.775 79.5508 228.319 80.8183 231.565C82.0858 234.811 84.5099 237.57 87.698 239.394C86.935 235.05 86.1719 230.705 85.4088 226.36C89.2122 227.343 91.6772 230.729 93.1009 234.113C94.5246 237.496 95.2768 241.155 97.3404 244.248C100.59 249.118 106.474 251.217 112.46 251.198C118.927 251.178 121.382 248.348 125.644 244.18C126.5 243.469 127.15 242.573 127.535 241.574C127.709 241.07 127.679 240.526 127.45 240.041C127.221 239.556 126.81 239.163 126.291 238.935Z" fill="#E6E6E6"/>
<path d="M144.602 238.718C140.987 238.197 137.373 237.675 133.758 237.154C135.653 238.199 137.548 239.245 139.443 240.291C141.023 241.256 142.741 242.016 144.548 242.548C145.454 242.81 146.409 242.898 147.354 242.807C148.299 242.715 149.213 242.447 150.04 242.018L149.577 241.206C148.848 239.514 146.56 239.001 144.602 238.718Z" fill="#E6E6E6"/>
<path d="M142.146 257.161L142.171 257.103C141.952 256.77 141.63 256.505 141.246 256.342C140.862 256.179 140.433 256.124 140.016 256.186C139.183 256.323 138.332 256.336 137.495 256.224C136.963 256.033 136.489 255.728 136.112 255.335C135.735 254.941 135.466 254.471 135.327 253.962C134.968 252.97 134.862 251.909 134.452 250.933C134.157 250.161 133.635 249.479 132.944 248.962C132.254 248.445 131.421 248.113 130.538 248.002C129.652 247.937 128.773 248.194 128.092 248.719C127.412 249.243 126.983 249.993 126.899 250.805C126.969 251.642 127.258 252.45 127.743 253.161C128.133 253.85 128.523 254.538 128.913 255.226C129.241 255.843 129.619 256.437 130.043 257.002C130.734 257.875 131.636 258.588 132.679 259.085C133.722 259.582 134.877 259.848 136.051 259.864C137.226 259.879 138.389 259.643 139.447 259.174C140.505 258.704 141.429 258.015 142.146 257.161V257.161Z" fill="#E6E6E6"/>
<path d="M121.036 80.5995C123.788 82.0889 127.235 83.1154 128.543 85.7913L129.297 86.015C128.474 86.9536 127.651 87.8922 126.828 88.8308C125.811 89.9907 124.742 91.2831 124.766 92.7719C124.799 94.8222 126.947 96.369 129.118 96.8524C131.435 97.2899 133.846 96.9218 135.884 95.8193C137.921 94.7169 139.44 92.9589 140.145 90.8865C140.403 90.0222 140.51 89.1257 140.736 88.254C141.396 86.1864 142.392 84.2221 143.691 82.4274C150.999 71.1411 158.308 59.8547 165.616 48.5683C166.526 47.1628 167.465 45.4813 166.78 43.9717C166.415 43.3332 165.85 42.8097 165.157 42.4687C164.465 42.1277 163.677 41.9847 162.896 42.0583C161.336 42.2322 159.831 42.6967 158.474 43.4234C157.871 42.4511 157.02 41.6277 155.994 41.0239C154.968 40.4201 153.797 40.0539 152.583 39.9567C150.155 39.7848 147.713 39.98 145.354 40.5347C140.025 41.2728 134.886 42.8934 130.187 45.3174C127.617 46.5102 124.788 47.9832 124.042 50.5369C123.125 53.6781 126.081 56.8795 129.485 57.7822C132.888 58.685 136.521 57.9269 139.966 57.167C140.356 58.6999 140.193 60.3073 139.504 61.7484C138.814 63.1895 137.634 64.3866 136.141 65.1603C134.648 65.934 132.921 66.2427 131.221 66.0401C129.521 65.8374 127.937 65.1343 126.709 64.0362C124.24 61.8292 123.03 57.9978 119.64 57.4282C116.261 56.8605 113.574 60.1691 112.828 63.2475C112.099 66.5632 112.495 70.0044 113.962 73.1072C115.43 76.21 117.899 78.825 121.036 80.5995Z" fill="#E6E6E6"/>
<path d="M163.424 134.908C161.796 130.697 159.657 126.668 157.047 122.897C155.069 119.915 152.627 117.214 149.799 114.879C147.215 112.831 144.244 111.233 141.033 110.166C137.917 109.131 134.447 108.62 131.297 109.563C128.146 110.507 125.466 113.196 125.529 116.237C125.6 119.6 128.806 122.23 132.146 123.612C135.487 124.994 139.203 125.595 142.355 127.311C144.498 128.504 146.289 130.162 147.571 132.139C148.852 134.116 149.585 136.352 149.704 138.65L150.498 139.855C148.7 140.402 147.023 141.24 145.546 142.33C144.815 142.884 144.256 143.605 143.926 144.42C143.596 145.236 143.506 146.117 143.666 146.975C144.216 149.012 146.481 150.18 148.53 151.111C152.315 152.832 156.099 154.553 159.884 156.273C157.957 150.999 164.267 146.09 164.615 140.536C164.629 138.606 164.224 136.693 163.424 134.908Z" fill="#E6E6E6"/>
<path d="M68.256 120.666C70.5519 122.303 74.082 121.537 76.1853 119.695C78.2886 117.853 79.313 115.232 80.2683 112.712C79.9194 115.207 79.9525 117.734 80.3665 120.22C80.5821 121.463 81.0766 122.651 81.8185 123.71C82.5605 124.769 83.5338 125.674 84.6769 126.37C85.7147 126.892 86.8335 127.266 87.9945 127.478C93.3913 128.606 99.0314 128.236 104.199 126.416L104.245 124.794C101.649 125.066 99.6848 122.452 99.5135 120.059C99.3421 117.666 100.288 115.319 100.371 112.922C100.455 110.525 99.1961 107.724 96.6249 107.298C97.075 108.127 97.2391 109.063 97.0954 109.98C96.9518 110.898 96.5072 111.753 95.8209 112.433C95.1346 113.112 94.239 113.584 93.2534 113.785C92.2678 113.986 91.2389 113.907 90.3037 113.558C87.3276 112.447 86.2465 109.119 83.9466 107.06C82.5256 105.9 80.7626 105.151 78.8792 104.908C76.9959 104.665 75.0763 104.938 73.3617 105.693C71.6688 106.486 70.1838 107.607 69.009 108.978C67.8343 110.35 66.9979 111.939 66.5577 113.636C65.8592 116.098 66.0665 119.105 68.256 120.666Z" fill="#E6E6E6"/>
<path d="M139.114 103.586L139.221 103.427C138.58 101.728 136.593 100.732 134.654 100.479C132.699 100.361 130.736 100.42 128.794 100.657C126.834 100.89 124.847 100.488 123.175 99.5211C121.84 98.6051 121.08 97.1639 120.013 95.9888C118.945 94.8136 117.218 93.8472 115.668 94.4092C113.99 95.0175 113.542 97.1768 114.357 98.6548C115.316 100.073 116.763 101.158 118.47 101.736C124.931 104.459 132.201 105.11 139.114 103.586Z" fill="#E6E6E6"/>
<path d="M117.059 108.679C116.522 109.039 116.158 109.577 116.043 110.179C115.928 110.78 116.071 111.399 116.442 111.906C116.813 112.413 117.383 112.769 118.034 112.899C118.684 113.029 119.363 112.923 119.93 112.603L120.497 113.116C121.25 111.879 121.56 110.22 120.597 109.112C120.169 108.652 119.571 108.354 118.918 108.274C118.265 108.194 117.603 108.338 117.059 108.679Z" fill="#E6E6E6"/>
<path d="M110.433 113.119C110.441 112.677 110.303 112.243 110.038 111.874C109.772 111.505 109.391 111.218 108.944 111.052C108.64 111.004 108.329 111.013 108.029 111.079C107.729 111.144 107.447 111.265 107.199 111.433C106.951 111.602 106.743 111.814 106.587 112.058C106.431 112.303 106.33 112.573 106.291 112.854C106.245 113.426 106.327 114.001 106.532 114.542C106.737 115.084 107.062 115.581 107.486 116.003C107.732 116.343 108.054 116.631 108.431 116.848C108.807 117.065 109.229 117.206 109.67 117.263C110.557 117.289 111.462 116.438 111.102 115.693L109.747 115.668C110.165 114.871 110.398 114.003 110.433 113.119Z" fill="#E6E6E6"/>
<path d="M83.9367 100.382C84.4343 100.752 84.9319 101.123 85.4295 101.493C86.2914 102.177 87.2225 102.784 88.2101 103.305C89.9375 104.183 91.9689 104.412 93.8761 103.942C94.8177 103.695 95.6765 103.235 96.3734 102.604C97.0703 101.973 97.5829 101.191 97.8639 100.33C98.4589 98.2717 97.4884 96.1349 96.5386 94.1925C96.3218 93.6367 95.9642 93.1361 95.4952 92.7322C95.2548 92.5368 94.9483 92.4237 94.6275 92.4122C94.3068 92.4006 93.9915 92.4912 93.7353 92.6687C93.5494 92.8811 93.4258 93.1337 93.3763 93.4023C93.3267 93.6709 93.3527 93.9467 93.452 94.2035C93.6562 94.7152 93.7495 95.2586 93.7267 95.8032C93.6321 96.3403 93.0179 96.848 92.4768 96.6258L92.3907 98.4542C89.8071 97.2537 88.4407 94.0604 85.5654 93.7456C84.92 93.6749 84.266 93.7683 83.6745 94.0155C83.083 94.2627 82.5768 94.6542 82.2112 95.1474C81.8456 95.6407 81.6345 96.2166 81.6011 96.8123C81.5677 97.4081 81.7131 98.0009 82.0216 98.5259C82.5208 99.2543 83.1716 99.8851 83.9367 100.382Z" fill="#E6E6E6"/>
<path d="M77.783 92.4891C78.3807 92.113 78.8536 91.5927 79.1496 90.9855C79.4455 90.3784 79.5531 89.708 79.4604 89.0483C79.3889 88.7288 79.2415 88.4276 79.0289 88.1663C78.8162 87.905 78.5434 87.6899 78.2298 87.5363C77.9163 87.3827 77.5698 87.2944 77.2149 87.2777C76.86 87.261 76.5054 87.3163 76.1765 87.4396C75.4383 87.9462 74.9197 88.6766 74.713 89.5011C74.0321 91.2642 73.3511 93.0273 72.6702 94.7904L73.8146 94.026C75.2305 93.7462 76.5766 93.2248 77.783 92.4891Z" fill="#E6E6E6"/>
<path d="M91.045 81.6691C91.2495 81.4324 91.395 81.1575 91.4712 80.8637C91.5474 80.5698 91.5525 80.2642 91.4862 79.9684C91.4199 79.6725 91.2838 79.3936 91.0873 79.1512C90.8909 78.9089 90.639 78.709 90.3494 78.5656L88.9184 78.4428C88.5931 78.5184 88.2915 78.663 88.038 78.8649C87.7845 79.0668 87.5861 79.3205 87.4587 79.6055C87.3313 79.8905 87.2785 80.199 87.3044 80.5061C87.3304 80.8133 87.4344 81.1106 87.6081 81.3742C87.7819 81.6378 88.0205 81.8603 88.3049 82.024C88.5893 82.1876 88.9115 82.2878 89.2456 82.3164C89.5798 82.3451 89.9166 82.3015 90.2291 82.1891C90.5416 82.0767 90.8211 81.8986 91.045 81.6691Z" fill="#E6E6E6"/>
<path d="M104.21 83.6966C105.545 84.2831 107.236 84.8419 108.397 83.9998C108.742 83.7139 108.997 83.3499 109.139 82.9443C109.281 82.5387 109.304 82.1059 109.206 81.6896C108.998 80.859 108.595 80.08 108.025 79.4067C106.249 77.0654 103.992 75.0649 101.381 73.5171L100.735 74.287C99.8332 76.4365 98.9625 78.9457 100.22 80.9388C101.068 82.2824 102.684 83.0264 104.21 83.6966Z" fill="#E6E6E6"/>
<path d="M114.158 85.6096L116.655 86.6464C116.41 86.2547 116.037 85.9437 115.589 85.7576C115.141 85.5715 114.64 85.5197 114.158 85.6096Z" fill="#E6E6E6"/>
<path d="M107.429 92.8213L106.249 93.1781C105.246 94.6916 105.681 96.6268 106.148 98.3458C106.443 99.4326 107.079 100.77 108.298 100.72C109.484 100.672 110.009 99.3522 110.237 98.2826C110.592 97.1207 110.63 95.8964 110.349 94.7175C110.188 94.134 109.805 93.6223 109.27 93.2746C108.735 92.927 108.082 92.7662 107.429 92.8213Z" fill="#E6E6E6"/>
<path d="M88.6125 87.7275L89.4856 88.0502C89.6903 88.0234 89.8796 87.9354 90.0242 87.7998C90.1689 87.6641 90.2608 87.4885 90.2856 87.3001C90.3105 87.1117 90.267 86.921 90.1618 86.7576C90.0566 86.5942 89.8956 86.4672 89.7038 86.3963C89.512 86.3254 89.3001 86.3146 89.1009 86.3654C88.9017 86.4163 88.7264 86.5261 88.602 86.6778C88.4777 86.8294 88.4114 87.0145 88.4132 87.2043C88.4151 87.3941 88.4852 87.578 88.6125 87.7275Z" fill="#E6E6E6"/>
<path d="M132.627 149.007C132.204 149.015 131.79 149.116 131.418 149.302C131.047 149.488 130.729 149.752 130.491 150.073C130.253 150.395 130.103 150.763 130.052 151.149C130.001 151.534 130.052 151.925 130.199 152.289C131.056 153.984 134.009 153.992 135.321 152.563C135.657 152.157 135.898 151.692 136.029 151.196C136.159 150.701 136.176 150.186 136.079 149.684C135.981 149.182 135.771 148.704 135.463 148.28C135.154 147.857 134.753 147.496 134.285 147.222L132.627 149.007Z" fill="#E6E6E6"/>
<path d="M175.155 189.15C174.811 189.234 174.49 189.38 174.209 189.58C173.929 189.78 173.695 190.029 173.521 190.314C173.348 190.598 173.238 190.912 173.199 191.236C173.159 191.56 173.191 191.888 173.292 192.2L175.743 192.357C176.573 191.974 177.403 191.592 178.234 191.209C178.183 190.886 178.063 190.576 177.88 190.297C177.697 190.017 177.455 189.774 177.168 189.582C176.881 189.39 176.555 189.253 176.209 189.179C175.863 189.105 175.505 189.095 175.155 189.15Z" fill="#E6E6E6"/>
<path d="M165.191 191.933C164.489 192.39 163.926 193.004 163.555 193.716C163.183 194.428 163.015 195.215 163.067 196.003C163.147 196.79 163.497 197.532 164.067 198.124C164.637 198.715 165.398 199.124 166.238 199.293C167.087 199.415 167.954 199.237 168.665 198.794C169.375 198.352 169.877 197.678 170.067 196.909C170.481 194.582 167.756 192.877 166.777 190.697L165.191 191.933Z" fill="#E6E6E6"/>
<path d="M260.398 176.562C260.656 178.309 258.941 179.84 258.878 181.602C258.802 183.693 261.282 185.32 263.55 185.115C264.676 184.936 265.741 184.519 266.662 183.898C267.583 183.277 268.334 182.469 268.857 181.536L268.906 181.34C267.801 180.194 266.696 179.048 265.591 177.902C264.235 176.494 262.796 174.892 262.85 173.013C262.876 172.087 263.274 171.189 263.251 170.263C263.198 169.597 263.036 168.942 262.771 168.319C262.471 167.5 262.064 166.577 261.172 166.3C260.056 165.954 258.929 166.862 258.396 167.827C257.916 168.717 257.683 169.702 257.717 170.694C257.751 171.686 258.051 172.655 258.59 173.516C259.235 174.522 260.226 175.406 260.398 176.562Z" fill="#E6E6E6"/>
<path d="M249.979 182.709C250.221 182.829 250.488 182.9 250.762 182.916C251.036 182.932 251.31 182.893 251.567 182.803C252.551 182.649 253.497 182.333 254.36 181.871C254.788 181.635 255.14 181.298 255.38 180.896C255.62 180.494 255.739 180.04 255.726 179.582C255.577 179.005 255.244 178.482 254.771 178.079C254.298 177.676 253.706 177.41 253.068 177.316C252.626 177.173 252.152 177.133 251.688 177.198C251.224 177.263 250.785 177.431 250.409 177.689C249.586 178.398 249.684 179.601 249.846 180.626L249.672 180.894C249.517 181.527 249.418 182.314 249.979 182.709Z" fill="#E6E6E6"/>
<path d="M423.875 257.378C423.636 256.832 423.397 256.287 423.158 255.742C422.83 256.482 422.952 257.24 423.875 257.378Z" fill="#E6E6E6"/>
<path d="M567.319 142.647C564.252 139.594 562.374 137.833 560.438 134.047C559.384 131.96 557.784 130.144 555.779 128.762C553.775 127.381 551.429 126.476 548.951 126.129C542.589 125.167 536.088 126.691 529.649 126.385C519.336 125.896 510.036 120.819 500.159 118.049C494.629 116.627 488.998 115.561 483.306 114.858C480.026 114.382 476.746 113.906 473.467 113.43C462.716 111.87 451.897 110.304 441.015 110.512C437.877 110.571 433.506 109.706 433.757 106.834C434.069 103.267 441.06 103.736 442.405 100.377C443.237 98.2994 441.246 96.118 439.062 95.1786C436.879 94.2391 434.358 93.9567 432.377 92.6954C430.395 91.4342 429.309 88.5103 431.131 87.0595C426.083 89.4349 421.034 91.8104 415.986 94.1859C411.79 96.1608 407.1 98.7302 406.359 103.006C403.83 103.619 401.617 105.03 400.108 106.992C397.269 107.005 395.037 109.508 394.569 112.079C394.1 114.649 394.952 117.251 395.793 119.741C394.763 117.93 393.669 116.05 391.854 114.868C390.038 113.686 387.275 113.461 385.727 114.929C384.139 116.436 384.51 118.963 385.634 120.788C386.758 122.613 388.483 124.086 389.544 125.943C392.855 131.742 386.855 139.906 379.757 139.261C380.233 133.272 380.709 127.284 381.185 121.296C381.487 119.454 381.318 117.573 380.692 115.801C379.918 114.087 377.935 112.679 375.962 113.084C372.415 113.811 372.718 118.581 374.194 121.631C375.67 124.68 377.141 128.921 374.128 130.788C372.183 131.994 369.545 131.249 367.445 130.287C365.345 129.324 363.098 128.138 360.803 128.588C358.507 129.037 357.063 132.258 359.092 133.343C355.728 132.807 352.364 132.27 349 131.733C348.834 132.642 348.461 133.509 347.907 134.278C347.353 135.046 346.629 135.699 345.782 136.195C344.936 136.691 343.986 137.018 342.993 137.155C342 137.293 340.987 137.238 340.018 136.993C339.688 135.737 339.358 134.481 339.028 133.225C338.536 133.099 338.043 132.973 337.551 132.847C339.096 133.242 336.679 139.224 334.512 143.793C331.598 143.479 327.34 143.419 326.855 142.652C324.528 138.983 324.804 130.242 320.763 128.177C318.735 127.142 316.657 126.198 314.527 125.347C313.408 124.858 312.225 124.501 311.008 124.286C308.526 123.927 306.024 124.634 303.628 125.332C300.798 126.157 297.902 127.013 295.559 128.687C293.558 130.281 291.842 132.153 290.475 134.236C285.849 140.522 281.222 146.808 276.595 153.093C275.216 154.772 274.132 156.638 273.38 158.623C273.026 159.611 272.908 160.657 273.034 161.69C273.161 162.723 273.528 163.718 274.112 164.609C274.728 165.482 275.645 166.14 276.717 166.476C277.789 166.812 278.954 166.808 280.022 166.463C281.363 165.93 282.707 164.722 284.035 165.28C285.042 165.702 285.293 166.917 285.188 167.928C284.932 168.918 284.912 169.947 285.129 170.945C285.734 172.519 288.061 173.067 289.721 172.386C291.336 171.577 292.545 170.225 293.095 168.615C294.695 164.849 294.532 160.683 294.93 156.657C295.328 152.632 296.527 148.326 299.985 145.824C301.019 145.074 302.54 144.534 303.605 145.247C304.004 145.58 304.28 146.018 304.394 146.502C304.508 146.985 304.455 147.49 304.242 147.944C303.796 148.843 303.216 149.681 302.517 150.432C301.335 151.957 300.509 153.69 300.088 155.521C299.668 157.353 299.662 159.244 300.072 161.077L300.779 161.478C303.475 160.837 307.083 161.986 310.662 163.088C308.064 163.797 305.776 165.241 304.126 167.215C299.989 172.543 296.994 177.585 288.81 177.522C286.869 177.507 284.944 177.154 283.002 177.15C281.043 177.039 279.112 177.629 277.616 178.797C276.144 180.12 275.689 182.134 274.43 183.631C272.775 185.598 270.007 186.398 267.479 187.292C265.632 187.945 263.685 188.826 262.836 190.468C262.303 191.814 262.18 193.268 262.48 194.674C262.765 197.16 263.269 199.987 265.566 201.329C266.425 201.74 267.365 201.99 268.331 202.065C269.296 202.14 270.268 202.038 271.191 201.765C273.58 201.232 275.917 200.227 278.371 200.377C282.224 200.613 285.397 204.008 285.436 207.552C285.456 209.346 284.886 211.404 286.182 212.748C287.399 214.011 289.814 213.786 291.075 212.56C291.661 211.908 292.065 211.134 292.25 210.306C292.435 209.477 292.397 208.62 292.138 207.809C291.602 206.193 290.778 204.669 289.7 203.3C290.982 202.995 292.34 203.108 293.543 203.618C294.745 204.128 295.718 205.005 296.296 206.099C297.151 207.845 296.875 209.859 297.148 211.756C297.421 213.654 298.679 215.763 300.761 215.872C301.442 215.89 302.108 215.688 302.644 215.302C303.179 214.916 303.551 214.37 303.694 213.759C303.716 212.796 303.658 211.833 303.523 210.878C303.594 209.938 304.054 209.058 304.809 208.419C305.564 207.781 306.557 207.431 307.584 207.443C306.951 208.517 306.745 209.76 307.001 210.959C307.257 212.157 307.96 213.237 308.988 214.012C310.573 215.137 312.667 215.388 314.64 215.703C316.614 216.017 318.719 216.515 319.993 217.934C322.115 220.298 319.519 221.362 319.114 223.364C318.618 225.822 320.855 229.451 321.714 231.802C325.661 236.871 329.609 241.94 333.556 247.009C334.437 248.242 335.477 249.373 336.652 250.378C340.548 253.45 346.973 253.147 350.709 249.912C352.521 248.229 353.698 246.058 354.066 243.716C354.434 241.375 353.975 238.987 352.756 236.902C350.447 233.044 345.871 230.654 343.611 226.77C347.372 229.628 351.989 231.371 356.853 231.769C365.457 233.374 373.632 236.521 380.91 241.03C381.252 248.009 384.169 254.674 389.183 259.931C390.084 253.974 393.109 248.46 397.786 244.248C400.827 241.526 404.982 239.331 409.154 240.063C413.327 240.795 416.492 245.679 413.969 248.816C416.083 248.96 418.198 249.104 420.312 249.249C421.261 251.413 422.209 253.577 423.157 255.742C423.326 255.287 423.649 254.894 424.079 254.62C424.509 254.346 425.024 254.205 425.547 254.219C427.527 254.493 428.915 256.184 430.798 256.808C434.347 257.985 438.142 254.725 438.601 251.287C439.06 247.849 437.278 244.529 435.547 241.451C439.371 242.101 443.319 241.713 446.907 240.336C450.495 238.958 453.568 236.65 455.749 233.693C457.93 230.737 459.124 227.262 459.187 223.692C459.249 220.122 458.176 216.613 456.098 213.595C460.214 209.627 465.056 206.355 470.406 203.926C475.356 201.681 480.771 200.14 485.098 196.991C489.424 193.842 492.459 188.373 490.378 183.679C488.908 180.362 485.22 178.111 484.117 174.677C482.519 169.706 487.372 164.564 492.854 163.322C498.336 162.08 504.061 163.606 509.461 165.121C508.632 160.02 515.072 155.239 520.333 157.05C522.536 156.231 524.739 155.412 526.942 154.593C524.388 159.762 518.854 163.05 514.785 167.323C510.716 171.596 508.293 178.554 512.543 182.675C518.636 177.606 524.729 172.537 530.822 167.468C537.195 162.165 543.568 156.863 549.941 151.561C549.637 150.74 549.332 149.92 549.028 149.099C555.058 146.997 561.551 145.258 567.319 142.647Z" fill="#E6E6E6"/>
<path d="M250.853 210.87C250.607 211.195 250.476 211.582 250.478 211.978C250.481 212.375 250.616 212.76 250.866 213.083C251.193 213.339 251.607 213.481 252.036 213.486C252.465 213.492 252.883 213.359 253.218 213.113C253.872 212.6 254.383 211.95 254.708 211.219C255.024 211.781 255.522 212.24 256.132 212.534C256.743 212.827 257.437 212.941 258.121 212.86C259.486 212.671 260.779 212.176 261.886 211.418C262.764 210.946 263.539 210.329 264.173 209.597C264.486 209.229 264.701 208.799 264.801 208.341C264.9 207.882 264.882 207.409 264.747 206.959C264.419 206.268 263.908 205.663 263.261 205.198C261.649 203.831 260.037 202.464 258.425 201.097L257.878 200.947C257.594 200.669 257.252 200.447 256.871 200.294C256.491 200.141 256.081 200.06 255.666 200.056C255.251 200.051 254.839 200.124 254.455 200.27C254.072 200.416 253.724 200.631 253.433 200.903C252.432 201.932 252.428 203.469 252.581 204.841C252.734 206.213 252.972 207.675 252.306 208.912C251.925 209.621 251.278 210.182 250.853 210.87Z" fill="#E6E6E6"/>
<path d="M344.392 257.564C338.127 256.284 332.392 253.384 327.865 249.207C323.338 245.031 320.208 239.752 318.846 233.994C318.252 231.277 317.982 228.309 316.013 226.208C314.107 224.175 310.992 223.441 308.07 223.441C305.147 223.441 302.266 224.059 299.349 224.226C294.249 224.518 288.845 223.281 285.198 219.995C283.471 218.44 282.164 216.464 280.147 215.237C277.436 213.588 273.842 213.589 270.753 214.523C267.313 215.564 264.559 218.412 260.797 218.02C256.885 217.612 252.35 216.343 250.816 221.072C250.375 222.433 250.525 223.927 249.966 225.251C249.104 227.293 246.815 228.444 245.006 229.87C241.36 232.742 239.422 237.106 238.769 241.475C238.116 245.845 238.621 250.282 239.127 254.668C239.4 257.033 239.758 259.579 241.529 261.316C243.996 263.738 248.137 263.645 251.737 263.372C255.92 263.055 260.102 262.738 264.285 262.421C266.54 262.25 269.109 262.177 270.714 263.641C271.676 264.518 272.083 265.786 272.929 266.759C273.688 267.586 274.73 268.153 275.886 268.367C277.041 268.581 278.242 268.429 279.291 267.936C278.443 269.327 277.981 270.888 277.946 272.482C277.912 274.076 278.306 275.653 279.094 277.073C279.882 278.493 281.039 279.714 282.464 280.626C283.888 281.538 285.535 282.113 287.259 282.301L287.582 282.488C284.904 286.697 282.126 291.424 283.236 296.19C284.188 300.277 287.876 303.554 288.479 307.696C289.032 311.497 286.871 315.384 287.827 319.117C288.795 322.897 292.954 325.532 297.173 325.814C301.392 326.095 305.538 324.377 308.806 321.911C312.074 319.446 314.601 316.27 317.091 313.131C318.629 311.193 320.206 309.176 320.733 306.827C321.295 304.329 320.644 301.559 321.968 299.316C323.494 296.729 327.118 295.759 328.947 293.343C331.315 290.214 329.92 285.953 330.443 282.173C331.739 272.819 344.687 266.99 344.392 257.564Z" fill="#E6E6E6"/>
<path d="M342.523 289.497C342.168 290.958 340.679 291.919 339.259 292.655C337.839 293.39 336.278 294.131 335.555 295.472C334.814 296.846 335.152 298.482 335.54 299.973C336.346 303.074 337.296 306.139 338.389 309.169C340.507 305.495 342.357 301.695 343.926 297.795C344.59 296.343 345 294.804 345.141 293.234C345.206 292.449 345.09 291.659 344.803 290.917C344.515 290.175 344.061 289.496 343.47 288.925L342.523 289.497Z" fill="#E6E6E6"/>
<path d="M429.65 273.23C427.871 271.344 426.092 269.459 424.313 267.574C423.096 266.285 421.709 264.908 419.865 264.693L419.106 265.138C420.649 268.509 422.191 271.881 423.734 275.252C424.28 276.792 425.241 278.179 426.528 279.287C427.909 280.282 430.148 280.474 431.299 279.257C431.671 278.801 431.905 278.263 431.978 277.697C432.052 277.132 431.962 276.559 431.718 276.035C431.216 274.994 430.515 274.044 429.65 273.23Z" fill="#E6E6E6"/>
<path d="M446.888 276.839C447.561 276.625 448.177 276.284 448.698 275.839C449.218 275.393 449.632 274.853 449.912 274.252C450.464 273.049 450.828 271.78 450.994 270.484C451.298 268.796 451.602 267.108 451.906 265.42L451.508 265.326C451.122 265.156 450.681 265.12 450.269 265.225C449.856 265.33 449.498 265.569 449.263 265.898C448.814 266.568 448.475 267.295 448.256 268.055C448.143 268.435 447.939 268.787 447.657 269.084C447.376 269.381 447.025 269.616 446.631 269.771C445.203 270.166 443.85 268.777 442.359 268.831C441.757 268.902 441.199 269.157 440.775 269.556C440.351 269.956 440.088 270.475 440.027 271.029C439.94 272.148 440.286 273.26 441.003 274.169C442.274 275.98 444.633 277.435 446.888 276.839Z" fill="#E6E6E6"/>
<path d="M456.725 280.04L460.825 270.128C459.164 271.234 457.891 272.761 457.162 274.522C456.434 276.283 456.282 278.201 456.725 280.04Z" fill="#E6E6E6"/>
<path d="M477.648 272.05L476.819 272.082C476.449 272.755 476.252 273.497 476.244 274.25C476.236 275.004 476.418 275.75 476.774 276.429C477.502 277.782 478.56 278.964 479.867 279.88C481.893 281.415 484.205 282.6 486.691 283.377C490.337 284.353 494.106 284.886 497.903 284.962C500.073 285.093 502.244 285.223 504.414 285.354C505.448 285.416 506.786 285.295 507.073 284.382C507.31 283.627 506.61 282.918 505.956 282.411C500.213 277.975 493.252 275.075 485.834 274.028C483.02 273.635 480.034 273.474 477.648 272.05Z" fill="#E6E6E6"/>
<path d="M500.816 298.355C499.255 296.966 497.694 295.576 496.133 294.187C494.615 292.836 492.341 291.404 490.601 292.507C489.601 293.141 489.293 294.378 488.445 295.178C487.929 295.602 487.306 295.902 486.632 296.049C485.957 296.196 485.254 296.187 484.584 296.021C483.251 295.678 481.991 295.129 480.857 294.4L476.983 292.193C475.647 291.432 474.31 290.671 472.974 289.91L469.958 292.6C470.089 291.276 468.165 290.416 466.834 290.939C466.201 291.265 465.656 291.718 465.24 292.264C464.824 292.809 464.548 293.434 464.431 294.092C464.209 295.406 463.823 296.692 463.279 297.925C461.747 300.616 458.029 301.413 454.757 301.864C451.486 302.315 447.78 302.949 446.029 305.526C444.571 307.671 445.008 310.427 445.495 312.916L447.339 322.333C447.426 323.474 447.924 324.556 448.756 325.408C450.376 326.72 452.884 325.922 454.861 325.122C458.993 323.297 463.427 322.118 467.982 321.631C472.576 321.159 477.2 322.246 480.981 324.687C483.326 326.326 485.113 328.594 487.597 330.049C489.308 330.994 491.231 331.568 493.22 331.727C495.21 331.887 497.212 331.627 499.076 330.969C502.811 329.604 505.902 327.073 507.805 323.823C509.496 320.957 510.344 317.736 510.267 314.478C510.189 311.219 509.189 308.036 507.365 305.24C505.502 302.704 503.302 300.392 500.816 298.355Z" fill="#E6E6E6"/>
<path d="M496.214 336.722C495.839 337.14 495.62 337.656 495.589 338.196C495.557 338.736 495.715 339.272 496.039 339.723C496.719 340.618 497.756 341.231 498.925 341.429C500.082 341.619 501.262 341.668 502.434 341.576L502.469 340.772C502.157 339.362 501.449 338.052 500.414 336.971C499.283 335.984 497.285 335.681 496.214 336.722Z" fill="#E6E6E6"/>
<path d="M536.409 337.582L535.85 337.394C534.518 339.236 533.186 341.079 531.854 342.922C531.138 343.913 530.39 345.104 530.827 346.224C531.344 347.55 533.258 347.939 534.743 347.588C535.877 347.305 536.9 346.732 537.692 345.934C538.483 345.137 539.01 344.149 539.212 343.086C539.375 342.018 539.198 340.93 538.7 339.952C538.203 338.975 537.407 338.151 536.409 337.582Z" fill="#E6E6E6"/>
<path d="M546.563 331.733L542.886 329.05C542.837 330.295 542.788 331.54 542.739 332.785L542.601 332.787C543.449 333.469 544.249 334.2 544.998 334.974C545.858 335.646 547.302 335.953 548.038 335.166C548.258 334.885 548.383 334.55 548.397 334.203C548.411 333.857 548.314 333.514 548.117 333.218C547.713 332.633 547.184 332.128 546.563 331.733Z" fill="#E6E6E6"/>
<path d="M480.133 214.994C478.59 214.95 476.882 214.864 475.686 215.76C475.293 216.083 474.948 216.452 474.66 216.858L474.239 217.4C473.608 218.158 473.058 218.97 472.596 219.824C472.355 220.225 472.21 220.668 472.172 221.125C472.133 221.581 472.202 222.04 472.373 222.469C472.471 222.675 472.618 222.858 472.803 223.006C472.987 223.153 473.205 223.262 473.44 223.324C473.675 223.386 473.922 223.4 474.164 223.364C474.406 223.329 474.636 223.245 474.838 223.119C475.498 222.558 475.344 221.541 475.842 220.855C476.062 220.596 476.344 220.388 476.666 220.246C476.988 220.105 477.342 220.034 477.699 220.04C478.411 220.056 479.121 220.13 479.819 220.26C481.753 220.503 483.723 220.233 485.495 219.482C487.268 218.73 488.769 217.529 489.822 216.02C490.874 214.511 491.434 212.756 491.436 210.964C491.437 209.172 490.88 207.417 489.829 205.906L489.705 205.559C488.637 205.521 487.588 205.829 486.741 206.428C485.895 207.027 485.304 207.88 485.071 208.838C484.726 210.488 485.458 212.405 484.368 213.755C483.449 214.893 481.676 215.038 480.133 214.994Z" fill="#E6E6E6"/>
<path d="M493.944 197.499L493.709 197.48C492.33 197.712 491.005 198.165 489.797 198.819C489.4 198.988 489.083 199.282 488.905 199.649C488.853 199.843 488.853 200.046 488.908 200.24C488.962 200.434 489.068 200.613 489.216 200.76C489.516 201.05 489.867 201.293 490.254 201.477C490.831 201.83 491.468 202.092 492.139 202.251C492.476 202.327 492.829 202.325 493.165 202.246C493.501 202.166 493.81 202.011 494.064 201.794C494.303 201.493 494.467 201.148 494.545 200.782C494.623 200.417 494.613 200.04 494.516 199.679C494.406 198.936 494.214 198.206 493.944 197.499Z" fill="#E6E6E6"/>
<path d="M470.163 215.414C470.532 214.872 470.794 214.274 470.937 213.648C471.081 213.163 471.225 212.677 471.369 212.191L469.831 211.333C469.096 211.684 468.418 212.128 467.817 212.651C467.518 212.914 467.282 213.232 467.123 213.583C466.964 213.934 466.886 214.312 466.894 214.693C466.915 215.073 467.076 215.435 467.35 215.721C467.624 216.006 467.995 216.199 468.403 216.266C468.752 216.275 469.097 216.202 469.405 216.053C469.714 215.904 469.975 215.684 470.163 215.414Z" fill="#E6E6E6"/>
<path d="M302.612 84.1295C302.004 84.4775 302.176 85.3187 302.423 85.9364C302.706 86.6455 302.989 87.3546 303.272 88.0637L303.669 86.6872C304.017 86.1533 304.17 85.5315 304.107 84.912C303.97 84.3069 303.184 83.8026 302.612 84.1295Z" fill="#E6E6E6"/>
<path d="M686.614 211.864H429.369C423.169 211.858 417.225 209.594 412.84 205.57C408.456 201.545 405.99 196.089 405.983 190.398V21.4664C405.99 15.7752 408.456 10.3188 412.841 6.29452C417.225 2.27018 423.169 0.0064745 429.369 0H686.614C692.814 0.00647204 698.759 2.27018 703.143 6.29452C707.527 10.3188 709.993 15.7752 710 21.4664V190.398C709.993 196.089 707.527 201.545 703.143 205.57C698.759 209.594 692.814 211.858 686.614 211.864Z" fill="white"/>
<path d="M686.614 211.864H429.369C423.169 211.858 417.225 209.594 412.84 205.57C408.456 201.545 405.99 196.089 405.983 190.398V21.4664C405.99 15.7752 408.456 10.3188 412.841 6.29452C417.225 2.27018 423.169 0.0064745 429.369 0H686.614C692.814 0.00647204 698.759 2.27018 703.143 6.29452C707.527 10.3188 709.993 15.7752 710 21.4664V190.398C709.993 196.089 707.527 201.545 703.143 205.57C698.759 209.594 692.814 211.858 686.614 211.864ZM429.369 1.86665C423.708 1.87247 418.281 3.93931 414.278 7.61372C410.275 11.2881 408.023 16.27 408.017 21.4664V190.398C408.023 195.594 410.275 200.576 414.278 204.25C418.281 207.925 423.708 209.992 429.369 209.998H686.614C692.275 209.992 697.702 207.925 701.705 204.25C705.708 200.576 707.96 195.594 707.966 190.398V21.4664C707.96 16.27 705.708 11.2881 701.706 7.61372C697.703 3.93931 692.275 1.87247 686.614 1.86665H429.369Z" fill="#3F3D56"/>
<path d="M499.359 25.7215H458.687C457.609 25.7215 456.574 25.3282 455.812 24.628C455.049 23.9279 454.62 22.9783 454.62 21.9882C454.62 20.9981 455.049 20.0485 455.812 19.3484C456.574 18.6482 457.609 18.2549 458.687 18.2549H499.359C500.437 18.2549 501.472 18.6482 502.234 19.3484C502.997 20.0485 503.426 20.9981 503.426 21.9882C503.426 22.9783 502.997 23.9279 502.234 24.628C501.472 25.3282 500.437 25.7215 499.359 25.7215Z" fill="#CCCCCC"/>
<path d="M587.818 109.72H458.687C457.609 109.72 456.574 109.327 455.812 108.627C455.049 107.927 454.62 106.977 454.62 105.987C454.62 104.997 455.049 104.047 455.812 103.347C456.574 102.647 457.609 102.254 458.687 102.254H587.818C588.897 102.254 589.931 102.647 590.694 103.347C591.457 104.047 591.885 104.997 591.885 105.987C591.885 106.977 591.457 107.927 590.694 108.627C589.931 109.327 588.897 109.72 587.818 109.72Z" fill="#CCCCCC"/>
<path d="M481.561 86.1523C496.621 86.1523 508.83 74.9457 508.83 61.1216C508.83 47.2975 496.621 36.0909 481.561 36.0909C466.501 36.0909 454.292 47.2975 454.292 61.1216C454.292 74.9457 466.501 86.1523 481.561 86.1523Z" fill="#C7E0FF"/>
<path d="M460.721 181.015H454.62V182.882H460.721V181.015Z" fill="#3F3D56"/>
<path d="M639.846 182.882H627.051V181.015H639.846V182.882ZM614.256 182.882H601.462V181.015H614.256V182.882ZM588.667 182.882H575.872V181.015H588.667V182.882ZM563.078 182.882H550.284V181.015H563.078L563.078 182.882ZM537.489 182.882H524.694V181.015H537.489V182.882ZM511.9 182.882H499.105V181.015H511.9L511.9 182.882ZM486.31 182.882H473.516V181.015H486.31V182.882Z" fill="#3F3D56"/>
<path d="M658.741 181.015H652.64V182.882H658.741V181.015Z" fill="#3F3D56"/>
<path d="M558.168 147.987H553.084V179.72H558.168V147.987Z" fill="#C7E0FF"/>
<path d="M610.023 147.987H604.939V179.72H610.023V147.987Z" fill="#C7E0FF"/>
<path d="M635.443 165.72H630.359V179.72H635.443V165.72Z" fill="#C7E0FF"/>
<path d="M583.587 133.987H578.503V179.72H583.587V133.987Z" fill="#C7E0FF"/>
<path d="M91.4662 211.453C94.8355 211.453 97.5668 208.945 97.5668 205.853C97.5668 202.76 94.8355 200.253 91.4662 200.253C88.0969 200.253 85.3655 202.76 85.3655 205.853C85.3655 208.945 88.0969 211.453 91.4662 211.453Z" fill="#C7E0FF"/>
<path d="M107.735 184.386C111.104 184.386 113.835 181.879 113.835 178.786C113.835 175.694 111.104 173.186 107.735 173.186C104.365 173.186 101.634 175.694 101.634 178.786C101.634 181.879 104.365 184.386 107.735 184.386Z" fill="#C7E0FF"/>
<path d="M286.688 162.92C290.057 162.92 292.788 160.413 292.788 157.32C292.788 154.227 290.057 151.72 286.688 151.72C283.318 151.72 280.587 154.227 280.587 157.32C280.587 160.413 283.318 162.92 286.688 162.92Z" fill="#C7E0FF"/>
<path d="M146.651 557.629L155.853 557.628L160.23 525.049L146.649 525.05L146.651 557.629Z" fill="#FFB6B6"/>
<path d="M146.327 569.434L174.949 569.433V569.035C174.949 565.782 173.775 562.662 171.686 560.362C169.597 558.062 166.763 556.769 163.809 556.769H163.808L158.58 552.402L148.825 556.77L146.327 556.77L146.327 569.434Z" fill="#2F2E41"/>
<path d="M215.792 557.629L224.994 557.628L229.371 525.049L215.79 525.05L215.792 557.629Z" fill="#FFB6B6"/>
<path d="M215.468 569.434L243.764 569.433V569.035C243.764 565.782 242.604 562.662 240.538 560.362C238.473 558.062 235.672 556.769 232.751 556.769H232.75L227.581 552.402L217.938 556.77L215.468 556.77L215.468 569.434Z" fill="#2F2E41"/>
<path d="M146.293 292.602L162.624 290.455C168.146 298.932 170.109 321.496 170.109 321.496L186.091 356.363C187.149 357.023 188 357.927 188.556 358.985C189.113 360.042 189.356 361.216 189.262 362.387C189.168 363.558 188.739 364.686 188.019 365.657C187.298 366.627 186.312 367.407 185.16 367.917C184.007 368.426 182.728 368.648 181.453 368.56C180.177 368.472 178.949 368.077 177.892 367.415C176.835 366.753 175.987 365.847 175.433 364.788C174.879 363.73 174.639 362.556 174.736 361.385L148.496 320.8L146.293 292.602Z" fill="#FFB6B6"/>
<path d="M155.144 250.987C152.617 251.346 150.206 252.213 148.085 253.524C145.963 254.836 144.183 256.56 142.87 258.575C141.557 260.59 140.745 262.846 140.489 265.182C140.234 267.518 140.543 269.877 141.394 272.091L144.86 281.107C144.86 281.107 140.494 308.255 147.689 315.918L169.764 314.084C169.764 314.084 165.728 300.387 168.827 293.761C170.724 289.702 170.619 275.685 168.749 264.282C167.321 255.576 164.623 249.64 155.144 250.987Z" fill="#3F3D56"/>
<path d="M231.273 332.785C231.273 332.785 248.289 348.017 244.655 351.535C241.021 355.054 232.71 359.982 240.424 360.784C248.139 361.587 251.339 363.327 244.655 364.79C237.971 366.254 239.004 370.011 239.004 370.011C239.004 370.011 249.067 413.984 241.441 442.917C241.441 442.917 237.197 521.943 234.534 528.097C231.87 534.252 230.854 530.518 231.87 534.252C232.887 537.985 234.921 531.452 232.887 537.985C231.778 541.398 230.899 544.87 230.256 548.382L210.366 545.582C210.366 545.582 207.164 536.317 210.366 533.884C213.568 531.452 216.441 532.951 212.971 527.535C209.501 522.118 208.485 529.585 209.501 522.118C210.518 514.652 206.273 474.269 212.971 452.928L200.594 393.043L180.943 455.05C180.943 455.05 170.519 530.78 167.133 533.449C163.746 536.118 158.662 531.452 163.746 536.118C168.83 540.785 168.741 539.982 168.83 540.785C169.777 549.346 140.667 539.982 140.667 539.982C140.829 537.807 140.829 535.624 140.667 533.449C140.36 531.452 144.024 530.812 140.667 528.799C137.31 526.785 142.305 528.782 142.305 528.782C142.305 528.782 149.812 472.914 155.523 455.983L162.132 373.537C162.132 373.537 162.552 375.181 162.132 371.184C161.713 367.187 158.662 369.987 161.713 367.187C164.763 364.387 166.797 362.96 164.763 360.873C162.729 358.787 157.12 354.566 160.433 352.01C163.746 349.454 170.266 332.785 170.266 332.785L233.815 333.251" fill="#2F2E41"/>
<path d="M207.38 240.223L195.921 228.38L177.816 230.227L166.224 245.118C160.054 246.42 154.662 249.843 151.157 254.683C147.653 259.523 146.303 265.412 147.385 271.138C151.883 294.915 167.17 317.975 162.122 329.706C154.46 347.514 153.993 354.777 172.334 352.281C190.676 349.784 252.125 344.028 240.211 333.093C228.298 322.157 225.681 303.883 225.681 303.883L225.203 262.075C225.71 259.554 225.642 256.963 225.005 254.467C224.368 251.971 223.175 249.622 221.501 247.57C219.826 245.517 217.708 243.805 215.277 242.541C212.847 241.276 210.158 240.487 207.38 240.223Z" fill="#3F3D56"/>
<path d="M204.25 286.069L220.58 283.922C226.103 292.399 228.065 314.963 228.065 314.963L244.047 349.83C245.106 350.49 245.956 351.394 246.513 352.452C247.069 353.509 247.313 354.682 247.218 355.854C247.124 357.025 246.695 358.153 245.975 359.123C245.255 360.094 244.269 360.874 243.116 361.383C241.963 361.893 240.685 362.115 239.409 362.027C238.133 361.939 236.905 361.544 235.848 360.882C234.792 360.22 233.944 359.314 233.39 358.255C232.836 357.196 232.595 356.022 232.693 354.851L206.453 314.267L204.25 286.069Z" fill="#FFB6B6"/>
<path d="M213.101 244.454C210.573 244.813 208.163 245.679 206.041 246.991C203.92 248.303 202.139 250.027 200.827 252.042C199.514 254.057 198.701 256.313 198.446 258.649C198.191 260.985 198.5 263.344 199.351 265.558L202.816 274.574C202.816 274.574 198.451 301.722 205.645 309.385L227.72 307.551C227.72 307.551 223.684 293.854 226.783 287.227C228.681 283.169 228.575 269.152 226.705 257.749C225.278 249.042 222.58 243.106 213.101 244.454Z" fill="#3F3D56"/>
<path d="M181.89 227.361C193.976 227.361 203.774 218.367 203.774 207.273C203.774 196.178 193.976 187.184 181.89 187.184C169.803 187.184 160.005 196.178 160.005 207.273C160.005 218.367 169.803 227.361 181.89 227.361Z" fill="#FFB6B6"/>
<path d="M177.865 226.937C183.96 225.535 184.167 223.936 190.262 222.535C192.203 222.089 194.452 221.385 195.027 219.626C195.163 218.983 195.136 218.32 194.945 217.688C194.755 217.056 194.408 216.473 193.931 215.986C192.971 215.02 192.071 214.005 191.236 212.946C190.684 212.095 190.365 211.133 190.308 210.144C190.251 209.155 190.457 208.167 190.909 207.268C191.36 206.368 192.044 205.583 192.9 204.98C193.757 204.377 194.76 203.974 195.824 203.807C197.71 203.511 199.654 203.97 201.551 203.748C204.154 203.443 207.981 194.581 206.313 192.722C204.689 190.913 202.024 189.834 201.128 187.639C200.543 186.203 200.863 184.598 200.602 183.083C200.215 180.838 195.265 187.055 195.924 184.863C197.54 179.488 170.196 178.642 167.349 185.538C166.285 188.115 163.405 188.525 161.189 190.385C159.737 191.604 156.264 195.506 155.761 197.609C155.344 199.735 155.424 201.919 155.996 204.014C158.267 213.839 162.021 222.545 172.012 226.638" fill="#2F2E41"/>
</g>
<defs>
<clipPath id="clip0_7_27">
<rect width="710" height="568" fill="white"/>
</clipPath>
</defs>
</svg>
