<svg width="50" height="55" viewBox="0 0 50 55" fill="none" xmlns="http://www.w3.org/2000/svg">
<circle cx="25" cy="25" r="25" fill="white"/>
<path d="M25 6.6665C19.9464 6.6665 16.2971 8.00915 13.9221 9.39443C11.5474 10.7798 10.3415 12.3241 10.3415 12.3241C10.1202 12.614 10.0003 12.9687 9.99969 13.3334V26.6669C9.99969 30.6351 12.2248 34.0441 15.0256 36.7776C17.8267 39.5109 21.2801 41.6554 24.2478 43.1546V43.1543C24.7207 43.3934 25.2788 43.3934 25.7517 43.1543C28.7193 41.6552 32.1728 39.5106 34.9738 36.7774C37.7746 34.0441 39.9998 30.6351 39.9998 26.6667V13.3338C39.9992 12.9691 39.8792 12.6145 39.658 12.3246C39.658 12.3246 38.452 10.7802 36.0773 9.39487C33.7023 8.00951 30.0533 6.66694 24.9995 6.66694L25 6.6665ZM25 9.99993C29.4701 9.99993 32.4871 11.1576 34.3979 12.272C36.0586 13.241 36.5003 13.8669 36.6666 14.0722V26.6665C36.6666 29.3649 35.0834 32.0128 32.6465 34.3908C30.4216 36.5621 27.5731 38.3735 25.0001 39.7393C22.427 38.3735 19.5785 36.5621 17.3536 34.3908C14.9164 32.0124 13.3336 29.3646 13.3336 26.6665V14.0722C13.4999 13.8669 13.9415 13.241 15.6023 12.272C17.5133 11.1576 20.53 9.99993 25.0001 9.99993H25ZM30.3482 16.6665C29.9149 16.6685 29.4991 16.8389 29.1894 17.1419L23.3334 22.7017L21.4746 20.9439C21.0419 20.5346 20.4239 20.3872 19.853 20.5572C19.2821 20.7271 18.8455 21.1886 18.7071 21.7681C18.569 22.3473 18.7503 22.9564 19.1831 23.3657L22.1875 26.2109C22.4978 26.5044 22.9085 26.6676 23.3356 26.6671C23.7625 26.6665 24.173 26.5019 24.4824 26.2075L31.4844 19.5572C31.8147 19.2516 32.0075 18.8253 32.019 18.3752C32.0301 17.9255 31.8591 17.4899 31.5444 17.1682C31.2299 16.8465 30.7983 16.6654 30.3482 16.6666V16.6665Z" fill="black"/>
</svg>
