<svg width="50" height="55" viewBox="0 0 50 55" fill="none" xmlns="http://www.w3.org/2000/svg">
<circle cx="25" cy="25" r="25" fill="white"/>
<path d="M34.1407 16.3985V12.8907H36.0313C36.547 12.8907 36.9532 12.4766 36.9532 11.961V6.96877C36.9532 6.45314 36.547 6.01562 36.0313 6.01562H13.9685C13.4529 6.01562 13.0466 6.45312 13.0466 6.96877V11.961C13.0466 12.4766 13.4529 12.8907 13.9685 12.8907H15.8591V16.3985C15.8591 18.6876 16.9841 20.8048 18.8904 22.0626L23.3123 25.0001L18.8904 27.9376C16.9841 29.2032 15.8591 31.3203 15.8591 33.6016V37.1094H13.9685C13.4529 37.1094 13.0466 37.5235 13.0466 38.0391V43.0313C13.0466 43.547 13.4529 43.9845 13.9685 43.9845H36.0313C36.547 43.9845 36.9532 43.547 36.9532 43.0313V38.0391C36.9532 37.5235 36.547 37.1094 36.0313 37.1094H34.1407V33.6016C34.1407 31.3126 33.0157 29.1953 31.1094 27.9376L26.6876 25.0001L31.1094 22.0626C33.0157 20.7969 34.1407 18.6798 34.1407 16.3985ZM14.9221 7.89063H35.0786V11.0156H14.9221V7.89063ZM35.0786 42.1092H14.9221V38.9842H35.0786V42.1092ZM30.0786 29.4999C31.4613 30.414 32.2661 31.9531 32.2661 33.6015V37.1093H17.7346V33.6015C17.7346 31.9452 18.5471 30.414 19.9221 29.4999L25.0003 26.1249L30.0786 29.4999ZM30.0786 20.4999L24.9926 23.8749L19.9223 20.4999C18.5396 19.5858 17.7348 18.0468 17.7348 16.3983V12.8906H32.2663V16.3983C32.2663 18.0468 31.4538 19.5858 30.0788 20.4999H30.0786Z" fill="black"/>
</svg>
