<svg width="700" height="450" viewBox="0 0 700 450" fill="none" xmlns="http://www.w3.org/2000/svg">
<g clip-path="url(#clip0_71_17)">
<path d="M614.177 301.628C613.499 300.83 613.007 299.896 612.736 298.892C612.465 297.887 612.422 296.836 612.609 295.813C612.796 294.79 613.21 293.82 613.82 292.971C614.43 292.122 615.222 291.415 616.141 290.899L611.404 266.069L623.725 271.154L626.334 293.954C627.114 295.527 627.279 297.326 626.798 299.011C626.317 300.696 625.224 302.149 623.726 303.095C622.227 304.041 620.427 304.414 618.668 304.144C616.908 303.873 615.31 302.978 614.177 301.628V301.628Z" fill="#FFB6B6"/>
<path d="M584.902 14.5674H43.9985V266.701H584.902V14.5674Z" fill="#E6E6E6"/>
<path d="M569.436 36.188H59.4658V246.551H569.436V36.188Z" fill="white"/>
<path d="M584.672 0H43.7679V22.5732H584.672V0Z" fill="#C7E0FF"/>
<path d="M60.8443 14.6251C63.1965 14.6251 65.1034 12.7519 65.1034 10.4412C65.1034 8.1305 63.1965 6.25732 60.8443 6.25732C58.492 6.25732 56.5851 8.1305 56.5851 10.4412C56.5851 12.7519 58.492 14.6251 60.8443 14.6251Z" fill="white"/>
<path d="M77.0105 14.6251C79.3627 14.6251 81.2696 12.7519 81.2696 10.4412C81.2696 8.1305 79.3627 6.25732 77.0105 6.25732C74.6582 6.25732 72.7513 8.1305 72.7513 10.4412C72.7513 12.7519 74.6582 14.6251 77.0105 14.6251Z" fill="white"/>
<path d="M93.1774 14.6251C95.5296 14.6251 97.4365 12.7519 97.4365 10.4412C97.4365 8.1305 95.5296 6.25732 93.1774 6.25732C90.8251 6.25732 88.9183 8.1305 88.9183 10.4412C88.9183 12.7519 90.8251 14.6251 93.1774 14.6251Z" fill="white"/>
<path d="M89.2903 171.53C88.6989 171.532 88.1325 171.764 87.7151 172.176C87.2977 172.587 87.0634 173.144 87.0634 173.725C87.0634 174.306 87.2977 174.863 87.7151 175.275C88.1325 175.686 88.6989 175.919 89.2903 175.921H211.925C212.517 175.919 213.083 175.686 213.501 175.275C213.918 174.863 214.152 174.306 214.152 173.725C214.152 173.144 213.918 172.587 213.501 172.176C213.083 171.764 212.517 171.532 211.925 171.53H89.2903Z" fill="#E6E6E6"/>
<path d="M89.2903 184.704C88.6989 184.706 88.1325 184.938 87.7151 185.349C87.2977 185.761 87.0634 186.318 87.0634 186.899C87.0634 187.48 87.2977 188.037 87.7151 188.449C88.1325 188.86 88.6989 189.092 89.2903 189.094H151.898C152.489 189.092 153.056 188.86 153.473 188.449C153.891 188.037 154.125 187.48 154.125 186.899C154.125 186.318 153.891 185.761 153.473 185.349C153.056 184.938 152.489 184.706 151.898 184.704H89.2903Z" fill="#E6E6E6"/>
<path d="M212.08 209.575H165.495C164.891 209.574 164.313 209.339 163.886 208.92C163.46 208.5 163.22 207.932 163.219 207.34V200.008C163.22 199.415 163.46 198.847 163.886 198.427C164.313 198.008 164.891 197.773 165.495 197.772H212.08C212.683 197.773 213.261 198.008 213.688 198.427C214.115 198.847 214.355 199.415 214.355 200.008V207.34C214.355 207.932 214.115 208.5 213.688 208.92C213.261 209.339 212.683 209.574 212.08 209.575Z" fill="#C7E0FF"/>
<path d="M212.08 133.225H165.495C164.891 133.224 164.313 132.988 163.886 132.569C163.46 132.15 163.22 131.582 163.219 130.989V123.657C163.22 123.064 163.46 122.496 163.886 122.077C164.313 121.658 164.891 121.422 165.495 121.421H212.08C212.683 121.422 213.261 121.658 213.688 122.077C214.115 122.496 214.355 123.064 214.355 123.657V130.989C214.355 131.582 214.115 132.15 213.688 132.569C213.261 132.988 212.683 133.224 212.08 133.225Z" fill="#C7E0FF"/>
<path d="M294.19 72.9785C293.417 72.9797 292.677 73.282 292.131 73.8192C291.585 74.3563 291.278 75.0842 291.278 75.8432C291.278 76.6022 291.585 77.3302 292.131 77.8673C292.677 78.4044 293.417 78.7067 294.19 78.7079H538.093C538.865 78.7067 539.606 78.4044 540.152 77.8673C540.698 77.3302 541.004 76.6022 541.004 75.8432C541.004 75.0842 540.698 74.3563 540.152 73.8192C539.606 73.282 538.865 72.9797 538.093 72.9785H294.19Z" fill="#E6E6E6"/>
<path d="M294.19 90.1685C293.417 90.1696 292.677 90.472 292.131 91.0091C291.585 91.5462 291.278 92.2742 291.278 93.0331C291.278 93.7921 291.585 94.5201 292.131 95.0572C292.677 95.5943 293.417 95.8966 294.19 95.8978H459.766C460.539 95.8966 461.28 95.5943 461.826 95.0572C462.371 94.5201 462.678 93.7921 462.678 93.0331C462.678 92.2742 462.371 91.5462 461.826 91.0091C461.28 90.472 460.539 90.1696 459.766 90.1685H294.19Z" fill="#E6E6E6"/>
<path d="M294.19 106.969C293.417 106.97 292.677 107.273 292.131 107.81C291.585 108.347 291.278 109.075 291.278 109.834C291.278 110.593 291.585 111.321 292.131 111.858C292.677 112.395 293.417 112.697 294.19 112.699H538.093C538.865 112.697 539.606 112.395 540.152 111.858C540.698 111.321 541.004 110.593 541.004 109.834C541.004 109.075 540.698 108.347 540.152 107.81C539.606 107.273 538.865 106.97 538.093 106.969H294.19Z" fill="#E6E6E6"/>
<path d="M294.19 124.159C293.417 124.16 292.677 124.463 292.131 125C291.585 125.537 291.278 126.265 291.278 127.024C291.278 127.783 291.585 128.511 292.131 129.048C292.677 129.585 293.417 129.887 294.19 129.889H459.766C460.539 129.887 461.28 129.585 461.826 129.048C462.371 128.511 462.678 127.783 462.678 127.024C462.678 126.265 462.371 125.537 461.826 125C461.28 124.463 460.539 124.16 459.766 124.159H294.19Z" fill="#E6E6E6"/>
<path d="M538.807 161.337H492.223C491.619 161.337 491.041 161.101 490.614 160.682C490.187 160.263 489.947 159.694 489.947 159.102V151.77C489.947 151.177 490.187 150.609 490.614 150.19C491.041 149.771 491.619 149.535 492.223 149.534H538.807C539.411 149.535 539.989 149.771 540.416 150.19C540.842 150.609 541.082 151.177 541.083 151.77V159.102C541.082 159.694 540.842 160.263 540.416 160.682C539.989 161.101 539.411 161.337 538.807 161.337Z" fill="#C7E0FF"/>
<path d="M142.108 76.0815C141.281 76.0841 140.611 77.14 140.613 78.4399C140.614 79.7361 141.283 80.7863 142.108 80.7889H212.765C213.592 80.7863 214.262 79.7304 214.26 78.4305C214.259 77.1343 213.59 76.0841 212.765 76.0815H142.108Z" fill="#E4E4E4"/>
<path d="M142.108 89.7207C141.281 89.7233 140.611 90.7791 140.613 92.079C140.614 93.3753 141.283 94.4255 142.108 94.428H212.765C213.592 94.4254 214.262 93.3696 214.26 92.0697C214.259 90.7734 213.59 89.7233 212.765 89.7207H142.108Z" fill="#E4E4E4"/>
<path d="M142.108 103.194C141.281 103.197 140.611 104.253 140.613 105.553C140.614 106.849 141.283 107.899 142.108 107.902H172.512C173.34 107.899 174.009 106.843 174.008 105.543C174.006 104.247 173.337 103.197 172.512 103.194H142.108Z" fill="#E4E4E4"/>
<path d="M106.233 110.647C116.822 110.647 125.406 102.215 125.406 91.813C125.406 81.411 116.822 72.9785 106.233 72.9785C95.644 72.9785 87.0598 81.411 87.0598 91.813C87.0598 102.215 95.644 110.647 106.233 110.647Z" fill="#E4E4E4"/>
<path d="M503.242 157.608C503.106 158.638 503.202 159.686 503.522 160.676C503.843 161.666 504.381 162.575 505.099 163.339C505.816 164.103 506.695 164.704 507.674 165.098C508.653 165.492 509.708 165.67 510.764 165.621L520.347 189.064L527.959 178.274L517.692 157.666C517.489 155.927 516.645 154.322 515.318 153.155C513.991 151.988 512.274 151.339 510.493 151.332C508.712 151.324 506.99 151.959 505.653 153.116C504.317 154.273 503.459 155.871 503.242 157.608Z" fill="#FFB6B6"/>
<path d="M611.281 439.557H602.459L598.261 406.126L611.283 406.127L611.281 439.557Z" fill="#FFB6B6"/>
<path d="M613.531 450L585.082 449.999V449.581C585.083 446.172 586.249 442.902 588.326 440.492C590.402 438.081 593.219 436.727 596.155 436.727H596.156L613.532 436.727L613.531 450Z" fill="#2F2E41"/>
<path d="M582.409 439.282L573.998 436.665L580.267 403.55L592.681 407.411L582.409 439.282Z" fill="#FFB6B6"/>
<path d="M581.974 447.958L554.852 439.523L554.96 439.186C555.847 436.436 557.809 434.144 560.415 432.815C563.022 431.486 566.059 431.228 568.859 432.099L568.859 432.099L585.425 437.251L581.974 447.958Z" fill="#2F2E41"/>
<path d="M571.96 276.169C571.96 276.169 558.869 296.362 563.495 314.383C568.121 332.405 573.158 367.045 573.158 367.045L598.24 425.682L616.937 424.933L598.37 355.798L599.104 309.574C599.104 309.574 612.009 287.482 609.496 280.605C606.982 273.728 571.96 276.169 571.96 276.169Z" fill="#2F2E41"/>
<path d="M614.728 283.389C614.728 283.389 616.338 303.42 611.301 311.903C606.263 320.387 600.896 352.675 600.896 352.675L592.333 417.253L574.598 411.583L589.721 339.232L601.608 282.32L614.728 283.389Z" fill="#2F2E41"/>
<path d="M621.016 186.42L607.178 177.076L586.121 176.476L578.788 183.538L567.597 189.151L566.561 280.605C566.561 280.605 600.072 296.384 618.1 288.767L626.773 217.526C630.372 203.387 621.016 186.42 621.016 186.42Z" fill="#3F3D56"/>
<path d="M570.407 213.591H533.497L509.247 172.587L525.015 166.451L538.369 189.786L557.697 188.068L569.766 187.494C571.7 187.402 573.631 187.727 575.424 188.445C577.217 189.162 578.828 190.257 580.146 191.65C581.464 193.044 582.455 194.703 583.052 196.513C583.648 198.322 583.835 200.238 583.599 202.126C583.201 205.288 581.64 208.198 579.211 210.31C576.782 212.421 573.651 213.588 570.407 213.591Z" fill="#3F3D56"/>
<path d="M598.367 168.944C608.45 168.944 616.624 160.914 616.624 151.009C616.624 141.104 608.45 133.074 598.367 133.074C588.283 133.074 580.109 141.104 580.109 151.009C580.109 160.914 588.283 168.944 598.367 168.944Z" fill="#FFB6B6"/>
<path d="M620.366 146.929C619.805 142.991 617.09 139.252 613.229 138.06C611.696 133.685 607.633 130.464 603.145 129.059C598.989 127.758 594.51 127.848 590.412 129.316C586.313 130.785 582.827 133.548 580.499 137.173C580.156 137.703 579.1 139.007 579.129 139.64C579.167 140.444 580.419 141.274 581.048 141.781C582.607 142.965 584.288 143.984 586.064 144.822C592.63 148.166 590.444 153.421 590.355 159.375C590.312 162.269 591.295 164.74 593.807 166.392C597.432 168.778 602.62 167.829 606.564 166.871C611.04 165.785 614.761 161.923 617.313 158.199C619.574 154.901 620.926 150.866 620.366 146.929Z" fill="#2F2E41"/>
<path d="M620.493 209.77L627.597 286.32L604.771 285.118L620.493 209.77Z" fill="#3F3D56"/>
<path d="M60.5158 441.607H67.3591L70.6149 415.677H60.5144L60.5158 441.607Z" fill="#9E616A"/>
<path d="M58.7701 439.413L72.2476 439.412H72.2481C74.526 439.412 76.7105 440.493 78.3212 442.415C79.9319 444.338 80.8369 446.946 80.837 449.666V449.999L58.7705 450L58.7701 439.413Z" fill="#2F2E41"/>
<path d="M123.594 441.607H130.437L133.693 415.677H123.592L123.594 441.607Z" fill="#9E616A"/>
<path d="M121.848 439.413L135.325 439.412H135.326C137.604 439.412 139.788 440.493 141.399 442.416C143.01 444.338 143.915 446.946 143.915 449.666V449.999L121.848 450L121.848 439.413Z" fill="#2F2E41"/>
<path d="M115.331 233.291L119.796 261.256L77.3726 261.805L82.9543 234.936L115.331 233.291Z" fill="#9E616A"/>
<path d="M118.565 254.428L132.077 289.771L133.752 436.236H122.308L94.956 318.559L69.8366 433.164H58.6724L66.4873 304.302C66.4873 304.302 64.1828 278.438 75.9769 263.176L78.8477 255.028L118.565 254.428Z" fill="#2F2E41"/>
<path d="M60.607 281.979C61.7882 281.663 62.8845 281.096 63.8186 280.319C64.7528 279.542 65.502 278.572 66.0135 277.48C66.5251 276.387 66.7866 275.198 66.7795 273.995C66.7724 272.792 66.497 271.606 65.9727 270.519L84.0205 212.718L70.7456 210.133L54.2391 266.79C52.4389 267.776 51.0696 269.377 50.3906 271.289C49.7117 273.201 49.7702 275.291 50.5551 277.163C51.34 279.035 52.7968 280.56 54.6495 281.448C56.5021 282.335 58.6218 282.524 60.607 281.979Z" fill="#9E616A"/>
<path d="M84.41 248.736C84.1623 248.736 83.9152 248.712 83.6723 248.664C82.8554 248.504 82.1145 248.085 81.5628 247.472C81.011 246.859 80.6786 246.085 80.6165 245.269C80.1969 239.625 78.1176 229.801 74.4365 216.069C73.1938 211.401 73.469 206.469 75.2236 201.964C76.9781 197.458 80.1241 193.604 84.2203 190.943C88.3166 188.282 93.1579 186.947 98.0655 187.125C102.973 187.303 107.701 188.985 111.586 191.936C114.074 193.808 116.151 196.155 117.69 198.836C119.23 201.517 120.202 204.477 120.546 207.536C122.376 223.363 118.927 239.254 117.359 245.351C117.153 246.147 116.687 246.855 116.033 247.366C115.378 247.877 114.571 248.163 113.735 248.181L84.4913 248.735C84.4641 248.736 84.4371 248.736 84.41 248.736Z" fill="#3F3D56"/>
<path d="M166.112 197.964C165.936 198.351 165.792 198.751 165.68 199.16L129.075 211.379L122.002 205.309L111.282 214.598L122.74 226.539C123.666 227.504 124.885 228.147 126.215 228.373C127.545 228.599 128.913 228.396 130.115 227.793L169.285 208.138C170.701 208.992 172.349 209.401 174.008 209.313C175.667 209.224 177.26 208.641 178.574 207.642C179.888 206.642 180.861 205.274 181.363 203.718C181.866 202.162 181.874 200.492 181.388 198.932C180.901 197.371 179.942 195.993 178.639 194.98C177.335 193.968 175.749 193.369 174.09 193.264C172.432 193.159 170.78 193.553 169.355 194.392C167.93 195.232 166.799 196.477 166.112 197.964V197.964Z" fill="#9E616A"/>
<path d="M127.799 212.047L114.455 223.496C114.075 223.822 113.629 224.063 113.145 224.204C112.662 224.345 112.154 224.382 111.655 224.312C111.155 224.243 110.677 224.068 110.253 223.801C109.829 223.534 109.468 223.179 109.196 222.763L99.6511 208.163C97.9636 206.245 97.1193 203.748 97.3035 201.22C97.4877 198.692 98.6854 196.339 100.634 194.677C102.582 193.015 105.122 192.18 107.696 192.356C110.27 192.532 112.668 193.703 114.364 195.614L127.767 206.829C128.151 207.15 128.46 207.549 128.672 207.998C128.885 208.447 128.996 208.935 129 209.431C129.003 209.926 128.897 210.416 128.69 210.867C128.483 211.319 128.179 211.721 127.799 212.047H127.799Z" fill="#3F3D56"/>
<path d="M81.9121 227.518L65.4216 221.154C64.9524 220.973 64.5285 220.694 64.1786 220.338C63.8288 219.981 63.5613 219.555 63.3943 219.087C63.2274 218.62 63.1649 218.123 63.2112 217.63C63.2574 217.137 63.4113 216.659 63.6624 216.23L72.4608 201.184C73.4173 198.831 75.2847 196.946 77.6536 195.944C80.0225 194.941 82.6995 194.902 85.0975 195.836C87.4955 196.769 89.4188 198.599 90.4457 200.923C91.4726 203.247 91.5192 205.877 90.5753 208.235L86.6126 225.087C86.4989 225.569 86.2808 226.022 85.973 226.414C85.6652 226.806 85.275 227.129 84.8289 227.359C84.3829 227.59 83.8914 227.724 83.3881 227.751C82.8847 227.778 82.3813 227.699 81.9121 227.518Z" fill="#3F3D56"/>
<path d="M94.1362 183.563C104.043 183.563 112.074 175.674 112.074 165.942C112.074 156.21 104.043 148.321 94.1362 148.321C84.2295 148.321 76.1986 156.21 76.1986 165.942C76.1986 175.674 84.2295 183.563 94.1362 183.563Z" fill="#9E616A"/>
<path d="M106.476 158.859C110.324 158.837 114.173 158.816 118.021 158.795C118.295 156.218 117.128 153.655 115.427 151.675C113.635 149.77 111.59 148.11 109.349 146.739C107.141 145.251 104.854 143.729 102.23 143.209C100.03 142.773 97.7569 143.075 95.5347 143.379C92.5875 143.782 89.6404 144.184 86.6935 144.587C83.4585 145.029 80.0738 145.528 77.4464 147.434C73.8931 150.011 72.5339 154.527 71.3922 158.719L65.0723 181.918L102.402 185.764C103.752 185.993 105.135 185.953 106.47 185.648C107.134 185.484 107.735 185.132 108.198 184.635C108.66 184.138 108.964 183.519 109.071 182.854C109.179 181.358 107.971 180.134 106.99 178.986C104.651 176.138 103.246 172.66 102.963 169.011C102.68 165.362 103.531 161.714 105.404 158.551L106.476 158.859Z" fill="#2F2E41"/>
</g>
<defs>
<clipPath id="clip0_71_17">
<rect width="700" height="450" fill="white"/>
</clipPath>
</defs>
</svg>
