<svg width="50" height="55" viewBox="0 0 50 55" fill="none" xmlns="http://www.w3.org/2000/svg">
<circle cx="25" cy="25" r="25" fill="white"/>
<path d="M26.2329 42.1126H23.7669L22.6966 39.9737C22.1992 39.8749 21.7103 39.7446 21.2374 39.585L19.2441 40.9009L17.1087 39.6676L17.2518 37.28C16.8752 36.9485 16.5181 36.5914 16.1857 36.2142L13.7978 36.3573L12.5651 34.2211L13.8804 32.2284C13.7205 31.7549 13.5905 31.2661 13.4915 30.7686L11.3533 29.6986V27.2329L13.4918 26.1631C13.5908 25.6656 13.7208 25.1767 13.8804 24.7038L12.5654 22.7113L13.7979 20.5751L16.186 20.7183C16.5183 20.3408 16.8749 19.9839 17.2521 19.6521L17.109 17.2651L19.2444 16.0319L21.2369 17.3471C21.7104 17.1875 22.1995 17.0572 22.6972 16.9585L23.7667 14.8198H26.2326L27.3019 16.9585C27.7993 17.057 28.2884 17.1875 28.7619 17.3471L30.7546 16.0313L32.8911 17.264L32.7479 19.6526C33.1246 19.9847 33.4815 20.3415 33.8135 20.7182L36.2017 20.5748L37.4344 22.7109L36.1185 24.7042C36.2784 25.178 36.4087 25.6666 36.5075 26.1635L38.6459 27.2333V29.699L36.5072 30.769C36.4082 31.2668 36.2782 31.7556 36.1186 32.2289L37.4339 34.2214L36.2017 36.3581L33.8128 36.2144C33.4805 36.5922 33.1236 36.9485 32.7475 37.28L32.8912 39.6681L30.7548 40.9014L28.7612 39.5852C28.2883 39.7451 27.7994 39.8751 27.3022 39.9739L26.2329 42.1126ZM24.5705 40.8133H25.4296L26.4326 38.808L26.758 38.7527C27.4006 38.6436 28.0283 38.4765 28.6243 38.2558L28.9332 38.1414L30.8009 39.3744L31.5462 38.9447L31.4114 36.7073L31.6645 36.4969C32.1584 36.0865 32.6182 35.6266 33.0314 35.1308L33.2415 34.878L35.4784 35.0125L35.9081 34.2675L34.6743 32.4L34.789 32.0912C35.01 31.4949 35.1776 30.8668 35.287 30.2236L35.3423 29.8991L37.3467 28.8961V28.037L35.3423 27.0339L35.287 26.7086C35.1785 26.0671 35.0108 25.4391 34.7895 24.8417L34.6754 24.5328L35.9084 22.6653L35.4782 21.92L33.2416 22.0545L33.0315 21.8014C32.6194 21.3067 32.1601 20.8469 31.6654 20.4354L31.4124 20.2253L31.5468 17.9881L30.8018 17.5582L28.9343 18.7917L28.6255 18.677C28.0289 18.4558 27.4003 18.2884 26.758 18.1796L26.4326 18.1243L25.4301 16.1196H24.5708L23.5683 18.1243L23.2429 18.1796C22.6001 18.2884 21.972 18.4561 21.3754 18.677L21.0666 18.7917L19.1991 17.559L18.4546 17.9887L18.5889 20.2248L18.3358 20.4351C17.8414 20.8461 17.3816 21.3059 16.9691 21.8012L16.759 22.0543L14.5222 21.9204L14.0928 22.6656L15.3246 24.5326L15.2105 24.8412C14.9898 25.4374 14.8221 26.0655 14.7127 26.7081L14.6578 27.0332L12.6533 28.0362V28.8953L14.6578 29.8984L14.713 30.2237C14.8218 30.8666 14.989 31.4946 15.2102 32.0906L15.3246 32.3995L14.0925 34.267L14.5222 35.0123L16.7585 34.8778L16.9686 35.1309C17.381 35.6264 17.8408 36.0859 18.3353 36.4969L18.5883 36.7073L18.4541 38.9442L19.1986 39.3739L21.0666 38.1411L21.3754 38.2558C21.9711 38.4765 22.5989 38.6439 23.2421 38.7533L23.5671 38.8083L24.5705 40.8133Z" fill="black"/>
<path d="M25 45C15.8829 45 8.46571 37.5828 8.46571 28.4657C8.46571 19.3493 15.8829 11.9321 25 11.9321C34.1171 11.9321 41.5343 19.3493 41.5343 28.4657C41.5343 37.5828 34.1171 45 25 45ZM25 13.2321C16.6 13.2321 9.765 20.0661 9.765 28.4664C9.765 36.8664 16.5993 43.7014 25 43.7014C33.4 43.7014 40.235 36.8671 40.235 28.4664C40.235 20.0664 33.4004 13.2321 25 13.2321Z" fill="black"/>
<path d="M37.815 14.7319L38.7341 15.651L36.6911 17.694L35.772 16.7749L37.815 14.7319Z" fill="black"/>
<path d="M37.2021 13.1997L40.2655 16.2631L39.3467 17.1818L36.2834 14.1185L37.2021 13.1997Z" fill="black"/>
<path d="M12.185 14.7319L14.228 16.7749L13.3089 17.694L11.2659 15.651L12.185 14.7319Z" fill="black"/>
<path d="M12.7979 13.1997L13.7169 14.1188L10.6536 17.1821L9.7345 16.2631L12.7979 13.1997Z" fill="black"/>
<path d="M24.35 7.67139H25.6496V12.5818H24.35V7.67139Z" fill="black"/>
<path d="M28.1771 10.3429H21.8231C21.1093 10.3429 20.4386 10.065 19.9339 9.56021C19.4294 9.05547 19.1515 8.38471 19.1515 7.67157C19.1515 6.95784 19.4294 6.28707 19.9336 5.78207C20.4392 5.27761 21.1102 5 21.8234 5H28.1774C28.8906 5 29.5619 5.27762 30.0666 5.78179C30.5714 6.28709 30.849 6.95814 30.849 7.67157C30.849 8.38446 30.5714 9.05521 30.0672 9.56021C29.5622 10.0652 28.8911 10.3429 28.1771 10.3429ZM21.8234 6.29964C21.457 6.29964 21.1124 6.44222 20.8526 6.70115C20.594 6.96008 20.4511 7.30466 20.4511 7.67158C20.4511 8.03793 20.5937 8.38251 20.8529 8.64144C21.1119 8.90064 21.4564 9.0435 21.8228 9.0435H28.1769C28.5435 9.0435 28.8883 8.90064 29.1476 8.64144C29.4062 8.38223 29.5491 8.03792 29.5491 7.67158C29.5491 7.30495 29.4062 6.96009 29.1476 6.70086C28.8886 6.44249 28.5438 6.29991 28.1771 6.29991H21.8234L21.8234 6.29964Z" fill="black"/>
<path d="M25 31.137C23.5268 31.137 22.3284 29.9386 22.3284 28.4657C22.3284 26.9925 23.5268 25.7944 25 25.7944C26.4729 25.7944 27.6713 26.9925 27.6713 28.4657C27.6713 29.9386 26.4729 31.137 25 31.137ZM25 27.0938C24.2436 27.0938 23.6281 27.7093 23.6281 28.4657C23.6281 29.2221 24.2436 29.8376 25 29.8376C25.7564 29.8376 26.3719 29.2221 26.3719 28.4657C26.3719 27.709 25.7564 27.0938 25 27.0938Z" fill="black"/>
<path d="M27.0214 27.8164H31.6126V29.116H27.0214V27.8164Z" fill="black"/>
<path d="M24.35 19.2236H25.6496V20.5386H24.35V19.2236Z" fill="black"/>
<path d="M29.0579 20.1362L30.1831 20.7866L29.5249 21.9256L28.3997 21.2752L29.0579 20.1362Z" fill="black"/>
<path d="M32.6807 23.2812L33.3311 24.4065L32.1922 25.0647L31.5418 23.9394L32.6807 23.2812Z" fill="black"/>
<path d="M32.9279 27.8149H34.2429V29.1146H32.9279V27.8149Z" fill="black"/>
<path d="M32.1907 31.8643L33.3294 32.5227L32.6787 33.648L31.54 32.9895L32.1907 31.8643Z" fill="black"/>
<path d="M29.525 35.0049L30.1832 36.1438L29.0579 36.7942L28.3997 35.6553L29.525 35.0049Z" fill="black"/>
<path d="M24.3514 36.3926H25.6511V37.7076H24.3514V36.3926Z" fill="black"/>
<path d="M20.4757 35.0063L21.6013 35.6562L20.9439 36.7948L19.8183 36.145L20.4757 35.0063Z" fill="black"/>
<path d="M17.8114 31.8672L18.4618 32.9925L17.3229 33.6507L16.6725 32.5254L17.8114 31.8672Z" fill="black"/>
<path d="M15.7586 27.8164H17.0733V29.116H15.7586V27.8164Z" fill="black"/>
<path d="M17.3221 23.2827L18.4611 23.9409L17.8107 25.0662L16.6718 24.408L17.3221 23.2827Z" fill="black"/>
<path d="M20.9421 20.1362L21.5995 21.2749L20.4739 21.9247L19.8166 20.7861L20.9421 20.1362Z" fill="black"/>
</svg>
