<?xml version="1.0" encoding="UTF-8" standalone="no"?>
<svg
   xmlns:dc="http://purl.org/dc/elements/1.1/"
   xmlns:cc="http://creativecommons.org/ns#"
   xmlns:rdf="http://www.w3.org/1999/02/22-rdf-syntax-ns#"
   xmlns:svg="http://www.w3.org/2000/svg"
   xmlns="http://www.w3.org/2000/svg"
   viewBox="0 0 266.66666 100"
   height="100"
   width="266.66666"
   xml:space="preserve"
   id="svg2"
   version="1.1"><metadata
     id="metadata8"><rdf:RDF><cc:Work
         rdf:about=""><dc:format>image/svg+xml</dc:format><dc:type
           rdf:resource="http://purl.org/dc/dcmitype/StillImage" /></cc:Work></rdf:RDF></metadata><defs
     id="defs6"><clipPath
       id="clipPath18"
       clipPathUnits="userSpaceOnUse"><path
         id="path16"
         d="M 0,75 H 200 V 0 H 0 Z" /></clipPath></defs><g
     transform="matrix(1.3333333,0,0,-1.3333333,0,100)"
     id="g10"><g
       id="g12"><g
         clip-path="url(#clipPath18)"
         id="g14"><g
           transform="translate(47.0732,33.13)"
           id="g20"><path
             id="path22"
             style="fill:#1d1e1c;fill-opacity:1;fill-rule:nonzero;stroke:none"
             d="M 0,0 C -0.27,2.04 -0.815,5.481 -1.586,7.189 -1.71,7.463 -1.633,7.789 -1.395,7.974 -0.182,8.915 0.882,8.809 1.842,7.969 2.056,7.781 2.114,7.473 2.001,7.211 1.233,5.444 0.678,2.026 0.399,-0.001 0.367,-0.233 0.031,-0.233 0,0" /></g><g
           transform="translate(48.4173,40.4605)"
           id="g24"><path
             id="path26"
             style="fill:none;stroke:#1d1e1c;stroke-width:1.12300003;stroke-linecap:round;stroke-linejoin:round;stroke-miterlimit:10;stroke-dasharray:none;stroke-opacity:1"
             d="m 0,0 c 1.115,-11.794 3.053,-28.02 5.688,-34.031 0.472,-1.076 0.178,-2.355 -0.727,-3.079 -4.619,-3.693 -8.671,-3.278 -12.324,0.019 -0.817,0.737 -1.039,1.946 -0.606,2.973 2.617,6.208 4.585,22.302 5.731,34.036" /></g><g
           transform="translate(51.7617,44.4803)"
           id="g28"><path
             id="path30"
             style="fill:none;stroke:#1d1e1c;stroke-width:1.23399997;stroke-linecap:round;stroke-linejoin:round;stroke-miterlimit:10;stroke-dasharray:none;stroke-opacity:1"
             d="m 0,0 c 0,-2.475 -2.007,-4.482 -4.482,-4.482 -2.475,0 -4.482,2.007 -4.482,4.482 0,2.475 2.007,4.482 4.482,4.482 C -2.007,4.482 0,2.475 0,0 Z" /></g><g
           transform="translate(39.8159,55.7399)"
           id="g32"><path
             id="path34"
             style="fill:#1d1e1c;fill-opacity:1;fill-rule:nonzero;stroke:none"
             d="M 0,0 C 0,0.662 0.537,1.2 1.2,1.2 1.862,1.2 2.399,0.662 2.399,0 2.399,-0.662 1.862,-1.2 1.2,-1.2 0.537,-1.2 0,-0.662 0,0" /></g><g
           transform="translate(39.8159,55.7399)"
           id="g36"><path
             id="path38"
             style="fill:none;stroke:#1e1f1c;stroke-width:0.25;stroke-linecap:butt;stroke-linejoin:miter;stroke-miterlimit:10;stroke-dasharray:none;stroke-opacity:1"
             d="M 0,0 C 0,0.662 0.537,1.2 1.2,1.2 1.862,1.2 2.399,0.662 2.399,0 2.399,-0.662 1.862,-1.2 1.2,-1.2 0.537,-1.2 0,-0.662 0,0 Z" /></g><g
           transform="translate(42.6662,57.6001)"
           id="g40"><path
             id="path42"
             style="fill:#1d1e1c;fill-opacity:1;fill-rule:nonzero;stroke:none"
             d="M 0,0 C 0,0.662 0.537,1.2 1.2,1.2 1.862,1.2 2.399,0.662 2.399,0 2.399,-0.662 1.862,-1.2 1.2,-1.2 0.537,-1.2 0,-0.662 0,0" /></g><g
           transform="translate(42.6662,57.6001)"
           id="g44"><path
             id="path46"
             style="fill:none;stroke:#1e1f1c;stroke-width:0.25;stroke-linecap:butt;stroke-linejoin:miter;stroke-miterlimit:10;stroke-dasharray:none;stroke-opacity:1"
             d="M 0,0 C 0,0.662 0.537,1.2 1.2,1.2 1.862,1.2 2.399,0.662 2.399,0 2.399,-0.662 1.862,-1.2 1.2,-1.2 0.537,-1.2 0,-0.662 0,0 Z" /></g><g
           transform="translate(46.0803,58.139)"
           id="g48"><path
             id="path50"
             style="fill:#1d1e1c;fill-opacity:1;fill-rule:nonzero;stroke:none"
             d="M 0,0 C 0,0.662 0.537,1.2 1.2,1.2 1.862,1.2 2.399,0.662 2.399,0 2.399,-0.662 1.862,-1.2 1.2,-1.2 0.537,-1.2 0,-0.662 0,0" /></g><g
           transform="translate(46.0803,58.139)"
           id="g52"><path
             id="path54"
             style="fill:none;stroke:#1e1f1c;stroke-width:0.25;stroke-linecap:butt;stroke-linejoin:miter;stroke-miterlimit:10;stroke-dasharray:none;stroke-opacity:1"
             d="M 0,0 C 0,0.662 0.537,1.2 1.2,1.2 1.862,1.2 2.399,0.662 2.399,0 2.399,-0.662 1.862,-1.2 1.2,-1.2 0.537,-1.2 0,-0.662 0,0 Z" /></g><g
           transform="translate(54.7437,55.7399)"
           id="g56"><path
             id="path58"
             style="fill:#1d1e1c;fill-opacity:1;fill-rule:nonzero;stroke:none"
             d="m 0,0 c 0,0.662 -0.537,1.2 -1.2,1.2 -0.662,0 -1.199,-0.538 -1.199,-1.2 0,-0.662 0.537,-1.2 1.199,-1.2 0.663,0 1.2,0.538 1.2,1.2" /></g><g
           transform="translate(54.7437,55.7399)"
           id="g60"><path
             id="path62"
             style="fill:none;stroke:#1e1f1c;stroke-width:0.25;stroke-linecap:butt;stroke-linejoin:miter;stroke-miterlimit:10;stroke-dasharray:none;stroke-opacity:1"
             d="m 0,0 c 0,0.662 -0.537,1.2 -1.2,1.2 -0.662,0 -1.199,-0.538 -1.199,-1.2 0,-0.662 0.537,-1.2 1.199,-1.2 0.663,0 1.2,0.538 1.2,1.2 z" /></g><g
           transform="translate(51.8934,57.6001)"
           id="g64"><path
             id="path66"
             style="fill:#1d1e1c;fill-opacity:1;fill-rule:nonzero;stroke:none"
             d="m 0,0 c 0,0.662 -0.537,1.2 -1.2,1.2 -0.662,0 -1.199,-0.538 -1.199,-1.2 0,-0.662 0.537,-1.2 1.199,-1.2 0.663,0 1.2,0.538 1.2,1.2" /></g><g
           transform="translate(51.8934,57.6001)"
           id="g68"><path
             id="path70"
             style="fill:none;stroke:#1e1f1c;stroke-width:0.25;stroke-linecap:butt;stroke-linejoin:miter;stroke-miterlimit:10;stroke-dasharray:none;stroke-opacity:1"
             d="m 0,0 c 0,0.662 -0.537,1.2 -1.2,1.2 -0.662,0 -1.199,-0.538 -1.199,-1.2 0,-0.662 0.537,-1.2 1.199,-1.2 0.663,0 1.2,0.538 1.2,1.2 z" /></g><g
           transform="translate(53.4777,54.5404)"
           id="g72"><path
             id="path74"
             style="fill:none;stroke:#1d1e1c;stroke-width:0.74900001;stroke-linecap:round;stroke-linejoin:round;stroke-miterlimit:10;stroke-dasharray:none;stroke-opacity:1"
             d="M 0,0 V -2.089 L -2.59,-4.394 V -7.051" /></g><g
           transform="translate(50.6713,56.4006)"
           id="g76"><path
             id="path78"
             style="fill:none;stroke:#1d1e1c;stroke-width:0.74900001;stroke-linecap:round;stroke-linejoin:round;stroke-miterlimit:10;stroke-dasharray:none;stroke-opacity:1"
             d="M 0,0 V -3.108 L -1.598,-4.456 V -7.733" /></g><g
           transform="translate(60.4114,12.0751)"
           id="g80"><path
             id="path82"
             style="fill:none;stroke:#1d1e1c;stroke-width:1.12300003;stroke-linecap:round;stroke-linejoin:round;stroke-miterlimit:10;stroke-dasharray:none;stroke-opacity:1"
             d="M 0,0 23.452,11.599" /></g><g
           transform="translate(58.9832,19.142)"
           id="g84"><path
             id="path86"
             style="fill:none;stroke:#1d1e1c;stroke-width:1.12300003;stroke-linecap:round;stroke-linejoin:round;stroke-miterlimit:10;stroke-dasharray:none;stroke-opacity:1"
             d="M 0,0 20.593,23.85" /></g><g
           transform="translate(54.1273,24.2834)"
           id="g88"><path
             id="path90"
             style="fill:none;stroke:#1d1e1c;stroke-width:1.12300003;stroke-linecap:round;stroke-linejoin:round;stroke-miterlimit:10;stroke-dasharray:none;stroke-opacity:1"
             d="M 0,0 12.063,32.904" /></g><g
           transform="translate(61.6109,12.0751)"
           id="g92"><path
             id="path94"
             style="fill:#1e1f1c;fill-opacity:1;fill-rule:nonzero;stroke:none"
             d="m 0,0 c 0,0.662 -0.537,1.2 -1.2,1.2 -0.662,0 -1.199,-0.538 -1.199,-1.2 0,-0.662 0.537,-1.2 1.199,-1.2 0.663,0 1.2,0.538 1.2,1.2" /></g><g
           transform="translate(61.6109,12.0751)"
           id="g96"><path
             id="path98"
             style="fill:none;stroke:#1d1e1c;stroke-width:0.37400001;stroke-linecap:round;stroke-linejoin:round;stroke-miterlimit:10;stroke-dasharray:none;stroke-opacity:1"
             d="m 0,0 c 0,0.662 -0.537,1.2 -1.2,1.2 -0.662,0 -1.199,-0.538 -1.199,-1.2 0,-0.662 0.537,-1.2 1.199,-1.2 0.663,0 1.2,0.538 1.2,1.2 z" /></g><g
           transform="translate(60.1828,19.142)"
           id="g100"><path
             id="path102"
             style="fill:#1e1f1c;fill-opacity:1;fill-rule:nonzero;stroke:none"
             d="m 0,0 c 0,0.662 -0.537,1.2 -1.2,1.2 -0.662,0 -1.199,-0.538 -1.199,-1.2 0,-0.662 0.537,-1.2 1.199,-1.2 0.663,0 1.2,0.538 1.2,1.2" /></g><g
           transform="translate(60.1828,19.142)"
           id="g104"><path
             id="path106"
             style="fill:none;stroke:#1d1e1c;stroke-width:0.37400001;stroke-linecap:round;stroke-linejoin:round;stroke-miterlimit:10;stroke-dasharray:none;stroke-opacity:1"
             d="m 0,0 c 0,0.662 -0.537,1.2 -1.2,1.2 -0.662,0 -1.199,-0.538 -1.199,-1.2 0,-0.662 0.537,-1.2 1.199,-1.2 0.663,0 1.2,0.538 1.2,1.2 z" /></g><g
           transform="translate(55.3268,24.2834)"
           id="g108"><path
             id="path110"
             style="fill:#1e1f1c;fill-opacity:1;fill-rule:nonzero;stroke:none"
             d="m 0,0 c 0,0.662 -0.537,1.2 -1.2,1.2 -0.662,0 -1.199,-0.538 -1.199,-1.2 0,-0.662 0.537,-1.2 1.199,-1.2 0.663,0 1.2,0.538 1.2,1.2" /></g><g
           transform="translate(55.3268,24.2834)"
           id="g112"><path
             id="path114"
             style="fill:none;stroke:#1d1e1c;stroke-width:0.37400001;stroke-linecap:round;stroke-linejoin:round;stroke-miterlimit:10;stroke-dasharray:none;stroke-opacity:1"
             d="m 0,0 c 0,0.662 -0.537,1.2 -1.2,1.2 -0.662,0 -1.199,-0.538 -1.199,-1.2 0,-0.662 0.537,-1.2 1.199,-1.2 0.663,0 1.2,0.538 1.2,1.2 z" /></g><g
           transform="translate(89.5877,32.4444)"
           id="g116"><path
             id="path118"
             style="fill:none;stroke:#1d1e1c;stroke-width:1.12300003;stroke-linecap:round;stroke-linejoin:round;stroke-miterlimit:10;stroke-dasharray:none;stroke-opacity:1"
             d="m 0,0 c -3.161,0.447 -6.087,-1.753 -6.534,-4.914 -0.448,-3.162 1.753,-6.087 4.914,-6.534 3.161,-0.448 6.087,1.752 6.534,4.914 0.267,1.885 -0.408,3.686 -1.666,4.928" /></g><g
           transform="translate(83.2347,53.2519)"
           id="g120"><path
             id="path122"
             style="fill:none;stroke:#1d1e1c;stroke-width:1.12300003;stroke-linecap:round;stroke-linejoin:round;stroke-miterlimit:10;stroke-dasharray:none;stroke-opacity:1"
             d="m 0,0 c -0.72,0 -1.452,-0.135 -2.161,-0.42 -2.961,-1.194 -4.395,-4.562 -3.201,-7.523 1.193,-2.962 4.561,-4.395 7.523,-3.202 2.961,1.193 4.395,4.561 3.201,7.523 -0.34,0.845 -0.857,1.565 -1.492,2.136" /></g><g
           transform="translate(64.1846,66.9517)"
           id="g124"><path
             id="path126"
             style="fill:none;stroke:#1d1e1c;stroke-width:1.12300003;stroke-linecap:round;stroke-linejoin:round;stroke-miterlimit:10;stroke-dasharray:none;stroke-opacity:1"
             d="m 0,0 c -0.243,-0.22 -0.47,-0.463 -0.679,-0.73 -1.968,-2.514 -1.526,-6.148 0.989,-8.116 2.514,-1.968 6.147,-1.525 8.115,0.989 1.968,2.514 1.526,6.148 -0.988,8.116 C 6.371,1.093 5.105,1.494 3.85,1.488" /></g><g
           transform="translate(48.1232,73.9422)"
           id="g128"><path
             id="path130"
             style="fill:none;stroke:#1d1e1c;stroke-width:1.12300003;stroke-linecap:round;stroke-linejoin:round;stroke-miterlimit:10;stroke-dasharray:none;stroke-opacity:1"
             d="m 0,0 c -3.161,0.447 -6.087,-1.753 -6.534,-4.914 -0.448,-3.162 1.753,-6.087 4.914,-6.534 3.161,-0.448 6.087,1.752 6.534,4.914 0.277,1.958 -0.461,3.825 -1.814,5.069" /></g><g
           transform="translate(23.9147,57.5177)"
           id="g132"><path
             id="path134"
             style="fill:none;stroke:#1d1e1c;stroke-width:1.12300003;stroke-linecap:round;stroke-linejoin:round;stroke-miterlimit:10;stroke-dasharray:none;stroke-opacity:1"
             d="M 0,0 C 1.441,-0.741 3.184,-0.875 4.806,-0.222 7.767,0.972 9.201,4.34 8.007,7.301 6.814,10.263 3.446,11.696 0.484,10.503 -2.477,9.31 -3.91,5.942 -2.717,2.98" /></g><g
           transform="translate(5.5768,47.4691)"
           id="g136"><path
             id="path138"
             style="fill:none;stroke:#1d1e1c;stroke-width:1.12300003;stroke-linecap:round;stroke-linejoin:round;stroke-miterlimit:10;stroke-dasharray:none;stroke-opacity:1"
             d="m 0,0 c 0.001,-1.715 0.762,-3.413 2.218,-4.552 2.514,-1.968 6.148,-1.526 8.116,0.988 1.968,2.515 1.525,6.148 -0.989,8.116 C 7.182,6.246 4.19,6.154 2.143,4.495 1.811,4.225 1.504,3.915 1.229,3.564" /></g><g
           transform="translate(3.4562,32.0138)"
           id="g140"><path
             id="path142"
             style="fill:none;stroke:#1d1e1c;stroke-width:1.12300003;stroke-linecap:round;stroke-linejoin:round;stroke-miterlimit:10;stroke-dasharray:none;stroke-opacity:1"
             d="m 0,0 c -0.844,-0.372 -1.589,-0.941 -2.17,-1.658 -0.637,-0.786 -1.076,-1.75 -1.228,-2.826 -0.448,-3.161 1.752,-6.086 4.914,-6.534 3.161,-0.447 6.087,1.753 6.534,4.914 0.447,3.162 -1.753,6.087 -4.914,6.535" /></g><g
           transform="translate(7.7867,28.7249)"
           id="g144"><path
             id="path146"
             style="fill:none;stroke:#1d1e1c;stroke-width:1.12300003;stroke-linecap:round;stroke-linejoin:round;stroke-miterlimit:10;stroke-dasharray:none;stroke-opacity:1"
             d="m 0,0 c 0.513,-0.513 0.83,-1.222 0.83,-2.005 0,-1.566 -1.269,-2.835 -2.835,-2.835 -1.566,0 -2.835,1.269 -2.835,2.835 0,1.566 1.269,2.835 2.835,2.835" /></g><g
           transform="translate(9.6819,45.3487)"
           id="g148"><path
             id="path150"
             style="fill:none;stroke:#1d1e1c;stroke-width:1.12300003;stroke-linecap:round;stroke-linejoin:round;stroke-miterlimit:10;stroke-dasharray:none;stroke-opacity:1"
             d="m 0,0 c -0.585,0.519 -0.953,1.277 -0.953,2.12 0,1.566 1.269,2.836 2.835,2.836 1.566,0 2.835,-1.27 2.835,-2.836 0,-1.565 -1.269,-2.835 -2.835,-2.835" /></g><g
           transform="translate(26.5598,59.8233)"
           id="g152"><path
             id="path154"
             style="fill:none;stroke:#1d1e1c;stroke-width:1.12300003;stroke-linecap:round;stroke-linejoin:round;stroke-miterlimit:10;stroke-dasharray:none;stroke-opacity:1"
             d="M 0,0 C -1.566,0 -2.835,1.269 -2.835,2.835 -2.835,4.401 -1.566,5.67 0,5.67 1.566,5.67 2.835,4.401 2.835,2.835 2.835,2.27 2.67,1.744 2.385,1.302" /></g><g
           transform="translate(47.2685,71.0532)"
           id="g156"><path
             id="path158"
             style="fill:none;stroke:#1d1e1c;stroke-width:1.12300003;stroke-linecap:round;stroke-linejoin:round;stroke-miterlimit:10;stroke-dasharray:none;stroke-opacity:1"
             d="M 0,0 C 1.566,0 2.835,-1.269 2.835,-2.835 2.835,-4.401 1.566,-5.67 0,-5.67 c -1.566,0 -2.835,1.269 -2.835,2.835 0,0.749 0.29,1.43 0.765,1.937" /></g><g
           transform="translate(65.1993,62.6584)"
           id="g160"><path
             id="path162"
             style="fill:none;stroke:#1d1e1c;stroke-width:1.12300003;stroke-linecap:round;stroke-linejoin:round;stroke-miterlimit:10;stroke-dasharray:none;stroke-opacity:1"
             d="M 0,0 C 0,1.566 1.269,2.835 2.835,2.835 4.401,2.835 5.67,1.566 5.67,0 c 0,-1.566 -1.269,-2.835 -2.835,-2.835 -0.771,0 -1.471,0.308 -1.982,0.808" /></g><g
           transform="translate(83.2347,50.2595)"
           id="g164"><path
             id="path166"
             style="fill:none;stroke:#1d1e1c;stroke-width:1.12300003;stroke-linecap:round;stroke-linejoin:round;stroke-miterlimit:10;stroke-dasharray:none;stroke-opacity:1"
             d="M 0,0 C 1.566,0 2.835,-1.269 2.835,-2.835 2.835,-4.401 1.566,-5.67 0,-5.67 c -1.566,0 -2.835,1.269 -2.835,2.835 0,0.542 0.152,1.049 0.416,1.479" /></g><g
           transform="translate(90.7114,24.7732)"
           id="g168"><path
             id="path170"
             style="fill:none;stroke:#1d1e1c;stroke-width:1.12300003;stroke-linecap:round;stroke-linejoin:round;stroke-miterlimit:10;stroke-dasharray:none;stroke-opacity:1"
             d="m 0,0 c -0.507,-0.473 -1.186,-0.762 -1.934,-0.762 -1.566,0 -2.835,1.27 -2.835,2.835 0,1.566 1.269,2.835 2.835,2.835 1.566,0 2.835,-1.269 2.835,-2.835" /></g><g
           transform="translate(34.2029,12.0774)"
           id="g172"><path
             id="path174"
             style="fill:none;stroke:#1d1e1c;stroke-width:1.12300003;stroke-linecap:round;stroke-linejoin:round;stroke-miterlimit:10;stroke-dasharray:none;stroke-opacity:1"
             d="M 0,0 -23.452,11.599" /></g><g
           transform="translate(35.631,19.1443)"
           id="g176"><path
             id="path178"
             style="fill:none;stroke:#1d1e1c;stroke-width:1.12300003;stroke-linecap:round;stroke-linejoin:round;stroke-miterlimit:10;stroke-dasharray:none;stroke-opacity:1"
             d="M 0,0 -20.593,23.85" /></g><g
           transform="translate(40.4869,24.2857)"
           id="g180"><path
             id="path182"
             style="fill:none;stroke:#1d1e1c;stroke-width:1.12300003;stroke-linecap:round;stroke-linejoin:round;stroke-miterlimit:10;stroke-dasharray:none;stroke-opacity:1"
             d="M 0,0 -12.063,32.904" /></g><g
           transform="translate(33.0033,12.0774)"
           id="g184"><path
             id="path186"
             style="fill:#1e1f1c;fill-opacity:1;fill-rule:nonzero;stroke:none"
             d="M 0,0 C 0,0.662 0.537,1.2 1.2,1.2 1.862,1.2 2.399,0.662 2.399,0 2.399,-0.662 1.862,-1.2 1.2,-1.2 0.537,-1.2 0,-0.662 0,0" /></g><g
           transform="translate(33.0033,12.0774)"
           id="g188"><path
             id="path190"
             style="fill:none;stroke:#1d1e1c;stroke-width:0.37400001;stroke-linecap:round;stroke-linejoin:round;stroke-miterlimit:10;stroke-dasharray:none;stroke-opacity:1"
             d="M 0,0 C 0,0.662 0.537,1.2 1.2,1.2 1.862,1.2 2.399,0.662 2.399,0 2.399,-0.662 1.862,-1.2 1.2,-1.2 0.537,-1.2 0,-0.662 0,0 Z" /></g><g
           transform="translate(34.4315,19.1443)"
           id="g192"><path
             id="path194"
             style="fill:#1e1f1c;fill-opacity:1;fill-rule:nonzero;stroke:none"
             d="M 0,0 C 0,0.662 0.537,1.2 1.2,1.2 1.862,1.2 2.399,0.662 2.399,0 2.399,-0.662 1.862,-1.2 1.2,-1.2 0.537,-1.2 0,-0.662 0,0" /></g><g
           transform="translate(34.4315,19.1443)"
           id="g196"><path
             id="path198"
             style="fill:none;stroke:#1d1e1c;stroke-width:0.37400001;stroke-linecap:round;stroke-linejoin:round;stroke-miterlimit:10;stroke-dasharray:none;stroke-opacity:1"
             d="M 0,0 C 0,0.662 0.537,1.2 1.2,1.2 1.862,1.2 2.399,0.662 2.399,0 2.399,-0.662 1.862,-1.2 1.2,-1.2 0.537,-1.2 0,-0.662 0,0 Z" /></g><g
           transform="translate(39.2874,24.2857)"
           id="g200"><path
             id="path202"
             style="fill:#1e1f1c;fill-opacity:1;fill-rule:nonzero;stroke:none"
             d="M 0,0 C 0,0.662 0.537,1.2 1.2,1.2 1.862,1.2 2.399,0.662 2.399,0 2.399,-0.662 1.862,-1.2 1.2,-1.2 0.537,-1.2 0,-0.662 0,0" /></g><g
           transform="translate(39.2874,24.2857)"
           id="g204"><path
             id="path206"
             style="fill:none;stroke:#1d1e1c;stroke-width:0.37400001;stroke-linecap:round;stroke-linejoin:round;stroke-miterlimit:10;stroke-dasharray:none;stroke-opacity:1"
             d="M 0,0 C 0,0.662 0.537,1.2 1.2,1.2 1.862,1.2 2.399,0.662 2.399,0 2.399,-0.662 1.862,-1.2 1.2,-1.2 0.537,-1.2 0,-0.662 0,0 Z" /></g><g
           transform="translate(47.2246,49.7347)"
           id="g208"><path
             id="path210"
             style="fill:none;stroke:#1d1e1c;stroke-width:0.74900001;stroke-linecap:round;stroke-linejoin:round;stroke-miterlimit:10;stroke-dasharray:none;stroke-opacity:1"
             d="M 0,0 V 7.205" /></g><g
           transform="translate(41.0154,54.5404)"
           id="g212"><path
             id="path214"
             style="fill:none;stroke:#1d1e1c;stroke-width:0.74900001;stroke-linecap:round;stroke-linejoin:round;stroke-miterlimit:10;stroke-dasharray:none;stroke-opacity:1"
             d="M 0,0 V -2.089 L 2.59,-4.394 V -7.051" /></g><g
           transform="translate(43.8219,56.4006)"
           id="g216"><path
             id="path218"
             style="fill:none;stroke:#1d1e1c;stroke-width:0.74900001;stroke-linecap:round;stroke-linejoin:round;stroke-miterlimit:10;stroke-dasharray:none;stroke-opacity:1"
             d="M 0,0 V -3.108 L 1.598,-4.456 V -7.733" /></g><g
           transform="translate(174.3503,35.489)"
           id="g220"><path
             id="path222"
             style="fill:#000000;fill-opacity:1;fill-rule:nonzero;stroke:none"
             d="m 0,0 c -0.503,0 -0.913,0.409 -0.913,0.913 0,0.503 0.41,0.912 0.913,0.912 0.503,0 0.913,-0.409 0.913,-0.912 C 0.913,0.409 0.503,0 0,0 M 0.522,2.797 V 6.054 H -0.522 V 2.797 C -1.349,2.568 -1.957,1.811 -1.957,0.913 c 0,-1.08 0.878,-1.958 1.957,-1.958 1.079,0 1.957,0.878 1.957,1.958 0,0.898 -0.609,1.655 -1.435,1.884" /></g><g
           transform="translate(104.5207,45.4592)"
           id="g224"><path
             id="path226"
             style="fill:#000000;fill-opacity:1;fill-rule:nonzero;stroke:none"
             d="m 0,0 h 2.581 v -10.936 c 0,-1.54 0.387,-2.649 1.162,-3.328 0.774,-0.68 1.781,-1.019 3.022,-1.019 1.241,0 2.246,0.339 3.016,1.019 0.77,0.679 1.155,1.788 1.155,3.328 V 0 h 2.581 v -10.936 c 0,-1.449 -0.272,-2.674 -0.815,-3.675 -0.543,-1 -1.32,-1.759 -2.33,-2.275 -1.01,-0.516 -2.212,-0.775 -3.607,-0.775 -1.385,0 -2.585,0.259 -3.6,0.775 -1.014,0.516 -1.795,1.275 -2.343,2.275 C 0.274,-13.61 0,-12.385 0,-10.936 Z" /></g><g
           transform="translate(131.583,28.1519)"
           id="g228"><path
             id="path230"
             style="fill:#000000;fill-opacity:1;fill-rule:nonzero;stroke:none"
             d="m 0,0 v 7.662 c 0,1.132 -0.27,1.99 -0.809,2.574 -0.538,0.584 -1.265,0.876 -2.18,0.876 -0.725,0 -1.356,-0.196 -1.895,-0.59 C -5.423,10.128 -5.84,9.552 -6.134,8.796 -6.428,8.04 -6.576,7.119 -6.576,6.032 h -0.923 c 0,1.603 0.206,2.952 0.618,4.048 0.412,1.096 1.003,1.927 1.773,2.493 0.769,0.566 1.693,0.849 2.771,0.849 1.051,0 1.94,-0.236 2.67,-0.707 0.728,-0.47 1.283,-1.138 1.664,-2.003 0.38,-0.865 0.57,-1.882 0.57,-3.05 V 0 Z m -9.157,0 v 13.069 h 2.242 l 0.339,-2.826 V 0 Z" /></g><g
           transform="translate(143.2938,30.0537)"
           id="g232"><path
             id="path234"
             style="fill:#000000;fill-opacity:1;fill-rule:nonzero;stroke:none"
             d="m 0,0 c 0.752,0 1.402,0.181 1.95,0.543 0.547,0.363 0.968,0.89 1.263,1.583 0.294,0.693 0.441,1.524 0.441,2.493 0,1.485 -0.301,2.635 -0.903,3.45 C 2.149,8.885 1.281,9.292 0.15,9.292 -0.611,9.292 -1.266,9.109 -1.813,8.742 -2.362,8.375 -2.783,7.845 -3.077,7.153 -3.371,6.46 -3.519,5.615 -3.519,4.619 -3.519,3.161 -3.215,2.026 -2.608,1.216 -2.002,0.405 -1.132,0 0,0 m 0.082,-2.255 c -1.187,0 -2.249,0.258 -3.186,0.774 -0.938,0.517 -1.678,1.286 -2.221,2.31 -0.544,1.023 -0.815,2.286 -0.815,3.79 0,1.53 0.271,2.805 0.815,3.824 0.543,1.019 1.283,1.786 2.221,2.303 0.937,0.516 1.999,0.774 3.186,0.774 1.168,0 2.218,-0.258 3.151,-0.774 C 4.166,10.229 4.902,9.462 5.441,8.443 5.98,7.424 6.249,6.149 6.249,4.619 6.249,3.115 5.98,1.852 5.441,0.829 4.902,-0.195 4.166,-0.964 3.233,-1.481 2.3,-1.997 1.25,-2.255 0.082,-2.255" /></g><g
           transform="translate(159.297,27.7986)"
           id="g236"><path
             id="path238"
             style="fill:#000000;fill-opacity:1;fill-rule:nonzero;stroke:none"
             d="M 0,0 C -1.178,0 -2.26,0.211 -3.247,0.632 -4.234,1.053 -5.029,1.68 -5.631,2.513 -6.234,3.346 -6.548,4.388 -6.575,5.638 h 2.527 c 0,-0.752 0.183,-1.368 0.55,-1.848 0.367,-0.48 0.853,-0.835 1.46,-1.066 0.607,-0.231 1.277,-0.347 2.011,-0.347 0.742,0 1.399,0.114 1.97,0.34 0.57,0.226 1.012,0.53 1.324,0.91 0.313,0.381 0.469,0.815 0.469,1.304 0,0.661 -0.204,1.193 -0.612,1.597 C 2.717,6.931 2.096,7.273 1.263,7.553 l -3.219,1.196 c -1.386,0.516 -2.441,1.111 -3.166,1.786 -0.724,0.675 -1.087,1.615 -1.087,2.819 0,1.367 0.535,2.479 1.603,3.335 1.069,0.856 2.573,1.284 4.511,1.284 1.838,0 3.267,-0.426 4.286,-1.277 1.019,-0.851 1.601,-2.011 1.745,-3.478 h -2.54 c -0.127,0.743 -0.473,1.332 -1.039,1.766 -0.566,0.435 -1.384,0.652 -2.452,0.652 -1.033,0 -1.839,-0.224 -2.418,-0.672 -0.58,-0.448 -0.87,-1.012 -0.87,-1.691 0,-0.562 0.184,-1.01 0.55,-1.345 0.367,-0.335 0.94,-0.639 1.719,-0.91 L 2.554,9.673 C 3.813,9.229 4.795,8.631 5.502,7.879 6.208,7.128 6.561,6.172 6.561,5.013 6.561,4.035 6.308,3.17 5.801,2.418 5.293,1.666 4.551,1.075 3.573,0.645 2.595,0.215 1.404,0 0,0" /></g><g
           transform="translate(174.2823,30.0537)"
           id="g240"><path
             id="path242"
             style="fill:#000000;fill-opacity:1;fill-rule:nonzero;stroke:none"
             d="m 0,0 c 0.752,0 1.402,0.181 1.95,0.543 0.547,0.363 0.968,0.89 1.263,1.583 0.294,0.693 0.441,1.524 0.441,2.493 0,1.485 -0.301,2.635 -0.903,3.45 C 2.149,8.885 1.281,9.292 0.15,9.292 -0.611,9.292 -1.266,9.109 -1.813,8.742 -2.362,8.375 -2.783,7.845 -3.077,7.153 -3.371,6.46 -3.519,5.615 -3.519,4.619 -3.519,3.161 -3.215,2.026 -2.608,1.216 -2.002,0.405 -1.132,0 0,0 m 0.082,-2.255 c -1.187,0 -2.249,0.258 -3.186,0.774 -0.938,0.517 -1.678,1.286 -2.221,2.31 -0.544,1.023 -0.815,2.286 -0.815,3.79 0,1.53 0.271,2.805 0.815,3.824 0.543,1.019 1.283,1.786 2.221,2.303 0.937,0.516 1.999,0.774 3.186,0.774 1.168,0 2.218,-0.258 3.151,-0.774 C 4.166,10.229 4.902,9.462 5.441,8.443 5.98,7.424 6.249,6.149 6.249,4.619 6.249,3.115 5.98,1.852 5.441,0.829 4.902,-0.195 4.166,-0.964 3.233,-1.481 2.3,-1.997 1.25,-2.255 0.082,-2.255" /></g><g
           transform="translate(184.065,28.1519)"
           id="g244"><path
             id="path246"
             style="fill:#000000;fill-opacity:1;fill-rule:nonzero;stroke:none"
             d="m 0,0 v 14.903 c 0,0.905 0.174,1.641 0.523,2.207 0.349,0.566 0.813,0.985 1.392,1.257 0.58,0.272 1.218,0.408 1.916,0.408 0.398,0 0.808,-0.028 1.229,-0.082 0.421,-0.054 0.836,-0.136 1.243,-0.245 l -0.489,-2.01 c -0.253,0.09 -0.509,0.163 -0.767,0.217 -0.258,0.055 -0.505,0.082 -0.741,0.082 -0.28,0 -0.552,-0.053 -0.815,-0.156 C 3.229,16.476 3.014,16.288 2.846,16.017 2.678,15.745 2.595,15.36 2.595,14.862 V 0 Z m -2.051,13.069 h 7.214 v -1.752 h -7.214 z" /></g><g
           transform="translate(197.12,27.7986)"
           id="g248"><path
             id="path250"
             style="fill:#000000;fill-opacity:1;fill-rule:nonzero;stroke:none"
             d="m 0,0 c -0.743,0 -1.413,0.141 -2.011,0.421 -0.597,0.281 -1.071,0.704 -1.419,1.27 -0.349,0.566 -0.523,1.28 -0.523,2.14 v 13.15 h 2.567 V 3.913 c 0,-1.232 0.575,-1.848 1.726,-1.848 0.353,0 0.697,0.038 1.032,0.115 0.335,0.077 0.715,0.193 1.141,0.347 L 2.88,0.693 C 2.4,0.494 1.927,0.329 1.46,0.197 0.994,0.066 0.507,0 0,0 M -5.95,13.422 H 2.486 V 11.67 H -5.95 Z" /></g></g></g></g></svg>