<svg width="710" height="568" viewBox="0 0 710 568" fill="none" xmlns="http://www.w3.org/2000/svg">
<path d="M623.674 551.179L608.914 551.177L601.893 494.004L623.677 494.006L623.674 551.179Z" fill="#FFB6B6"/>
<path d="M624.194 566.641L578.805 566.64V566.063C578.806 556.265 586.715 548.323 596.472 548.322H596.473L604.764 542.006L620.232 548.323L624.195 548.323L624.194 566.641Z" fill="#2F2E41"/>
<path d="M558.238 551.179L543.478 551.177L536.457 494.004L558.241 494.006L558.238 551.179Z" fill="#FFB6B6"/>
<path d="M558.758 566.641L513.369 566.64V566.063C513.37 556.265 521.279 548.323 531.036 548.322H531.037L539.328 542.006L554.796 548.323L558.759 548.323L558.758 566.641Z" fill="#2F2E41"/>
<path d="M551.205 232.109L636.361 233.909C636.361 233.909 651.671 259.114 639.982 294.671L641.292 304.573L635.913 319.876L633.224 366.686L635.913 373.887L634.12 387.39C634.12 387.39 641.292 476.508 623.364 521.517L601.851 520.617L593.783 403.186L598.265 394.592L597.369 390.991L586.612 336.98L575.856 364.886V380.391L565.995 391.891C565.995 391.891 569.581 498.113 559.721 519.717H535.635L526.555 375.688L535.518 291.971L533.726 286.57L536.415 283.869L534.622 274.867L551.205 232.109L551.205 232.109Z" fill="#2F2E41"/>
<path d="M587.508 67.8251L613.504 61.5238L620.675 78.6273C620.675 78.6273 657.776 98.4313 659.569 125.437C659.569 125.437 664.597 147.041 660.115 156.943C655.634 166.845 636.81 198.352 636.81 198.352C636.81 198.352 653.841 253.263 649.359 255.963C644.877 258.664 538.207 253.263 538.207 247.862C538.207 242.461 555.96 185.749 555.96 185.749L559.721 88.5293L583.923 79.5275L587.508 67.8251L587.508 67.8251V67.8251Z" fill="#3F3D56"/>
<path d="M656.81 289.419C651.369 286.665 649.181 280.004 651.922 274.54C652.198 273.99 652.523 273.483 652.872 273.001L638.408 173.408L658.434 174.051L668.909 271.089C672.706 274.323 673.965 279.848 671.625 284.51C668.884 289.974 662.251 292.172 656.81 289.419H656.81Z" fill="#FFB6B6"/>
<path d="M466.794 242.414C464.604 236.704 467.437 230.293 473.122 228.093C473.694 227.872 474.274 227.715 474.855 227.593L530.734 144.042L545.143 158.023L488.016 236.991C488.667 241.948 485.906 246.891 481.055 248.768C475.37 250.968 468.985 248.123 466.794 242.414V242.414Z" fill="#FFB6B6"/>
<path d="M620.319 148.287C614.661 128.766 624.058 108.85 644.303 108.946C650.155 108.974 654.701 110.679 655.961 115.399C660.371 131.92 662.775 156.857 662.775 156.857L668.007 183.408L664.838 188.92L671.444 206.713L668.24 215.131L667.547 258.118L651.412 257.218L633.634 224.447L626.836 220.388C626.836 220.388 632.295 167.403 621.437 152.147L620.319 148.287H620.319V148.287Z" fill="#3F3D56"/>
<path d="M548.047 100.246C557.481 82.2572 581.635 77.9962 596.131 92.1897C600.32 96.2922 602.411 100.69 600.052 104.964C591.795 119.924 572.657 136.03 572.657 136.03L549.088 174.08L542.995 175.835L535.438 193.242L519.242 212.364L497.791 223.724L485.242 211.122L487.907 194.922L520.201 151.71C520.201 151.71 543.437 122.35 546.181 103.802L548.047 100.246V100.246V100.246Z" fill="#3F3D56"/>
<path d="M592.448 62.5639C593.042 62.6356 593.633 62.6894 594.222 62.7164C596.054 62.8173 597.864 62.7124 599.608 62.4154C604.908 61.5623 609.723 59.0415 613.438 55.3447C617.366 51.4439 620.054 46.2374 620.781 40.3102C622.483 26.3194 612.563 13.5748 598.631 11.8653C584.899 10.1704 572.382 19.8155 570.383 33.4851C570.352 33.6967 570.32 33.8994 570.297 34.1101C568.596 48.1098 578.506 60.8464 592.448 62.5639V62.564V62.5639Z" fill="#FFB6B6"/>
<path d="M564.655 32.5485C568.264 34.3408 574.16 28.7063 576.419 31.9481C576.786 31.2475 577.191 30.57 577.591 29.9292C577.953 29.3559 578.471 28.132 579.071 27.9225C578.312 29.7608 578.48 32.2506 579.267 34.3837C582.827 35.7195 587.487 32.7627 590.782 29.2652C595.955 23.7813 604.403 37.8438 602.406 45.1214C604.948 42.004 610.464 43.7622 612.334 47.3267C614.202 50.8823 611.045 53.7311 610.37 57.6971L615.466 57.0472C618.681 53.9023 618.457 48.603 621.104 44.9581C625.527 38.8581 627.241 32.6342 623.916 26.3387C620.967 20.7723 620.691 13.5682 615.281 10.3589C617.645 9.19827 609.238 11.0115 611.484 7.22902C613.739 3.45446 601.717 2.99633 600.933 5.01852C597.498 0.88978 594.033 -1.83238 589.807 1.47592C585.657 4.73076 586.087 8.15197 581.212 7.84538C578.925 7.70307 579.176 11.9855 577.817 13.8526C576.465 15.7097 571.21 16.9019 570.955 16.7032C569.567 15.6127 564.845 24.8957 564.845 24.8957C564.845 24.8957 561.016 30.7323 564.655 32.5485H564.655Z" fill="#2F2E41"/>
<path d="M246.579 194.572C331.972 194.572 401.197 264.091 401.197 349.846C401.197 435.602 331.972 505.12 246.579 505.12C161.185 505.12 43.0044 420.096 91.9605 349.846C140.917 279.596 161.185 194.572 246.579 194.572Z" fill="#F2F2F2"/>
<path d="M453.524 201.959C452.138 201.959 451.01 203.091 451.01 204.484V285.277C451.01 286.669 452.138 287.801 453.524 287.801C454.911 287.801 456.038 286.669 456.038 285.277V204.484C456.038 203.091 454.911 201.959 453.524 201.959Z" fill="#3F3D56"/>
<path d="M31.1522 141.364C29.7656 141.364 28.6381 142.497 28.6381 143.889V164.087C28.6381 165.48 29.7656 166.612 31.1522 166.612C32.5388 166.612 33.6663 165.48 33.6663 164.087V143.889C33.6663 142.497 32.5388 141.364 31.1522 141.364Z" fill="#3F3D56"/>
<path d="M31.1522 201.959C29.7656 201.959 28.6381 203.091 28.6381 204.484V243.618C28.6381 245.01 29.7656 246.143 31.1522 246.143C32.5388 246.143 33.6663 245.01 33.6663 243.618V204.484C33.6663 203.091 32.5388 201.959 31.1522 201.959Z" fill="#3F3D56"/>
<path d="M31.1522 257.504C29.7656 257.504 28.6381 258.636 28.6381 260.029V299.163C28.6381 300.555 29.7656 301.688 31.1522 301.688C32.5388 301.688 33.6663 300.555 33.6663 299.163V260.029C33.6663 258.636 32.5388 257.504 31.1522 257.504Z" fill="#3F3D56"/>
<path d="M256.635 61.8339C255.249 61.8339 254.121 62.9662 254.121 64.3586V103.493C254.121 104.885 255.249 106.017 256.635 106.017C258.022 106.017 259.149 104.885 259.149 103.493V64.3586C259.149 62.9662 258.022 61.8339 256.635 61.8339Z" fill="#3F3D56"/>
<path d="M178.975 339.38H91.9605V336.855H178.975C186.534 336.855 192.684 330.679 192.684 323.087V264.004H195.198V323.087C195.198 332.07 187.921 339.38 178.975 339.38H178.975Z" fill="#C7E0FF"/>
<path d="M345.006 467.455H147.1V469.98H345.006V467.455Z" fill="#C7E0FF"/>
<path d="M470.571 322.497H364.863C359.158 322.497 354.517 317.837 354.517 312.108V207.246C354.517 201.518 359.158 196.857 364.863 196.857H470.571C476.276 196.857 480.917 201.518 480.917 207.246V312.108C480.917 317.837 476.276 322.497 470.571 322.497Z" fill="#E6E6E6"/>
<path d="M384.549 199.953C369.665 199.953 357.6 212.069 357.6 227.016V309.883C357.6 315.14 361.843 319.402 367.078 319.402H431.716C457.186 319.402 477.834 298.666 477.834 273.088V209.471C477.834 204.214 473.591 199.953 468.356 199.953H384.549V199.953Z" fill="white"/>
<path d="M446.029 230.426H389.184C388.099 230.426 387.217 229.54 387.217 228.451C387.217 227.362 388.099 226.476 389.184 226.476H446.029C447.113 226.476 447.995 227.361 447.995 228.451C447.995 229.54 447.113 230.426 446.029 230.426Z" fill="#E6E6E6"/>
<path d="M446.029 272.544H389.184C388.099 272.544 387.217 271.657 387.217 270.568C387.217 269.479 388.099 268.594 389.184 268.594H446.029C447.113 268.594 447.995 269.479 447.995 270.568C447.995 271.657 447.113 272.544 446.029 272.544Z" fill="#E6E6E6"/>
<path d="M469.112 251.499H366.1C365.016 251.499 364.133 250.612 364.133 249.523C364.133 248.434 365.016 247.548 366.1 247.548H469.112C470.197 247.548 471.079 248.434 471.079 249.523C471.079 250.612 470.197 251.499 469.112 251.499Z" fill="#E6E6E6"/>
<path d="M470.164 289.669H432.951C431.866 289.669 430.984 288.783 430.984 287.693C430.984 286.604 431.866 285.719 432.951 285.719H470.164C471.249 285.719 472.131 286.604 472.131 287.693C472.131 288.783 471.249 289.669 470.164 289.669Z" fill="#E6E6E6"/>
<path d="M248.535 531.428H164.595C160.065 531.428 156.38 527.727 156.38 523.178V439.911C156.38 435.362 160.065 431.661 164.595 431.661H248.535C253.065 431.661 256.75 435.362 256.75 439.911V523.178C256.75 527.727 253.065 531.428 248.535 531.428H248.535Z" fill="#E6E6E6"/>
<path d="M180.227 434.119C168.409 434.119 158.828 443.741 158.828 455.609V521.411C158.828 525.586 162.198 528.97 166.354 528.97H217.681C237.906 528.97 254.302 512.505 254.302 492.194V441.678C254.302 437.503 250.932 434.119 246.775 434.119H180.227L180.227 434.119H180.227Z" fill="white"/>
<path d="M229.046 458.317H183.908C183.046 458.317 182.346 457.613 182.346 456.748C182.346 455.884 183.046 455.18 183.908 455.18H229.046C229.908 455.18 230.608 455.884 230.608 456.748C230.608 457.613 229.908 458.317 229.046 458.317Z" fill="#E6E6E6"/>
<path d="M229.046 491.761H183.908C183.046 491.761 182.346 491.058 182.346 490.193C182.346 489.328 183.046 488.625 183.908 488.625H229.046C229.908 488.625 230.608 489.328 230.608 490.193C230.608 491.058 229.908 491.761 229.046 491.761Z" fill="#E6E6E6"/>
<path d="M247.376 475.05H165.578C164.717 475.05 164.016 474.346 164.016 473.482C164.016 472.617 164.717 471.913 165.578 471.913H247.376C248.237 471.913 248.938 472.617 248.938 473.482C248.938 474.346 248.237 475.05 247.376 475.05Z" fill="#E6E6E6"/>
<path d="M248.211 505.36H218.661C217.8 505.36 217.1 504.656 217.1 503.791C217.1 502.927 217.8 502.223 218.661 502.223H248.211C249.073 502.223 249.773 502.927 249.773 503.791C249.773 504.656 249.073 505.36 248.211 505.36Z" fill="#E6E6E6"/>
<path d="M189.866 263.367H127.789C124.439 263.367 121.714 260.63 121.714 257.265V195.686C121.714 192.322 124.439 189.585 127.789 189.585H189.866C193.216 189.585 195.942 192.322 195.942 195.686V257.265C195.942 260.63 193.216 263.367 189.866 263.367Z" fill="#E6E6E6"/>
<path d="M139.35 191.402C130.61 191.402 123.524 198.518 123.524 207.296V255.959C123.524 259.046 126.016 261.549 129.09 261.549H167.049C182.006 261.549 194.131 249.372 194.131 234.351V196.992C194.131 193.905 191.639 191.403 188.565 191.403H139.35V191.402L139.35 191.402Z" fill="white"/>
<path d="M175.454 209.298H142.072C141.435 209.298 140.917 208.777 140.917 208.138C140.917 207.498 141.435 206.978 142.072 206.978H175.454C176.091 206.978 176.609 207.498 176.609 208.138C176.609 208.777 176.091 209.298 175.454 209.298Z" fill="#E6E6E6"/>
<path d="M175.454 234.032H142.072C141.435 234.032 140.917 233.511 140.917 232.872C140.917 232.232 141.435 231.712 142.072 231.712H175.454C176.091 231.712 176.609 232.232 176.609 232.872C176.609 233.511 176.091 234.032 175.454 234.032Z" fill="#E6E6E6"/>
<path d="M189.01 221.673H128.516C127.879 221.673 127.361 221.152 127.361 220.513C127.361 219.873 127.879 219.353 128.516 219.353H189.01C189.646 219.353 190.164 219.873 190.164 220.513C190.164 221.152 189.646 221.673 189.01 221.673Z" fill="#E6E6E6"/>
<path d="M189.627 244.088H167.774C167.137 244.088 166.619 243.568 166.619 242.928C166.619 242.289 167.137 241.768 167.774 241.768H189.627C190.264 241.768 190.782 242.289 190.782 242.928C190.782 243.568 190.264 244.088 189.627 244.088Z" fill="#E6E6E6"/>
<path d="M371.028 341.009C377.97 341.009 383.598 335.358 383.598 328.386C383.598 321.414 377.97 315.762 371.028 315.762C364.085 315.762 358.457 321.414 358.457 328.386C358.457 335.358 364.085 341.009 371.028 341.009Z" fill="#C7E0FF"/>
<path d="M193.782 276.628C200.725 276.628 206.353 270.976 206.353 264.004C206.353 257.032 200.725 251.38 193.782 251.38C186.84 251.38 181.212 257.032 181.212 264.004C181.212 270.976 186.84 276.628 193.782 276.628Z" fill="#C7E0FF"/>
<path d="M254.121 449.575C261.064 449.575 266.692 443.923 266.692 436.951C266.692 429.979 261.064 424.327 254.121 424.327C247.179 424.327 241.551 429.979 241.551 436.951C241.551 443.923 247.179 449.575 254.121 449.575Z" fill="#C7E0FF"/>
<path d="M281.275 99.5428C289.928 99.5428 296.942 92.6471 296.942 84.1408C296.942 75.6345 289.928 68.7388 281.275 68.7388C272.622 68.7388 265.608 75.6345 265.608 84.1408C265.608 92.6471 272.622 99.5428 281.275 99.5428Z" fill="#F2F2F2"/>
<path d="M406.871 78.8717H322.542C319.649 78.8717 317.295 76.5079 317.295 73.6026C317.295 70.6973 319.649 68.3335 322.542 68.3335H406.871C409.764 68.3335 412.118 70.6973 412.118 73.6026C412.118 76.5079 409.764 78.8717 406.871 78.8717Z" fill="#F2F2F2"/>
<path d="M472.683 96.7056H322.542C319.649 96.7056 317.295 94.3418 317.295 91.4365C317.295 88.5312 319.649 86.1674 322.542 86.1674H472.683C475.576 86.1674 477.929 88.5312 477.929 91.4365C477.929 94.3418 475.576 96.7056 472.683 96.7056Z" fill="#F2F2F2"/>
<path d="M54.505 164.275C60.1049 164.275 64.6445 159.812 64.6445 154.307C64.6445 148.802 60.1049 144.339 54.505 144.339C48.9051 144.339 44.3655 148.802 44.3655 154.307C44.3655 159.812 48.9051 164.275 54.505 164.275Z" fill="#F2F2F2"/>
<path d="M135.789 150.897H81.2122C79.3398 150.897 77.8165 149.367 77.8165 147.487C77.8165 145.607 79.3398 144.077 81.2122 144.077H135.789C137.661 144.077 139.185 145.607 139.185 147.487C139.185 149.367 137.661 150.897 135.789 150.897H135.789Z" fill="#F2F2F2"/>
<path d="M178.381 162.439H81.2122C79.3398 162.439 77.8165 160.909 77.8165 159.029C77.8165 157.148 79.3398 155.619 81.2122 155.619H178.381C180.254 155.619 181.777 157.148 181.777 159.029C181.777 160.909 180.254 162.439 178.381 162.439Z" fill="#F2F2F2"/>
<path d="M358.713 519.006C364.313 519.006 368.853 514.543 368.853 509.038C368.853 503.533 364.313 499.07 358.713 499.07C353.113 499.07 348.574 503.533 348.574 509.038C348.574 514.543 353.113 519.006 358.713 519.006Z" fill="#F2F2F2"/>
<path d="M439.997 505.628H385.42C383.548 505.628 382.025 504.098 382.025 502.218C382.025 500.338 383.548 498.808 385.42 498.808H439.997C441.87 498.808 443.393 500.338 443.393 502.218C443.393 504.098 441.87 505.628 439.997 505.628Z" fill="#F2F2F2"/>
<path d="M482.59 517.17H385.42C383.548 517.17 382.025 515.64 382.025 513.76C382.025 511.88 383.548 510.35 385.42 510.35H482.59C484.462 510.35 485.985 511.88 485.985 513.76C485.985 515.64 484.462 517.17 482.59 517.17Z" fill="#F2F2F2"/>
<path d="M236.836 196.895H234.322V316.822H236.836V196.895Z" fill="#E6E6E6"/>
<path d="M235.579 324.397C239.745 324.397 243.122 321.005 243.122 316.822C243.122 312.639 239.745 309.248 235.579 309.248C231.414 309.248 228.037 312.639 228.037 316.822C228.037 321.005 231.414 324.397 235.579 324.397Z" fill="#E6E6E6"/>
<path d="M349.972 411.501C354.137 411.501 357.514 408.11 357.514 403.927C357.514 399.744 354.137 396.353 349.972 396.353C345.806 396.353 342.429 399.744 342.429 403.927C342.429 408.11 345.806 411.501 349.972 411.501Z" fill="#E6E6E6"/>
<path d="M146.328 307.985C150.494 307.985 153.87 304.594 153.87 300.411C153.87 296.228 150.494 292.837 146.328 292.837C142.163 292.837 138.786 296.228 138.786 300.411C138.786 304.594 142.163 307.985 146.328 307.985Z" fill="#E6E6E6"/>
<path d="M143.541 300.423L102.293 301.677L102.369 304.201L143.617 302.947L143.541 300.423Z" fill="#E6E6E6"/>
<path d="M411.33 432.924H348.784V403.927H351.298V430.399H411.33V432.924Z" fill="#E6E6E6"/>
<path d="M143.232 390.691C147.398 390.691 150.775 387.3 150.775 383.117C150.775 378.933 147.398 375.542 143.232 375.542C139.067 375.542 135.69 378.933 135.69 383.117C135.69 387.3 139.067 390.691 143.232 390.691Z" fill="#E6E6E6"/>
<path d="M203.846 412.113H141.3V383.117H143.814V409.589H203.846V412.113Z" fill="#E6E6E6"/>
<path d="M395.226 354.296H94.8108V356.82H395.226V354.296Z" fill="#E6E6E6"/>
</svg>
