<svg width="512" height="399" viewBox="0 0 512 399" fill="none" xmlns="http://www.w3.org/2000/svg">
<path d="M222.6 108.3C226.124 108.3 228.98 105.444 228.98 101.92C228.98 98.3964 226.124 95.54 222.6 95.54C219.076 95.54 216.22 98.3964 216.22 101.92C216.22 105.444 219.076 108.3 222.6 108.3Z" fill="black"/>
<path d="M237.77 98.4C241.294 98.4 244.15 95.5436 244.15 92.02C244.15 88.4964 241.294 85.64 237.77 85.64C234.246 85.64 231.39 88.4964 231.39 92.02C231.39 95.5436 234.246 98.4 237.77 98.4Z" fill="black"/>
<path d="M255.94 95.53C259.464 95.53 262.32 92.6736 262.32 89.15C262.32 85.6264 259.464 82.77 255.94 82.77C252.416 82.77 249.56 85.6264 249.56 89.15C249.56 92.6736 252.416 95.53 255.94 95.53Z" fill="black"/>
<path d="M289.29 108.3C292.814 108.3 295.67 105.444 295.67 101.92C295.67 98.3964 292.814 95.54 289.29 95.54C285.766 95.54 282.91 98.3964 282.91 101.92C282.91 105.444 285.766 108.3 289.29 108.3Z" fill="black"/>
<path d="M274.12 98.4C277.644 98.4 280.5 95.5436 280.5 92.02C280.5 88.4964 277.644 85.64 274.12 85.64C270.596 85.64 267.74 88.4964 267.74 92.02C267.74 95.5436 270.596 98.4 274.12 98.4Z" fill="black"/>
<path d="M266.28 186.11C272.21 248.88 278.25 332.38 292.27 364.37C294.78 370.09 292.76 376.4 288.4 380.75C270.97 398.18 242.25 398.2 222.8 380.65C218.45 376.72 217.24 370.27 219.57 364.83C233.49 332.39 239.48 248.56 245.58 186.11" stroke="black" stroke-width="8.5159" stroke-miterlimit="10" stroke-linecap="round" stroke-linejoin="round"/>
<path d="M244.56 182.81C237.13 178.77 232.09 170.89 232.09 161.84C232.09 148.67 242.77 137.99 255.94 137.99C269.11 137.99 279.79 148.67 279.79 161.84C279.79 170.43 275.25 177.96 268.44 182.16C268.2 182.31 267.95 182.46 267.7 182.6" stroke="black" stroke-width="8.5159" stroke-miterlimit="10" stroke-linecap="round" stroke-linejoin="round"/>
<path d="M243.98 178.53C252.19 174.3 261.75 174.66 268.24 178.43" stroke="black" stroke-width="5.3224" stroke-miterlimit="10" stroke-linecap="round" stroke-linejoin="round"/>
<path d="M265.82 182.81C261.87 191.17 258.98 203.17 257.4 210.79C257.18 211.83 254.91 211.83 254.7 210.79C253.1 202.79 250.09 189.98 245.87 181.76" stroke="black" stroke-width="5.3224" stroke-miterlimit="10" stroke-linecap="round" stroke-linejoin="round"/>
<path d="M288.93 108.3V119.42L275.15 131.69V145.83" stroke="black" stroke-width="5.3224" stroke-miterlimit="10" stroke-linecap="round" stroke-linejoin="round"/>
<path d="M274 98.4V114.94L265.49 122.12V139.56" stroke="black" stroke-width="5.3224" stroke-miterlimit="10" stroke-linecap="round" stroke-linejoin="round"/>
<path d="M481.13 225.91C464.3 223.53 448.73 235.24 446.35 252.07C443.97 268.9 455.68 284.47 472.51 286.85C489.34 289.23 504.91 277.52 507.29 260.69C508.47 252.38 506.21 244.38 501.59 238.12" stroke="black" stroke-width="8.5159" stroke-miterlimit="10" stroke-linecap="round" stroke-linejoin="round"/>
<path d="M447.31 115.16C443.48 115.16 439.58 115.88 435.81 117.4C420.05 123.75 412.42 141.68 418.77 157.44C425.12 173.2 443.05 180.83 458.81 174.48C474.57 168.13 482.2 150.2 475.85 134.44C474.4 130.83 472.33 127.65 469.83 124.96" stroke="black" stroke-width="8.5159" stroke-miterlimit="10" stroke-linecap="round" stroke-linejoin="round"/>
<path d="M345.92 42.24C344.63 43.41 343.42 44.7 342.3 46.12C331.82 59.5 334.18 78.84 347.56 89.32C360.94 99.8 380.28 97.44 390.76 84.06C401.24 70.68 398.88 51.34 385.5 40.86C380.45 36.91 374.55 34.78 368.6 34.39" stroke="black" stroke-width="8.5159" stroke-miterlimit="10" stroke-linecap="round" stroke-linejoin="round"/>
<path d="M258.52 4.82997C242.44 3.55997 227.94 15.01 225.65 31.2C223.27 48.03 234.98 63.6 251.81 65.98C268.64 68.36 284.21 56.65 286.59 39.82C288.06 29.4 284.13 19.46 276.93 12.84" stroke="black" stroke-width="8.5159" stroke-miterlimit="10" stroke-linecap="round" stroke-linejoin="round"/>
<path d="M131.59 92.46C139.26 96.4 148.54 97.12 157.17 93.64C172.93 87.29 180.56 69.36 174.21 53.6C167.86 37.84 149.93 30.21 134.17 36.56C119.13 42.62 111.49 59.23 116.35 74.43" stroke="black" stroke-width="8.5159" stroke-miterlimit="10" stroke-linecap="round" stroke-linejoin="round"/>
<path d="M33.98 145.94C33.99 155.07 38.04 164.1 45.78 170.17C59.16 180.65 78.5 178.29 88.98 164.91C99.46 151.53 97.1 132.19 83.72 121.71C72.21 112.7 56.28 113.18 45.39 122.02C44.41 122.82 43.46 123.68 42.57 124.62" stroke="black" stroke-width="8.5159" stroke-miterlimit="10" stroke-linecap="round" stroke-linejoin="round"/>
<path d="M18.17 230.66C15.52 232.4 13.15 234.54 11.15 237.02C7.76 241.21 5.42 246.34 4.61 252.06C2.23 268.89 13.94 284.46 30.77 286.84C47.6 289.22 63.17 277.51 65.55 260.68C67.93 243.85 56.22 228.28 39.39 225.9" stroke="black" stroke-width="8.5159" stroke-miterlimit="10" stroke-linecap="round" stroke-linejoin="round"/>
<path d="M48.88 250.27C49.71 252.14 50.17 254.2 50.17 256.38C50.17 264.71 43.41 271.47 35.08 271.47C26.75 271.47 19.99 264.71 19.99 256.38C19.99 249.09 25.16 243 32.04 241.6" stroke="black" stroke-width="8.5159" stroke-miterlimit="10" stroke-linecap="round" stroke-linejoin="round"/>
<path d="M53.81 155.04C51.89 152.51 50.76 149.36 50.76 145.94C50.76 137.61 57.52 130.85 65.85 130.85C74.18 130.85 80.94 137.61 80.94 145.94C80.94 152.67 76.54 158.37 70.45 160.32" stroke="black" stroke-width="8.5159" stroke-miterlimit="10" stroke-linecap="round" stroke-linejoin="round"/>
<path d="M145.66 80.18C137.33 80.18 130.57 73.42 130.57 65.09C130.57 56.76 137.33 50 145.66 50C153.99 50 160.75 56.76 160.75 65.09C160.75 66.04 160.66 66.98 160.49 67.88" stroke="black" stroke-width="8.5159" stroke-miterlimit="10" stroke-linecap="round" stroke-linejoin="round"/>
<path d="M255.88 20.41C264.21 20.41 270.97 27.17 270.97 35.5C270.97 43.83 264.21 50.59 255.88 50.59C247.55 50.59 240.79 43.83 240.79 35.5C240.79 33.84 241.06 32.25 241.55 30.75" stroke="black" stroke-width="8.5159" stroke-miterlimit="10" stroke-linecap="round" stroke-linejoin="round"/>
<path d="M351.32 65.09C351.32 56.76 358.08 50 366.41 50C374.74 50 381.5 56.76 381.5 65.09C381.5 73.42 374.74 80.18 366.41 80.18C364.94 80.18 363.52 79.97 362.18 79.58" stroke="black" stroke-width="8.5159" stroke-miterlimit="10" stroke-linecap="round" stroke-linejoin="round"/>
<path d="M447.31 131.09C455.64 131.09 462.4 137.85 462.4 146.18C462.4 154.51 455.64 161.27 447.31 161.27C438.98 161.27 432.22 154.51 432.22 146.18C432.22 144.84 432.4 143.53 432.72 142.3" stroke="black" stroke-width="8.5159" stroke-miterlimit="10" stroke-linecap="round" stroke-linejoin="round"/>
<path d="M480.27 270.39C479.16 270.65 478 270.79 476.81 270.79C468.48 270.79 461.72 264.03 461.72 255.7C461.72 247.37 468.48 240.61 476.81 240.61C485.14 240.61 491.9 247.37 491.9 255.7" stroke="black" stroke-width="8.5159" stroke-miterlimit="10" stroke-linecap="round" stroke-linejoin="round"/>
<path d="M325.84 334.32L450.66 272.58" stroke="black" stroke-width="8.5159" stroke-miterlimit="10" stroke-linecap="round" stroke-linejoin="round"/>
<path d="M318.24 296.71L427.84 169.77" stroke="black" stroke-width="8.5159" stroke-miterlimit="10" stroke-linecap="round" stroke-linejoin="round"/>
<path d="M292.39 269.34L356.59 94.22" stroke="black" stroke-width="8.5159" stroke-miterlimit="10" stroke-linecap="round" stroke-linejoin="round"/>
<path d="M186.34 334.31L61.52 272.57" stroke="black" stroke-width="8.5159" stroke-miterlimit="10" stroke-linecap="round" stroke-linejoin="round"/>
<path d="M193.95 296.7L84.34 169.76" stroke="black" stroke-width="8.5159" stroke-miterlimit="10" stroke-linecap="round" stroke-linejoin="round"/>
<path d="M219.79 269.33L155.59 94.2" stroke="black" stroke-width="8.5159" stroke-miterlimit="10" stroke-linecap="round" stroke-linejoin="round"/>
<path d="M255.65 133.88V95.53" stroke="black" stroke-width="5.3224" stroke-miterlimit="10" stroke-linecap="round" stroke-linejoin="round"/>
<path d="M222.6 108.3V119.42L236.39 131.69V145.83" stroke="black" stroke-width="5.3224" stroke-miterlimit="10" stroke-linecap="round" stroke-linejoin="round"/>
<path d="M237.54 98.4V114.94L246.04 122.12V139.56" stroke="black" stroke-width="5.3224" stroke-miterlimit="10" stroke-linecap="round" stroke-linejoin="round"/>
<path d="M177.84 334.97C177.84 329.53 182.25 325.12 187.69 325.12C193.13 325.12 197.54 329.53 197.54 334.97C197.54 340.41 193.13 344.82 187.69 344.82C182.25 344.82 177.84 340.41 177.84 334.97Z" fill="black"/>
<path d="M192.09 304.4C197.53 304.4 201.94 299.99 201.94 294.55C201.94 289.11 197.53 284.7 192.09 284.7C186.65 284.7 182.24 289.11 182.24 294.55C182.24 299.99 186.65 304.4 192.09 304.4Z" fill="black"/>
<path d="M218.84 276.59C224.28 276.59 228.69 272.18 228.69 266.74C228.69 261.3 224.28 256.89 218.84 256.89C213.4 256.89 208.99 261.3 208.99 266.74C208.99 272.18 213.4 276.59 218.84 276.59Z" fill="black"/>
<path d="M325.04 344.82C330.48 344.82 334.89 340.41 334.89 334.97C334.89 329.53 330.48 325.12 325.04 325.12C319.6 325.12 315.19 329.53 315.19 334.97C315.19 340.41 319.6 344.82 325.04 344.82Z" fill="black"/>
<path d="M320.64 304.4C326.08 304.4 330.49 299.99 330.49 294.55C330.49 289.11 326.08 284.7 320.64 284.7C315.2 284.7 310.79 289.11 310.79 294.55C310.79 299.99 315.2 304.4 320.64 304.4Z" fill="black"/>
<path d="M293.89 276.59C299.33 276.59 303.74 272.18 303.74 266.74C303.74 261.3 299.33 256.89 293.89 256.89C288.45 256.89 284.04 261.3 284.04 266.74C284.04 272.18 288.45 276.59 293.89 276.59Z" fill="black"/>
</svg>
