<svg width="426" height="348" viewBox="0 0 426 348" fill="none" xmlns="http://www.w3.org/2000/svg">
<path d="M22.6 0.399994C10.229 0.399994 0.201996 10.427 0.201996 22.798C0.201996 35.169 10.229 45.196 22.6 45.196H403.4C415.771 45.196 425.798 35.169 425.798 22.798C425.798 10.427 415.771 0.399994 403.4 0.399994H22.6ZM22.6 151.6C10.229 151.6 0.201996 161.627 0.201996 173.998C0.201996 186.369 10.229 196.396 22.6 196.396H403.4C415.771 196.396 425.798 186.369 425.798 173.998C425.798 161.627 415.771 151.6 403.4 151.6H22.6ZM22.6 302.8C10.229 302.8 0.201996 312.827 0.201996 325.198C0.201996 337.569 10.229 347.596 22.6 347.596H403.4C415.771 347.596 425.798 337.569 425.798 325.198C425.798 312.827 415.771 302.8 403.4 302.8H22.6Z" fill="black"/>
</svg>
