<svg width="1200" height="600" viewBox="0 0 1200 600" fill="none" xmlns="http://www.w3.org/2000/svg">
<g clip-path="url(#clip0_56_457)">
<rect width="1200" height="600" fill="#3F3D56" fill-opacity="0.2"/>
<path d="M858.884 246.755H594.695L545.586 300.863V246.755H500V50H858.884V246.755Z" fill="#E5E5E5"/>
<path d="M800.038 107.797H558.848V118.454H800.038V107.797Z" fill="white"/>
<path d="M800.038 143.049H558.848V153.706H800.038V143.049Z" fill="white"/>
<path d="M800.038 178.301H558.848V188.958H800.038V178.301Z" fill="white"/>
<path d="M546.312 333.981C551.321 333.981 555.382 329.964 555.382 325.01C555.382 320.055 551.321 316.038 546.312 316.038C541.303 316.038 537.242 320.055 537.242 325.01C537.242 329.964 541.303 333.981 546.312 333.981Z" fill="#E6E6E6"/>
<path d="M1133.5 588.55H1123.33L1118.5 549.777H1133.5L1133.5 588.55Z" fill="#9F616A"/>
<path d="M1136.09 598.294L1103.32 598.293V597.883C1103.32 594.537 1104.66 591.329 1107.06 588.963C1109.45 586.597 1112.69 585.268 1116.07 585.268H1116.07L1136.09 585.268L1136.09 598.294Z" fill="#2F2E41"/>
<path d="M1034.45 587.753L1024.81 584.559L1032.69 546.276L1046.91 550.992L1034.45 587.753Z" fill="#9F616A"/>
<path d="M1033.77 597.808L1002.7 587.504L1002.83 587.115C1003.91 583.943 1006.22 581.323 1009.24 579.832C1012.27 578.341 1015.77 578.101 1018.98 579.164L1018.98 579.164L1037.96 585.457L1033.77 597.808Z" fill="#2F2E41"/>
<path d="M1046.97 388.169L1024.97 572.313L1046.55 574.113C1046.55 574.113 1080.5 393.066 1090.97 414.513C1101.44 435.959 1114.26 570.094 1114.26 570.094H1135.69C1135.69 570.094 1141.18 360.807 1118.75 350.453L1046.97 388.169Z" fill="#2F2E41"/>
<path d="M1104.02 236.461C1106.09 224.797 1098.22 213.674 1086.43 211.619C1074.63 209.564 1063.39 217.355 1061.31 229.02C1059.23 240.684 1067.11 251.807 1078.9 253.862C1090.69 255.917 1101.94 248.126 1104.02 236.461Z" fill="#9F616A"/>
<path d="M1069.78 262.079L1097.44 264.298C1097.44 264.298 1119.5 264.667 1128.47 270.584C1137.44 276.5 1119.87 313.107 1119.87 313.107C1119.87 313.107 1115.3 327.621 1118.75 334.183C1129.93 355.478 1128.27 371.876 1128.27 371.876C1128.27 371.876 1105.29 377.076 1065.67 387.43C1065.67 387.43 1040.99 397.044 1041.74 391.867C1042.49 386.69 1049.96 327.528 1049.96 327.528V266.146L1069.78 262.079Z" fill="#3F3D56"/>
<path d="M1118.17 230.416C1117.06 224.309 1114.58 215.645 1109.06 209.076C1109.24 209.077 1109.41 209.085 1109.58 209.08C1111.48 209.025 1113.64 208.433 1114.43 206.722C1114.68 206.037 1114.74 205.297 1114.61 204.58C1114.48 203.862 1114.15 203.193 1113.67 202.641C1112.69 201.551 1111.52 200.646 1110.21 199.97C1111.54 200.77 1113.43 201.513 1114.49 200.386C1114.76 200.047 1114.93 199.637 1114.98 199.205C1115.03 198.773 1114.95 198.338 1114.75 197.949C1114.35 197.178 1113.78 196.501 1113.09 195.966C1110.85 194.007 1108.4 192.297 1105.78 190.867C1103.76 189.759 1101.09 188.87 1099.27 190.287C1097.42 191.729 1097.72 194.539 1098.19 196.823C1097.16 196.223 1095.99 195.875 1094.79 195.807C1094.19 195.79 1093.6 195.978 1093.13 196.34C1092.65 196.701 1092.32 197.214 1092.18 197.791C1092.16 198.247 1092.27 198.699 1092.48 199.104C1092.69 199.509 1093 199.854 1093.39 200.104C1086.24 198.941 1077.1 200.26 1065.42 205.605C1065.42 205.605 1054.1 209.338 1053.53 224.082C1053.47 226.44 1053.73 228.795 1054.31 231.083C1054.95 233.756 1057.22 246.867 1054.5 252.166L1068.13 256.972L1068.29 248.893C1057.69 233.761 1062.93 228.208 1067.05 219.107C1067.06 219.09 1067.07 219.076 1067.09 219.065C1067.1 219.055 1067.12 219.048 1067.14 219.047C1067.16 219.046 1067.17 219.049 1067.19 219.058C1067.21 219.066 1067.22 219.078 1067.23 219.094C1067.99 220.388 1070.91 224.825 1080.97 224.825L1077.08 220.981C1077.08 220.981 1094.18 227.9 1100.4 227.9C1100.4 227.9 1105.06 230.975 1100.4 235.587C1095.74 240.2 1085.53 246.989 1090.97 255.446C1096.41 263.903 1095.94 266.903 1095.94 266.903L1108.38 259.984C1108.38 259.984 1115.98 245.119 1117.32 240.742C1118.43 237.415 1118.72 233.876 1118.17 230.416Z" fill="#2F2E41"/>
<path d="M968.743 397.078H1216.14V532.709H1184.71V570.007L1150.86 532.709H968.743V397.078Z" fill="#C7E0FF"/>
<path d="M1175.57 436.92H1009.31V444.267H1175.57V436.92Z" fill="white"/>
<path d="M1175.57 461.22H1009.31V468.566H1175.57V461.22Z" fill="white"/>
<path d="M1175.57 485.521H1009.31V492.867H1175.57V485.521Z" fill="white"/>
<path d="M1131.18 310.173L1116.67 313.662L1116.56 342.709L1100.24 398.426C1098.93 399.448 1097.93 400.804 1097.35 402.347C1096.77 403.891 1096.63 405.562 1096.94 407.181C1097.25 408.799 1098 410.303 1099.11 411.528C1100.23 412.753 1101.66 413.653 1103.25 414.131C1104.85 414.608 1106.54 414.645 1108.15 414.236C1109.77 413.828 1111.24 412.99 1112.4 411.814C1113.57 410.638 1114.39 409.168 1114.77 407.565C1115.15 405.961 1115.08 404.285 1114.57 402.718L1134.08 345.039L1131.18 310.173Z" fill="#9F616A"/>
<path d="M1034.6 309.562L1052.01 314.481L1052.12 343.529L1068.44 399.245C1069.75 400.267 1070.75 401.623 1071.33 403.167C1071.91 404.71 1072.05 406.382 1071.74 408C1071.43 409.619 1070.68 411.122 1069.57 412.347C1068.45 413.572 1067.02 414.473 1065.43 414.95C1063.84 415.428 1062.14 415.464 1060.53 415.056C1058.91 414.647 1057.44 413.81 1056.28 412.633C1055.11 411.457 1054.29 409.988 1053.91 408.384C1053.53 406.78 1053.6 405.104 1054.11 403.537L1034.6 345.858V309.562Z" fill="#9F616A"/>
<path d="M1109.4 267.625L1113 266.465C1115.02 265.814 1117.21 265.965 1119.12 266.885C1119.12 266.885 1129.59 267.625 1131.09 275.02C1132.58 282.416 1136.22 347.055 1136.22 347.055L1114.05 340.077L1109.4 267.625Z" fill="#3F3D56"/>
<path d="M1058.94 267.625L1052.57 267.308L1050.56 266.312C1050.56 266.312 1038.75 267.625 1037.25 275.02C1035.76 282.416 1031.41 349.048 1031.41 349.048L1053.58 343.067L1058.94 267.625Z" fill="#3F3D56"/>
<path d="M693.27 529.627L703.78 520.559C703.33 514.046 702.51 507.562 701.322 501.14L695.522 503.567L700.903 498.925C699.355 490.998 697.822 485.846 697.822 485.846C697.822 485.846 676.618 504.47 664.752 527.191L669.958 544.127L662.007 532.928C660.825 535.631 659.816 538.405 658.986 541.234C650.712 569.781 653.431 595.596 665.059 598.893C676.686 602.19 692.819 581.721 701.093 553.173C703.507 544.029 704.49 534.573 704.007 525.134L693.27 529.627Z" fill="#F1F1F1"/>
<path d="M721.099 551.823L734.834 549.434C737.854 543.628 740.539 537.659 742.879 531.554L736.645 530.666L743.678 529.443C746.495 521.866 747.875 516.672 747.875 516.672C747.875 516.672 719.991 521.774 697.96 535.157L693.565 552.316L692.612 538.665C690.187 540.375 687.873 542.233 685.684 544.23C663.684 564.438 652.52 587.927 660.751 596.694C668.982 605.462 693.49 596.187 715.491 575.98C722.336 569.386 728.119 561.794 732.638 553.467L721.099 551.823Z" fill="#F1F1F1"/>
<rect width="450" height="600" fill="#3F3D56"/>
<path d="M154.812 80H147.828L141.047 68.4219V80H134.844V57.1562H141.047V68.2188L147.578 57.1562H154.359L147.312 68.0625L154.812 80ZM178.531 68.5469C178.531 70.3073 178.318 71.9115 177.891 73.3594C177.474 74.7969 176.818 76.0365 175.922 77.0781C175.026 78.1198 173.875 78.9219 172.469 79.4844C171.062 80.0365 169.38 80.3125 167.422 80.3125C165.505 80.3125 163.844 80.0365 162.438 79.4844C161.042 78.9219 159.891 78.125 158.984 77.0938C158.078 76.0521 157.406 74.8073 156.969 73.3594C156.531 71.9115 156.312 70.2969 156.312 68.5156C156.312 66.1406 156.703 64.0781 157.484 62.3281C158.276 60.5677 159.495 59.2083 161.141 58.25C162.786 57.2812 164.891 56.7969 167.453 56.7969C170.057 56.7969 172.172 57.2812 173.797 58.25C175.432 59.2188 176.63 60.5833 177.391 62.3438C178.151 64.1042 178.531 66.1719 178.531 68.5469ZM162.812 68.5469C162.812 69.9219 162.969 71.1042 163.281 72.0938C163.594 73.0833 164.089 73.8438 164.766 74.375C165.443 74.9062 166.328 75.1719 167.422 75.1719C168.557 75.1719 169.458 74.9062 170.125 74.375C170.802 73.8438 171.286 73.0833 171.578 72.0938C171.88 71.1042 172.031 69.9219 172.031 68.5469C172.031 66.4844 171.688 64.8542 171 63.6562C170.312 62.4583 169.13 61.8594 167.453 61.8594C166.339 61.8594 165.438 62.1302 164.75 62.6719C164.073 63.2135 163.578 63.9844 163.266 64.9844C162.964 65.9844 162.812 67.1719 162.812 68.5469ZM202.234 80H196.031V70.6875H188.859V80H182.656V57.1562H188.859V65.625H196.031V57.1562H202.234V80ZM217.266 80H211.094V62.2031H205.516V57.1562H222.828V62.2031H217.266V80ZM240.109 80L238.984 75.7188H231.562L230.406 80H223.625L231.078 57.0625H239.312L246.859 80H240.109ZM237.703 70.6562L236.719 66.9062C236.615 66.5 236.464 65.9219 236.266 65.1719C236.068 64.4115 235.87 63.6302 235.672 62.8281C235.484 62.0156 235.339 61.349 235.234 60.8281C235.141 61.349 235.005 61.9948 234.828 62.7656C234.661 63.526 234.484 64.2812 234.297 65.0312C234.12 65.7812 233.964 66.4062 233.828 66.9062L232.844 70.6562H237.703ZM269.312 80H262.328L255.547 68.4219V80H249.344V57.1562H255.547V68.2188L262.078 57.1562H268.859L261.812 68.0625L269.312 80ZM281.734 80H275.562V62.2031H269.984V57.1562H287.297V62.2031H281.734V80ZM290.562 80V57.1562H296.734V65.2188H298.781C300.74 65.2188 302.349 65.5156 303.609 66.1094C304.88 66.7031 305.823 67.5312 306.438 68.5938C307.052 69.6458 307.359 70.8646 307.359 72.25C307.359 74.6562 306.547 76.5521 304.922 77.9375C303.297 79.3125 301.036 80 298.141 80H290.562ZM296.734 75.1094H298.234C299.245 75.1094 299.99 74.8906 300.469 74.4531C300.948 74.0052 301.188 73.3698 301.188 72.5469C301.188 72.0156 301.062 71.5729 300.812 71.2188C300.562 70.8542 300.224 70.5781 299.797 70.3906C299.38 70.2031 298.901 70.1094 298.359 70.1094H296.734V75.1094ZM308.953 80V57.1562H315.172V80H308.953Z" fill="white"/>
</g>
<defs>
<clipPath id="clip0_56_457">
<rect width="1200" height="600" fill="white"/>
</clipPath>
</defs>
</svg>
