<svg width="700" height="550" viewBox="0 0 700 550" fill="none" xmlns="http://www.w3.org/2000/svg">
<path d="M358.884 196.755H94.6953L45.5855 250.863V196.755H0V0H358.884V196.755Z" fill="#E5E5E5"/>
<path d="M300.038 57.7969H58.8477V68.4545H300.038V57.7969Z" fill="white"/>
<path d="M300.038 93.0488H58.8477V103.706H300.038V93.0488Z" fill="white"/>
<path d="M300.038 128.301H58.8477V138.958H300.038V128.301Z" fill="white"/>
<path d="M46.3121 283.981C51.3214 283.981 55.3822 279.964 55.3822 275.01C55.3822 270.055 51.3214 266.038 46.3121 266.038C41.3028 266.038 37.2419 270.055 37.2419 275.01C37.2419 279.964 41.3028 283.981 46.3121 283.981Z" fill="#E6E6E6"/>
<path d="M633.497 538.55H623.334L618.499 499.777H633.498L633.497 538.55Z" fill="#9F616A"/>
<path d="M636.088 548.294L603.32 548.293V547.883C603.32 544.537 604.664 541.329 607.056 538.963C609.447 536.597 612.692 535.268 616.074 535.268H616.075L636.089 535.268L636.088 548.294Z" fill="#2F2E41"/>
<path d="M534.446 537.753L524.81 534.559L532.686 496.276L546.907 500.992L534.446 537.753Z" fill="#9F616A"/>
<path d="M533.772 547.808L502.703 537.504L502.835 537.115C503.91 533.943 506.216 531.323 509.244 529.832C512.272 528.341 515.775 528.101 518.982 529.164L518.983 529.164L537.959 535.457L533.772 547.808Z" fill="#2F2E41"/>
<path d="M546.974 338.169L524.966 522.313L546.551 524.113C546.551 524.113 580.504 343.066 590.972 364.513C601.439 385.959 614.264 520.094 614.264 520.094H635.686C635.686 520.094 641.18 310.807 618.75 300.453L546.974 338.169Z" fill="#2F2E41"/>
<path d="M604.017 186.461C606.094 174.797 598.218 163.674 586.425 161.619C574.632 159.564 563.387 167.355 561.31 179.02C559.232 190.684 567.108 201.807 578.901 203.862C590.694 205.917 601.939 198.126 604.017 186.461Z" fill="#9F616A"/>
<path d="M569.778 212.079L597.441 214.298C597.441 214.298 619.498 214.667 628.47 220.584C637.442 226.5 619.871 263.107 619.871 263.107C619.871 263.107 615.304 277.621 618.75 284.183C629.932 305.478 628.274 321.876 628.274 321.876C628.274 321.876 605.292 327.076 565.666 337.43C565.666 337.43 540.993 347.044 541.74 341.867C542.488 336.69 549.965 277.528 549.965 277.528V216.146L569.778 212.079Z" fill="#3F3D56"/>
<path d="M618.171 180.416C617.064 174.309 614.585 165.645 609.061 159.076C609.235 159.077 609.409 159.085 609.583 159.08C611.481 159.025 613.641 158.433 614.425 156.722C614.678 156.037 614.741 155.297 614.608 154.58C614.475 153.862 614.15 153.193 613.668 152.641C612.689 151.551 611.518 150.646 610.212 149.97C611.544 150.77 613.427 151.513 614.491 150.386C614.764 150.047 614.933 149.637 614.98 149.205C615.026 148.773 614.947 148.338 614.751 147.949C614.348 147.178 613.781 146.501 613.089 145.966C610.85 144.007 608.4 142.297 605.783 140.867C603.757 139.759 601.092 138.87 599.274 140.287C597.421 141.729 597.719 144.539 598.195 146.823C597.157 146.223 595.991 145.875 594.791 145.807C594.192 145.79 593.605 145.978 593.129 146.34C592.653 146.701 592.318 147.214 592.18 147.791C592.163 148.247 592.265 148.699 592.476 149.104C592.688 149.509 593.001 149.854 593.387 150.104C586.238 148.941 577.103 150.26 565.425 155.605C565.425 155.605 554.102 159.338 553.527 174.082C553.468 176.44 553.733 178.795 554.313 181.083C554.951 183.756 557.22 196.867 554.498 202.166L568.134 206.972L568.291 198.893C557.693 183.761 562.928 178.208 567.055 169.107C567.061 169.09 567.073 169.076 567.087 169.065C567.102 169.055 567.119 169.048 567.137 169.047C567.155 169.046 567.173 169.049 567.189 169.058C567.206 169.066 567.219 169.078 567.228 169.094C567.991 170.388 570.913 174.825 580.97 174.825L577.084 170.981C577.084 170.981 594.183 177.9 600.401 177.9C600.401 177.9 605.064 180.975 600.401 185.587C595.737 190.2 585.531 196.989 590.972 205.446C596.413 213.903 595.944 216.903 595.944 216.903L608.38 209.984C608.38 209.984 615.975 195.119 617.322 190.742C618.429 187.415 618.72 183.876 618.171 180.416Z" fill="#2F2E41"/>
<path d="M468.743 347.078H716.135V482.709H684.711V520.007L650.858 482.709H468.743V347.078Z" fill="#C7E0FF"/>
<path d="M675.569 386.92H509.308V394.267H675.569V386.92Z" fill="white"/>
<path d="M675.569 411.22H509.308V418.566H675.569V411.22Z" fill="white"/>
<path d="M675.569 435.521H509.308V442.867H675.569V435.521Z" fill="white"/>
<path d="M631.18 260.173L616.669 263.662L616.559 292.709L600.239 348.426C598.932 349.448 597.934 350.804 597.352 352.347C596.77 353.891 596.626 355.562 596.936 357.181C597.247 358.799 598 360.303 599.113 361.528C600.226 362.753 601.657 363.653 603.251 364.131C604.845 364.608 606.541 364.645 608.154 364.236C609.768 363.828 611.237 362.99 612.404 361.814C613.57 360.638 614.388 359.168 614.769 357.565C615.15 355.961 615.08 354.285 614.567 352.718L634.077 295.039L631.18 260.173Z" fill="#9F616A"/>
<path d="M534.603 259.562L552.011 264.481L552.121 293.529L568.442 349.245C569.748 350.267 570.746 351.623 571.329 353.167C571.911 354.71 572.054 356.382 571.744 358C571.433 359.619 570.681 361.122 569.568 362.347C568.454 363.572 567.023 364.473 565.429 364.95C563.835 365.428 562.139 365.464 560.526 365.056C558.912 364.647 557.443 363.81 556.277 362.633C555.111 361.457 554.293 359.988 553.911 358.384C553.53 356.78 553.6 355.104 554.114 353.537L534.603 295.858V259.562Z" fill="#9F616A"/>
<path d="M609.404 217.625L613 216.465C615.019 215.814 617.215 215.965 619.124 216.885C619.124 216.885 629.591 217.625 631.086 225.02C632.582 232.416 636.219 297.055 636.219 297.055L614.047 290.077L609.404 217.625Z" fill="#3F3D56"/>
<path d="M558.937 217.625L552.572 217.308L550.556 216.312C550.556 216.312 538.75 217.625 537.254 225.02C535.759 232.416 531.408 299.048 531.408 299.048L553.579 293.067L558.937 217.625Z" fill="#3F3D56"/>
<path d="M193.27 479.627L203.78 470.559C203.33 464.046 202.51 457.562 201.322 451.14L195.522 453.567L200.903 448.925C199.355 440.998 197.822 435.846 197.822 435.846C197.822 435.846 176.618 454.47 164.752 477.191L169.958 494.127L162.007 482.928C160.825 485.631 159.816 488.405 158.986 491.234C150.712 519.781 153.431 545.596 165.059 548.893C176.686 552.19 192.819 531.721 201.093 503.173C203.507 494.029 204.49 484.573 204.007 475.134L193.27 479.627Z" fill="#F1F1F1"/>
<path d="M221.099 501.823L234.834 499.434C237.854 493.628 240.539 487.659 242.879 481.554L236.645 480.666L243.678 479.443C246.495 471.866 247.875 466.672 247.875 466.672C247.875 466.672 219.991 471.774 197.96 485.157L193.565 502.316L192.612 488.665C190.187 490.375 187.873 492.233 185.684 494.23C163.684 514.438 152.52 537.927 160.751 546.694C168.982 555.462 193.49 546.187 215.491 525.98C222.336 519.386 228.119 511.794 232.638 503.467L221.099 501.823Z" fill="#F1F1F1"/>
</svg>
