<svg width="512" height="512" viewBox="0 0 512 512" fill="none" xmlns="http://www.w3.org/2000/svg">
<path d="M266.28 186.14C272.21 248.91 278.25 332.41 292.27 364.4C294.78 370.12 292.76 376.43 288.4 380.78C270.97 398.21 242.25 398.23 222.8 380.68C218.45 376.75 217.24 370.3 219.57 364.86C233.49 332.42 239.48 248.59 245.58 186.14" stroke="black" stroke-width="8.5159" stroke-miterlimit="10" stroke-linecap="round" stroke-linejoin="round"/>
<path d="M244.56 182.85C237.13 178.81 232.09 170.93 232.09 161.88C232.09 148.71 242.77 138.03 255.94 138.03C269.11 138.03 279.79 148.71 279.79 161.88C279.79 170.47 275.25 178 268.44 182.2C268.2 182.35 267.95 182.5 267.7 182.64" stroke="black" stroke-width="8.5159" stroke-miterlimit="10" stroke-linecap="round" stroke-linejoin="round"/>
<path d="M243.98 178.56C252.19 174.33 261.75 174.69 268.24 178.46" stroke="black" stroke-width="5.3224" stroke-miterlimit="10" stroke-linecap="round" stroke-linejoin="round"/>
<path d="M265.82 182.85C261.87 191.21 258.98 203.21 257.4 210.83C257.18 211.87 254.91 211.87 254.7 210.83C253.1 202.83 250.09 190.02 245.87 181.8" stroke="black" stroke-width="5.3224" stroke-miterlimit="10" stroke-linecap="round" stroke-linejoin="round"/>
<path d="M288.93 108.34V119.46L275.15 131.72V145.87" stroke="black" stroke-width="5.3224" stroke-miterlimit="10" stroke-linecap="round" stroke-linejoin="round"/>
<path d="M274 98.43V114.98L265.49 122.15V139.59" stroke="black" stroke-width="5.3224" stroke-miterlimit="10" stroke-linecap="round" stroke-linejoin="round"/>
<path d="M481.13 225.94C464.3 223.56 448.73 235.27 446.35 252.1C443.97 268.93 455.68 284.5 472.51 286.88C489.34 289.26 504.91 277.55 507.29 260.72C508.47 252.41 506.21 244.41 501.59 238.15" stroke="black" stroke-width="8.5159" stroke-miterlimit="10" stroke-linecap="round" stroke-linejoin="round"/>
<path d="M448.51 115.09C444.68 115.09 440.78 115.81 437.01 117.33C421.25 123.68 413.62 141.61 419.97 157.37C426.32 173.13 444.25 180.76 460.01 174.41C475.77 168.06 483.4 150.13 477.05 134.37C475.6 130.76 473.53 127.58 471.03 124.89" stroke="black" stroke-width="8.5159" stroke-miterlimit="10" stroke-linecap="round" stroke-linejoin="round"/>
<path d="M345.86 42.26C344.57 43.43 343.36 44.72 342.24 46.14C331.76 59.52 334.12 78.86 347.5 89.34C360.88 99.82 380.22 97.46 390.7 84.08C401.18 70.7 398.82 51.36 385.44 40.88C380.39 36.93 374.49 34.8 368.54 34.41" stroke="black" stroke-width="8.5159" stroke-miterlimit="10" stroke-linecap="round" stroke-linejoin="round"/>
<path d="M258.52 4.85997C242.44 3.58997 227.94 15.04 225.65 31.23C223.27 48.06 234.98 63.63 251.81 66.01C268.64 68.39 284.21 56.68 286.59 39.85C288.06 29.43 284.13 19.49 276.93 12.87" stroke="black" stroke-width="8.5159" stroke-miterlimit="10" stroke-linecap="round" stroke-linejoin="round"/>
<path d="M131.59 92.49C139.26 96.43 148.54 97.15 157.17 93.67C172.93 87.32 180.56 69.39 174.21 53.63C167.86 37.87 149.93 30.24 134.17 36.59C119.13 42.65 111.49 59.26 116.35 74.46" stroke="black" stroke-width="8.5159" stroke-miterlimit="10" stroke-linecap="round" stroke-linejoin="round"/>
<path d="M32.91 145.87C32.92 155 36.97 164.03 44.71 170.1C58.09 180.58 77.43 178.22 87.91 164.84C98.39 151.46 96.03 132.12 82.65 121.64C71.14 112.63 55.21 113.11 44.32 121.95C43.34 122.75 42.39 123.61 41.5 124.55" stroke="black" stroke-width="8.5159" stroke-miterlimit="10" stroke-linecap="round" stroke-linejoin="round"/>
<path d="M18.17 230.7C15.52 232.44 13.15 234.58 11.15 237.06C7.76 241.25 5.42 246.38 4.61 252.1C2.23 268.93 13.94 284.5 30.77 286.88C47.6 289.26 63.17 277.55 65.55 260.72C67.93 243.89 56.22 228.32 39.39 225.94" stroke="black" stroke-width="8.5159" stroke-miterlimit="10" stroke-linecap="round" stroke-linejoin="round"/>
<path d="M48.88 250.3C49.71 252.17 50.17 254.23 50.17 256.41C50.17 264.74 43.41 271.5 35.08 271.5C26.75 271.5 19.99 264.74 19.99 256.41C19.99 249.12 25.16 243.03 32.04 241.63" stroke="black" stroke-width="8.5159" stroke-miterlimit="10" stroke-linecap="round" stroke-linejoin="round"/>
<path d="M51.65 155.33C49.73 152.8 48.6 149.65 48.6 146.23C48.6 137.9 55.36 131.14 63.69 131.14C72.02 131.14 78.78 137.9 78.78 146.23C78.78 152.96 74.38 158.66 68.29 160.61" stroke="black" stroke-width="8.5159" stroke-miterlimit="10" stroke-linecap="round" stroke-linejoin="round"/>
<path d="M145.66 80.22C137.33 80.22 130.57 73.46 130.57 65.13C130.57 56.8 137.33 50.04 145.66 50.04C153.99 50.04 160.75 56.8 160.75 65.13C160.75 66.08 160.66 67.02 160.49 67.92" stroke="black" stroke-width="8.5159" stroke-miterlimit="10" stroke-linecap="round" stroke-linejoin="round"/>
<path d="M255.88 20.45C264.21 20.45 270.97 27.21 270.97 35.54C270.97 43.87 264.21 50.63 255.88 50.63C247.55 50.63 240.79 43.87 240.79 35.54C240.79 33.88 241.06 32.29 241.55 30.79" stroke="black" stroke-width="8.5159" stroke-miterlimit="10" stroke-linecap="round" stroke-linejoin="round"/>
<path d="M351.38 65.15C351.38 56.82 358.14 50.06 366.47 50.06C374.8 50.06 381.56 56.82 381.56 65.15C381.56 73.48 374.8 80.24 366.47 80.24C365 80.24 363.58 80.03 362.24 79.64" stroke="black" stroke-width="8.5159" stroke-miterlimit="10" stroke-linecap="round" stroke-linejoin="round"/>
<path d="M448.51 130.78C456.84 130.78 463.6 137.54 463.6 145.87C463.6 154.2 456.84 160.96 448.51 160.96C440.18 160.96 433.42 154.2 433.42 145.87C433.42 144.53 433.6 143.22 433.92 141.99" stroke="black" stroke-width="8.5159" stroke-miterlimit="10" stroke-linecap="round" stroke-linejoin="round"/>
<path d="M480.27 270.43C479.16 270.69 478 270.83 476.81 270.83C468.48 270.83 461.72 264.07 461.72 255.74C461.72 247.41 468.48 240.65 476.81 240.65C485.14 240.65 491.9 247.41 491.9 255.74" stroke="black" stroke-width="8.5159" stroke-miterlimit="10" stroke-linecap="round" stroke-linejoin="round"/>
<path d="M325.84 334.35L450.66 272.62" stroke="black" stroke-width="8.5159" stroke-miterlimit="10" stroke-linecap="round" stroke-linejoin="round"/>
<path d="M318.24 296.74L427.84 169.8" stroke="black" stroke-width="8.5159" stroke-miterlimit="10" stroke-linecap="round" stroke-linejoin="round"/>
<path d="M292.39 269.38L356.59 94.25" stroke="black" stroke-width="8.5159" stroke-miterlimit="10" stroke-linecap="round" stroke-linejoin="round"/>
<path d="M186.34 334.34L61.52 272.6" stroke="black" stroke-width="8.5159" stroke-miterlimit="10" stroke-linecap="round" stroke-linejoin="round"/>
<path d="M193.95 296.73L84.34 169.79" stroke="black" stroke-width="8.5159" stroke-miterlimit="10" stroke-linecap="round" stroke-linejoin="round"/>
<path d="M219.79 269.36L155.59 94.24" stroke="black" stroke-width="8.5159" stroke-miterlimit="10" stroke-linecap="round" stroke-linejoin="round"/>
<path d="M255.65 133.91V95.57" stroke="black" stroke-width="5.3224" stroke-miterlimit="10" stroke-linecap="round" stroke-linejoin="round"/>
<path d="M222.6 108.34V119.46L236.39 131.72V145.87" stroke="black" stroke-width="5.3224" stroke-miterlimit="10" stroke-linecap="round" stroke-linejoin="round"/>
<path d="M237.54 98.43V114.98L246.04 122.15V139.59" stroke="black" stroke-width="5.3224" stroke-miterlimit="10" stroke-linecap="round" stroke-linejoin="round"/>
<path d="M222.6 108.33C226.124 108.33 228.98 105.474 228.98 101.95C228.98 98.4264 226.124 95.57 222.6 95.57C219.076 95.57 216.22 98.4264 216.22 101.95C216.22 105.474 219.076 108.33 222.6 108.33Z" fill="black"/>
<path d="M237.77 98.43C241.294 98.43 244.15 95.5736 244.15 92.05C244.15 88.5264 241.294 85.67 237.77 85.67C234.246 85.67 231.39 88.5264 231.39 92.05C231.39 95.5736 234.246 98.43 237.77 98.43Z" fill="black"/>
<path d="M255.94 95.56C259.464 95.56 262.32 92.7036 262.32 89.18C262.32 85.6564 259.464 82.8 255.94 82.8C252.416 82.8 249.56 85.6564 249.56 89.18C249.56 92.7036 252.416 95.56 255.94 95.56Z" fill="black"/>
<path d="M289.29 108.33C292.814 108.33 295.67 105.474 295.67 101.95C295.67 98.4264 292.814 95.57 289.29 95.57C285.766 95.57 282.91 98.4264 282.91 101.95C282.91 105.474 285.766 108.33 289.29 108.33Z" fill="black"/>
<path d="M274.12 98.43C277.644 98.43 280.5 95.5736 280.5 92.05C280.5 88.5264 277.644 85.67 274.12 85.67C270.596 85.67 267.74 88.5264 267.74 92.05C267.74 95.5736 270.596 98.43 274.12 98.43Z" fill="black"/>
<path d="M177.84 335.01C177.84 329.57 182.25 325.16 187.69 325.16C193.13 325.16 197.54 329.57 197.54 335.01C197.54 340.45 193.13 344.86 187.69 344.86C182.25 344.86 177.84 340.45 177.84 335.01Z" fill="black"/>
<path d="M192.09 304.44C197.53 304.44 201.94 300.03 201.94 294.59C201.94 289.15 197.53 284.74 192.09 284.74C186.65 284.74 182.24 289.15 182.24 294.59C182.24 300.03 186.65 304.44 192.09 304.44Z" fill="black"/>
<path d="M218.84 276.62C224.28 276.62 228.69 272.21 228.69 266.77C228.69 261.33 224.28 256.92 218.84 256.92C213.4 256.92 208.99 261.33 208.99 266.77C208.99 272.21 213.4 276.62 218.84 276.62Z" fill="black"/>
<path d="M325.04 344.86C330.48 344.86 334.89 340.45 334.89 335.01C334.89 329.57 330.48 325.16 325.04 325.16C319.6 325.16 315.19 329.57 315.19 335.01C315.19 340.45 319.6 344.86 325.04 344.86Z" fill="black"/>
<path d="M320.64 304.44C326.08 304.44 330.49 300.03 330.49 294.59C330.49 289.15 326.08 284.74 320.64 284.74C315.2 284.74 310.79 289.15 310.79 294.59C310.79 300.03 315.2 304.44 320.64 304.44Z" fill="black"/>
<path d="M293.89 276.62C299.33 276.62 303.74 272.21 303.74 266.77C303.74 261.33 299.33 256.92 293.89 256.92C288.45 256.92 284.04 261.33 284.04 266.77C284.04 272.21 288.45 276.62 293.89 276.62Z" fill="black"/>
<path d="M376.3 456.14V438.81H370.74V456.14C366.34 457.36 363.1 461.39 363.1 466.17C363.1 471.91 367.77 476.59 373.52 476.59C379.27 476.59 383.94 471.92 383.94 466.17C383.93 461.39 380.69 457.36 376.3 456.14ZM373.52 471.03C370.84 471.03 368.66 468.85 368.66 466.17C368.66 463.49 370.84 461.31 373.52 461.31C376.2 461.31 378.38 463.49 378.38 466.17C378.37 468.85 376.19 471.03 373.52 471.03Z" fill="black"/>
<path d="M1.85001 417.96H15.59V476.17C15.59 484.37 17.65 490.27 21.77 493.88C25.89 497.5 31.25 499.3 37.86 499.3C44.46 499.3 49.81 497.49 53.91 493.88C58.01 490.26 60.06 484.36 60.06 476.17V417.96H73.8V476.17C73.8 483.88 72.35 490.4 69.46 495.73C66.57 501.06 62.43 505.09 57.06 507.84C51.68 510.59 45.29 511.96 37.86 511.96C30.48 511.96 24.1 510.59 18.7 507.84C13.3 505.09 9.14 501.06 6.23 495.73C3.31 490.4 1.86 483.89 1.86 476.17V417.96H1.85001Z" fill="black"/>
<path d="M97.16 510.08V440.52H109.09L110.9 455.56V510.08H97.16V510.08ZM145.89 510.08V469.3C145.89 463.28 144.45 458.71 141.59 455.6C138.72 452.49 134.85 450.94 129.98 450.94C126.12 450.94 122.76 451.99 119.89 454.09C117.02 456.19 114.8 459.25 113.24 463.27C111.67 467.29 110.89 472.2 110.89 477.98H105.97C105.97 469.45 107.07 462.27 109.26 456.43C111.45 450.6 114.6 446.18 118.7 443.16C122.8 440.15 127.71 438.64 133.45 438.64C139.04 438.64 143.78 439.89 147.66 442.4C151.54 444.91 154.49 448.46 156.52 453.06C158.54 457.66 159.56 463.07 159.56 469.29V510.07H145.89V510.08Z" fill="black"/>
<path d="M208.66 511.96C202.34 511.96 196.69 510.59 191.7 507.84C186.71 505.09 182.77 501 179.88 495.55C176.99 490.1 175.54 483.38 175.54 475.38C175.54 467.23 176.99 460.45 179.88 455.03C182.77 449.61 186.71 445.52 191.7 442.77C196.69 440.02 202.34 438.65 208.66 438.65C214.88 438.65 220.47 440.02 225.43 442.77C230.39 445.52 234.31 449.6 237.18 455.03C240.05 460.45 241.48 467.24 241.48 475.38C241.48 483.38 240.05 490.11 237.18 495.55C234.31 501 230.39 505.09 225.43 507.84C220.46 510.59 214.87 511.96 208.66 511.96ZM208.22 499.96C212.22 499.96 215.68 499 218.6 497.07C221.52 495.14 223.76 492.33 225.32 488.65C226.89 484.96 227.67 480.54 227.67 475.38C227.67 467.48 226.07 461.35 222.86 457.02C219.65 452.68 215.04 450.51 209.01 450.51C204.96 450.51 201.48 451.49 198.56 453.44C195.64 455.39 193.4 458.21 191.84 461.9C190.27 465.59 189.49 470.08 189.49 475.38C189.49 483.14 191.1 489.18 194.33 493.49C197.57 497.8 202.2 499.96 208.22 499.96Z" fill="black"/>
<path d="M293.4 511.96C287.13 511.96 281.37 510.84 276.12 508.6C270.87 506.36 266.64 503.02 263.43 498.59C260.22 494.16 258.55 488.61 258.4 481.96H271.85C271.85 485.96 272.83 489.24 274.78 491.79C276.73 494.35 279.32 496.24 282.55 497.47C285.78 498.7 289.35 499.31 293.25 499.31C297.2 499.31 300.7 498.71 303.73 497.5C306.77 496.29 309.12 494.68 310.78 492.66C312.44 490.64 313.27 488.32 313.27 485.72C313.27 482.2 312.19 479.37 310.02 477.22C307.85 475.08 304.55 473.26 300.11 471.76L282.97 465.4C275.59 462.65 269.98 459.48 266.12 455.89C262.26 452.3 260.33 447.3 260.33 440.89C260.33 433.61 263.17 427.69 268.86 423.14C274.55 418.59 282.55 416.31 292.87 416.31C302.65 416.31 310.26 418.58 315.68 423.11C321.1 427.64 324.2 433.81 324.97 441.62H311.45C310.77 437.67 308.93 434.53 305.92 432.22C302.91 429.91 298.56 428.75 292.87 428.75C287.37 428.75 283.08 429.94 280 432.33C276.91 434.72 275.37 437.72 275.37 441.33C275.37 444.32 276.35 446.71 278.3 448.49C280.25 450.27 283.3 451.89 287.45 453.33L306.97 460.49C313.67 462.85 318.9 466.03 322.66 470.03C326.42 474.03 328.3 479.12 328.3 485.29C328.3 490.5 326.95 495.1 324.25 499.1C321.55 503.1 317.6 506.25 312.39 508.54C307.21 510.81 300.87 511.96 293.4 511.96Z" fill="black"/>
<path d="M373.59 511.96C367.27 511.96 361.62 510.59 356.63 507.84C351.64 505.09 347.7 501 344.81 495.55C341.92 490.1 340.47 483.38 340.47 475.38C340.47 467.23 341.92 460.45 344.81 455.03C347.7 449.61 351.64 445.52 356.63 442.77C361.62 440.02 367.27 438.65 373.59 438.65C379.81 438.65 385.4 440.02 390.36 442.77C395.32 445.52 399.24 449.6 402.11 455.03C404.98 460.45 406.41 467.24 406.41 475.38C406.41 483.38 404.98 490.11 402.11 495.55C399.24 501 395.32 505.09 390.36 507.84C385.4 510.59 379.81 511.96 373.59 511.96ZM373.16 499.96C377.16 499.96 380.62 499 383.54 497.07C386.46 495.14 388.7 492.33 390.26 488.65C391.83 484.96 392.61 480.54 392.61 475.38C392.61 467.48 391.01 461.35 387.8 457.02C384.59 452.68 379.98 450.51 373.95 450.51C369.9 450.51 366.42 451.49 363.5 453.44C360.58 455.39 358.34 458.21 356.78 461.9C355.21 465.59 354.43 470.08 354.43 475.38C354.43 483.14 356.04 489.18 359.27 493.49C362.5 497.8 367.13 499.96 373.16 499.96Z" fill="black"/>
<path d="M414.3 449.85V440.52H452.69V449.85H414.3ZM425.22 510.08V430.76C425.22 425.94 426.15 422.02 428 419.01C429.86 416 432.33 413.77 435.41 412.32C438.49 410.87 441.89 410.15 445.61 410.15C447.73 410.15 449.91 410.29 452.15 410.58C454.39 410.87 456.6 411.3 458.77 411.88L456.17 422.58C454.82 422.1 453.46 421.71 452.08 421.42C450.71 421.13 449.39 420.99 448.14 420.99C446.65 420.99 445.2 421.27 443.8 421.82C442.4 422.38 441.26 423.37 440.37 424.82C439.48 426.27 439.03 428.31 439.03 430.97V510.07H425.22V510.08Z" fill="black"/>
<path d="M463.04 449.85V440.52H507.94V449.85H463.04ZM494.71 511.96C490.76 511.96 487.19 511.21 484.01 509.72C480.83 508.23 478.31 505.97 476.45 502.96C474.59 499.95 473.67 496.15 473.67 491.57V421.58H487.33V491.14C487.33 497.7 490.39 500.97 496.51 500.97C498.39 500.97 500.22 500.77 502.01 500.35C503.79 499.94 505.82 499.33 508.08 498.51L510.03 508.27C507.47 509.33 504.96 510.21 502.47 510.91C500 511.61 497.41 511.96 494.71 511.96Z" fill="black"/>
</svg>
