<svg width="929" height="302" viewBox="0 0 929 302" fill="none" xmlns="http://www.w3.org/2000/svg">
<path d="M201.6 140.99C206.08 188.44 210.65 251.55 221.25 275.73C223.15 280.06 221.62 284.82 218.33 288.11C205.15 301.28 183.44 301.3 168.75 288.04C165.46 285.07 164.57 280.21 166.31 276.08C176.84 251.1 181.36 188.19 185.97 140.99" stroke="black" stroke-width="6.4369" stroke-miterlimit="10" stroke-linecap="round" stroke-linejoin="round"/>
<path d="M185.18 138.5C179.57 135.44 175.75 129.49 175.75 122.65C175.75 112.69 183.82 104.62 193.78 104.62C203.74 104.62 211.81 112.69 211.81 122.65C211.81 129.14 208.38 134.84 203.23 138.01C203.05 138.12 202.86 138.23 202.67 138.34" stroke="black" stroke-width="6.4369" stroke-miterlimit="10" stroke-linecap="round" stroke-linejoin="round"/>
<path d="M184.74 135.26C190.94 132.07 198.17 132.33 203.07 135.18" stroke="black" stroke-width="4.023" stroke-miterlimit="10" stroke-linecap="round" stroke-linejoin="round"/>
<path d="M201.25 138.5C198.26 144.82 196.08 153.89 194.89 159.65C194.73 160.44 193.01 160.44 192.85 159.65C191.64 153.6 189.37 143.92 186.18 137.71" stroke="black" stroke-width="4.023" stroke-miterlimit="10" stroke-linecap="round" stroke-linejoin="round"/>
<path d="M218.72 82.18V90.59L208.3 99.86V110.55" stroke="black" stroke-width="4.023" stroke-miterlimit="10" stroke-linecap="round" stroke-linejoin="round"/>
<path d="M207.43 74.7V87.2L201 92.62V105.81" stroke="black" stroke-width="4.023" stroke-miterlimit="10" stroke-linecap="round" stroke-linejoin="round"/>
<path d="M363.99 171.07C351.27 169.27 339.5 178.12 337.7 190.84C335.9 203.56 344.75 215.33 357.47 217.13C370.19 218.93 381.96 210.08 383.76 197.36C384.65 191.08 382.94 185.03 379.45 180.3" stroke="black" stroke-width="6.4369" stroke-miterlimit="10" stroke-linecap="round" stroke-linejoin="round"/>
<path d="M338.43 87.37C335.53 87.37 332.59 87.91 329.74 89.06C317.83 93.86 312.06 107.41 316.86 119.32C321.66 131.23 335.21 137 347.12 132.2C359.03 127.4 364.8 113.85 360 101.94C358.9 99.21 357.34 96.81 355.45 94.77" stroke="black" stroke-width="6.4369" stroke-miterlimit="10" stroke-linecap="round" stroke-linejoin="round"/>
<path d="M261.79 32.25C260.81 33.13 259.9 34.11 259.06 35.19C251.14 45.3 252.92 59.92 263.04 67.84C273.16 75.76 287.77 73.98 295.69 63.86C303.61 53.75 301.83 39.13 291.71 31.21C287.89 28.22 283.43 26.61 278.93 26.32" stroke="black" stroke-width="6.4369" stroke-miterlimit="10" stroke-linecap="round" stroke-linejoin="round"/>
<path d="M195.73 3.97C183.58 3.01 172.62 11.66 170.89 23.9C169.09 36.62 177.94 48.39 190.66 50.19C203.38 51.99 215.15 43.14 216.95 30.42C218.06 22.54 215.09 15.03 209.65 10.02" stroke="black" stroke-width="6.4369" stroke-miterlimit="10" stroke-linecap="round" stroke-linejoin="round"/>
<path d="M99.79 70.2C105.59 73.18 112.6 73.72 119.12 71.09C131.03 66.29 136.8 52.74 132 40.83C127.2 28.92 113.65 23.15 101.74 27.95C90.37 32.53 84.6 45.08 88.27 56.58" stroke="black" stroke-width="6.4369" stroke-miterlimit="10" stroke-linecap="round" stroke-linejoin="round"/>
<path d="M26.01 110.63C26.01 117.53 29.08 124.36 34.93 128.94C45.04 136.86 59.66 135.08 67.58 124.96C75.5 114.85 73.72 100.23 63.6 92.31C54.9 85.5 42.86 85.86 34.63 92.54C33.89 93.14 33.17 93.8 32.5 94.5" stroke="black" stroke-width="6.4369" stroke-miterlimit="10" stroke-linecap="round" stroke-linejoin="round"/>
<path d="M14.06 174.67C12.06 175.99 10.27 177.61 8.75001 179.48C6.19001 182.64 4.42001 186.52 3.81001 190.85C2.01001 203.57 10.86 215.34 23.58 217.14C36.3 218.94 48.07 210.09 49.87 197.37C51.67 184.65 42.82 172.88 30.1 171.08" stroke="black" stroke-width="6.4369" stroke-miterlimit="10" stroke-linecap="round" stroke-linejoin="round"/>
<path d="M37.27 189.49C37.9 190.9 38.24 192.46 38.24 194.11C38.24 200.41 33.13 205.52 26.83 205.52C20.53 205.52 15.42 200.41 15.42 194.11C15.42 188.6 19.33 184 24.53 182.94" stroke="black" stroke-width="6.4369" stroke-miterlimit="10" stroke-linecap="round" stroke-linejoin="round"/>
<path d="M41 117.51C39.55 115.6 38.69 113.21 38.69 110.63C38.69 104.33 43.8 99.22 50.1 99.22C56.4 99.22 61.51 104.33 61.51 110.63C61.51 115.72 58.18 120.02 53.58 121.5" stroke="black" stroke-width="6.4369" stroke-miterlimit="10" stroke-linecap="round" stroke-linejoin="round"/>
<path d="M110.43 60.93C104.13 60.93 99.02 55.82 99.02 49.52C99.02 43.22 104.13 38.11 110.43 38.11C116.73 38.11 121.84 43.22 121.84 49.52C121.84 50.24 121.77 50.95 121.65 51.63" stroke="black" stroke-width="6.4369" stroke-miterlimit="10" stroke-linecap="round" stroke-linejoin="round"/>
<path d="M193.74 15.75C200.04 15.75 205.15 20.86 205.15 27.16C205.15 33.46 200.04 38.57 193.74 38.57C187.44 38.57 182.33 33.46 182.33 27.16C182.33 25.91 182.53 24.7 182.91 23.57" stroke="black" stroke-width="6.4369" stroke-miterlimit="10" stroke-linecap="round" stroke-linejoin="round"/>
<path d="M265.88 49.52C265.88 43.22 270.99 38.11 277.29 38.11C283.59 38.11 288.7 43.22 288.7 49.52C288.7 55.82 283.59 60.93 277.29 60.93C276.18 60.93 275.11 60.77 274.09 60.48" stroke="black" stroke-width="6.4369" stroke-miterlimit="10" stroke-linecap="round" stroke-linejoin="round"/>
<path d="M338.43 99.4C344.73 99.4 349.84 104.51 349.84 110.81C349.84 117.11 344.73 122.22 338.43 122.22C332.13 122.22 327.02 117.11 327.02 110.81C327.02 109.79 327.15 108.81 327.4 107.87" stroke="black" stroke-width="6.4369" stroke-miterlimit="10" stroke-linecap="round" stroke-linejoin="round"/>
<path d="M363.34 204.7C362.5 204.9 361.63 205 360.73 205C354.43 205 349.32 199.89 349.32 193.59C349.32 187.29 354.43 182.18 360.73 182.18C367.03 182.18 372.14 187.29 372.14 193.59" stroke="black" stroke-width="6.4369" stroke-miterlimit="10" stroke-linecap="round" stroke-linejoin="round"/>
<path d="M246.61 253.02L340.96 206.36" stroke="black" stroke-width="6.4369" stroke-miterlimit="10" stroke-linecap="round" stroke-linejoin="round"/>
<path d="M240.87 224.59L323.72 128.64" stroke="black" stroke-width="6.4369" stroke-miterlimit="10" stroke-linecap="round" stroke-linejoin="round"/>
<path d="M221.33 203.91L269.86 71.53" stroke="black" stroke-width="6.4369" stroke-miterlimit="10" stroke-linecap="round" stroke-linejoin="round"/>
<path d="M141.18 253.01L46.83 206.35" stroke="black" stroke-width="6.4369" stroke-miterlimit="10" stroke-linecap="round" stroke-linejoin="round"/>
<path d="M146.92 224.58L64.07 128.63" stroke="black" stroke-width="6.4369" stroke-miterlimit="10" stroke-linecap="round" stroke-linejoin="round"/>
<path d="M166.46 203.9L117.93 71.52" stroke="black" stroke-width="6.4369" stroke-miterlimit="10" stroke-linecap="round" stroke-linejoin="round"/>
<path d="M193.56 101.52V72.53" stroke="black" stroke-width="4.023" stroke-miterlimit="10" stroke-linecap="round" stroke-linejoin="round"/>
<path d="M168.58 82.18V90.59L179 99.86V110.55" stroke="black" stroke-width="4.023" stroke-miterlimit="10" stroke-linecap="round" stroke-linejoin="round"/>
<path d="M179.87 74.7V87.2L186.3 92.62V105.81" stroke="black" stroke-width="4.023" stroke-miterlimit="10" stroke-linecap="round" stroke-linejoin="round"/>
<path d="M168.58 82.19C171.248 82.19 173.41 80.0275 173.41 77.36C173.41 74.6925 171.248 72.53 168.58 72.53C165.912 72.53 163.75 74.6925 163.75 77.36C163.75 80.0275 165.912 82.19 168.58 82.19Z" fill="black"/>
<path d="M180.05 74.7C182.718 74.7 184.88 72.5375 184.88 69.87C184.88 67.2025 182.718 65.04 180.05 65.04C177.382 65.04 175.22 67.2025 175.22 69.87C175.22 72.5375 177.382 74.7 180.05 74.7Z" fill="black"/>
<path d="M193.79 72.53C196.458 72.53 198.62 70.3675 198.62 67.7C198.62 65.0325 196.458 62.87 193.79 62.87C191.122 62.87 188.96 65.0325 188.96 67.7C188.96 70.3675 191.122 72.53 193.79 72.53Z" fill="black"/>
<path d="M218.99 82.19C221.658 82.19 223.82 80.0275 223.82 77.36C223.82 74.6925 221.658 72.53 218.99 72.53C216.322 72.53 214.16 74.6925 214.16 77.36C214.16 80.0275 216.322 82.19 218.99 82.19Z" fill="black"/>
<path d="M207.52 74.7C210.188 74.7 212.35 72.5375 212.35 69.87C212.35 67.2025 210.188 65.04 207.52 65.04C204.852 65.04 202.69 67.2025 202.69 69.87C202.69 72.5375 204.852 74.7 207.52 74.7Z" fill="black"/>
<path d="M134.75 253.51C134.75 249.4 138.08 246.07 142.19 246.07C146.3 246.07 149.63 249.4 149.63 253.51C149.63 257.62 146.3 260.95 142.19 260.95C138.08 260.96 134.75 257.63 134.75 253.51Z" fill="black"/>
<path d="M145.52 230.4C149.629 230.4 152.96 227.069 152.96 222.96C152.96 218.851 149.629 215.52 145.52 215.52C141.411 215.52 138.08 218.851 138.08 222.96C138.08 227.069 141.411 230.4 145.52 230.4Z" fill="black"/>
<path d="M165.74 209.38C169.849 209.38 173.18 206.049 173.18 201.94C173.18 197.831 169.849 194.5 165.74 194.5C161.631 194.5 158.3 197.831 158.3 201.94C158.3 206.049 161.631 209.38 165.74 209.38Z" fill="black"/>
<path d="M246.01 260.95C250.119 260.95 253.45 257.619 253.45 253.51C253.45 249.401 250.119 246.07 246.01 246.07C241.901 246.07 238.57 249.401 238.57 253.51C238.57 257.619 241.901 260.95 246.01 260.95Z" fill="black"/>
<path d="M242.68 230.4C246.789 230.4 250.12 227.069 250.12 222.96C250.12 218.851 246.789 215.52 242.68 215.52C238.571 215.52 235.24 218.851 235.24 222.96C235.24 227.069 238.571 230.4 242.68 230.4Z" fill="black"/>
<path d="M222.47 209.38C226.579 209.38 229.91 206.049 229.91 201.94C229.91 197.831 226.579 194.5 222.47 194.5C218.361 194.5 215.03 197.831 215.03 201.94C215.03 206.049 218.361 209.38 222.47 209.38Z" fill="black"/>
<path d="M801.3 163.44V146.9H796V163.45C791.8 164.62 788.71 168.46 788.71 173.03C788.71 178.51 793.17 182.98 798.66 182.98C804.14 182.98 808.6 178.52 808.6 173.03C808.6 168.46 805.5 164.61 801.3 163.44ZM798.65 177.66C796.09 177.66 794.01 175.58 794.01 173.02C794.01 170.46 796.09 168.38 798.65 168.38C801.21 168.38 803.29 170.46 803.29 173.02C803.29 175.58 801.21 177.66 798.65 177.66Z" fill="black"/>
<path d="M443.85 127H456.96V182.56C456.96 190.38 458.93 196.02 462.86 199.47C466.79 202.92 471.91 204.65 478.22 204.65C484.52 204.65 489.63 202.92 493.54 199.47C497.45 196.02 499.41 190.38 499.41 182.56V127H512.53V182.56C512.53 189.92 511.15 196.15 508.39 201.23C505.63 206.32 501.68 210.17 496.55 212.79C491.42 215.41 485.31 216.72 478.22 216.72C471.18 216.72 465.08 215.41 459.93 212.79C454.78 210.17 450.81 206.31 448.02 201.23C445.24 196.15 443.84 189.92 443.84 182.56V127H443.85Z" fill="black"/>
<path d="M534.83 214.93V148.53H546.22L547.95 162.89V214.93H534.83ZM581.35 214.93V176C581.35 170.25 579.98 165.89 577.24 162.92C574.5 159.95 570.81 158.47 566.16 158.47C562.48 158.47 559.27 159.47 556.53 161.47C553.79 163.47 551.67 166.39 550.18 170.24C548.68 174.08 547.94 178.76 547.94 184.29H543.25C543.25 176.15 544.3 169.29 546.39 163.72C548.48 158.15 551.49 153.93 555.4 151.05C559.31 148.17 564.01 146.74 569.48 146.74C574.82 146.74 579.34 147.94 583.04 150.33C586.74 152.72 589.56 156.12 591.49 160.51C593.42 164.91 594.39 170.07 594.39 176.01V214.94H581.35V214.93Z" fill="black"/>
<path d="M641.27 216.73C635.24 216.73 629.85 215.42 625.08 212.8C620.32 210.18 616.56 206.27 613.79 201.07C611.03 195.87 609.65 189.45 609.65 181.81C609.65 174.03 611.03 167.56 613.79 162.38C616.55 157.2 620.31 153.3 625.08 150.68C629.84 148.06 635.24 146.75 641.27 146.75C647.21 146.75 652.54 148.06 657.28 150.68C662.02 153.3 665.76 157.2 668.5 162.38C671.24 167.56 672.61 174.03 672.61 181.81C672.61 189.45 671.24 195.87 668.5 201.07C665.76 206.27 662.02 210.18 657.28 212.8C652.54 215.42 647.2 216.73 641.27 216.73ZM640.85 205.27C644.67 205.27 647.97 204.35 650.76 202.51C653.54 200.67 655.68 197.99 657.18 194.47C658.67 190.95 659.42 186.73 659.42 181.8C659.42 174.25 657.89 168.41 654.83 164.27C651.77 160.13 647.36 158.06 641.61 158.06C637.74 158.06 634.42 158.99 631.64 160.86C628.85 162.72 626.71 165.42 625.22 168.94C623.72 172.46 622.98 176.75 622.98 181.81C622.98 189.22 624.52 194.98 627.6 199.1C630.68 203.21 635.1 205.27 640.85 205.27Z" fill="black"/>
<path d="M722.17 216.73C716.19 216.73 710.69 215.66 705.67 213.52C700.65 211.38 696.62 208.19 693.56 203.96C690.5 199.73 688.9 194.43 688.76 188.08H701.6C701.6 191.9 702.53 195.03 704.39 197.47C706.25 199.91 708.73 201.71 711.81 202.89C714.89 204.06 718.3 204.65 722.03 204.65C725.8 204.65 729.14 204.08 732.04 202.92C734.94 201.77 737.18 200.23 738.77 198.3C740.36 196.37 741.15 194.16 741.15 191.67C741.15 188.31 740.11 185.61 738.04 183.56C735.97 181.51 732.82 179.77 728.58 178.35L712.22 172.28C705.18 169.66 699.82 166.63 696.14 163.2C692.46 159.77 690.62 155 690.62 148.88C690.62 141.93 693.33 136.28 698.76 131.93C704.19 127.58 711.83 125.41 721.68 125.41C731.02 125.41 738.28 127.57 743.46 131.9C748.64 136.23 751.59 142.11 752.33 149.57H739.42C738.77 145.8 737.01 142.81 734.14 140.6C731.26 138.39 727.11 137.29 721.68 137.29C716.43 137.29 712.34 138.43 709.39 140.71C706.44 142.99 704.97 145.85 704.97 149.3C704.97 152.15 705.9 154.43 707.77 156.13C709.64 157.83 712.54 159.37 716.5 160.75L735.14 167.58C741.54 169.84 746.53 172.87 750.12 176.69C753.71 180.51 755.5 185.36 755.5 191.25C755.5 196.22 754.21 200.61 751.63 204.43C749.05 208.25 745.28 211.25 740.31 213.44C735.35 215.64 729.3 216.73 722.17 216.73Z" fill="black"/>
<path d="M798.72 216.73C792.69 216.73 787.3 215.42 782.53 212.8C777.77 210.18 774.01 206.27 771.24 201.07C768.48 195.87 767.1 189.45 767.1 181.81C767.1 174.03 768.48 167.56 771.24 162.38C774 157.2 777.76 153.3 782.53 150.68C787.3 148.06 792.69 146.75 798.72 146.75C804.66 146.75 809.99 148.06 814.73 150.68C819.47 153.3 823.21 157.2 825.95 162.38C828.69 167.56 830.06 174.03 830.06 181.81C830.06 189.45 828.69 195.87 825.95 201.07C823.21 206.27 819.47 210.18 814.73 212.8C809.99 215.42 804.65 216.73 798.72 216.73ZM798.3 205.27C802.12 205.27 805.42 204.35 808.21 202.51C810.99 200.67 813.13 197.99 814.63 194.47C816.12 190.95 816.87 186.73 816.87 181.8C816.87 174.25 815.34 168.41 812.28 164.27C809.22 160.13 804.81 158.06 799.06 158.06C795.19 158.06 791.87 158.99 789.09 160.86C786.3 162.72 784.16 165.42 782.67 168.94C781.17 172.46 780.43 176.75 780.43 181.81C780.43 189.22 781.97 194.98 785.05 199.1C788.13 203.21 792.55 205.27 798.3 205.27Z" fill="black"/>
<path d="M837.59 157.44V148.54H874.24V157.44H837.59ZM848.01 214.93V139.21C848.01 134.61 848.9 130.87 850.67 127.99C852.44 125.11 854.8 122.99 857.74 121.61C860.68 120.23 863.93 119.54 867.47 119.54C869.49 119.54 871.58 119.68 873.72 119.95C875.86 120.23 877.96 120.64 880.04 121.19L877.56 131.41C876.27 130.95 874.97 130.58 873.66 130.31C872.35 130.04 871.09 129.9 869.9 129.9C868.47 129.9 867.09 130.17 865.76 130.69C864.43 131.22 863.33 132.17 862.48 133.56C861.63 134.94 861.2 136.9 861.2 139.43V214.94H848.01V214.93Z" fill="black"/>
<path d="M884.11 157.44V148.54H926.97V157.44H884.11ZM914.34 216.73C910.57 216.73 907.16 216.02 904.12 214.59C901.08 213.16 898.68 211.01 896.91 208.14C895.14 205.26 894.25 201.64 894.25 197.27V130.45H907.29V196.85C907.29 203.11 910.21 206.24 916.06 206.24C917.85 206.24 919.6 206.04 921.31 205.65C923.01 205.26 924.94 204.67 927.11 203.89L928.97 213.21C926.53 214.22 924.13 215.06 921.76 215.73C919.39 216.4 916.92 216.73 914.34 216.73Z" fill="black"/>
<path d="M697.9 229.85C699.61 229.85 700.9 230.27 701.78 231.1C702.66 231.94 703.1 233.15 703.1 234.75C703.1 235.59 702.9 236.34 702.5 237.02C702.1 237.7 701.52 238.23 700.75 238.62C699.98 239.01 699.02 239.21 697.87 239.23L697.93 238.2C698.54 238.2 699.21 238.28 699.92 238.45C700.63 238.62 701.31 238.91 701.94 239.31C702.57 239.72 703.09 240.27 703.5 240.97C703.91 241.67 704.11 242.53 704.11 243.57C704.11 244.7 703.92 245.64 703.55 246.4C703.18 247.15 702.69 247.74 702.07 248.17C701.46 248.6 700.78 248.9 700.05 249.07C699.32 249.25 698.6 249.33 697.89 249.33H690.76C690.37 249.33 690.04 249.2 689.76 248.93C689.48 248.66 689.34 248.32 689.34 247.91V231.26C689.34 230.85 689.48 230.51 689.76 230.24C690.04 229.97 690.37 229.84 690.76 229.84H697.9V229.85ZM697.51 232.58H692.02L692.35 232.13V238.12L692.04 237.81H697.55C698.22 237.79 698.81 237.56 699.32 237.13C699.83 236.69 700.09 236.05 700.09 235.19C700.09 234.32 699.86 233.66 699.39 233.23C698.94 232.8 698.3 232.58 697.51 232.58ZM697.7 240.55H692.16L692.35 240.35V246.92L692.13 246.67H697.87C698.84 246.67 699.61 246.41 700.21 245.9C700.8 245.39 701.1 244.61 701.1 243.57C701.1 242.7 700.92 242.05 700.57 241.62C700.22 241.19 699.78 240.91 699.26 240.76C698.74 240.62 698.22 240.55 697.7 240.55Z" fill="black"/>
<path d="M708.45 232.75C707.91 232.75 707.52 232.65 707.28 232.46C707.04 232.27 706.92 231.94 706.92 231.47V231.02C706.92 230.56 707.05 230.23 707.31 230.05C707.57 229.86 707.96 229.77 708.48 229.77C709.04 229.77 709.44 229.87 709.68 230.06C709.92 230.25 710.04 230.57 710.04 231.02V231.47C710.04 231.95 709.91 232.29 709.66 232.47C709.41 232.66 709.01 232.75 708.45 232.75ZM709.87 247.93C709.87 248.34 709.74 248.68 709.48 248.95C709.22 249.22 708.89 249.35 708.48 249.35C708.09 249.35 707.76 249.22 707.49 248.95C707.22 248.68 707.09 248.34 707.09 247.93V236.01C707.09 235.6 707.22 235.26 707.49 234.99C707.76 234.72 708.09 234.59 708.48 234.59C708.89 234.59 709.22 234.72 709.48 234.99C709.74 235.26 709.87 235.6 709.87 236.01V247.93Z" fill="black"/>
<path d="M719.73 234.36C720.53 234.36 721.26 234.49 721.93 234.75C722.6 235.01 723.18 235.34 723.67 235.74C724.16 236.14 724.55 236.55 724.83 236.98C725.11 237.41 725.25 237.78 725.25 238.09L724.61 238.12V235.89C724.61 235.5 724.74 235.17 725 234.89C725.26 234.61 725.59 234.47 726 234.47C726.41 234.47 726.74 234.6 727 234.87C727.26 235.14 727.39 235.48 727.39 235.89V248.17C727.39 249.75 727.06 251.03 726.39 252.03C725.72 253.02 724.83 253.75 723.73 254.22C722.63 254.68 721.41 254.92 720.1 254.92C719.64 254.92 719.09 254.86 718.46 254.74C717.83 254.62 717.25 254.48 716.72 254.31C716.19 254.14 715.82 253.98 715.62 253.81C715.19 253.59 714.91 253.33 714.77 253.03C714.63 252.73 714.63 252.44 714.76 252.14C714.94 251.73 715.2 251.48 715.51 251.39C715.83 251.3 716.19 251.32 716.6 251.47C716.79 251.53 717.07 251.63 717.46 251.78C717.85 251.93 718.29 252.06 718.77 252.18C719.25 252.3 719.71 252.36 720.13 252.36C721.61 252.36 722.73 252.02 723.49 251.33C724.24 250.64 724.62 249.7 724.62 248.52V246L724.93 246.2C724.87 246.59 724.7 246.98 724.41 247.38C724.12 247.78 723.75 248.15 723.28 248.48C722.82 248.81 722.28 249.09 721.68 249.3C721.08 249.51 720.46 249.62 719.83 249.62C718.51 249.62 717.33 249.29 716.29 248.63C715.25 247.97 714.42 247.07 713.81 245.93C713.2 244.79 712.89 243.47 712.89 241.99C712.89 240.51 713.2 239.19 713.81 238.05C714.42 236.91 715.24 236.01 716.27 235.35C717.29 234.69 718.45 234.36 719.73 234.36ZM720.15 236.93C719.24 236.93 718.44 237.15 717.75 237.6C717.06 238.05 716.52 238.65 716.14 239.41C715.75 240.17 715.55 241.04 715.55 242C715.55 242.97 715.74 243.83 716.14 244.59C716.53 245.35 717.07 245.95 717.75 246.4C718.44 246.85 719.24 247.07 720.15 247.07C721.06 247.07 721.86 246.85 722.54 246.42C723.23 245.98 723.77 245.38 724.16 244.61C724.55 243.84 724.74 242.97 724.74 242.01C724.74 241.04 724.55 240.18 724.16 239.41C723.77 238.64 723.23 238.04 722.54 237.6C721.86 237.14 721.06 236.93 720.15 236.93Z" fill="black"/>
<path d="M747.52 229.85C748.88 229.85 750.07 230.11 751.11 230.62C752.15 231.13 753.02 231.84 753.71 232.74C754.41 233.64 754.93 234.68 755.28 235.86C755.63 237.04 755.81 238.29 755.81 239.61C755.81 241.41 755.49 243.05 754.86 244.53C754.23 246.01 753.3 247.18 752.08 248.05C750.85 248.92 749.33 249.36 747.51 249.36H740.71C740.32 249.36 739.99 249.23 739.71 248.96C739.43 248.69 739.29 248.35 739.29 247.94V231.29C739.29 230.88 739.43 230.54 739.71 230.27C739.99 230 740.32 229.87 740.71 229.87H747.52V229.85ZM747.24 246.67C748.56 246.67 749.63 246.35 750.44 245.7C751.26 245.05 751.86 244.19 752.24 243.12C752.62 242.05 752.81 240.88 752.81 239.6C752.81 238.65 752.7 237.76 752.49 236.91C752.28 236.07 751.94 235.31 751.49 234.65C751.03 233.99 750.46 233.47 749.76 233.09C749.06 232.71 748.22 232.52 747.24 232.52H741.98L742.23 232.27V246.95L742.06 246.67H747.24Z" fill="black"/>
<path d="M770.94 234.48C771.35 234.48 771.68 234.61 771.94 234.88C772.2 235.15 772.33 235.49 772.33 235.9V247.93C772.33 248.34 772.2 248.68 771.94 248.95C771.68 249.22 771.35 249.35 770.94 249.35C770.55 249.35 770.22 249.22 769.95 248.95C769.68 248.68 769.55 248.34 769.55 247.93V245.92L770.14 246C770.14 246.33 770 246.71 769.74 247.11C769.47 247.52 769.1 247.91 768.64 248.29C768.18 248.67 767.63 248.99 767 249.24C766.37 249.49 765.69 249.62 764.97 249.62C763.69 249.62 762.54 249.29 761.52 248.63C760.5 247.97 759.69 247.07 759.1 245.91C758.51 244.76 758.21 243.45 758.21 241.98C758.21 240.48 758.51 239.15 759.1 238.01C759.69 236.87 760.5 235.97 761.51 235.32C762.52 234.67 763.65 234.35 764.89 234.35C765.69 234.35 766.43 234.48 767.1 234.74C767.78 235 768.37 235.33 768.87 235.74C769.37 236.15 769.76 236.58 770.03 237.04C770.3 237.5 770.43 237.93 770.43 238.33L769.57 238.41V235.88C769.57 235.49 769.7 235.16 769.97 234.88C770.22 234.61 770.55 234.48 770.94 234.48ZM765.26 247.06C766.13 247.06 766.9 246.84 767.57 246.39C768.24 245.94 768.76 245.34 769.13 244.57C769.5 243.8 769.69 242.94 769.69 241.99C769.69 241.02 769.5 240.16 769.13 239.4C768.76 238.64 768.24 238.04 767.57 237.59C766.9 237.14 766.13 236.92 765.26 236.92C764.41 236.92 763.65 237.14 762.99 237.59C762.33 238.04 761.81 238.64 761.43 239.4C761.05 240.16 760.86 241.03 760.86 241.99C760.86 242.94 761.05 243.8 761.43 244.57C761.81 245.34 762.33 245.95 762.99 246.39C763.65 246.84 764.41 247.06 765.26 247.06Z" fill="black"/>
<path d="M776.04 234.87H782.58C782.95 234.87 783.26 235 783.51 235.25C783.76 235.5 783.89 235.81 783.89 236.18C783.89 236.53 783.76 236.83 783.51 237.07C783.26 237.31 782.95 237.43 782.58 237.43H776.04C775.67 237.43 775.36 237.3 775.11 237.05C774.86 236.8 774.73 236.5 774.73 236.14C774.73 235.77 774.86 235.46 775.11 235.22C775.36 234.99 775.67 234.87 776.04 234.87ZM778.96 231.24C779.37 231.24 779.7 231.37 779.96 231.64C780.22 231.91 780.35 232.25 780.35 232.66V245.58C780.35 245.91 780.41 246.18 780.52 246.39C780.63 246.59 780.78 246.73 780.98 246.81C781.18 246.88 781.37 246.92 781.58 246.92C781.79 246.92 781.96 246.88 782.12 246.81C782.28 246.74 782.47 246.7 782.69 246.7C782.91 246.7 783.12 246.8 783.3 247.01C783.49 247.21 783.58 247.49 783.58 247.85C783.58 248.3 783.34 248.66 782.86 248.94C782.38 249.22 781.86 249.36 781.3 249.36C780.98 249.36 780.61 249.33 780.19 249.28C779.76 249.22 779.35 249.08 778.95 248.86C778.55 248.64 778.22 248.28 777.96 247.79C777.7 247.3 777.57 246.61 777.57 245.72V232.69C777.57 232.28 777.7 231.94 777.97 231.67C778.24 231.38 778.57 231.24 778.96 231.24Z" fill="black"/>
<path d="M798.99 234.48C799.4 234.48 799.73 234.61 799.99 234.88C800.25 235.15 800.38 235.49 800.38 235.9V247.93C800.38 248.34 800.25 248.68 799.99 248.95C799.73 249.22 799.4 249.35 798.99 249.35C798.6 249.35 798.27 249.22 798 248.95C797.73 248.68 797.6 248.34 797.6 247.93V245.92L798.19 246C798.19 246.33 798.06 246.71 797.79 247.11C797.52 247.52 797.15 247.91 796.69 248.29C796.23 248.67 795.68 248.99 795.05 249.24C794.42 249.49 793.74 249.62 793.02 249.62C791.74 249.62 790.59 249.29 789.57 248.63C788.55 247.97 787.74 247.07 787.15 245.91C786.56 244.76 786.26 243.45 786.26 241.98C786.26 240.48 786.56 239.15 787.15 238.01C787.74 236.87 788.55 235.97 789.56 235.32C790.57 234.67 791.7 234.35 792.94 234.35C793.74 234.35 794.48 234.48 795.15 234.74C795.83 235 796.42 235.33 796.92 235.74C797.42 236.15 797.81 236.58 798.08 237.04C798.35 237.5 798.48 237.93 798.48 238.33L797.62 238.41V235.88C797.62 235.49 797.75 235.16 798.02 234.88C798.27 234.61 798.6 234.48 798.99 234.48ZM793.31 247.06C794.18 247.06 794.95 246.84 795.62 246.39C796.29 245.94 796.81 245.34 797.18 244.57C797.55 243.8 797.74 242.94 797.74 241.99C797.74 241.02 797.55 240.16 797.18 239.4C796.81 238.64 796.29 238.04 795.62 237.59C794.95 237.14 794.18 236.92 793.31 236.92C792.46 236.92 791.7 237.14 791.04 237.59C790.38 238.04 789.86 238.64 789.48 239.4C789.1 240.16 788.91 241.03 788.91 241.99C788.91 242.94 789.1 243.8 789.48 244.57C789.86 245.34 790.38 245.95 791.04 246.39C791.7 246.84 792.45 247.06 793.31 247.06Z" fill="black"/>
<path d="M824.02 234.48C824.43 234.48 824.76 234.61 825.02 234.88C825.28 235.15 825.41 235.49 825.41 235.9V247.93C825.41 248.34 825.28 248.68 825.02 248.95C824.76 249.22 824.43 249.35 824.02 249.35C823.63 249.35 823.3 249.22 823.03 248.95C822.76 248.68 822.63 248.34 822.63 247.93V245.92L823.22 246C823.22 246.33 823.08 246.71 822.82 247.11C822.55 247.52 822.18 247.91 821.72 248.29C821.26 248.67 820.71 248.99 820.08 249.24C819.45 249.49 818.77 249.62 818.05 249.62C816.77 249.62 815.62 249.29 814.6 248.63C813.58 247.97 812.77 247.07 812.18 245.91C811.59 244.76 811.29 243.45 811.29 241.98C811.29 240.48 811.59 239.15 812.18 238.01C812.77 236.87 813.58 235.97 814.59 235.32C815.6 234.67 816.73 234.35 817.97 234.35C818.77 234.35 819.51 234.48 820.18 234.74C820.86 235 821.45 235.33 821.95 235.74C822.45 236.15 822.84 236.58 823.11 237.04C823.38 237.5 823.51 237.93 823.51 238.33L822.65 238.41V235.88C822.65 235.49 822.78 235.16 823.05 234.88C823.3 234.61 823.63 234.48 824.02 234.48ZM818.34 247.06C819.21 247.06 819.98 246.84 820.65 246.39C821.32 245.94 821.84 245.34 822.21 244.57C822.58 243.8 822.77 242.94 822.77 241.99C822.77 241.02 822.58 240.16 822.21 239.4C821.84 238.64 821.32 238.04 820.65 237.59C819.98 237.14 819.21 236.92 818.34 236.92C817.49 236.92 816.73 237.14 816.07 237.59C815.41 238.04 814.89 238.64 814.51 239.4C814.13 240.16 813.94 241.03 813.94 241.99C813.94 242.94 814.13 243.8 814.51 244.57C814.89 245.34 815.41 245.95 816.07 246.39C816.73 246.84 817.49 247.06 818.34 247.06Z" fill="black"/>
<path d="M836.86 234.36C838.18 234.36 839.2 234.63 839.92 235.18C840.64 235.73 841.15 236.46 841.44 237.38C841.73 238.3 841.87 239.32 841.87 240.46V247.92C841.87 248.33 841.74 248.67 841.47 248.94C841.2 249.21 840.87 249.34 840.48 249.34C840.07 249.34 839.74 249.21 839.48 248.94C839.22 248.67 839.09 248.33 839.09 247.92V240.48C839.09 239.81 839 239.21 838.81 238.68C838.62 238.15 838.3 237.72 837.85 237.4C837.39 237.08 836.76 236.91 835.94 236.91C835.18 236.91 834.51 237.07 833.93 237.4C833.35 237.73 832.9 238.15 832.58 238.68C832.25 239.21 832.09 239.81 832.09 240.48V247.92C832.09 248.33 831.96 248.67 831.69 248.94C831.42 249.21 831.09 249.34 830.7 249.34C830.29 249.34 829.96 249.21 829.7 248.94C829.44 248.67 829.31 248.33 829.31 247.92V236.11C829.31 235.7 829.44 235.36 829.7 235.09C829.96 234.82 830.29 234.69 830.7 234.69C831.09 234.69 831.42 234.82 831.69 235.09C831.96 235.36 832.09 235.7 832.09 236.11V237.67L831.59 237.95C831.72 237.54 831.95 237.13 832.27 236.71C832.59 236.29 832.99 235.9 833.45 235.54C833.91 235.18 834.43 234.89 835.01 234.68C835.6 234.47 836.21 234.36 836.86 234.36Z" fill="black"/>
<path d="M857.75 234.48C858.16 234.48 858.49 234.61 858.75 234.88C859.01 235.15 859.14 235.49 859.14 235.9V247.93C859.14 248.34 859.01 248.68 858.75 248.95C858.49 249.22 858.16 249.35 857.75 249.35C857.36 249.35 857.03 249.22 856.76 248.95C856.49 248.68 856.36 248.34 856.36 247.93V245.92L856.95 246C856.95 246.33 856.81 246.71 856.55 247.11C856.28 247.52 855.91 247.91 855.45 248.29C854.99 248.67 854.44 248.99 853.81 249.24C853.18 249.49 852.5 249.62 851.78 249.62C850.5 249.62 849.35 249.29 848.33 248.63C847.31 247.97 846.5 247.07 845.91 245.91C845.32 244.76 845.02 243.45 845.02 241.98C845.02 240.48 845.32 239.15 845.91 238.01C846.5 236.87 847.31 235.97 848.32 235.32C849.33 234.67 850.46 234.35 851.7 234.35C852.5 234.35 853.24 234.48 853.91 234.74C854.59 235 855.18 235.33 855.68 235.74C856.18 236.15 856.57 236.58 856.84 237.04C857.11 237.5 857.24 237.93 857.24 238.33L856.38 238.41V235.88C856.38 235.49 856.51 235.16 856.78 234.88C857.03 234.61 857.36 234.48 857.75 234.48ZM852.07 247.06C852.94 247.06 853.71 246.84 854.38 246.39C855.05 245.94 855.57 245.34 855.94 244.57C856.31 243.8 856.5 242.94 856.5 241.99C856.5 241.02 856.31 240.16 855.94 239.4C855.57 238.64 855.05 238.04 854.38 237.59C853.71 237.14 852.94 236.92 852.07 236.92C851.22 236.92 850.46 237.14 849.8 237.59C849.14 238.04 848.62 238.64 848.24 239.4C847.86 240.16 847.67 241.03 847.67 241.99C847.67 242.94 847.86 243.8 848.24 244.57C848.62 245.34 849.14 245.95 849.8 246.39C850.46 246.84 851.21 247.06 852.07 247.06Z" fill="black"/>
<path d="M866.05 247.93C866.05 248.34 865.92 248.68 865.65 248.95C865.38 249.22 865.05 249.35 864.66 249.35C864.27 249.35 863.94 249.22 863.67 248.95C863.4 248.68 863.27 248.34 863.27 247.93V230.16C863.27 229.75 863.41 229.41 863.69 229.14C863.97 228.87 864.3 228.74 864.69 228.74C865.1 228.74 865.43 228.87 865.68 229.14C865.93 229.41 866.06 229.75 866.06 230.16V247.93H866.05Z" fill="black"/>
<path d="M880.67 234.59C881.08 234.59 881.41 234.72 881.67 234.99C881.93 235.26 882.06 235.6 882.06 236.01V247.99C882.06 249.62 881.75 250.95 881.13 251.97C880.51 252.99 879.67 253.74 878.62 254.21C877.57 254.68 876.39 254.92 875.07 254.92C874.4 254.92 873.73 254.86 873.06 254.74C872.39 254.62 871.84 254.45 871.42 254.23C870.97 254.03 870.66 253.77 870.47 253.48C870.28 253.18 870.26 252.86 870.39 252.51C870.52 252.06 870.74 251.76 871.06 251.6C871.38 251.44 871.7 251.43 872.03 251.56C872.35 251.69 872.76 251.86 873.28 252.06C873.8 252.26 874.39 252.37 875.06 252.37C875.97 252.37 876.74 252.22 877.37 251.92C878 251.62 878.48 251.16 878.8 250.53C879.13 249.9 879.29 249.08 879.29 248.08V246.16L879.74 246.83C879.44 247.44 879.05 247.95 878.57 248.36C878.09 248.77 877.52 249.08 876.86 249.31C876.2 249.53 875.47 249.64 874.67 249.64C873.65 249.64 872.77 249.41 872.04 248.96C871.31 248.5 870.74 247.87 870.36 247.07C869.97 246.26 869.77 245.34 869.77 244.3V236.03C869.77 235.62 869.9 235.28 870.16 235.01C870.42 234.74 870.75 234.61 871.16 234.61C871.55 234.61 871.88 234.74 872.15 235.01C872.42 235.28 872.55 235.62 872.55 236.03V243.55C872.55 244.78 872.82 245.67 873.36 246.24C873.9 246.81 874.7 247.09 875.76 247.09C876.47 247.09 877.08 246.94 877.6 246.64C878.12 246.34 878.53 245.93 878.83 245.4C879.13 244.87 879.28 244.25 879.28 243.55V236.03C879.28 235.62 879.41 235.28 879.68 235.01C879.95 234.72 880.28 234.59 880.67 234.59Z" fill="black"/>
<path d="M885.76 234.87H892.3C892.67 234.87 892.98 235 893.23 235.25C893.48 235.5 893.61 235.81 893.61 236.18C893.61 236.53 893.48 236.83 893.23 237.07C892.98 237.31 892.67 237.43 892.3 237.43H885.76C885.39 237.43 885.08 237.3 884.83 237.05C884.58 236.8 884.45 236.5 884.45 236.14C884.45 235.77 884.57 235.46 884.83 235.22C885.08 234.99 885.39 234.87 885.76 234.87ZM888.69 231.24C889.1 231.24 889.43 231.37 889.69 231.64C889.95 231.91 890.08 232.25 890.08 232.66V245.58C890.08 245.91 890.14 246.18 890.25 246.39C890.36 246.6 890.51 246.73 890.71 246.81C890.91 246.88 891.1 246.92 891.31 246.92C891.51 246.92 891.69 246.88 891.85 246.81C892.01 246.74 892.2 246.7 892.42 246.7C892.64 246.7 892.85 246.8 893.03 247.01C893.21 247.21 893.31 247.49 893.31 247.85C893.31 248.3 893.07 248.66 892.59 248.94C892.11 249.22 891.59 249.36 891.03 249.36C890.71 249.36 890.34 249.33 889.92 249.28C889.49 249.22 889.08 249.08 888.68 248.86C888.28 248.64 887.95 248.28 887.69 247.79C887.43 247.3 887.3 246.61 887.3 245.72V232.69C887.3 232.28 887.43 231.94 887.7 231.67C887.97 231.38 888.3 231.24 888.69 231.24Z" fill="black"/>
<path d="M897.91 232.75C897.37 232.75 896.98 232.65 896.74 232.46C896.5 232.27 896.38 231.94 896.38 231.47V231.02C896.38 230.56 896.51 230.23 896.77 230.05C897.03 229.86 897.42 229.77 897.94 229.77C898.5 229.77 898.9 229.87 899.14 230.06C899.38 230.25 899.5 230.57 899.5 231.02V231.47C899.5 231.95 899.37 232.29 899.12 232.47C898.87 232.66 898.46 232.75 897.91 232.75ZM899.33 247.93C899.33 248.34 899.2 248.68 898.94 248.95C898.68 249.22 898.35 249.35 897.94 249.35C897.55 249.35 897.22 249.22 896.95 248.95C896.68 248.68 896.55 248.34 896.55 247.93V236.01C896.55 235.6 896.68 235.26 896.95 234.99C897.22 234.72 897.55 234.59 897.94 234.59C898.35 234.59 898.68 234.72 898.94 234.99C899.2 235.26 899.33 235.6 899.33 236.01V247.93Z" fill="black"/>
<path d="M909.57 234.36C910.57 234.36 911.46 234.47 912.24 234.68C913.02 234.89 913.63 235.19 914.06 235.57C914.5 235.95 914.71 236.39 914.71 236.89C914.71 237.21 914.62 237.5 914.43 237.77C914.24 238.04 913.97 238.17 913.59 238.17C913.33 238.17 913.11 238.12 912.94 238.03C912.76 237.94 912.6 237.83 912.45 237.7C912.3 237.57 912.12 237.44 911.89 237.31C911.69 237.2 911.38 237.11 910.98 237.03C910.58 236.95 910.22 236.92 909.91 236.92C908.93 236.92 908.08 237.14 907.36 237.59C906.65 238.04 906.09 238.64 905.69 239.4C905.29 240.16 905.09 241.03 905.09 241.99C905.09 242.96 905.29 243.82 905.69 244.58C906.09 245.34 906.64 245.94 907.33 246.39C908.03 246.84 908.84 247.06 909.77 247.06C910.33 247.06 910.78 247.02 911.13 246.93C911.48 246.85 911.79 246.74 912.05 246.61C912.33 246.44 912.57 246.27 912.76 246.1C912.96 245.92 913.23 245.84 913.58 245.84C913.99 245.84 914.3 245.97 914.51 246.22C914.72 246.47 914.83 246.78 914.83 247.15C914.83 247.56 914.58 247.95 914.09 248.33C913.6 248.71 912.94 249.02 912.13 249.26C911.31 249.5 910.41 249.62 909.43 249.62C907.98 249.62 906.72 249.29 905.66 248.62C904.59 247.95 903.77 247.04 903.18 245.89C902.6 244.74 902.3 243.44 902.3 241.99C902.3 240.52 902.61 239.22 903.22 238.08C903.83 236.94 904.69 236.03 905.78 235.36C906.91 234.7 908.16 234.36 909.57 234.36Z" fill="black"/>
<path d="M916.68 247.06C916.51 246.8 916.44 246.5 916.46 246.16C916.48 245.82 916.67 245.52 917.04 245.28C917.3 245.11 917.57 245.04 917.86 245.07C918.15 245.1 918.42 245.24 918.68 245.5C919.2 246.08 919.78 246.53 920.42 246.86C921.06 247.19 921.84 247.36 922.75 247.36C923.12 247.34 923.5 247.28 923.89 247.18C924.28 247.08 924.61 246.89 924.89 246.62C925.17 246.35 925.31 245.96 925.31 245.44C925.31 244.98 925.16 244.6 924.86 244.33C924.56 244.05 924.17 243.82 923.69 243.65C923.21 243.47 922.69 243.31 922.13 243.16C921.54 242.99 920.94 242.81 920.33 242.6C919.73 242.4 919.18 242.13 918.7 241.81C918.22 241.49 917.82 241.06 917.52 240.54C917.21 240.02 917.06 239.38 917.06 238.62C917.06 237.75 917.31 237 917.8 236.36C918.29 235.73 918.93 235.24 919.72 234.88C920.51 234.53 921.37 234.35 922.3 234.35C922.84 234.35 923.4 234.42 924 234.56C924.59 234.7 925.17 234.92 925.73 235.21C926.29 235.51 926.77 235.9 927.18 236.38C927.37 236.62 927.47 236.91 927.5 237.24C927.53 237.57 927.37 237.87 927.04 238.13C926.82 238.32 926.55 238.4 926.23 238.38C925.91 238.36 925.65 238.26 925.45 238.07C925.1 237.62 924.64 237.28 924.09 237.03C923.53 236.78 922.9 236.65 922.2 236.65C921.85 236.65 921.48 236.7 921.1 236.8C920.72 236.9 920.4 237.08 920.14 237.34C919.88 237.6 919.75 237.98 919.75 238.48C919.75 238.94 919.9 239.32 920.21 239.59C920.52 239.86 920.92 240.1 921.42 240.29C921.92 240.48 922.47 240.64 923.06 240.79C923.64 240.94 924.21 241.11 924.77 241.32C925.33 241.53 925.85 241.79 926.3 242.11C926.75 242.44 927.13 242.85 927.41 243.36C927.7 243.87 927.84 244.52 927.84 245.3C927.84 246.21 927.58 246.98 927.05 247.63C926.52 248.27 925.85 248.76 925.04 249.09C924.23 249.42 923.38 249.59 922.49 249.59C921.43 249.59 920.38 249.4 919.33 249.02C918.29 248.67 917.4 248.01 916.68 247.06Z" fill="black"/>
</svg>
