<svg width="386" height="299" viewBox="0 0 386 299" fill="none" xmlns="http://www.w3.org/2000/svg">
<path fill-rule="evenodd" clip-rule="evenodd" d="M322.5 0.669128H63.5C28.707 0.669128 0.5 28.8761 0.5 63.6691V79.1031C0.496094 79.3024 0.496094 79.5055 0.5 79.7047V235.165C0.5 269.958 28.707 298.165 63.5 298.165H322.5C357.293 298.165 385.5 269.958 385.5 235.165V79.7047C385.504 79.5016 385.504 79.2984 385.5 79.0914V63.6654C385.5 28.8724 357.293 0.665405 322.5 0.665405V0.669128ZM350.5 69.5131V63.6693C350.5 48.2043 337.965 35.6693 322.5 35.6693H63.5C48.035 35.6693 35.5 48.2043 35.5 63.6693V69.5091L193 164.009L350.5 69.5131ZM35.5 110.325V235.165C35.5 250.63 48.035 263.165 63.5 263.165H322.5C337.965 263.165 350.5 250.63 350.5 235.165V110.325L202 199.423C196.457 202.747 189.535 202.747 183.992 199.423L35.5 110.325Z" fill="black"/>
</svg>
