<svg width="439" height="561" viewBox="0 0 439 561" fill="none" xmlns="http://www.w3.org/2000/svg">
<path d="M438.551 215.324C437.879 157.832 414.43 102.944 373.352 62.714C332.274 22.48 276.918 0.17898 219.422 0.69798C161.926 0.17845 106.572 22.479 65.4918 62.714C24.4138 102.948 0.96475 157.831 0.29275 215.324C0.18728 261.668 15.4258 306.742 43.6287 343.514L199.819 550.474C200.604 551.431 201.459 552.326 202.377 553.154L203.717 554.373H204.569V554.369C206.198 555.47 207.955 556.369 209.803 557.048L211.627 557.658C214.03 559.115 216.666 560.142 219.42 560.701C221.694 560.65 223.948 560.283 226.116 559.607L227.94 558.998H227.944C229.788 558.318 231.545 557.419 233.178 556.318H234.03L235.369 555.099C236.287 554.275 237.143 553.38 237.924 552.423L394.114 345.463C423.122 308.303 438.774 262.463 438.548 215.323L438.551 215.324ZM219.421 49.394C264.011 48.8432 307.003 66.003 338.961 97.113C370.914 128.218 389.219 170.734 389.859 215.323C389.902 251.085 378.086 285.846 356.261 314.175L219.421 495.935L82.7107 314.305C60.8197 285.957 48.9568 251.145 48.9918 215.328C49.6324 170.738 67.9367 128.223 99.8897 97.118C131.843 66.009 174.835 48.848 219.43 49.399L219.421 49.394Z" fill="black"/>
<path d="M219.421 300.544C242.023 300.544 263.698 291.567 279.679 275.583C295.659 259.603 304.64 237.927 304.64 215.325C304.64 192.723 295.659 171.052 279.679 155.067C263.699 139.087 242.023 130.11 219.421 130.11C196.819 130.11 175.144 139.087 159.163 155.067C143.183 171.051 134.202 192.723 134.202 215.325C134.202 237.927 143.182 259.602 159.163 275.583C175.143 291.567 196.819 300.544 219.421 300.544ZM219.421 178.804C229.108 178.804 238.398 182.652 245.245 189.499C252.096 196.351 255.944 205.64 255.944 215.323C255.944 225.01 252.096 234.3 245.245 241.147C238.397 247.999 229.108 251.846 219.421 251.846C209.734 251.846 200.444 247.998 193.597 241.147C186.745 234.299 182.898 225.01 182.898 215.323C182.898 205.639 186.745 196.35 193.597 189.499C200.444 182.651 209.734 178.804 219.421 178.804Z" fill="black"/>
</svg>
