<svg width="338" height="337" viewBox="0 0 338 337" fill="none" xmlns="http://www.w3.org/2000/svg">
<path d="M293.658 217.223C280.502 204.059 259.904 201.129 243.58 210.071L196.842 235.716C190.92 238.966 183.697 239.013 177.99 235.814C162.213 227.005 147.545 215.869 134.4 202.724C121.263 189.583 110.123 174.919 101.306 159.134C98.1186 153.43 98.1577 146.204 101.404 140.279L127.045 93.5446C135.998 77.2246 133.06 56.6306 119.893 43.4666L88.7945 12.3726C72.3605 -4.06143 45.6185 -4.06143 29.1855 12.3726L23.3417 18.2124C19.9237 21.6265 17.2206 25.4038 15.2987 29.4504C-17.5413 98.7084 6.91981 194.47 74.7867 262.34C122.478 310.031 183.947 336.289 240.317 336.289C264.157 336.289 287.083 331.59 307.669 321.828C311.692 319.926 315.473 317.223 318.915 313.789L324.755 307.942C341.193 291.508 341.193 264.766 324.755 248.333L293.658 217.223ZM308.916 292.094L303.08 297.934C301.471 299.543 299.795 300.766 298.084 301.571C237.229 330.423 151.914 307.778 90.6341 246.489C29.3451 185.2 6.69315 99.8987 35.5441 39.0387C36.3606 37.3278 37.5832 35.6481 39.1847 34.0465L45.0324 28.1988C48.884 24.3472 53.9427 22.4254 59.0015 22.4254C64.0562 22.4254 69.1145 24.3512 72.9705 28.1988L104.068 59.2928C110.236 65.4608 111.615 75.1128 107.416 82.7578L81.7711 129.5L81.7672 129.504C74.7399 142.324 74.736 157.477 81.7555 170.051C91.5836 187.637 103.971 203.957 118.568 218.555C133.173 233.16 149.494 245.547 167.072 255.364C179.634 262.387 194.795 262.379 207.619 255.352L254.361 229.707C262.009 225.508 271.662 226.891 277.826 233.055L308.924 264.157C316.623 271.864 316.623 284.399 308.92 292.098L308.916 292.094Z" fill="black"/>
</svg>
