<svg width="700" height="370" viewBox="0 0 700 370" fill="none" xmlns="http://www.w3.org/2000/svg">
<path d="M80.8866 23.3213H25.4608V56.0131H80.8866V23.3213Z" fill="#C7E0FF"/>
<path d="M135.851 23.3213H80.4247V56.0131H135.851V23.3213Z" fill="#E6E6E6"/>
<path opacity="0.8" d="M190.814 23.3213H135.389V56.0131H190.814V23.3213Z" fill="#C7E0FF"/>
<path d="M245.778 23.3213H190.353V56.0131H245.778V23.3213Z" fill="#C7E0FF"/>
<path opacity="0.8" d="M300.742 23.3213H245.317V56.0131H300.742V23.3213Z" fill="#C7E0FF"/>
<path d="M355.706 23.3213H300.28V56.0131H355.706V23.3213Z" fill="#E6E6E6"/>
<path d="M465.634 23.3213H410.208V56.0131H465.634V23.3213Z" fill="#E6E6E6"/>
<path opacity="0.8" d="M80.8866 54.3784H25.4608V87.0702H80.8866V54.3784Z" fill="#C7E0FF"/>
<path d="M135.851 54.3784H80.4247V87.0702H135.851V54.3784Z" fill="#C7E0FF"/>
<path opacity="0.8" d="M245.778 54.3784H190.353V87.0702H245.778V54.3784Z" fill="#C7E0FF"/>
<path d="M300.742 54.3784H245.317V87.0702H300.742V54.3784Z" fill="#C7E0FF"/>
<path opacity="0.8" d="M355.706 54.3784H300.28V87.0702H355.706V54.3784Z" fill="#C7E0FF"/>
<path d="M465.634 54.3784H410.208V87.0702H465.634V54.3784Z" fill="#C7E0FF"/>
<path d="M80.8866 85.4355H25.4608V118.127H80.8866V85.4355Z" fill="#E6E6E6"/>
<path opacity="0.8" d="M135.851 85.4355H80.4247V118.127H135.851V85.4355Z" fill="#C7E0FF"/>
<path d="M190.814 85.4355H135.389V118.127H190.814V85.4355Z" fill="#E6E6E6"/>
<path d="M245.778 85.4355H190.353V118.127H245.778V85.4355Z" fill="#C7E0FF"/>
<path opacity="0.8" d="M300.742 85.4355H245.317V118.127H300.742V85.4355Z" fill="#C7E0FF"/>
<path d="M355.706 85.4355H300.28V118.127H355.706V85.4355Z" fill="#E6E6E6"/>
<path d="M410.67 85.4355H355.244V118.127H410.67V85.4355Z" fill="#C7E0FF"/>
<path d="M80.8866 116.493H25.4608V149.185H80.8866V116.493Z" fill="#C7E0FF"/>
<path d="M135.851 116.493H80.4247V149.185H135.851V116.493Z" fill="#E6E6E6"/>
<path opacity="0.8" d="M355.706 116.493H300.28V149.185H355.706V116.493Z" fill="#C7E0FF"/>
<path opacity="0.8" d="M80.8866 147.55H25.4608V180.242H80.8866V147.55Z" fill="#C7E0FF"/>
<path d="M135.851 147.55H80.4247V180.242H135.851V147.55Z" fill="#C7E0FF"/>
<path d="M190.814 147.55H135.389V180.242H190.814V147.55Z" fill="#E6E6E6"/>
<path opacity="0.8" d="M245.778 147.55H190.353V180.242H245.778V147.55Z" fill="#C7E0FF"/>
<path opacity="0.8" d="M300.742 147.55H245.317V180.242H300.742V147.55Z" fill="#C7E0FF"/>
<path d="M80.8866 178.607H25.4608V211.299H80.8866V178.607Z" fill="#C7E0FF"/>
<path d="M135.851 178.607H80.4247V211.299H135.851V178.607Z" fill="#E6E6E6"/>
<path opacity="0.8" d="M190.814 178.607H135.389V211.299H190.814V178.607Z" fill="#C7E0FF"/>
<path d="M245.778 178.607H190.353V211.299H245.778V178.607Z" fill="#C7E0FF"/>
<path d="M80.8866 210.725H25.4608V243.416H80.8866V210.725Z" fill="#E6E6E6"/>
<path opacity="0.8" d="M135.851 210.725H80.4247V243.416H135.851V210.725Z" fill="#C7E0FF"/>
<path d="M190.814 210.725H135.389V243.416H190.814V210.725Z" fill="#E6E6E6"/>
<path d="M190.814 54.3784H135.389V87.0702H190.814V54.3784Z" fill="#C7E0FF"/>
<path d="M410.67 23.3213H355.244V56.0131H410.67V23.3213Z" fill="#C7E0FF"/>
<path d="M300.742 116.493H245.317V149.185H300.742V116.493Z" fill="#C7E0FF"/>
<path d="M245.778 116.493H190.353V149.185H245.778V116.493Z" fill="#E6E6E6"/>
<path opacity="0.8" d="M190.814 116.493H135.389V149.185H190.814V116.493Z" fill="#C7E0FF"/>
<path d="M8.38708 47.1729C13.0191 47.1729 16.7742 43.8506 16.7742 39.7525C16.7742 35.6543 13.0191 32.332 8.38708 32.332C3.75502 32.332 0 35.6543 0 39.7525C0 43.8506 3.75502 47.1729 8.38708 47.1729Z" fill="#3F3D56"/>
<path d="M53.1737 14.8409C57.8058 14.8409 61.5608 11.5186 61.5608 7.42043C61.5608 3.32224 57.8058 0 53.1737 0C48.5416 0 44.7866 3.32224 44.7866 7.42043C44.7866 11.5186 48.5416 14.8409 53.1737 14.8409Z" fill="#E6E6E6"/>
<path d="M108.138 14.8409C112.77 14.8409 116.525 11.5186 116.525 7.42043C116.525 3.32224 112.77 0 108.138 0C103.506 0 99.7505 3.32224 99.7505 7.42043C99.7505 11.5186 103.506 14.8409 108.138 14.8409Z" fill="#E6E6E6"/>
<path d="M163.102 14.8409C167.734 14.8409 171.489 11.5186 171.489 7.42043C171.489 3.32224 167.734 0 163.102 0C158.47 0 154.714 3.32224 154.714 7.42043C154.714 11.5186 158.47 14.8409 163.102 14.8409Z" fill="#E6E6E6"/>
<path d="M218.065 14.8409C222.698 14.8409 226.453 11.5186 226.453 7.42043C226.453 3.32224 222.698 0 218.065 0C213.433 0 209.678 3.32224 209.678 7.42043C209.678 11.5186 213.433 14.8409 218.065 14.8409Z" fill="#E6E6E6"/>
<path d="M273.029 14.8409C277.661 14.8409 281.417 11.5186 281.417 7.42043C281.417 3.32224 277.661 0 273.029 0C268.397 0 264.642 3.32224 264.642 7.42043C264.642 11.5186 268.397 14.8409 273.029 14.8409Z" fill="#E6E6E6"/>
<path d="M327.993 14.8409C332.625 14.8409 336.38 11.5186 336.38 7.42043C336.38 3.32224 332.625 0 327.993 0C323.361 0 319.606 3.32224 319.606 7.42043C319.606 11.5186 323.361 14.8409 327.993 14.8409Z" fill="#E6E6E6"/>
<path d="M382.957 14.8409C387.589 14.8409 391.344 11.5186 391.344 7.42043C391.344 3.32224 387.589 0 382.957 0C378.325 0 374.57 3.32224 374.57 7.42043C374.57 11.5186 378.325 14.8409 382.957 14.8409Z" fill="#E6E6E6"/>
<path d="M437.921 14.8409C442.553 14.8409 446.308 11.5186 446.308 7.42043C446.308 3.32224 442.553 0 437.921 0C433.289 0 429.534 3.32224 429.534 7.42043C429.534 11.5186 433.289 14.8409 437.921 14.8409Z" fill="#E6E6E6"/>
<path d="M492.885 14.8409C497.517 14.8409 501.272 11.5186 501.272 7.42043C501.272 3.32224 497.517 0 492.885 0C488.253 0 484.498 3.32224 484.498 7.42043C484.498 11.5186 488.253 14.8409 492.885 14.8409Z" fill="#E6E6E6"/>
<path d="M8.38708 78.1451C13.0191 78.1451 16.7742 74.8228 16.7742 70.7246C16.7742 66.6264 13.0191 63.3042 8.38708 63.3042C3.75502 63.3042 0 66.6264 0 70.7246C0 74.8228 3.75502 78.1451 8.38708 78.1451Z" fill="#3F3D56"/>
<path d="M8.38708 109.202C13.0191 109.202 16.7742 105.88 16.7742 101.782C16.7742 97.6836 13.0191 94.3613 8.38708 94.3613C3.75502 94.3613 0 97.6836 0 101.782C0 105.88 3.75502 109.202 8.38708 109.202Z" fill="#3F3D56"/>
<path d="M8.38708 140.259C13.0191 140.259 16.7742 136.937 16.7742 132.839C16.7742 128.741 13.0191 125.418 8.38708 125.418C3.75502 125.418 0 128.741 0 132.839C0 136.937 3.75502 140.259 8.38708 140.259Z" fill="#3F3D56"/>
<path d="M8.38708 171.316C13.0191 171.316 16.7742 167.994 16.7742 163.896C16.7742 159.798 13.0191 156.476 8.38708 156.476C3.75502 156.476 0 159.798 0 163.896C0 167.994 3.75502 171.316 8.38708 171.316Z" fill="#3F3D56"/>
<path d="M8.38708 202.374C13.0191 202.374 16.7742 199.051 16.7742 194.953C16.7742 190.855 13.0191 187.533 8.38708 187.533C3.75502 187.533 0 190.855 0 194.953C0 199.051 3.75502 202.374 8.38708 202.374Z" fill="#3F3D56"/>
<path d="M8.38708 234.491C13.0191 234.491 16.7742 231.169 16.7742 227.071C16.7742 222.973 13.0191 219.65 8.38708 219.65C3.75502 219.65 0 222.973 0 227.071C0 231.169 3.75502 234.491 8.38708 234.491Z" fill="#3F3D56"/>
<path d="M410.67 54.3784H355.244V87.0702H410.67V54.3784Z" fill="#E6E6E6"/>
<path opacity="0.8" d="M520.598 23.3213H465.172V56.0131H520.598V23.3213Z" fill="#C7E0FF"/>
<path d="M571.603 356.591L581.717 355.597V339.689L570.854 340.021L571.603 356.591Z" fill="#FFB8B8"/>
<path d="M624.044 356.591L613.181 355.597L615.054 340.021L627.415 339.689L624.044 356.591Z" fill="#FFB8B8"/>
<path d="M566.734 342.341L582.967 341.939C593.14 294.898 603.059 251.39 619.174 215.081L612.432 341.678H629.662L655.883 199.837L595.951 194.534C575.878 241.463 566.769 290.874 566.734 342.341Z" fill="#2F2E41"/>
<path d="M562.201 369.471C563.964 370.066 565.892 370.161 567.719 369.744C569.546 369.328 571.182 368.42 572.401 367.145L576.473 362.888L583.964 359.574L582.769 348.476C582.748 348.278 582.657 348.091 582.509 347.941C582.361 347.791 582.163 347.686 581.944 347.641C581.725 347.596 581.495 347.613 581.288 347.69C581.08 347.767 580.905 347.899 580.787 348.068L576.472 354.271C574.881 349.198 572.133 346.562 567.827 347.203C566.493 347.426 565.234 347.915 564.146 348.632C563.057 349.35 562.167 350.277 561.543 351.343L557.421 358.115C556.807 359.125 556.443 360.239 556.354 361.384C556.265 362.528 556.452 363.676 556.905 364.751C557.357 365.826 558.064 366.803 558.977 367.617C559.89 368.431 560.989 369.063 562.201 369.471Z" fill="#2F2E41"/>
<path d="M632.697 369.471C630.934 370.066 629.006 370.161 627.179 369.744C625.351 369.328 623.716 368.42 622.497 367.145L618.425 362.888L610.934 359.574L612.128 348.476C612.15 348.278 612.241 348.091 612.389 347.941C612.537 347.791 612.735 347.686 612.954 347.641C613.173 347.596 613.402 347.613 613.61 347.69C613.818 347.767 613.993 347.899 614.111 348.068L618.425 354.271C620.016 349.198 622.765 346.562 627.07 347.203C628.404 347.426 629.663 347.915 630.752 348.632C631.841 349.35 632.731 350.277 633.355 351.343L637.476 358.115C638.091 359.125 638.455 360.239 638.544 361.384C638.633 362.528 638.445 363.676 637.993 364.751C637.54 365.826 636.834 366.803 635.921 367.617C635.008 368.431 633.909 369.063 632.697 369.471Z" fill="#2F2E41"/>
<path d="M626.291 82.851C636.221 82.851 644.271 75.729 644.271 66.9435C644.271 58.1581 636.221 51.0361 626.291 51.0361C616.362 51.0361 608.312 58.1581 608.312 66.9435C608.312 75.729 616.362 82.851 626.291 82.851Z" fill="#FFB8B8"/>
<path d="M614.679 96.4385H637.154V75.2286H614.679V96.4385Z" fill="#FFB8B8"/>
<path d="M598.573 194.866C617.398 198.769 637.303 204.42 650.264 198.843L649.89 95.7758C644.386 93.9907 639.841 90.4425 637.154 85.8337L628.164 92.4618L614.679 85.1709C609.992 90.182 603.695 95.4535 596.325 97.4329L598.573 194.866Z" fill="#E6E6E6"/>
<path d="M628.913 177.301C625.688 205.547 640.741 203.681 660.378 203.151C652.211 167.12 652.483 132.988 662.625 101.078C652.379 96.7317 643.38 91.7059 637.154 85.1709C637.46 85.886 636.509 85.4533 636.779 86.1651C643.137 102.894 641.005 119.866 628.913 134.882V177.301Z" fill="#2F2E41"/>
<path d="M665.247 205.47L660.073 214.627C659.529 215.589 659.239 216.648 659.225 217.723C659.211 218.798 659.472 219.863 659.99 220.836C660.508 221.809 661.269 222.665 662.215 223.34C663.161 224.016 664.269 224.492 665.453 224.734C666.61 224.97 667.812 224.977 668.973 224.753C670.133 224.529 671.223 224.08 672.164 223.439C673.105 222.797 673.873 221.98 674.414 221.044C674.955 220.109 675.255 219.079 675.292 218.028L675.735 205.47V195.528H665.247L665.247 205.47Z" fill="#FFB8B8"/>
<path d="M630.412 177.964C629.674 199.536 627.18 202.789 591.456 201.825C599.623 165.794 599.35 131.663 589.208 99.7526C599.455 95.406 608.453 90.3802 614.679 83.8452C614.256 84.8345 615.374 85.1741 615.054 86.165C609.714 102.726 618.517 120.111 630.412 134.881V177.964Z" fill="#2F2E41"/>
<path d="M585.837 202.82L591.012 211.976C591.555 212.938 591.845 213.997 591.859 215.072C591.874 216.148 591.612 217.212 591.094 218.185C590.576 219.158 589.815 220.014 588.869 220.69C587.923 221.365 586.816 221.841 585.631 222.083C584.474 222.319 583.272 222.326 582.112 222.102C580.951 221.878 579.861 221.429 578.92 220.788C577.98 220.147 577.211 219.329 576.67 218.393C576.129 217.458 575.83 216.428 575.792 215.378L575.349 202.82V192.877H585.837V202.82Z" fill="#FFB8B8"/>
<path d="M627.281 39.7881C630.334 39.9122 633.309 40.6872 635.952 42.047C636.56 42.3599 636.279 43.4883 636.84 43.8564C637.548 44.3199 639.084 44.0384 639.71 44.5813C641.732 46.3277 643.289 48.4507 644.267 50.7961C645.246 53.1414 645.621 55.6502 645.366 58.14L644.369 66.9134L642.016 64.6369C637.798 60.4985 631.941 57.9547 625.661 57.5328C625.394 57.5168 625.127 57.5042 624.859 57.495L626.669 54.6925L623.523 57.4758C622.088 57.4897 620.656 57.5928 619.237 57.7844L621.644 54.0575L617.026 58.1438L617.025 58.1439C615.137 58.5115 613.372 59.2664 611.873 60.3479C610.374 61.4294 609.184 62.8072 608.397 64.3703L607.884 65.3763L607.31 57.0064C607.253 54.693 607.734 52.394 608.725 50.2523C609.715 48.1106 611.192 46.1721 613.065 44.5572C614.939 42.9422 617.167 41.6855 619.613 40.8651C622.058 40.0446 624.668 39.6781 627.281 39.7881Z" fill="#2F2E41"/>
<path d="M643.896 69.2987C644.689 69.2987 645.332 67.9481 645.332 66.2822C645.332 64.6162 644.689 63.2656 643.896 63.2656C643.103 63.2656 642.46 64.6162 642.46 66.2822C642.46 67.9481 643.103 69.2987 643.896 69.2987Z" fill="#FFB8B8"/>
<path d="M608.007 68.3461C608.799 68.3461 609.442 66.9955 609.442 65.3295C609.442 63.6635 608.799 62.313 608.007 62.313C607.214 62.313 606.571 63.6635 606.571 65.3295C606.571 66.9955 607.214 68.3461 608.007 68.3461Z" fill="#FFB8B8"/>
<path d="M588.085 198.843L570.479 199.837L579.469 112.428C579.469 109.158 580.673 105.977 582.899 103.367C585.124 100.757 588.25 98.8588 591.804 97.9605L595.202 97.1016C600.086 133.019 594.616 167.408 588.085 198.843Z" fill="#2F2E41"/>
<path d="M663.749 200.831L677.234 201.494L672.364 113.753C672.364 110.484 671.16 107.303 668.935 104.693C666.709 102.082 663.583 100.184 660.03 99.2862L656.632 98.4272C651.747 134.344 657.218 169.396 663.749 200.831Z" fill="#2F2E41"/>
</svg>
