<svg width="700" height="370" viewBox="0 0 700 370" fill="none" xmlns="http://www.w3.org/2000/svg">
<path d="M131.438 359.672H121.046L119.493 322.206L131.44 322.207L131.438 359.672Z" fill="#FFB8B8"/>
<path d="M134.088 369.088L100.58 369.087V368.69C100.58 367.089 100.917 365.504 101.572 364.025C102.228 362.546 103.189 361.202 104.4 360.07C105.611 358.938 107.049 358.04 108.631 357.428C110.213 356.815 111.909 356.5 113.622 356.5H113.623L134.089 356.501L134.088 369.088Z" fill="#2F2E41"/>
<path d="M189.972 359.672H200.364L201.918 322.206L189.97 322.207L189.972 359.672Z" fill="#FFB8B8"/>
<path d="M187.321 356.501L207.787 356.5H207.788C209.501 356.5 211.197 356.815 212.779 357.428C214.361 358.04 215.799 358.938 217.01 360.07C218.221 361.202 219.182 362.546 219.837 364.025C220.493 365.504 220.83 367.089 220.83 368.69V369.087L187.322 369.088L187.321 356.501Z" fill="#2F2E41"/>
<path d="M190.245 354.87C189.378 354.867 188.537 354.59 187.861 354.083C187.184 353.576 186.712 352.87 186.52 352.079L160.763 247.07C160.706 246.803 160.551 246.563 160.324 246.393C160.097 246.223 159.813 246.133 159.522 246.14H159.515C159.223 246.135 158.939 246.226 158.712 246.399C158.486 246.571 158.332 246.813 158.278 247.081L134.624 351.383C134.44 352.181 133.969 352.896 133.29 353.41C132.612 353.924 131.766 354.205 130.892 354.209H119.625C119.105 354.209 118.59 354.109 118.113 353.917C117.636 353.724 117.206 353.442 116.849 353.089C116.492 352.735 116.217 352.317 116.039 351.86C115.862 351.404 115.786 350.918 115.817 350.433L124.209 218.235L127.587 217.301L127.65 217.302L193.986 217.844L208.114 349.897C208.164 350.368 208.112 350.843 207.963 351.295C207.814 351.747 207.569 352.167 207.245 352.53C206.92 352.893 206.521 353.192 206.071 353.409C205.621 353.627 205.13 353.758 204.625 353.796L190.551 354.858C190.448 354.866 190.346 354.87 190.245 354.87Z" fill="#2F2E41"/>
<path d="M162.851 96.2949C174.349 96.2949 183.67 87.5826 183.67 76.8355C183.67 66.0883 174.349 57.376 162.851 57.376C151.353 57.376 142.031 66.0883 142.031 76.8355C142.031 87.5826 151.353 96.2949 162.851 96.2949Z" fill="#A0616A"/>
<path d="M150.097 232.729C146.444 232.771 142.806 232.293 139.308 231.31C136.197 230.433 133.311 228.97 130.827 227.011C128.343 225.053 126.314 222.64 124.866 219.921C124.407 219.102 124.305 218.15 124.582 217.263C126.878 209.938 137.973 171.864 130.894 141.597C129.895 137.392 129.812 133.042 130.65 128.807C131.488 124.572 133.23 120.538 135.772 116.945C138.255 113.381 141.481 110.321 145.257 107.947C149.033 105.573 153.282 103.935 157.75 103.129L157.75 103.128C158.924 102.914 160.105 102.738 161.258 102.605C166.198 102.037 171.21 102.496 175.937 103.95C180.664 105.403 184.989 107.816 188.602 111.014C192.323 114.275 195.226 118.264 197.104 122.697C198.982 127.129 199.788 131.895 199.465 136.653L194.024 218.262C193.987 218.874 193.78 219.466 193.423 219.98C193.067 220.495 192.574 220.913 191.992 221.196C185.725 224.265 166.901 232.729 150.097 232.729Z" fill="#CCCCCC"/>
<path d="M129.443 219.329C130.634 218.775 131.682 217.983 132.511 217.009C133.34 216.036 133.93 214.904 134.241 213.694C134.551 212.484 134.574 211.225 134.308 210.006C134.041 208.787 133.492 207.637 132.699 206.638L139.508 144.411H124.793L119.381 205.172C117.674 206.529 116.558 208.424 116.245 210.499C115.932 212.573 116.444 214.683 117.685 216.428C118.925 218.173 120.807 219.432 122.974 219.967C125.141 220.501 127.443 220.274 129.443 219.329V219.329Z" fill="#A0616A"/>
<path d="M140.549 114.952C143.423 115.492 145.988 116.991 147.765 119.17C149.542 121.348 150.409 124.057 150.205 126.79L148.177 153.921C148.141 154.396 147.991 154.858 147.738 155.272C147.485 155.686 147.135 156.042 146.714 156.312C146.294 156.582 145.814 156.76 145.309 156.832C144.805 156.904 144.29 156.87 143.802 156.73L119.369 149.739C118.924 149.612 118.512 149.4 118.158 149.118C117.804 148.835 117.517 148.487 117.313 148.096C117.109 147.706 116.994 147.279 116.974 146.845C116.954 146.41 117.03 145.977 117.197 145.571L126.916 121.957C127.938 119.473 129.868 117.407 132.363 116.125C134.858 114.843 137.758 114.428 140.549 114.952V114.952Z" fill="#CCCCCC"/>
<path d="M186.37 62.5116C184.208 57.4314 180.246 53.1983 175.147 50.5187C170.048 47.8391 164.12 46.8752 158.353 47.7879L164.917 52.7459C156.761 53.0026 148.176 52.4568 142.353 57.8002C144.207 57.7521 146.637 61.4584 148.491 61.4104C145.025 61.4744 141.882 63.7507 140.351 66.6579C138.933 69.6446 138.601 72.9834 139.406 76.1631C140.091 79.3395 145.313 86.7811 146.719 89.743C146.477 82.0022 162.781 63.5385 170.743 65.4654C166.698 66.8682 163.188 69.3591 160.655 72.6239C166.072 70.069 172.197 69.1321 178.203 69.9404C179.574 70.2343 180.988 70.3083 182.386 70.1592C183.242 70.0009 184.041 69.6399 184.706 69.1107C185.371 68.5816 185.879 67.9019 186.183 67.1367C186.487 66.3715 186.576 65.5463 186.441 64.7399C186.306 63.9335 185.952 63.1729 185.414 62.5306L186.37 62.5116Z" fill="#2F2E41"/>
<path d="M694.066 22.9766H688.98V23.7689H694.066V22.9766Z" fill="#E6E6E6"/>
<path d="M678.706 23.7689H668.431V22.9766H678.706V23.7689ZM658.157 23.7689H647.882V22.9766H658.157L658.157 23.7689ZM637.607 23.7689H627.333V22.9766H637.607V23.7689ZM617.058 23.7689H606.783V22.9766H617.058V23.7689ZM596.509 23.7689H586.234V22.9766H596.509V23.7689ZM575.959 23.7689H565.685V22.9766H575.959V23.7689ZM555.41 23.7689H545.135V22.9766H555.41V23.7689ZM534.861 23.7689H524.586V22.9766H534.861V23.7689ZM514.311 23.7689H504.037V22.9766H514.311V23.7689ZM493.762 23.7689H483.487V22.9766H493.762V23.7689ZM473.213 23.7689H462.938V22.9766H473.213V23.7689ZM452.663 23.7689H442.389V22.9766H452.663V23.7689ZM432.114 23.7689H421.839V22.9766H432.114V23.7689ZM411.565 23.7689H401.29V22.9766H411.565V23.7689ZM391.015 23.7689H380.741V22.9766H391.015V23.7689ZM370.466 23.7689H360.191V22.9766H370.466V23.7689Z" fill="#E6E6E6"/>
<path d="M349.917 22.9766H344.831V23.7689H349.917V22.9766Z" fill="#E6E6E6"/>
<path d="M527.077 96.6597H521.991V97.452H527.077V96.6597Z" fill="#E6E6E6"/>
<path d="M511.869 97.452H501.747V96.6597H511.869V97.452ZM491.625 97.452H481.503V96.6597H491.625V97.452ZM471.381 97.452H461.259V96.6597H471.381V97.452ZM451.137 97.452H441.015V96.6597H451.137V97.452ZM430.893 97.452H420.771V96.6597H430.893V97.452ZM410.649 97.452H400.526V96.6597H410.649V97.452ZM390.404 97.452H380.282V96.6597H390.405L390.404 97.452ZM370.16 97.452H360.038V96.6597H370.16V97.452Z" fill="#E6E6E6"/>
<path d="M349.917 96.6597H344.831V97.452H349.917V96.6597Z" fill="#E6E6E6"/>
<path d="M427.901 131.521H422.815V132.313H427.901V131.521Z" fill="#E6E6E6"/>
<path d="M412.401 132.313H401.987V131.521H412.401V132.313ZM391.573 132.313H381.159V131.521H391.573V132.313ZM370.745 132.313H360.331V131.521H370.745V132.313Z" fill="#E6E6E6"/>
<path d="M349.917 131.521H344.831V132.313H349.917V131.521Z" fill="#E6E6E6"/>
<path d="M694.21 31.6997V167.387C694.202 174.214 691.297 180.759 686.132 185.586C680.968 190.414 673.965 193.129 666.661 193.137H371.676C367.809 193.139 363.985 192.379 360.454 190.904C356.924 189.429 353.766 187.274 351.188 184.58V183.368C353.67 186.158 356.774 188.408 360.284 189.959C363.794 191.509 367.624 192.324 371.507 192.345L422.527 144.657C423.196 144.031 423.99 143.535 424.864 143.197C425.739 142.858 426.675 142.684 427.622 142.684C428.568 142.684 429.505 142.858 430.379 143.197C431.253 143.535 432.047 144.031 432.716 144.657L459.832 169.994L523.399 110.588C524.068 109.963 524.862 109.467 525.736 109.128C526.61 108.79 527.547 108.615 528.493 108.615C529.439 108.615 530.376 108.79 531.25 109.128C532.124 109.467 532.919 109.963 533.588 110.588L570.876 145.433L692.524 31.7393L693.363 31.7155L693.753 31.7076L694.21 31.6997Z" fill="#C7E0FF"/>
<path d="M666.941 193.319H371.956C364.652 193.311 357.649 190.596 352.485 185.769C347.32 180.941 344.415 174.396 344.407 167.57V25.7495C344.415 18.9227 347.32 12.3777 352.485 7.55038C357.649 2.72309 364.652 0.00772742 371.956 0H666.941C674.245 0.00772532 681.248 2.72309 686.412 7.55038C691.577 12.3777 694.482 18.9227 694.49 25.7495V167.57C694.482 174.396 691.577 180.941 686.412 185.769C681.248 190.596 674.245 193.311 666.941 193.319V193.319ZM371.956 0.792291C364.877 0.799777 358.09 3.43159 353.084 8.11035C348.078 12.7891 345.262 19.1327 345.254 25.7495V167.57C345.262 174.186 348.078 180.53 353.084 185.209C358.09 189.887 364.877 192.519 371.956 192.527H666.941C674.02 192.519 680.807 189.887 685.813 185.209C690.819 180.53 693.635 174.186 693.643 167.57V25.7495C693.635 19.1327 690.819 12.7891 685.813 8.11035C680.807 3.43159 674.02 0.799775 666.941 0.792291H371.956Z" fill="#3F3D56"/>
<path d="M372.255 193.203L371.656 192.643L422.807 144.834C424.159 143.572 425.991 142.864 427.901 142.864C429.812 142.864 431.644 143.572 432.996 144.834L460.112 170.179L523.678 110.765C525.03 109.504 526.862 108.796 528.773 108.796C530.683 108.796 532.515 109.504 533.867 110.765L571.156 145.618L693.767 31.0156L694.366 31.5758L571.156 146.738L533.268 111.325C532.678 110.773 531.977 110.336 531.206 110.037C530.434 109.738 529.608 109.585 528.773 109.585C527.938 109.585 527.111 109.738 526.34 110.037C525.569 110.336 524.868 110.773 524.277 111.325L460.112 171.299L432.397 145.394C431.203 144.281 429.587 143.656 427.901 143.656C426.216 143.656 424.599 144.281 423.406 145.394L372.255 193.203Z" fill="#3F3D56"/>
<path d="M427.901 137.463C431.178 137.463 433.835 134.98 433.835 131.917C433.835 128.854 431.178 126.371 427.901 126.371C424.624 126.371 421.968 128.854 421.968 131.917C421.968 134.98 424.624 137.463 427.901 137.463Z" fill="#3F3D56"/>
<path d="M527.077 102.602C530.354 102.602 533.011 100.119 533.011 97.0558C533.011 93.9928 530.354 91.5098 527.077 91.5098C523.8 91.5098 521.144 93.9928 521.144 97.0558C521.144 100.119 523.8 102.602 527.077 102.602Z" fill="#3F3D56"/>
<path d="M694.066 28.9187C697.343 28.9187 700 26.4357 700 23.3727C700 20.3097 697.343 17.8267 694.066 17.8267C690.789 17.8267 688.133 20.3097 688.133 23.3727C688.133 26.4357 690.789 28.9187 694.066 28.9187Z" fill="#3F3D56"/>
<path d="M145.347 231.436C157.655 231.436 167.632 218.164 167.632 201.792C167.632 185.42 157.655 172.147 145.347 172.147C133.04 172.147 123.062 185.42 123.062 201.792C123.062 218.164 133.04 231.436 145.347 231.436Z" fill="#3F3D56"/>
<path opacity="0.1" d="M145.347 231.436C157.655 231.436 167.632 218.164 167.632 201.792C167.632 185.42 157.655 172.147 145.347 172.147C133.04 172.147 123.062 185.42 123.062 201.792C123.062 218.164 133.04 231.436 145.347 231.436Z" fill="black"/>
<path d="M148.352 231.436C160.659 231.436 170.637 218.164 170.637 201.792C170.637 185.42 160.659 172.147 148.352 172.147C136.044 172.147 126.067 185.42 126.067 201.792C126.067 218.164 136.044 231.436 148.352 231.436Z" fill="#3F3D56"/>
<path opacity="0.1" d="M148.352 227.217C158.908 227.217 167.465 215.834 167.465 201.792C167.465 187.75 158.908 176.367 148.352 176.367C137.796 176.367 129.239 187.75 129.239 201.792C129.239 215.834 137.796 227.217 148.352 227.217Z" fill="black"/>
<path d="M148.186 214.039V211.055C146.658 211.042 145.17 210.588 143.928 209.754L144.596 207.775C145.754 208.585 147.157 209.03 148.604 209.045C149.029 209.077 149.457 209.025 149.86 208.893C150.263 208.761 150.632 208.553 150.943 208.28C151.255 208.008 151.502 207.677 151.67 207.311C151.837 206.944 151.921 206.548 151.916 206.149C151.916 204.524 150.83 203.519 148.771 202.633C145.932 201.451 144.179 200.091 144.179 197.521C144.135 196.384 144.539 195.272 145.313 194.396C146.088 193.519 147.179 192.938 148.381 192.763V189.778H150.107V192.645C151.393 192.661 152.648 193.02 153.725 193.679L153.029 195.629C151.996 194.969 150.773 194.618 149.522 194.625C149.145 194.588 148.763 194.626 148.403 194.738C148.042 194.849 147.712 195.031 147.432 195.272C147.153 195.512 146.932 195.806 146.784 196.132C146.636 196.459 146.563 196.811 146.572 197.166C146.572 198.703 147.602 199.471 150.023 200.535C152.89 201.776 154.337 203.312 154.337 205.942C154.375 207.135 153.951 208.3 153.143 209.223C152.335 210.146 151.197 210.765 149.94 210.966V214.039L148.186 214.039Z" fill="#C7E0FF"/>
<path d="M160.281 184.81C160.747 184.86 161.208 184.944 161.66 185.063L193.571 159.484L191.706 150.099L206.491 145.617L211.521 161.931C211.927 163.249 211.865 164.655 211.344 165.937C210.823 167.219 209.871 168.309 208.631 169.042L168.216 192.946C168.245 194.634 167.723 196.291 166.72 197.696C165.716 199.1 164.279 200.186 162.6 200.809C160.92 201.431 159.077 201.561 157.317 201.181C155.556 200.801 153.961 199.929 152.744 198.681C151.527 197.432 150.745 195.868 150.502 194.194C150.26 192.52 150.568 190.817 151.386 189.312C152.204 187.806 153.494 186.568 155.083 185.764C156.672 184.96 158.485 184.627 160.281 184.81V184.81Z" fill="#A0616A"/>
<path d="M187.622 115.929C190.492 115.37 193.481 115.807 196.03 117.158C198.58 118.509 200.516 120.682 201.477 123.27L211.014 148.964C211.182 149.415 211.238 149.895 211.179 150.369C211.12 150.842 210.948 151.297 210.675 151.7C210.401 152.103 210.034 152.443 209.601 152.695C209.168 152.946 208.679 153.103 208.172 153.154L182.765 155.696C182.302 155.743 181.834 155.699 181.39 155.569C180.946 155.439 180.536 155.225 180.184 154.941C179.832 154.656 179.547 154.306 179.346 153.914C179.145 153.522 179.032 153.095 179.016 152.661L178.029 127.376C177.925 124.717 178.831 122.109 180.587 120.014C182.343 117.919 184.835 116.472 187.622 115.929V115.929Z" fill="#CCCCCC"/>
</svg>
