<svg width="50" height="53" viewBox="0 0 50 53" fill="none" xmlns="http://www.w3.org/2000/svg">
<circle cx="25" cy="25" r="25" fill="white"/>
<path fill-rule="evenodd" clip-rule="evenodd" d="M24.9371 3C29.5766 3 33.2129 6.63643 33.2129 11.2757C33.2129 15.7899 29.5764 19.5514 24.9371 19.5514C20.4229 19.5514 16.7864 15.7897 16.7864 11.2757C16.7864 6.63621 20.4229 3 24.9371 3ZM8.88714 14.6614C8.88714 12.7806 11.7711 12.7806 11.7711 14.6614V38.235L17.7898 29.0814C17.539 28.7053 17.2881 28.2036 17.2881 27.7022C17.2881 24.8183 21.8023 24.6927 21.9276 27.5769L28.1971 30.4609C28.5732 30.0847 29.2002 29.7086 29.8271 29.7086L32.0841 20.0536C30.3285 18.7997 31.2063 15.7902 33.4633 15.7902C34.968 15.7902 36.0964 17.1694 35.7203 18.6741L37.3503 19.6772C37.7264 19.4264 38.2281 19.1755 38.855 19.1755C41.8645 19.1755 41.8645 23.815 38.855 23.815C37.225 23.815 36.0964 22.3103 36.598 20.9311L35.0933 19.928C34.5917 20.3042 34.0903 20.4297 33.4633 20.4297L31.2063 30.0847C33.0872 31.3386 32.2094 34.3481 29.8271 34.3481C28.4479 34.3481 27.4446 33.2195 27.5701 31.8404L21.5514 28.9564C21.0497 29.8342 19.9214 30.3356 18.9183 29.9595L12.0218 40.2416H38.7304C40.6113 40.2416 40.6113 43.0003 38.7304 43.0003H10.2661C9.5139 43.0003 8.8869 42.3733 8.8869 41.6211L8.88714 14.6614ZM23.9343 16.6676C22.4296 16.2915 21.1756 15.1629 21.1756 13.5328V13.2819H23.0565V13.5328C23.0565 14.4106 24.1851 14.912 24.9374 14.912C27.5704 14.912 27.5704 12.1534 24.9374 12.1534C20.4231 12.1534 19.7961 6.63607 24.0596 5.75829V4.62964H25.9404V5.75829C27.4451 6.1344 28.8244 7.263 28.8244 8.89307V9.26919H26.9435V8.89307C26.9435 8.01529 25.6896 7.63914 24.9374 7.63914C22.4296 7.63914 22.4296 10.2722 24.9374 10.2722C29.5769 10.2722 30.2038 15.9148 25.9404 16.7926V17.7956H23.9343V16.667V16.6676Z" fill="black"/>
</svg>
