<svg width="750" height="400" viewBox="0 0 750 400" fill="none" xmlns="http://www.w3.org/2000/svg">
<path d="M180.491 393.208L162.016 363.057L180.499 396.493L180.509 399.929C181.827 399.913 183.132 399.861 184.424 399.773L182.917 355.639L182.936 355.297L182.903 355.232L182.759 351.062L202.076 318.016L182.739 347.939L182.681 348.822L181.543 315.477L198.15 281.287L181.413 309.618L180.635 240.503L180.631 240.273L180.628 240.499L180.249 294.992L164.381 273.188L180.263 299.685L180.337 329.531L165.613 300.706L180.345 333.919L180.386 350.515L158.998 310.38L180.403 356.304L180.491 393.208Z" fill="#E2E2E2"/>
<path d="M339.031 393.208L320.556 363.057L339.04 396.493L339.05 399.928C340.368 399.913 341.672 399.861 342.964 399.773L341.457 355.638L341.477 355.297L341.443 355.232L341.299 351.062L360.617 318.016L341.279 347.939L341.222 348.822L340.083 315.477L356.69 281.287L339.953 309.618L339.175 240.503L339.171 240.273L339.169 240.499L338.79 294.992L322.921 273.188L338.804 299.685L338.877 329.531L324.154 300.706L338.885 333.919L338.926 350.515L317.539 310.38L338.943 356.304L339.031 393.208Z" fill="#E2E2E2"/>
<path d="M21.8001 395.147L8.45936 373.375L21.8063 397.519L21.8134 400C22.7652 399.988 23.7073 399.951 24.6398 399.887L23.5517 368.018L23.566 367.772L23.5415 367.725L23.4379 364.714L37.3868 340.851L23.4235 362.458L23.3817 363.096L22.5598 339.018L34.5514 314.329L22.4661 334.787L21.9039 284.88L21.9013 284.713L21.8994 284.877L21.6257 324.226L10.1671 308.481L21.6358 327.615L21.689 349.166L11.0571 328.352L21.6949 352.335L21.7243 364.318L6.2804 335.337L21.7364 368.499L21.8001 395.147Z" fill="#E2E2E2"/>
<path d="M724.616 393.208L706.141 363.057L724.624 396.493L724.634 399.929C725.952 399.913 727.257 399.861 728.548 399.773L727.042 355.639L727.061 355.297L727.027 355.232L726.884 351.062L746.201 318.016L726.864 347.939L726.806 348.822L725.668 315.477L742.275 281.287L725.538 309.618L724.76 240.503L724.756 240.273L724.753 240.499L724.374 294.992L708.506 273.188L724.388 299.685L724.462 329.531L709.738 300.706L724.47 333.919L724.511 350.515L703.123 310.38L724.528 356.304L724.616 393.208Z" fill="#E2E2E2"/>
<path d="M223.576 347.686H323.238V343.343H223.576V347.686Z" fill="#C7E0FF"/>
<path d="M218.508 343.343H318.171V339H218.508V343.343Z" fill="#C7E0FF"/>
<path d="M224.421 339H324.083V334.657H224.421V339Z" fill="#C7E0FF"/>
<path d="M234.556 334.657H334.218V330.314H234.556V334.657Z" fill="#C7E0FF"/>
<path d="M149.758 336.388H153.218V311.123H149.758V336.388Z" fill="#3F3D56"/>
<path d="M149.75 310.802L151.052 314.1L279.1 260.651L277.798 257.354L149.75 310.802Z" fill="#3F3D56"/>
<path d="M85.7424 374.108H115.847V362.009H85.7424V374.108Z" fill="#3F3D56"/>
<path d="M88.5107 386.208H236.957V372.685H88.5107V386.208Z" fill="#3F3D56"/>
<path d="M112.905 379.446H148.546V333.363H121.902L112.905 356.605V379.446Z" fill="#E2E2E2"/>
<path d="M127.785 351.868H143.01V336.21H127.785V351.868Z" fill="white"/>
<path d="M116.366 352.046H126.055V336.389H121.902L116.366 352.046Z" fill="white"/>
<path d="M138.858 367.525H142.318V360.764H138.858V367.525Z" fill="#3F3D56"/>
<path d="M123.113 353.113H122.94C122.069 353.113 121.232 352.757 120.616 352.123C120 351.489 119.653 350.629 119.653 349.733C119.653 348.836 120 347.976 120.616 347.342C121.232 346.708 122.069 346.352 122.94 346.352H123.113V353.113Z" fill="#3F3D56"/>
<path d="M251.836 379.446H251.663C250.791 379.446 249.955 379.09 249.338 378.456C248.722 377.822 248.376 376.962 248.376 376.066C248.376 375.169 248.722 374.309 249.338 373.675C249.955 373.041 250.791 372.685 251.663 372.685H251.836V379.446V379.446Z" fill="#3F3D56"/>
<path d="M99.0645 372.634C96.4912 372.668 93.9584 373.298 91.6545 374.478C89.3507 375.657 87.335 377.355 85.7574 379.446H78.9949L85.5694 360.613L116.193 354.401L115.328 379.446H112.372C110.794 377.355 108.778 375.657 106.474 374.478C104.171 373.298 101.638 372.668 99.0645 372.634Z" fill="#E2E2E2"/>
<path d="M98.7185 399.374C107.032 399.374 113.771 392.444 113.771 383.895C113.771 375.345 107.032 368.415 98.7185 368.415C90.4054 368.415 83.6663 375.345 83.6663 383.895C83.6663 392.444 90.4054 399.374 98.7185 399.374Z" fill="#3F3D56"/>
<path d="M98.7185 392.042C103.094 392.042 106.641 388.394 106.641 383.895C106.641 379.395 103.094 375.748 98.7185 375.748C94.3432 375.748 90.7963 379.395 90.7963 383.895C90.7963 388.394 94.3432 392.042 98.7185 392.042Z" fill="#E2E2E2"/>
<path d="M234.707 399.196C241.969 399.196 247.857 393.142 247.857 385.674C247.857 378.206 241.969 372.151 234.707 372.151C227.445 372.151 221.558 378.206 221.558 385.674C221.558 393.142 227.445 399.196 234.707 399.196Z" fill="#3F3D56"/>
<path d="M234.707 392.791C238.53 392.791 241.628 389.604 241.628 385.674C241.628 381.743 238.53 378.557 234.707 378.557C230.885 378.557 227.787 381.743 227.787 385.674C227.787 389.604 230.885 392.791 234.707 392.791Z" fill="#E2E2E2"/>
<path d="M147.508 380.87H154.775V326.958H147.508V380.87Z" fill="#3F3D56"/>
<path d="M147.508 374.287H252.009V371.084H147.508V374.287Z" fill="#3F3D56"/>
<path d="M121.037 354.181H124.498V352.757H121.037V354.181Z" fill="#3F3D56"/>
<path d="M273.982 347.659C273.949 347.622 273.924 347.578 273.909 347.53C273.894 347.483 273.889 347.432 273.894 347.382L278.666 300.973C278.675 300.886 278.715 300.805 278.778 300.746C278.841 300.687 278.923 300.655 279.009 300.654H279.01C279.095 300.654 279.177 300.686 279.24 300.745C279.304 300.803 279.344 300.883 279.354 300.97L284.515 347.283C284.521 347.333 284.516 347.383 284.502 347.43C284.487 347.478 284.463 347.522 284.431 347.559C284.399 347.597 284.359 347.627 284.315 347.647C284.271 347.668 284.223 347.679 284.175 347.679L274.241 347.776H274.238C274.19 347.776 274.142 347.765 274.098 347.745C274.054 347.725 274.014 347.696 273.982 347.659ZM279.024 304.26L274.623 347.06L283.784 346.972L279.024 304.26Z" fill="#3F3D56"/>
<path d="M85.6331 360.887L85.7949 360.95C86.6103 361.267 87.2699 361.905 87.6284 362.722C87.9869 363.539 88.0151 364.469 87.7067 365.308C87.3983 366.147 86.7785 366.825 85.9838 367.194C85.1891 367.562 84.2845 367.591 83.4691 367.274L83.3073 367.211L85.6331 360.887Z" fill="#3F3D56"/>
<path d="M277.442 309.344H280.902V257.389H277.442V309.344Z" fill="#3F3D56"/>
<path d="M151.488 316.816C154.163 316.816 156.332 314.586 156.332 311.834C156.332 309.083 154.163 306.853 151.488 306.853C148.812 306.853 146.643 309.083 146.643 311.834C146.643 314.586 148.812 316.816 151.488 316.816Z" fill="#3F3D56"/>
<path d="M158.542 371.137H258.204V366.794H158.542V371.137Z" fill="#C7E0FF"/>
<path d="M164.454 366.794H264.117V362.452H164.454V366.794Z" fill="#C7E0FF"/>
<path d="M160.231 363.32H259.894V358.977H160.231V363.32Z" fill="#C7E0FF"/>
<path d="M166.144 358.977H265.806V354.634H166.144V358.977Z" fill="#C7E0FF"/>
<path d="M322.92 106.176C326.096 106.172 329.166 107.349 331.566 109.489C333.461 108.957 335.449 108.867 337.383 109.226C338.984 106.837 341.285 105.037 343.952 104.089C346.619 103.141 349.51 103.095 352.204 103.957C354.898 104.819 357.253 106.545 358.926 108.881C360.598 111.218 361.5 114.044 361.5 116.945H309.982C310.614 113.898 312.243 111.166 314.598 109.206C316.953 107.246 319.891 106.177 322.92 106.176Z" fill="#E2E2E2"/>
<path d="M245.415 149.039C248.418 149.035 251.321 150.147 253.589 152.171C255.381 151.667 257.26 151.582 259.088 151.922C260.602 149.663 262.778 147.961 265.299 147.065C267.82 146.169 270.553 146.125 273.1 146.94C275.647 147.755 277.874 149.387 279.455 151.596C281.036 153.805 281.889 156.476 281.889 159.22H233.184C233.781 156.339 235.321 153.756 237.548 151.903C239.774 150.05 242.551 149.039 245.415 149.039Z" fill="#E2E2E2"/>
<path d="M167.926 78.3438C171.05 78.3401 174.07 79.4973 176.43 81.6025C178.295 81.0787 180.25 80.9904 182.152 81.3439C183.727 78.9938 185.991 77.2231 188.614 76.2905C191.237 75.358 194.081 75.3124 196.731 76.1606C199.381 77.0087 201.698 78.7061 203.343 81.0047C204.988 83.3033 205.875 86.0826 205.875 88.9367H155.199C155.821 85.9395 157.424 83.2524 159.74 81.3243C162.056 79.3963 164.946 78.3442 167.926 78.3438Z" fill="#E2E2E2"/>
<path d="M502.533 212.962V321.451H543.558V211.455L534.035 211.805V189.606H527.127L525.989 140.442C528.776 138.574 530.738 134.137 530.738 128.957C530.741 127.47 530.573 125.988 530.236 124.542C531.556 123.074 532.364 121.197 532.535 119.206C532.707 117.215 532.231 115.222 531.183 113.539C532.059 114.326 533.079 114.927 534.183 115.306C535.287 115.685 536.454 115.835 537.615 115.747C538.776 115.659 539.908 115.334 540.946 114.792C541.984 114.25 542.907 113.502 543.661 112.59C544.416 111.678 544.986 110.621 545.34 109.481C545.694 108.34 545.824 107.139 545.723 105.947C545.622 104.754 545.292 103.594 544.751 102.534C544.21 101.473 543.47 100.534 542.574 99.7706C544.081 99.1986 545.407 98.2127 546.408 96.92C547.409 95.6274 548.046 94.0775 548.251 92.4386C548.455 90.7997 548.219 89.1345 547.568 87.624C546.916 86.1134 545.875 84.8152 544.557 83.8705C543.239 82.9257 541.694 82.3704 540.091 82.265C538.487 82.1596 536.887 82.5081 535.462 83.2725C534.038 84.037 532.844 85.1883 532.011 86.6013C531.179 88.0143 530.738 89.635 530.738 91.2873C530.738 91.4197 530.742 91.5511 530.747 91.6819C529.54 91.3027 528.268 91.1951 527.017 91.3664C525.766 91.5376 524.565 91.9837 523.497 92.6744C522.428 93.3651 521.516 94.2841 520.824 95.3692C520.131 96.4542 519.674 97.6798 519.482 98.9628C518.386 98.292 517.161 97.8746 515.892 97.7396C514.623 97.6046 513.341 97.7552 512.134 98.181C510.927 98.6068 509.825 99.2975 508.904 100.205C507.983 101.113 507.265 102.216 506.8 103.438C506.335 104.659 506.135 105.971 506.212 107.28C506.289 108.59 506.643 109.866 507.248 111.021C507.853 112.176 508.695 113.182 509.716 113.968C510.737 114.755 511.912 115.304 513.16 115.576C513.159 115.642 513.155 115.707 513.155 115.773C513.972 118.307 515.011 120.759 516.26 123.099C515.65 124.988 515.343 126.967 515.353 128.957C515.353 134.137 517.315 138.574 520.102 140.442L518.964 189.606H512.057V212.612L502.533 212.962ZM528.151 109.368L528.174 109.369C528.301 109.369 528.426 109.365 528.552 109.359C528.631 109.626 528.722 109.888 528.824 110.144C528.614 109.872 528.389 109.613 528.151 109.368Z" fill="#E2E2E2"/>
<path d="M479.944 398.675H604.487V250.506L479.944 250.506V398.675Z" fill="#3F3D56"/>
<path d="M525.427 398.675H559.004V368.539H525.427V398.675Z" fill="#E2E2E2"/>
<path d="M438.438 55.5494C438.436 55.6588 438.43 55.7673 438.43 55.8773C438.428 57.8923 438.82 59.8872 439.583 61.7431C440.347 63.599 441.465 65.278 442.872 66.6801C443.092 67.1622 443.337 67.632 443.605 68.0875C442.587 71.2356 442.076 74.5338 442.093 77.8515C442.093 89.294 447.833 98.57 454.914 98.57C461.994 98.57 467.734 89.294 467.734 77.8515C467.739 75.3729 467.459 72.9023 466.899 70.4917C469.097 68.0451 470.444 64.9177 470.73 61.5994C471.015 58.2811 470.222 54.9591 468.475 52.1538C469.936 53.4666 471.636 54.4678 473.476 55.0995C475.317 55.7312 477.26 55.9806 479.195 55.8335C481.13 55.6863 483.017 55.1454 484.747 54.2421C486.477 53.3388 488.015 52.0912 489.272 50.5717C490.529 49.0522 491.481 47.291 492.071 45.3903C492.661 43.4897 492.878 41.4875 492.709 39.4999C492.541 37.5123 491.99 35.5789 491.089 33.812C490.188 32.045 488.955 30.4797 487.461 29.2069C489.973 28.2534 492.183 26.6103 493.851 24.4559C495.519 22.3015 496.581 19.7182 496.922 16.9867C497.262 14.2552 496.869 11.4799 495.784 8.96227C494.698 6.44467 492.963 4.28104 490.766 2.70641C488.569 1.13178 485.995 0.206366 483.322 0.030696C480.65 -0.144974 477.982 0.435816 475.608 1.70998C473.234 2.98414 471.245 4.90294 469.856 7.25796C468.468 9.61297 467.734 12.3141 467.734 15.068C467.734 15.2887 467.741 15.5075 467.75 15.7258C465.738 15.0938 463.618 14.9144 461.533 15.1998C459.447 15.4852 457.446 16.2287 455.665 17.3798C453.884 18.5309 452.365 20.0627 451.211 21.8711C450.056 23.6795 449.294 25.7222 448.975 27.8605C447.148 26.7425 445.106 26.0468 442.991 25.8217C440.876 25.5967 438.739 25.8477 436.727 26.5573C434.716 27.2669 432.88 28.4182 431.344 29.9311C429.809 31.444 428.613 33.2824 427.838 35.3186C427.063 37.3548 426.729 39.54 426.857 41.7226C426.986 43.9051 427.575 46.0327 428.584 47.9576C429.592 49.8826 430.996 51.5587 432.698 52.8697C434.399 54.1806 436.358 55.095 438.438 55.5494ZM463.46 45.2041C463.672 45.2041 463.882 45.1968 464.091 45.1877C464.222 45.633 464.373 46.069 464.544 46.4957C464.194 46.0432 463.82 45.6116 463.423 45.2031L463.46 45.2041Z" fill="#E2E2E2"/>
<path d="M447.585 201.535H462.239L461.716 178.935V178.926L459.798 96.0557C458.327 96.9801 456.636 97.4693 454.912 97.4693C453.188 97.4693 451.498 96.9801 450.026 96.0557L448.109 178.926V178.935L447.585 201.535Z" fill="#C7E0FF"/>
<path d="M420.727 217.855V398.675H489.098V215.345L473.227 215.927V178.935H436.597V217.273L420.727 217.855Z" fill="#C7E0FF"/>
<path d="M613.042 55.5494C613.039 55.6588 613.034 55.7673 613.034 55.8773C613.032 57.8923 613.424 59.8872 614.187 61.7431C614.95 63.599 616.069 65.278 617.476 66.6801C617.696 67.1622 617.94 67.632 618.209 68.0875C617.19 71.2356 616.68 74.5338 616.697 77.8515C616.697 89.294 622.437 98.57 629.517 98.57C636.598 98.57 642.338 89.294 642.338 77.8515C642.343 75.3729 642.063 72.9023 641.502 70.4917C643.701 68.0451 645.048 64.9177 645.333 61.5994C645.619 58.2811 644.826 54.9591 643.079 52.1538C644.54 53.4666 646.24 54.4679 648.08 55.0996C649.92 55.7313 651.864 55.9808 653.799 55.8336C655.734 55.6864 657.621 55.1455 659.351 54.2423C661.081 53.339 662.619 52.0914 663.876 50.5718C665.133 49.0523 666.084 47.2911 666.674 45.3904C667.264 43.4897 667.481 41.4875 667.313 39.4999C667.144 37.5123 666.594 35.5789 665.693 33.812C664.792 32.045 663.558 30.4797 662.064 29.2069C664.577 28.2534 666.787 26.6103 668.455 24.4559C670.123 22.3015 671.185 19.7182 671.525 16.9867C671.866 14.2552 671.473 11.4799 670.387 8.96227C669.302 6.44467 667.567 4.28104 665.37 2.70641C663.173 1.13177 660.598 0.206367 657.926 0.0306961C655.253 -0.144975 652.585 0.435816 650.211 1.70998C647.837 2.98414 645.848 4.90294 644.46 7.25796C643.072 9.61297 642.338 12.3141 642.338 15.068C642.338 15.2887 642.345 15.5075 642.354 15.7258C640.342 15.0938 638.222 14.9144 636.136 15.1998C634.051 15.4852 632.05 16.2287 630.269 17.3798C628.488 18.5309 626.969 20.0627 625.814 21.8711C624.66 23.6795 623.897 25.7222 623.578 27.8605C621.751 26.7425 619.709 26.0468 617.594 25.8217C615.48 25.5967 613.342 25.8477 611.331 26.5573C609.32 27.2669 607.483 28.4182 605.948 29.9311C604.413 31.444 603.217 33.2824 602.442 35.3186C601.667 37.3548 601.332 39.54 601.461 41.7226C601.59 43.9051 602.179 46.0327 603.187 47.9576C604.196 49.8826 605.6 51.5587 607.301 52.8697C609.003 54.1806 610.962 55.095 613.042 55.5494ZM638.064 45.2041C638.276 45.2041 638.485 45.1968 638.695 45.1877C638.826 45.633 638.977 46.069 639.147 46.4957C638.798 46.0432 638.424 45.6116 638.026 45.2031L638.064 45.2041Z" fill="#E2E2E2"/>
<path d="M622.191 201.535H636.843L634.401 96.0586C631.244 97.2252 627.79 97.2252 624.633 96.0586L622.191 201.535Z" fill="#C7E0FF"/>
<path d="M595.33 217.855V398.675H663.709V215.345L658.092 215.554L647.83 215.927V178.935H611.2V217.273L595.33 217.855Z" fill="#C7E0FF"/>
<path d="M560.796 285.76H577.688V268.389H560.796V285.76Z" fill="white"/>
<path d="M533.769 285.76H550.661V268.389H533.769V285.76Z" fill="white"/>
<path d="M506.742 285.76H523.634V268.389H506.742V285.76Z" fill="white"/>
<path d="M560.796 313.555H577.688V296.183H560.796V313.555Z" fill="white"/>
<path d="M533.769 313.555H550.661V296.183H533.769V313.555Z" fill="white"/>
<path d="M506.742 313.555H523.634V296.183H506.742V313.555Z" fill="white"/>
<path d="M560.796 341.349H577.688V323.978H560.796V341.349Z" fill="white"/>
<path d="M533.769 341.349H550.661V323.978H533.769V341.349Z" fill="white"/>
<path d="M506.742 341.349H523.634V323.978H506.742V341.349Z" fill="white"/>
<path d="M446.467 278.812H463.359V261.441H446.467V278.812Z" fill="white"/>
<path d="M446.467 306.606H463.359V289.235H446.467V306.606Z" fill="white"/>
<path d="M446.467 334.4H463.359V317.029H446.467V334.4Z" fill="white"/>
<path d="M446.467 362.195H463.359V344.823H446.467V362.195Z" fill="white"/>
<path d="M620.93 278.812H637.822V261.441H620.93V278.812Z" fill="white"/>
<path d="M620.93 306.606H637.822V289.235H620.93V306.606Z" fill="white"/>
<path d="M620.93 334.4H637.822V317.029H620.93V334.4Z" fill="white"/>
<path d="M620.93 362.195H637.822V344.823H620.93V362.195Z" fill="white"/>
<path d="M750 398.063H0V399.8H750V398.063Z" fill="#3F3D56"/>
</svg>
