<svg width="50" height="53" viewBox="0 0 50 53" fill="none" xmlns="http://www.w3.org/2000/svg">
<circle cx="25" cy="25" r="25" fill="white"/>
<path d="M6.71986 26.8402L5.71986 17.1202C5.64006 16.6403 5.79994 16.1202 6.20005 15.8403C6.64007 15.4804 7.35991 15.3604 7.88005 15.9603C8.23999 16.4003 8.44004 17.7204 8.47994 18.0803C8.68 19.3604 8.91995 21.1604 8.95985 22.4402V22.7204C8.99975 23.2803 9.11973 23.8004 9.35997 24.3202C10.6401 27.1201 13.24 30.6801 13.24 30.6801L13.3998 30.8802C13.5198 31.0401 13.7199 31.0803 13.8798 31.0002C14.0798 30.8802 14.1197 30.6402 14.0396 30.4801L10.5996 24.8802C10.2397 24.2402 10.4398 23.3602 11.1197 22.9603C11.7997 22.5602 12.6797 22.7602 13.0397 23.4003L16.6395 28.0002C16.8795 28.3202 17.3195 28.72 17.6395 28.9602C20.8794 31.2802 21.2796 33.6402 21.5594 34.8402C21.5594 34.8402 21.5993 35.1204 21.5993 35.4803C21.5993 35.8003 21.5993 36.2002 21.5193 36.6003L21.3192 40.4803C21.3192 40.7604 21.0792 41.0004 20.7991 41.0004L14.7592 40.9605C14.4791 40.9605 14.2391 40.7205 14.2391 40.4404L14.1191 37.2403L8.35991 30.3201C7.51977 29.4401 6.91991 28.4002 6.76005 27.2001L6.71986 26.8402ZM9.32 16.6002C9.43998 16.9601 9.47988 17.2801 9.55996 17.6002C9.76002 18.6802 9.99997 20.6802 10.0399 21.7202V22.0402C10.1599 21.9202 10.2798 21.8401 10.44 21.7601C10.5999 21.6401 10.7999 21.56 11 21.5201C11 21.5201 11 21.4802 11.0399 21.4802C10.9199 20.4802 10.56 18.5603 10.2798 17.6002C10.1199 17.1203 9.84007 16.8003 9.31994 16.6002L9.32 16.6002ZM11.2399 18.0003C11.3998 18.7202 11.7999 20.0804 11.9199 20.7604L12 21.2403V21.3603C12.2801 21.3603 12.5999 21.4404 12.88 21.5202C12.7999 20.8801 12.3599 19.5601 12.2 18.9602C12.0399 18.5204 11.76 18.1602 11.2399 18.0003L11.2399 18.0003ZM42.1199 15.9202C41.76 16.3603 41.5599 17.6803 41.52 18.0402C41.32 19.3204 41.08 21.1203 41.0401 22.4002V22.6803C41.0002 23.2403 40.8803 23.7604 40.64 24.2802C39.3599 27.0801 36.76 30.6401 36.76 30.6401L36.5999 30.8803C36.4799 31.0402 36.2798 31.0804 36.1199 31.0003C35.9199 30.8803 35.88 30.6404 35.9601 30.4802L39.4001 24.8804C39.76 24.2403 39.5599 23.3603 38.88 22.9604C38.2 22.5603 37.32 22.7604 36.9601 23.4004L33.3602 28.0003C33.1202 28.3203 32.6802 28.7202 32.3602 28.9604C29.1203 31.2804 28.7201 33.6404 28.4403 34.8404C28.4403 34.8404 28.4004 35.1205 28.4004 35.4804C28.4004 35.8005 28.4004 36.2003 28.4804 36.6004L28.6805 40.4804C28.6805 40.7606 28.9205 41.0005 29.2006 41.0005L35.2405 40.9606C35.5207 40.9606 35.7606 40.7207 35.7606 40.4405L35.8806 37.2405L41.6407 30.3205C42.4808 29.4405 43.0807 28.4006 43.2405 27.2005L43.2804 26.8406L44.2804 17.1206C44.3203 16.6407 44.1604 16.1605 43.8005 15.8405C43.3599 15.48 42.6401 15.3201 42.12 15.92L42.1199 15.9202ZM38.9999 21.5204C39.2 21.6005 39.4 21.7204 39.5599 21.8005C39.7198 21.8806 39.8401 22.0006 39.96 22.0807V21.7606C39.9999 20.7207 40.2402 18.7207 40.4399 17.6406C40.4798 17.3206 40.5599 16.9607 40.6799 16.6406C40.2 16.8005 39.88 17.1607 39.76 17.6406C39.4798 18.6002 39.1598 20.5203 38.9999 21.5203L38.9999 21.5204ZM37.9999 21.2402L38.08 20.7603C38.1601 20.0405 38.6001 18.7204 38.76 18.0003C38.2801 18.1601 37.9999 18.5203 37.84 19.0003C37.6802 19.6001 37.2402 20.9202 37.1601 21.5603C37.4402 21.4403 37.7201 21.4004 38.0401 21.4004C37.9999 21.3602 37.9999 21.3203 37.9999 21.2402L37.9999 21.2402ZM37.4798 12.9202L36.2 11.3602C36.1601 11.3203 36.1601 11.2403 36.2 11.2004L37.4801 9.60051C37.6001 9.48053 37.4801 9.28048 37.3203 9.28048H32.0398C31.9999 9.40045 31.9597 9.56061 31.9198 9.68059V9.72049L31.9597 9.76039C32.3998 10.1605 32.6397 10.7205 32.6397 11.3204C32.6397 11.9203 32.3998 12.4802 31.9199 12.8804L31.88 12.9203V12.9602C31.9199 13.0802 31.96 13.2001 31.9999 13.3201H37.2801C37.4799 13.2805 37.5998 13.0403 37.4799 12.9203L37.4798 12.9202ZM18.0798 12.8404V12.8005C17.6398 12.4004 17.3999 11.8405 17.3999 11.2405C17.3999 10.6407 17.6398 10.0807 18.1197 9.68055L18.1596 9.64065V9.60075C18.1197 9.48077 18.0796 9.36079 18.0397 9.24081L12.6797 9.24026C12.5199 9.24026 12.3996 9.44031 12.5199 9.56029L13.8 11.1203C13.8399 11.1602 13.8399 11.2403 13.8 11.2802L12.5199 12.88C12.3999 13 12.5199 13.2001 12.6797 13.2001H17.9599C17.9998 13.1203 18.0397 13.0003 18.0799 12.8404L18.0798 12.8404ZM18.1197 23.4004L19.1998 22.7205L20.2799 23.4004C20.4799 23.5204 20.7598 23.3605 20.68 23.1203L20.36 21.8804L21.3999 21.0004C21.6 20.8405 21.48 20.5604 21.24 20.5205L19.9599 20.4404L19.48 19.2403C19.3999 19.0004 19.0798 19.0004 19 19.2403L18.5201 20.4404L17.24 20.5205C17 20.5205 16.92 20.8405 17.0801 21.0004L18.0801 21.8405L17.7601 23.0805C17.6797 23.3204 17.9197 23.5205 18.1197 23.4005L18.1197 23.4004ZM26.9997 20.5603L25.7196 20.4802L25.2397 19.2802C25.1596 19.0402 24.8396 19.0402 24.7598 19.2802L24.2799 20.4802L22.9997 20.5603C22.7598 20.5603 22.6797 20.8803 22.8398 21.0402L23.8398 21.8804L23.5198 23.1203C23.4799 23.3602 23.7199 23.5603 23.9199 23.4004L25 22.7205L26.0801 23.4004C26.2801 23.5204 26.56 23.3605 26.4802 23.1203L26.1998 21.8404L27.1998 21.0003C27.3596 20.8803 27.2397 20.5603 26.9997 20.5603L26.9997 20.5603ZM32.7997 20.5603L31.5195 20.4802L31.0396 19.2802C30.9595 19.0402 30.6395 19.0402 30.5597 19.2802L30.0798 20.4802L28.7996 20.5603C28.5597 20.5603 28.4796 20.8803 28.6398 21.0402L29.6398 21.8804L29.3197 23.1203C29.2798 23.3602 29.5198 23.5603 29.7198 23.4004L30.7999 22.7205L31.88 23.4004C32.08 23.5204 32.3599 23.3605 32.2801 23.1203L31.9601 21.8804L32.9601 21.0402C33.1197 20.8803 33.0396 20.5603 32.7996 20.5603H32.7997ZM21.0397 28.1603L22.1197 27.4803L23.1998 28.1603C23.3999 28.2803 23.6797 28.1204 23.5999 27.8802L23.2799 26.6402L24.2799 25.8001C24.48 25.6402 24.36 25.3601 24.12 25.3202L22.8399 25.2401L22.36 24.04C22.2799 23.8001 21.9598 23.8001 21.88 24.04L21.4001 25.2401L20.12 25.3202C19.88 25.3202 19.8 25.6402 19.9601 25.8001L20.9601 26.6402L20.6401 27.8802C20.5597 28.1204 20.7997 28.3205 21.0396 28.1603H21.0397ZM29.8797 25.3204L28.5995 25.2404L28.1196 24.0403C28.0395 23.8003 27.7195 23.8003 27.6397 24.0403L27.1598 25.2404L25.8796 25.3204C25.6397 25.3204 25.5596 25.6405 25.7198 25.8004L26.7198 26.6405L26.3997 27.8804C26.3598 28.1204 26.5998 28.3204 26.7998 28.1606L27.8799 27.4806L28.96 28.1606C29.16 28.2805 29.4399 28.1207 29.3601 27.8804L29.0401 26.6405L30.0401 25.8004C30.2396 25.6405 30.1595 25.3603 29.8796 25.3204H29.8797ZM19.1197 10.4404C19.3998 10.2005 19.4796 9.84056 19.3197 9.48038L19.1998 9.16034C18.9997 8.68043 19.2798 8.16034 19.7597 8.04034L20.0798 7.96026C20.4397 7.88018 20.6797 7.56015 20.6797 7.20019V6.88015C20.7196 6.44014 21.0798 6.08023 21.5198 6.08023H21.6797L21.9997 6.12013H22.1596C22.4796 6.12013 22.7595 5.96025 22.8795 5.68011L23.0393 5.39998C23.1992 5.11984 23.4793 4.95996 23.7592 4.95996C23.9191 4.95996 24.0792 4.99986 24.2391 5.11984L24.5192 5.3199C24.6791 5.43988 24.8393 5.47978 24.9992 5.47978C25.159 5.47978 25.3192 5.43988 25.4791 5.3199L25.7592 5.11984C25.9191 4.99986 26.0792 4.95996 26.2391 4.95996C26.5193 4.95996 26.839 5.11984 26.959 5.39998L27.1189 5.68011C27.2798 6.04033 27.5597 6.20048 27.8797 6.20048H28.0396L28.3596 6.16058H28.5195C28.9595 6.16058 29.3194 6.52052 29.3596 6.96051V7.28055C29.3596 7.64048 29.6398 7.96051 29.9595 8.04062L30.2796 8.1207C30.7595 8.24068 30.9994 8.80066 30.7997 9.2407L30.6797 9.56073C30.5597 9.88077 30.6398 10.2806 30.8797 10.5208L31.1197 10.7209C31.4796 11.0409 31.4796 11.6408 31.1197 11.9608L30.8797 12.1608C30.5996 12.4008 30.5198 12.7607 30.6797 13.1209L30.7997 13.441C30.9997 13.9209 30.7196 14.441 30.2397 14.561L29.9196 14.6003C29.5597 14.6804 29.3197 15.0004 29.3197 15.3604V15.6804C29.2798 16.1204 28.9196 16.4803 28.4796 16.4803H28.3197L27.9997 16.4404H27.8398C27.5198 16.4404 27.2399 16.6003 27.12 16.8804L26.9601 17.1606C26.8002 17.4407 26.5201 17.6006 26.2402 17.6006C26.0803 17.6006 25.9202 17.5607 25.7603 17.4407L25.4802 17.2407C25.3203 17.1207 25.1601 17.0808 25.0003 17.0808C24.8404 17.0808 24.6802 17.1207 24.5203 17.2407L24.2396 17.4005C24.0798 17.5205 23.9196 17.5604 23.7597 17.5604C23.4796 17.5604 23.1598 17.4005 23.0399 17.1204L22.88 16.8403C22.7201 16.5601 22.44 16.4003 22.1601 16.4003H22.0003L21.6802 16.4402H21.5203C21.0803 16.4402 20.7204 16.0802 20.6802 15.6402V15.3202C20.6802 14.9603 20.4001 14.6402 20.0803 14.5601L19.7603 14.48C19.2804 14.3601 19.0404 13.8001 19.2402 13.36L19.3602 13.04C19.4802 12.72 19.4001 12.3201 19.1601 12.0799L18.9202 11.8799C18.5602 11.5598 18.5602 10.9599 18.9202 10.6399L19.1197 10.4404ZM22.3596 11.4804L24.3197 13.4404L27.6397 10.1204L26.6397 9.12045L24.3197 11.4404L23.3596 10.4804L22.3596 11.4804Z" fill="black"/>
</svg>
